G04 start of page 5 for group 9 layer_idx 4 *
G04 Title: (unknown), Intern *
G04 Creator: pcb-rnd 1.2.7 *
G04 CreationDate: 2018-01-15 01:10:50 UTC *
G04 For: newell *
G04 Format: Gerber/RS-274X *
G04 PCB-Dimensions: 625000 200000 *
G04 PCB-Coordinate-Origin: lower left *
%MOIN*%
%FSLAX25Y25*%
%LNGROUP9*%
%ADD36C,0.1181*%
%ADD35C,0.0433*%
%ADD34C,0.0280*%
%ADD33C,0.1000*%
%ADD32C,0.0600*%
%ADD31C,0.0001*%
G54D31*G36*
X342000Y193000D02*Y187000D01*
X348000D01*
Y193000D01*
X342000D01*
G37*
G54D32*X355000Y190000D03*
X365000D03*
X375000D03*
X385000D03*
G54D31*G36*
X247000Y193000D02*Y187000D01*
X253000D01*
Y193000D01*
X247000D01*
G37*
G54D32*X260000Y190000D03*
X270000D03*
X280000D03*
X290000D03*
G54D31*G36*
X342000Y13000D02*Y7000D01*
X348000D01*
Y13000D01*
X342000D01*
G37*
G36*
X247000D02*Y7000D01*
X253000D01*
Y13000D01*
X247000D01*
G37*
G54D32*X260000Y10000D03*
X270000D03*
X280000D03*
X290000D03*
X355000D03*
X365000D03*
X375000D03*
X385000D03*
G54D33*X379870Y82290D03*
X343010Y69230D03*
X336380Y82290D03*
X374490Y69230D03*
X335880Y100000D03*
X336380Y117710D03*
X343010Y130770D03*
X358750Y134710D03*
X374490Y130770D03*
X379870Y117710D03*
X380370Y100000D03*
X358750Y65290D03*
X284870Y82290D03*
X248010Y69230D03*
X241380Y82290D03*
X279490Y69230D03*
X263750Y65290D03*
X240880Y100000D03*
X241380Y117710D03*
X248010Y130770D03*
X263750Y134710D03*
X279490Y130770D03*
X284870Y117710D03*
X285370Y100000D03*
G54D31*G36*
X542000Y13000D02*Y7000D01*
X548000D01*
Y13000D01*
X542000D01*
G37*
G54D32*X555000Y10000D03*
X565000D03*
X575000D03*
X585000D03*
G54D31*G36*
X447000Y13000D02*Y7000D01*
X453000D01*
Y13000D01*
X447000D01*
G37*
G54D32*X460000Y10000D03*
X470000D03*
X480000D03*
X490000D03*
G54D31*G36*
X542000Y193000D02*Y187000D01*
X548000D01*
Y193000D01*
X542000D01*
G37*
G54D32*X555000Y190000D03*
X565000D03*
X575000D03*
X585000D03*
G54D31*G36*
X447000Y193000D02*Y187000D01*
X453000D01*
Y193000D01*
X447000D01*
G37*
G54D32*X460000Y190000D03*
X470000D03*
X480000D03*
X490000D03*
G54D31*G36*
X607000Y50500D02*Y44500D01*
X613000D01*
Y50500D01*
X607000D01*
G37*
G54D32*X610000Y57500D03*
G54D33*X579870Y82290D03*
X574490Y130770D03*
X579870Y117710D03*
X580370Y100000D03*
X574490Y69230D03*
X543010D03*
X536380Y82290D03*
X558750Y65290D03*
X535880Y100000D03*
X536380Y117710D03*
X543010Y130770D03*
X558750Y134710D03*
X484870Y82290D03*
X448010Y69230D03*
X441380Y82290D03*
X479490Y69230D03*
X440880Y100000D03*
X441380Y117710D03*
X448010Y130770D03*
X463750Y134710D03*
X479490Y130770D03*
X484870Y117710D03*
X485370Y100000D03*
X463750Y65290D03*
G54D31*G36*
X142000Y193000D02*Y187000D01*
X148000D01*
Y193000D01*
X142000D01*
G37*
G54D32*X155000Y190000D03*
X165000D03*
X175000D03*
X185000D03*
G54D31*G36*
X47000Y193000D02*Y187000D01*
X53000D01*
Y193000D01*
X47000D01*
G37*
G54D32*X60000Y190000D03*
X70000D03*
X80000D03*
X90000D03*
G54D33*X179500Y82290D03*
X142640Y69230D03*
X174120D03*
X158380Y65290D03*
X136010Y82290D03*
X84870D03*
X48010Y69230D03*
X41380Y82290D03*
X79490Y69230D03*
X63750Y65290D03*
X135510Y100000D03*
X180000D03*
X40880D03*
X85370D03*
X136010Y117710D03*
X41380D03*
X84870D03*
X142640Y130770D03*
X48010D03*
X63750Y134710D03*
X79490Y130770D03*
X158380Y134710D03*
X174120Y130770D03*
X179500Y117710D03*
G54D31*G36*
X142000Y13000D02*Y7000D01*
X148000D01*
Y13000D01*
X142000D01*
G37*
G54D32*X60000Y10000D03*
X70000D03*
X80000D03*
X90000D03*
X155000D03*
X165000D03*
X175000D03*
X185000D03*
G54D31*G36*
X47000Y13000D02*Y7000D01*
X53000D01*
Y13000D01*
X47000D01*
G37*
G54D34*G54D35*G54D34*G54D36*G54D34*G54D36*G54D34*G54D35*G54D34*G54D36*G54D35*G54D34*G54D36*M02*
