G04 start of page 14 for group 1 layer_idx 9 *
G04 Title: (unknown), top_silk *
G04 Creator: pcb-rnd 1.2.7 *
G04 CreationDate: 2018-01-15 01:10:50 UTC *
G04 For: newell *
G04 Format: Gerber/RS-274X *
G04 PCB-Dimensions: 625000 200000 *
G04 PCB-Coordinate-Origin: lower left *
%MOIN*%
%FSLAX25Y25*%
%LNTOPSILK*%
%ADD74C,0.0025*%
%ADD73C,0.0050*%
%ADD72C,0.0079*%
%ADD71C,0.0080*%
%ADD70C,0.0200*%
%ADD69C,0.0100*%
G54D69*X309177Y157530D02*X313177D01*
X316177Y159530D02*Y155530D01*
Y158530D02*X317177Y159530D01*
X320177D01*
X297177D02*X300177D01*
X305177D02*X302177D01*
X297177Y155530D02*X300177D01*
X302177D02*X305177D01*
X302177Y164530D02*Y155530D01*
X306177Y156530D02*Y158530D01*
X305177Y159530D02*X306177Y158530D01*
Y156530D02*X305177Y155530D01*
X290177Y159530D02*X293177D01*
Y155530D02*X290177D01*
X294177Y158530D02*Y156530D01*
X290177Y159530D02*Y151530D01*
X293177Y159530D02*X294177Y158530D01*
X293177Y155530D02*X294177Y156530D01*
X296177Y158530D02*Y156530D01*
Y158530D02*X297177Y159530D01*
X296177Y156530D02*X297177Y155530D01*
X322177Y159530D02*Y155530D01*
Y158530D02*X323177Y159530D01*
X325177D01*
X326177Y158530D02*X325177Y159530D01*
X326177Y158530D02*Y155530D01*
X328177Y158530D02*Y156530D01*
X329177Y155530D02*X332177D01*
X328177Y156530D02*X329177Y155530D01*
X332177D02*Y164530D01*
Y159530D02*X329177D01*
X328177Y158530D02*X329177Y159530D01*
X289177Y150530D02*G75*G03X291177Y150530I1000J0D01*G01*
G75*G03X289177Y150530I-1000J0D01*G01*
X301177Y165530D02*G75*G03X303177Y165530I1000J0D01*G01*
G75*G03X301177Y165530I-1000J0D01*G01*
X331177D02*G75*G03X333177Y165530I1000J0D01*G01*
G75*G03X331177Y165530I-1000J0D01*G01*
X304677Y163030D02*Y161530D01*
Y163030D02*X305177Y163530D01*
X305677D01*
X306177Y163030D01*
Y161530D01*
Y163030D02*X306677Y163530D01*
X307177D01*
X307677Y163030D01*
Y161530D01*
X304177Y163530D02*X304677Y163030D01*
X310377Y163530D02*X310877Y163030D01*
X309377Y163530D02*X310377D01*
X308877Y163030D02*X309377Y163530D01*
X308877Y163030D02*Y162030D01*
X309377Y161530D01*
X310877Y163530D02*Y162030D01*
X311377Y161530D01*
X309377D02*X310377D01*
X310877Y162030D01*
X314577Y165530D02*Y161530D01*
X314077D02*X314577Y162030D01*
X313077Y161530D02*X314077D01*
X312577Y162030D02*X313077Y161530D01*
X312577Y163030D02*Y162030D01*
Y163030D02*X313077Y163530D01*
X314077D01*
X314577Y163030D01*
X316277Y161530D02*X317777D01*
X315777Y162030D02*X316277Y161530D01*
X315777Y163030D02*Y162030D01*
Y163030D02*X316277Y163530D01*
X317277D01*
X317777Y163030D01*
X315777Y162530D02*X317777D01*
Y163030D02*Y162530D01*
X320777Y163530D02*Y162030D01*
X321277Y161530D01*
X321777D01*
X322277Y162030D01*
Y163530D02*Y162030D01*
X322777Y161530D01*
X323277D01*
X323777Y162030D01*
Y163530D02*Y162030D01*
X324977Y164530D02*Y164430D01*
Y163030D02*Y161530D01*
X326477Y165530D02*Y162030D01*
X326977Y161530D01*
X325977Y164030D02*X326977D01*
X327977Y165530D02*Y161530D01*
Y163030D02*X328477Y163530D01*
X329477D01*
X329977Y163030D01*
Y161530D01*
G54D70*X145000Y5000D02*X185000D01*
X145000Y15000D02*X185000D01*
G54D69*X150000D02*Y5000D01*
G54D70*X145000Y15000D02*G75*G03X145000Y5000I0J-5000D01*G01*
X185000D02*G75*G03X185000Y15000I0J5000D01*G01*
X145000Y185000D02*X185000D01*
X145000Y195000D02*X185000D01*
G54D69*X150000D02*Y185000D01*
G54D70*X145000Y195000D02*G75*G03X145000Y185000I0J-5000D01*G01*
X185000D02*G75*G03X185000Y195000I0J5000D01*G01*
X50000Y185000D02*X90000D01*
X50000Y195000D02*X90000D01*
G54D69*X55000D02*Y185000D01*
G54D70*X50000Y195000D02*G75*G03X50000Y185000I0J-5000D01*G01*
X90000D02*G75*G03X90000Y195000I0J5000D01*G01*
X50000Y5000D02*X90000D01*
X50000Y15000D02*X90000D01*
G54D69*X55000D02*Y5000D01*
G54D70*X50000Y15000D02*G75*G03X50000Y5000I0J-5000D01*G01*
X90000D02*G75*G03X90000Y15000I0J5000D01*G01*
G54D71*X82755Y40393D02*Y39607D01*
X77245Y40393D02*Y39607D01*
G54D72*X9094Y15000D02*G75*G03X20906Y15000I5906J0D01*G01*
G75*G03X9094Y15000I-5906J0D01*G01*
G54D69*X190880Y126250D02*Y75000D01*
X124630Y75630D02*Y126250D01*
Y75630D02*Y75000D01*
G54D73*X149790Y100000D02*X169470D01*
X159630Y90160D02*Y109840D01*
G54D74*X152559Y100000D02*G75*G03X166701Y100000I7071J0D01*G01*
G75*G03X152559Y100000I-7071J0D01*G01*
G54D73*X152672D02*G75*G03X166588Y100000I6958J0D01*G01*
G75*G03X152672Y100000I-6958J0D01*G01*
X115627Y100220D02*G75*G03X199893Y100220I42133J0D01*G01*
G75*G03X115627Y100220I-42133J0D01*G01*
X117051Y98670D02*G75*G03X198469Y98670I40709J0D01*G01*
G75*G03X117051Y98670I-40709J0D01*G01*
G54D69*X117540Y97820D02*G75*G03X197980Y97820I40220J0D01*G01*
G75*G03X117540Y97820I-40220J0D01*G01*
X115830Y100550D02*G75*G03X199690Y100550I41930J0D01*G01*
G75*G03X115830Y100550I-41930J0D01*G01*
X96250Y126250D02*Y75000D01*
X30000Y75630D02*Y126250D01*
Y75630D02*Y75000D01*
G54D73*X55160Y100000D02*X74840D01*
X65000Y90160D02*Y109840D01*
G54D74*X57929Y100000D02*G75*G03X72071Y100000I7071J0D01*G01*
G75*G03X57929Y100000I-7071J0D01*G01*
G54D73*X58042D02*G75*G03X71958Y100000I6958J0D01*G01*
G75*G03X58042Y100000I-6958J0D01*G01*
X20997Y100220D02*G75*G03X105263Y100220I42133J0D01*G01*
G75*G03X20997Y100220I-42133J0D01*G01*
X22421Y98670D02*G75*G03X103839Y98670I40709J0D01*G01*
G75*G03X22421Y98670I-40709J0D01*G01*
G54D69*X22910Y97820D02*G75*G03X103350Y97820I40220J0D01*G01*
G75*G03X22910Y97820I-40220J0D01*G01*
X21200Y100550D02*G75*G03X105060Y100550I41930J0D01*G01*
G75*G03X21200Y100550I-41930J0D01*G01*
G54D71*X177755Y40393D02*Y39607D01*
X172245Y40393D02*Y39607D01*
G54D72*X9094Y185000D02*G75*G03X20906Y185000I5906J0D01*G01*
G75*G03X9094Y185000I-5906J0D01*G01*
G54D70*X450000Y185000D02*X490000D01*
X450000Y195000D02*X490000D01*
G54D69*X455000D02*Y185000D01*
G54D70*X450000Y195000D02*G75*G03X450000Y185000I0J-5000D01*G01*
X490000D02*G75*G03X490000Y195000I0J5000D01*G01*
G54D69*X496250Y126250D02*Y75000D01*
X430000Y75630D02*Y126250D01*
Y75630D02*Y75000D01*
G54D73*X455160Y100000D02*X474840D01*
X465000Y90160D02*Y109840D01*
G54D74*X457929Y100000D02*G75*G03X472071Y100000I7071J0D01*G01*
G75*G03X457929Y100000I-7071J0D01*G01*
G54D73*X458042D02*G75*G03X471958Y100000I6958J0D01*G01*
G75*G03X458042Y100000I-6958J0D01*G01*
X420997Y100220D02*G75*G03X505263Y100220I42133J0D01*G01*
G75*G03X420997Y100220I-42133J0D01*G01*
X422421Y98670D02*G75*G03X503839Y98670I40709J0D01*G01*
G75*G03X422421Y98670I-40709J0D01*G01*
G54D69*X422910Y97820D02*G75*G03X503350Y97820I40220J0D01*G01*
G75*G03X422910Y97820I-40220J0D01*G01*
X421200Y100550D02*G75*G03X505060Y100550I41930J0D01*G01*
G75*G03X421200Y100550I-41930J0D01*G01*
G54D70*X545000Y5000D02*X585000D01*
X545000Y15000D02*X585000D01*
G54D69*X550000D02*Y5000D01*
G54D70*X545000Y15000D02*G75*G03X545000Y5000I0J-5000D01*G01*
X585000D02*G75*G03X585000Y15000I0J5000D01*G01*
X545000Y185000D02*X585000D01*
X545000Y195000D02*X585000D01*
G54D69*X550000D02*Y185000D01*
G54D70*X545000Y195000D02*G75*G03X545000Y185000I0J-5000D01*G01*
X585000D02*G75*G03X585000Y195000I0J5000D01*G01*
X450000Y5000D02*X490000D01*
X450000Y15000D02*X490000D01*
G54D69*X455000D02*Y5000D01*
G54D70*X450000Y15000D02*G75*G03X450000Y5000I0J-5000D01*G01*
X490000D02*G75*G03X490000Y15000I0J5000D01*G01*
G54D69*X591250Y126250D02*Y75000D01*
X525000Y75630D02*Y126250D01*
Y75630D02*Y75000D01*
G54D73*X550160Y100000D02*X569840D01*
X560000Y90160D02*Y109840D01*
G54D74*X552929Y100000D02*G75*G03X567071Y100000I7071J0D01*G01*
G75*G03X552929Y100000I-7071J0D01*G01*
G54D73*X553042D02*G75*G03X566958Y100000I6958J0D01*G01*
G75*G03X553042Y100000I-6958J0D01*G01*
X515997Y100220D02*G75*G03X600263Y100220I42133J0D01*G01*
G75*G03X515997Y100220I-42133J0D01*G01*
X517421Y98670D02*G75*G03X598839Y98670I40709J0D01*G01*
G75*G03X517421Y98670I-40709J0D01*G01*
G54D69*X517910Y97820D02*G75*G03X598350Y97820I40220J0D01*G01*
G75*G03X517910Y97820I-40220J0D01*G01*
X516200Y100550D02*G75*G03X600060Y100550I41930J0D01*G01*
G75*G03X516200Y100550I-41930J0D01*G01*
G54D71*X482755Y40393D02*Y39607D01*
X477245Y40393D02*Y39607D01*
X577755Y40393D02*Y39607D01*
X572245Y40393D02*Y39607D01*
G54D70*X615000Y57500D02*Y47500D01*
X605000Y57500D02*Y47500D01*
G54D69*Y52500D02*X615000D01*
G54D70*X605000Y47500D02*G75*G03X615000Y47500I5000J0D01*G01*
Y57500D02*G75*G03X605000Y57500I-5000J0D01*G01*
G54D72*X604094Y15000D02*G75*G03X615906Y15000I5906J0D01*G01*
G75*G03X604094Y15000I-5906J0D01*G01*
Y185000D02*G75*G03X615906Y185000I5906J0D01*G01*
G75*G03X604094Y185000I-5906J0D01*G01*
G54D70*X345000Y5000D02*X385000D01*
X345000Y15000D02*X385000D01*
G54D69*X350000D02*Y5000D01*
G54D70*X345000Y15000D02*G75*G03X345000Y5000I0J-5000D01*G01*
X385000D02*G75*G03X385000Y15000I0J5000D01*G01*
X250000Y5000D02*X290000D01*
X250000Y15000D02*X290000D01*
G54D69*X255000D02*Y5000D01*
G54D70*X250000Y15000D02*G75*G03X250000Y5000I0J-5000D01*G01*
X290000D02*G75*G03X290000Y15000I0J5000D01*G01*
G54D71*X282755Y40393D02*Y39607D01*
X277245Y40393D02*Y39607D01*
X377755Y40393D02*Y39607D01*
X372245Y40393D02*Y39607D01*
G54D69*X296250Y126250D02*Y75000D01*
X230000Y75630D02*Y126250D01*
Y75630D02*Y75000D01*
G54D73*X255160Y100000D02*X274840D01*
X265000Y90160D02*Y109840D01*
G54D74*X257929Y100000D02*G75*G03X272071Y100000I7071J0D01*G01*
G75*G03X257929Y100000I-7071J0D01*G01*
G54D73*X258042D02*G75*G03X271958Y100000I6958J0D01*G01*
G75*G03X258042Y100000I-6958J0D01*G01*
X220997Y100220D02*G75*G03X305263Y100220I42133J0D01*G01*
G75*G03X220997Y100220I-42133J0D01*G01*
X222421Y98670D02*G75*G03X303839Y98670I40709J0D01*G01*
G75*G03X222421Y98670I-40709J0D01*G01*
G54D69*X222910Y97820D02*G75*G03X303350Y97820I40220J0D01*G01*
G75*G03X222910Y97820I-40220J0D01*G01*
X221200Y100550D02*G75*G03X305060Y100550I41930J0D01*G01*
G75*G03X221200Y100550I-41930J0D01*G01*
G54D70*X345000Y185000D02*X385000D01*
X345000Y195000D02*X385000D01*
G54D69*X350000D02*Y185000D01*
G54D70*X345000Y195000D02*G75*G03X345000Y185000I0J-5000D01*G01*
X385000D02*G75*G03X385000Y195000I0J5000D01*G01*
X250000Y185000D02*X290000D01*
X250000Y195000D02*X290000D01*
G54D69*X255000D02*Y185000D01*
G54D70*X250000Y195000D02*G75*G03X250000Y185000I0J-5000D01*G01*
X290000D02*G75*G03X290000Y195000I0J5000D01*G01*
G54D69*X391250Y126250D02*Y75000D01*
X325000Y75630D02*Y126250D01*
Y75630D02*Y75000D01*
G54D73*X350160Y100000D02*X369840D01*
X360000Y90160D02*Y109840D01*
G54D74*X352929Y100000D02*G75*G03X367071Y100000I7071J0D01*G01*
G75*G03X352929Y100000I-7071J0D01*G01*
G54D73*X353042D02*G75*G03X366958Y100000I6958J0D01*G01*
G75*G03X353042Y100000I-6958J0D01*G01*
X315997Y100220D02*G75*G03X400263Y100220I42133J0D01*G01*
G75*G03X315997Y100220I-42133J0D01*G01*
X317421Y98670D02*G75*G03X398839Y98670I40709J0D01*G01*
G75*G03X317421Y98670I-40709J0D01*G01*
G54D69*X317910Y97820D02*G75*G03X398350Y97820I40220J0D01*G01*
G75*G03X317910Y97820I-40220J0D01*G01*
X316200Y100550D02*G75*G03X400060Y100550I41930J0D01*G01*
G75*G03X316200Y100550I-41930J0D01*G01*
X141700Y21000D02*X143000D01*
X141000Y21700D02*X141700Y21000D01*
X141000Y24300D02*Y21700D01*
Y24300D02*X141700Y25000D01*
X143000D01*
X144200Y24500D02*Y21500D01*
Y24500D02*X144700Y25000D01*
X145700D01*
X146200Y24500D01*
Y21500D01*
X145700Y21000D02*X146200Y21500D01*
X144700Y21000D02*X145700D01*
X144200Y21500D02*X144700Y21000D01*
X147400Y25000D02*Y21000D01*
Y25000D02*X149900Y21000D01*
Y25000D02*Y21000D01*
X151100Y25000D02*Y21000D01*
Y25000D02*X153600Y21000D01*
Y25000D02*Y21000D01*
X154800Y25000D02*X156800D01*
X154800D02*Y23000D01*
X155300Y23500D01*
X156300D01*
X156800Y23000D01*
Y21500D01*
X156300Y21000D02*X156800Y21500D01*
X155300Y21000D02*X156300D01*
X154800Y21500D02*X155300Y21000D01*
X180350Y41850D02*Y39850D01*
Y41850D02*X180850Y42350D01*
X181850D01*
X182350Y41850D02*X181850Y42350D01*
X182350Y41850D02*Y40350D01*
X180350D02*X184350D01*
X182350Y41150D02*X184350Y42350D01*
X180850Y43550D02*X180350Y44050D01*
Y45550D02*Y44050D01*
Y45550D02*X180850Y46050D01*
X181850D01*
X184350Y43550D02*X181850Y46050D01*
X184350D02*Y43550D01*
X141700Y176000D02*X143000D01*
X141000Y176700D02*X141700Y176000D01*
X141000Y179300D02*Y176700D01*
Y179300D02*X141700Y180000D01*
X143000D01*
X144200Y179500D02*Y176500D01*
Y179500D02*X144700Y180000D01*
X145700D01*
X146200Y179500D01*
Y176500D01*
X145700Y176000D02*X146200Y176500D01*
X144700Y176000D02*X145700D01*
X144200Y176500D02*X144700Y176000D01*
X147400Y180000D02*Y176000D01*
Y180000D02*X149900Y176000D01*
Y180000D02*Y176000D01*
X151100Y180000D02*Y176000D01*
Y180000D02*X153600Y176000D01*
Y180000D02*Y176000D01*
X154800Y177500D02*X156800Y180000D01*
X154800Y177500D02*X157300D01*
X156800Y180000D02*Y176000D01*
X46700D02*X48000D01*
X46000Y176700D02*X46700Y176000D01*
X46000Y179300D02*Y176700D01*
Y179300D02*X46700Y180000D01*
X48000D01*
X49200Y179500D02*Y176500D01*
Y179500D02*X49700Y180000D01*
X50700D01*
X51200Y179500D01*
Y176500D01*
X50700Y176000D02*X51200Y176500D01*
X49700Y176000D02*X50700D01*
X49200Y176500D02*X49700Y176000D01*
X52400Y180000D02*Y176000D01*
Y180000D02*X54900Y176000D01*
Y180000D02*Y176000D01*
X56100Y180000D02*Y176000D01*
Y180000D02*X58600Y176000D01*
Y180000D02*Y176000D01*
X59800Y179500D02*X60300Y180000D01*
X61800D01*
X62300Y179500D01*
Y178500D01*
X59800Y176000D02*X62300Y178500D01*
X59800Y176000D02*X62300D01*
X11846Y187120D02*Y183120D01*
X14346Y187120D02*Y183120D01*
X11846Y185120D02*X14346D01*
X15546Y186620D02*X16046Y187120D01*
X17546D01*
X18046Y186620D01*
Y185620D01*
X15546Y183120D02*X18046Y185620D01*
X15546Y183120D02*X18046D01*
X46700Y21000D02*X48000D01*
X46000Y21700D02*X46700Y21000D01*
X46000Y24300D02*Y21700D01*
Y24300D02*X46700Y25000D01*
X48000D01*
X49200Y24500D02*Y21500D01*
Y24500D02*X49700Y25000D01*
X50700D01*
X51200Y24500D01*
Y21500D01*
X50700Y21000D02*X51200Y21500D01*
X49700Y21000D02*X50700D01*
X49200Y21500D02*X49700Y21000D01*
X52400Y25000D02*Y21000D01*
Y25000D02*X54900Y21000D01*
Y25000D02*Y21000D01*
X56100Y25000D02*Y21000D01*
Y25000D02*X58600Y21000D01*
Y25000D02*Y21000D01*
X59800Y24500D02*X60300Y25000D01*
X61300D01*
X61800Y24500D01*
X61300Y21000D02*X61800Y21500D01*
X60300Y21000D02*X61300D01*
X59800Y21500D02*X60300Y21000D01*
Y23200D02*X61300D01*
X61800Y24500D02*Y23700D01*
Y22700D02*Y21500D01*
Y22700D02*X61300Y23200D01*
X61800Y23700D02*X61300Y23200D01*
X85350Y41764D02*Y39764D01*
Y41764D02*X85850Y42264D01*
X86850D01*
X87350Y41764D02*X86850Y42264D01*
X87350Y41764D02*Y40264D01*
X85350D02*X89350D01*
X87350Y41064D02*X89350Y42264D01*
X86150Y43464D02*X85350Y44264D01*
X89350D01*
Y44964D02*Y43464D01*
X12000Y17000D02*Y13000D01*
X14500Y17000D02*Y13000D01*
X12000Y15000D02*X14500D01*
X15700Y16200D02*X16500Y17000D01*
Y13000D01*
X15700D02*X17200D01*
X341700Y21000D02*X343000D01*
X341000Y21700D02*X341700Y21000D01*
X341000Y24300D02*Y21700D01*
Y24300D02*X341700Y25000D01*
X343000D01*
X344200Y24500D02*Y21500D01*
Y24500D02*X344700Y25000D01*
X345700D01*
X346200Y24500D01*
Y21500D01*
X345700Y21000D02*X346200Y21500D01*
X344700Y21000D02*X345700D01*
X344200Y21500D02*X344700Y21000D01*
X347400Y25000D02*Y21000D01*
Y25000D02*X349900Y21000D01*
Y25000D02*Y21000D01*
X351100Y25000D02*Y21000D01*
Y25000D02*X353600Y21000D01*
Y25000D02*Y21000D01*
X355300D02*X356800Y23000D01*
Y24500D02*Y23000D01*
X356300Y25000D02*X356800Y24500D01*
X355300Y25000D02*X356300D01*
X354800Y24500D02*X355300Y25000D01*
X354800Y24500D02*Y23500D01*
X355300Y23000D01*
X356800D01*
X341700Y176000D02*X343000D01*
X341000Y176700D02*X341700Y176000D01*
X341000Y179300D02*Y176700D01*
Y179300D02*X341700Y180000D01*
X343000D01*
X344200Y179500D02*Y176500D01*
Y179500D02*X344700Y180000D01*
X345700D01*
X346200Y179500D01*
Y176500D01*
X345700Y176000D02*X346200Y176500D01*
X344700Y176000D02*X345700D01*
X344200Y176500D02*X344700Y176000D01*
X347400Y180000D02*Y176000D01*
Y180000D02*X349900Y176000D01*
Y180000D02*Y176000D01*
X351100Y180000D02*Y176000D01*
Y180000D02*X353600Y176000D01*
Y180000D02*Y176000D01*
X354800Y176500D02*X355300Y176000D01*
X354800Y177300D02*Y176500D01*
Y177300D02*X355500Y178000D01*
X356100D01*
X356800Y177300D01*
Y176500D01*
X356300Y176000D02*X356800Y176500D01*
X355300Y176000D02*X356300D01*
X354800Y178700D02*X355500Y178000D01*
X354800Y179500D02*Y178700D01*
Y179500D02*X355300Y180000D01*
X356300D01*
X356800Y179500D01*
Y178700D01*
X356100Y178000D02*X356800Y178700D01*
X246700Y21000D02*X248000D01*
X246000Y21700D02*X246700Y21000D01*
X246000Y24300D02*Y21700D01*
Y24300D02*X246700Y25000D01*
X248000D01*
X249200Y24500D02*Y21500D01*
Y24500D02*X249700Y25000D01*
X250700D01*
X251200Y24500D01*
Y21500D01*
X250700Y21000D02*X251200Y21500D01*
X249700Y21000D02*X250700D01*
X249200Y21500D02*X249700Y21000D01*
X252400Y25000D02*Y21000D01*
Y25000D02*X254900Y21000D01*
Y25000D02*Y21000D01*
X256100Y25000D02*Y21000D01*
Y25000D02*X258600Y21000D01*
Y25000D02*Y21000D01*
X260300D02*X262300Y25000D01*
X259800D02*X262300D01*
X246700Y176000D02*X248000D01*
X246000Y176700D02*X246700Y176000D01*
X246000Y179300D02*Y176700D01*
Y179300D02*X246700Y180000D01*
X248000D01*
X249200Y179500D02*Y176500D01*
Y179500D02*X249700Y180000D01*
X250700D01*
X251200Y179500D01*
Y176500D01*
X250700Y176000D02*X251200Y176500D01*
X249700Y176000D02*X250700D01*
X249200Y176500D02*X249700Y176000D01*
X252400Y180000D02*Y176000D01*
Y180000D02*X254900Y176000D01*
Y180000D02*Y176000D01*
X256100Y180000D02*Y176000D01*
Y180000D02*X258600Y176000D01*
Y180000D02*Y176000D01*
X261300Y180000D02*X261800Y179500D01*
X260300Y180000D02*X261300D01*
X259800Y179500D02*X260300Y180000D01*
X259800Y179500D02*Y176500D01*
X260300Y176000D01*
X261300Y178200D02*X261800Y177700D01*
X259800Y178200D02*X261300D01*
X260300Y176000D02*X261300D01*
X261800Y176500D01*
Y177700D02*Y176500D01*
X306120Y101250D02*X310120D01*
X306120D02*X310120Y103750D01*
X306120D02*X310120D01*
X306620Y104950D02*X306120Y105450D01*
Y106450D02*Y105450D01*
Y106450D02*X306620Y106950D01*
X310120Y106450D02*X309620Y106950D01*
X310120Y106450D02*Y105450D01*
X309620Y104950D02*X310120Y105450D01*
X307920Y106450D02*Y105450D01*
X306620Y106950D02*X307420D01*
X308420D02*X309620D01*
X308420D02*X307920Y106450D01*
X307420Y106950D02*X307920Y106450D01*
X285850Y41893D02*Y39893D01*
Y41893D02*X286350Y42393D01*
X287350D01*
X287850Y41893D02*X287350Y42393D01*
X287850Y41893D02*Y40393D01*
X285850D02*X289850D01*
X287850Y41193D02*X289850Y42393D01*
X286350Y43593D02*X285850Y44093D01*
Y45093D02*Y44093D01*
Y45093D02*X286350Y45593D01*
X289850Y45093D02*X289350Y45593D01*
X289850Y45093D02*Y44093D01*
X289350Y43593D02*X289850Y44093D01*
X287650Y45093D02*Y44093D01*
X286350Y45593D02*X287150D01*
X288150D02*X289350D01*
X288150D02*X287650Y45093D01*
X287150Y45593D02*X287650Y45093D01*
X200750Y101250D02*X204750D01*
X200750D02*X204750Y103750D01*
X200750D02*X204750D01*
X201250Y104950D02*X200750Y105450D01*
Y106950D02*Y105450D01*
Y106950D02*X201250Y107450D01*
X202250D01*
X204750Y104950D02*X202250Y107450D01*
X204750D02*Y104950D01*
X106120Y101250D02*X110120D01*
X106120D02*X110120Y103750D01*
X106120D02*X110120D01*
X106920Y104950D02*X106120Y105750D01*
X110120D01*
Y106450D02*Y104950D01*
X446700Y176000D02*X448000D01*
X446000Y176700D02*X446700Y176000D01*
X446000Y179300D02*Y176700D01*
Y179300D02*X446700Y180000D01*
X448000D01*
X449200Y179500D02*Y176500D01*
Y179500D02*X449700Y180000D01*
X450700D01*
X451200Y179500D01*
Y176500D01*
X450700Y176000D02*X451200Y176500D01*
X449700Y176000D02*X450700D01*
X449200Y176500D02*X449700Y176000D01*
X452400Y180000D02*Y176000D01*
Y180000D02*X454900Y176000D01*
Y180000D02*Y176000D01*
X456100Y180000D02*Y176000D01*
Y180000D02*X458600Y176000D01*
Y180000D02*Y176000D01*
X459800Y179200D02*X460600Y180000D01*
Y176000D01*
X459800D02*X461300D01*
X462500Y176500D02*X463000Y176000D01*
X462500Y179500D02*Y176500D01*
Y179500D02*X463000Y180000D01*
X464000D01*
X464500Y179500D01*
Y176500D01*
X464000Y176000D02*X464500Y176500D01*
X463000Y176000D02*X464000D01*
X462500Y177000D02*X464500Y179000D01*
X401120Y101250D02*X405120D01*
X401120D02*X405120Y103750D01*
X401120D02*X405120D01*
X403620Y104950D02*X401120Y106950D01*
X403620Y107450D02*Y104950D01*
X401120Y106950D02*X405120D01*
X541700Y21000D02*X543000D01*
X541000Y21700D02*X541700Y21000D01*
X541000Y24300D02*Y21700D01*
Y24300D02*X541700Y25000D01*
X543000D01*
X544200Y24500D02*Y21500D01*
Y24500D02*X544700Y25000D01*
X545700D01*
X546200Y24500D01*
Y21500D01*
X545700Y21000D02*X546200Y21500D01*
X544700Y21000D02*X545700D01*
X544200Y21500D02*X544700Y21000D01*
X547400Y25000D02*Y21000D01*
Y25000D02*X549900Y21000D01*
Y25000D02*Y21000D01*
X551100Y25000D02*Y21000D01*
Y25000D02*X553600Y21000D01*
Y25000D02*Y21000D01*
X554800Y24200D02*X555600Y25000D01*
Y21000D01*
X554800D02*X556300D01*
X557500Y24500D02*X558000Y25000D01*
X559000D01*
X559500Y24500D01*
X559000Y21000D02*X559500Y21500D01*
X558000Y21000D02*X559000D01*
X557500Y21500D02*X558000Y21000D01*
Y23200D02*X559000D01*
X559500Y24500D02*Y23700D01*
Y22700D02*Y21500D01*
Y22700D02*X559000Y23200D01*
X559500Y23700D02*X559000Y23200D01*
X541700Y176000D02*X543000D01*
X541000Y176700D02*X541700Y176000D01*
X541000Y179300D02*Y176700D01*
Y179300D02*X541700Y180000D01*
X543000D01*
X544200Y179500D02*Y176500D01*
Y179500D02*X544700Y180000D01*
X545700D01*
X546200Y179500D01*
Y176500D01*
X545700Y176000D02*X546200Y176500D01*
X544700Y176000D02*X545700D01*
X544200Y176500D02*X544700Y176000D01*
X547400Y180000D02*Y176000D01*
Y180000D02*X549900Y176000D01*
Y180000D02*Y176000D01*
X551100Y180000D02*Y176000D01*
Y180000D02*X553600Y176000D01*
Y180000D02*Y176000D01*
X554800Y179200D02*X555600Y180000D01*
Y176000D01*
X554800D02*X556300D01*
X557500Y179500D02*X558000Y180000D01*
X559500D01*
X560000Y179500D01*
Y178500D01*
X557500Y176000D02*X560000Y178500D01*
X557500Y176000D02*X560000D01*
X446700Y21000D02*X448000D01*
X446000Y21700D02*X446700Y21000D01*
X446000Y24300D02*Y21700D01*
Y24300D02*X446700Y25000D01*
X448000D01*
X449200Y24500D02*Y21500D01*
Y24500D02*X449700Y25000D01*
X450700D01*
X451200Y24500D01*
Y21500D01*
X450700Y21000D02*X451200Y21500D01*
X449700Y21000D02*X450700D01*
X449200Y21500D02*X449700Y21000D01*
X452400Y25000D02*Y21000D01*
Y25000D02*X454900Y21000D01*
Y25000D02*Y21000D01*
X456100Y25000D02*Y21000D01*
Y25000D02*X458600Y21000D01*
Y25000D02*Y21000D01*
X459800Y24200D02*X460600Y25000D01*
Y21000D01*
X459800D02*X461300D01*
X462500Y24200D02*X463300Y25000D01*
Y21000D01*
X462500D02*X464000D01*
X506120Y101250D02*X510120D01*
X506120D02*X510120Y103750D01*
X506120D02*X510120D01*
X506120Y106950D02*Y104950D01*
X508120D01*
X507620Y105450D01*
Y106450D02*Y105450D01*
Y106450D02*X508120Y106950D01*
X509620D01*
X510120Y106450D02*X509620Y106950D01*
X510120Y106450D02*Y105450D01*
X509620Y104950D02*X510120Y105450D01*
X485936Y41850D02*Y39850D01*
Y41850D02*X486436Y42350D01*
X487436D01*
X487936Y41850D02*X487436Y42350D01*
X487936Y41850D02*Y40350D01*
X485936D02*X489936D01*
X487936Y41150D02*X489936Y42350D01*
X485936Y45550D02*Y43550D01*
X487936D01*
X487436Y44050D01*
Y45050D02*Y44050D01*
Y45050D02*X487936Y45550D01*
X489436D01*
X489936Y45050D02*X489436Y45550D01*
X489936Y45050D02*Y44050D01*
X489436Y43550D02*X489936Y44050D01*
X600000Y45500D02*Y44200D01*
X599300Y43500D02*X600000Y44200D01*
X596700Y43500D02*X599300D01*
X596700D02*X596000Y44200D01*
Y45500D02*Y44200D01*
X596500Y46700D02*X599500D01*
X596500D02*X596000Y47200D01*
Y48200D02*Y47200D01*
Y48200D02*X596500Y48700D01*
X599500D01*
X600000Y48200D02*X599500Y48700D01*
X600000Y48200D02*Y47200D01*
X599500Y46700D02*X600000Y47200D01*
X596000Y49900D02*X600000D01*
X596000D02*X600000Y52400D01*
X596000D02*X600000D01*
X596000Y53600D02*X600000D01*
X596000D02*X600000Y56100D01*
X596000D02*X600000D01*
X596800Y57300D02*X596000Y58100D01*
X600000D01*
Y58800D02*Y57300D01*
X601120Y101250D02*X605120D01*
X601120D02*X605120Y103750D01*
X601120D02*X605120D01*
X601120Y106450D02*X601620Y106950D01*
X601120Y106450D02*Y105450D01*
X601620Y104950D02*X601120Y105450D01*
X601620Y104950D02*X604620D01*
X605120Y105450D01*
X602920Y106450D02*X603420Y106950D01*
X602920Y106450D02*Y104950D01*
X605120Y106450D02*Y105450D01*
Y106450D02*X604620Y106950D01*
X603420D02*X604620D01*
X380479Y42307D02*Y40307D01*
Y42307D02*X380979Y42807D01*
X381979D01*
X382479Y42307D02*X381979Y42807D01*
X382479Y42307D02*Y40807D01*
X380479D02*X384479D01*
X382479Y41607D02*X384479Y42807D01*
X382979Y44007D02*X380479Y46007D01*
X382979Y46507D02*Y44007D01*
X380479Y46007D02*X384479D01*
X581850Y41764D02*Y39764D01*
Y41764D02*X582350Y42264D01*
X583350D01*
X583850Y41764D02*X583350Y42264D01*
X583850Y41764D02*Y40264D01*
X581850D02*X585850D01*
X583850Y41064D02*X585850Y42264D01*
X581850Y44964D02*X582350Y45464D01*
X581850Y44964D02*Y43964D01*
X582350Y43464D02*X581850Y43964D01*
X582350Y43464D02*X585350D01*
X585850Y43964D01*
X583650Y44964D02*X584150Y45464D01*
X583650Y44964D02*Y43464D01*
X585850Y44964D02*Y43964D01*
Y44964D02*X585350Y45464D01*
X584150D02*X585350D01*
X607104Y16972D02*Y12972D01*
X609604Y16972D02*Y12972D01*
X607104Y14972D02*X609604D01*
X610804Y14472D02*X612804Y16972D01*
X610804Y14472D02*X613304D01*
X612804Y16972D02*Y12972D01*
X607184Y186909D02*Y182909D01*
X609684Y186909D02*Y182909D01*
X607184Y184909D02*X609684D01*
X610884Y186409D02*X611384Y186909D01*
X612384D01*
X612884Y186409D01*
X612384Y182909D02*X612884Y183409D01*
X611384Y182909D02*X612384D01*
X610884Y183409D02*X611384Y182909D01*
Y185109D02*X612384D01*
X612884Y186409D02*Y185609D01*
Y184609D02*Y183409D01*
Y184609D02*X612384Y185109D01*
X612884Y185609D02*X612384Y185109D01*
M02*
