M48
INCH
T58C0.043
T57C0.028
%
T57
X034500Y019000
X035500Y019000
X036500Y019000
X037500Y019000
X038500Y019000
X025000Y019000
X026000Y019000
X027000Y019000
X028000Y019000
X029000Y019000
X034500Y001000
X025000Y001000
X026000Y001000
X027000Y001000
X028000Y001000
X029000Y001000
X035500Y001000
X036500Y001000
X037500Y001000
X038500Y001000
X054500Y001000
X055500Y001000
X056500Y001000
X057500Y001000
X058500Y001000
X045000Y001000
X046000Y001000
X047000Y001000
X048000Y001000
X049000Y001000
X054500Y019000
X055500Y019000
X056500Y019000
X057500Y019000
X058500Y019000
X045000Y019000
X046000Y019000
X047000Y019000
X048000Y019000
X049000Y019000
X061000Y004750
X061000Y005750
X014500Y019000
X015500Y019000
X016500Y019000
X017500Y019000
X018500Y019000
X005000Y019000
X006000Y019000
X007000Y019000
X008000Y019000
X009000Y019000
X014500Y001000
X006000Y001000
X007000Y001000
X008000Y001000
X009000Y001000
X015500Y001000
X016500Y001000
X017500Y001000
X018500Y001000
X005000Y001000
T58
X037987Y008229
X034301Y006923
X033638Y008229
X037449Y006923
X033588Y010000
X033638Y011771
X034301Y013077
X035875Y013471
X037449Y013077
X037987Y011771
X038037Y010000
X035875Y006529
X028487Y008229
X024801Y006923
X024138Y008229
X027949Y006923
X026375Y006529
X024088Y010000
X024138Y011771
X024801Y013077
X026375Y013471
X027949Y013077
X028487Y011771
X028537Y010000
X057987Y008229
X057449Y013077
X057987Y011771
X058037Y010000
X057449Y006923
X054301Y006923
X053638Y008229
X055875Y006529
X053588Y010000
X053638Y011771
X054301Y013077
X055875Y013471
X048487Y008229
X044801Y006923
X044138Y008229
X047949Y006923
X044088Y010000
X044138Y011771
X044801Y013077
X046375Y013471
X047949Y013077
X048487Y011771
X048537Y010000
X046375Y006529
X017950Y008229
X014264Y006923
X017412Y006923
X015838Y006529
X013601Y008229
X008487Y008229
X004801Y006923
X004138Y008229
X007949Y006923
X006375Y006529
X013551Y010000
X018000Y010000
X004088Y010000
X008537Y010000
X013601Y011771
X004138Y011771
X008487Y011771
X014264Y013077
X004801Y013077
X006375Y013471
X007949Y013077
X015838Y013471
X017412Y013077
X017950Y011771
M30
