G04 start of page 14 for group 1 layer_idx 9 *
G04 Title: (unknown), top_silk *
G04 Creator: pcb-rnd 1.2.7 *
G04 CreationDate: 2018-01-15 01:16:43 UTC *
G04 For: newell *
G04 Format: Gerber/RS-274X *
G04 PCB-Dimensions: 625000 200000 *
G04 PCB-Coordinate-Origin: lower left *
%MOIN*%
%FSLAX25Y25*%
%LNTOPSILK*%
%ADD77C,0.0079*%
%ADD76C,0.0200*%
%ADD75C,0.0080*%
%ADD74C,0.0100*%
G54D74*X63500Y157530D02*X67500D01*
X70500Y159530D02*Y155530D01*
Y158530D02*X71500Y159530D01*
X74500D01*
X51500D02*X54500D01*
X59500D02*X56500D01*
X51500Y155530D02*X54500D01*
X56500D02*X59500D01*
X56500Y164530D02*Y155530D01*
X60500Y156530D02*Y158530D01*
X59500Y159530D02*X60500Y158530D01*
Y156530D02*X59500Y155530D01*
X44500Y159530D02*X47500D01*
Y155530D02*X44500D01*
X48500Y158530D02*Y156530D01*
X44500Y159530D02*Y151530D01*
X47500Y159530D02*X48500Y158530D01*
X47500Y155530D02*X48500Y156530D01*
X50500Y158530D02*Y156530D01*
Y158530D02*X51500Y159530D01*
X50500Y156530D02*X51500Y155530D01*
X76500Y159530D02*Y155530D01*
Y158530D02*X77500Y159530D01*
X79500D01*
X80500Y158530D02*X79500Y159530D01*
X80500Y158530D02*Y155530D01*
X82500Y158530D02*Y156530D01*
X83500Y155530D02*X86500D01*
X82500Y156530D02*X83500Y155530D01*
X86500D02*Y164530D01*
Y159530D02*X83500D01*
X82500Y158530D02*X83500Y159530D01*
X43500Y150530D02*G75*G03X45500Y150530I1000J0D01*G01*
G75*G03X43500Y150530I-1000J0D01*G01*
X55500Y165530D02*G75*G03X57500Y165530I1000J0D01*G01*
G75*G03X55500Y165530I-1000J0D01*G01*
X85500D02*G75*G03X87500Y165530I1000J0D01*G01*
G75*G03X85500Y165530I-1000J0D01*G01*
G54D75*X59000Y163030D02*Y161530D01*
Y163030D02*X59500Y163530D01*
X60000D01*
X60500Y163030D01*
Y161530D01*
Y163030D02*X61000Y163530D01*
X61500D01*
X62000Y163030D01*
Y161530D01*
X58500Y163530D02*X59000Y163030D01*
X64700Y163530D02*X65200Y163030D01*
X63700Y163530D02*X64700D01*
X63200Y163030D02*X63700Y163530D01*
X63200Y163030D02*Y162030D01*
X63700Y161530D01*
X65200Y163530D02*Y162030D01*
X65700Y161530D01*
X63700D02*X64700D01*
X65200Y162030D01*
X68900Y165530D02*Y161530D01*
X68400D02*X68900Y162030D01*
X67400Y161530D02*X68400D01*
X66900Y162030D02*X67400Y161530D01*
X66900Y163030D02*Y162030D01*
Y163030D02*X67400Y163530D01*
X68400D01*
X68900Y163030D01*
X70600Y161530D02*X72100D01*
X70100Y162030D02*X70600Y161530D01*
X70100Y163030D02*Y162030D01*
Y163030D02*X70600Y163530D01*
X71600D01*
X72100Y163030D01*
X70100Y162530D02*X72100D01*
Y163030D02*Y162530D01*
X75100Y163530D02*Y162030D01*
X75600Y161530D01*
X76100D01*
X76600Y162030D01*
Y163530D02*Y162030D01*
X77100Y161530D01*
X77600D01*
X78100Y162030D01*
Y163530D02*Y162030D01*
X79300Y164530D02*Y164430D01*
Y163030D02*Y161530D01*
X80800Y165530D02*Y162030D01*
X81300Y161530D01*
X80300Y164030D02*X81300D01*
X82300Y165530D02*Y161530D01*
Y163030D02*X82800Y163530D01*
X83800D01*
X84300Y163030D01*
Y161530D01*
G54D76*X345000Y15000D02*X385000D01*
X345000Y5000D02*X385000D01*
G54D74*X380000Y15000D02*Y5000D01*
G54D76*X385000D02*G75*G03X385000Y15000I0J5000D01*G01*
X345000D02*G75*G03X345000Y5000I0J-5000D01*G01*
G54D74*X351500Y31900D02*Y18000D01*
X338700Y31900D02*X351500D01*
X338700D02*Y18000D01*
X351500D01*
X371400Y31900D02*Y18000D01*
X358600Y31900D02*X371400D01*
X358600D02*Y18000D01*
X371400D01*
X328500Y119500D02*X367500D01*
X328500D02*Y88500D01*
X367500D01*
Y119500D02*Y106500D01*
Y101500D02*Y88500D01*
Y106500D02*G75*G03X367500Y101500I0J-2500D01*G01*
X337900Y66050D02*X358100D01*
Y84950D02*Y66050D01*
X337900Y84950D02*X358100D01*
X337900Y73000D02*Y66050D01*
Y84950D02*Y78000D01*
X361300Y48300D02*Y34400D01*
X348500Y48300D02*X361300D01*
X348500D02*Y34400D01*
X361300D01*
X391400Y31900D02*Y18000D01*
X378600Y31900D02*X391400D01*
X378600D02*Y18000D01*
X391400D01*
X381400Y48300D02*Y34400D01*
X368600Y48300D02*X381400D01*
X368600D02*Y34400D01*
X381400D01*
G54D75*X391755Y41393D02*Y40607D01*
X386245Y41393D02*Y40607D01*
X375564Y91245D02*X376350D01*
X375564Y96755D02*X376350D01*
G54D77*X604094Y15000D02*G75*G03X615906Y15000I5906J0D01*G01*
G75*G03X604094Y15000I-5906J0D01*G01*
G54D75*X591583Y41707D02*Y40921D01*
X586073Y41707D02*Y40921D01*
G54D76*X605000Y46000D02*Y36000D01*
X615000Y46000D02*Y36000D01*
G54D74*X605000Y41000D02*X615000D01*
G54D76*Y46000D02*G75*G03X605000Y46000I-5000J0D01*G01*
Y36000D02*G75*G03X615000Y36000I5000J0D01*G01*
G54D74*X571400Y31900D02*Y18000D01*
X558600Y31900D02*X571400D01*
X558600D02*Y18000D01*
X571400D01*
X591400Y31900D02*Y18000D01*
X578600Y31900D02*X591400D01*
X578600D02*Y18000D01*
X591400D01*
G54D76*X545000Y15000D02*X585000D01*
X545000Y5000D02*X585000D01*
G54D74*X580000Y15000D02*Y5000D01*
G54D76*X585000D02*G75*G03X585000Y15000I0J5000D01*G01*
X545000D02*G75*G03X545000Y5000I0J-5000D01*G01*
G54D74*X561400Y48300D02*Y34400D01*
X548600Y48300D02*X561400D01*
X548600D02*Y34400D01*
X561400D01*
X581400Y48300D02*Y34400D01*
X568600Y48300D02*X581400D01*
X568600D02*Y34400D01*
X581400D01*
G54D77*X604094Y185000D02*G75*G03X615906Y185000I5906J0D01*G01*
G75*G03X604094Y185000I-5906J0D01*G01*
G54D74*X578600Y182000D02*Y168100D01*
X591400D01*
Y182000D01*
X578600D01*
G54D75*X530745Y165893D02*Y165107D01*
X536255Y165893D02*Y165107D01*
G54D76*X450000Y185000D02*X490000D01*
X450000Y195000D02*X490000D01*
G54D74*X455000D02*Y185000D01*
G54D76*X450000Y195000D02*G75*G03X450000Y185000I0J-5000D01*G01*
X490000D02*G75*G03X490000Y195000I0J5000D01*G01*
G54D74*X558600Y182000D02*Y168100D01*
X571400D01*
Y182000D01*
X558600D01*
X568600Y165600D02*Y151700D01*
X581400D01*
Y165600D01*
X568600D01*
X538600Y182000D02*Y168100D01*
X551400D01*
Y182000D01*
X538600D01*
X548600Y165600D02*Y151700D01*
X561400D01*
Y165600D01*
X548600D01*
G54D76*X545000Y185000D02*X585000D01*
X545000Y195000D02*X585000D01*
G54D74*X550000D02*Y185000D01*
G54D76*X545000Y195000D02*G75*G03X545000Y185000I0J-5000D01*G01*
X585000D02*G75*G03X585000Y195000I0J5000D01*G01*
G54D74*X443715Y182041D02*Y168141D01*
X456515D01*
Y182041D02*Y168141D01*
X443715Y182041D02*X456515D01*
X378600Y182000D02*Y168100D01*
X391400D01*
Y182000D01*
X378600D01*
X368600Y165600D02*Y151700D01*
X381400D01*
Y165600D01*
X368600D01*
X337900Y141950D02*X358100D01*
X337900D02*Y123050D01*
X358100D01*
Y141950D02*Y135000D01*
Y130000D02*Y123050D01*
X348600Y165600D02*Y151700D01*
X361400D01*
Y165600D01*
X348600D01*
X358600Y182000D02*Y168100D01*
X371400D01*
Y182000D01*
X358600D01*
X338600D02*Y168100D01*
X351400D01*
Y182000D01*
X338600D01*
G54D75*X330745Y165850D02*Y165064D01*
X336255Y165850D02*Y165064D01*
G54D76*X345000Y185000D02*X385000D01*
X345000Y195000D02*X385000D01*
G54D74*X350000D02*Y185000D01*
G54D76*X345000Y195000D02*G75*G03X345000Y185000I0J-5000D01*G01*
X385000D02*G75*G03X385000Y195000I0J5000D01*G01*
G54D75*X435792Y167846D02*Y167060D01*
X441302Y167846D02*Y167060D01*
G54D74*X496400Y31900D02*Y18000D01*
X483600Y31900D02*X496400D01*
X483600D02*Y18000D01*
X496400D01*
G54D76*X450000Y15000D02*X490000D01*
X450000Y5000D02*X490000D01*
G54D74*X485000Y15000D02*Y5000D01*
G54D76*X490000D02*G75*G03X490000Y15000I0J5000D01*G01*
X450000D02*G75*G03X450000Y5000I0J-5000D01*G01*
G54D75*X496755Y41636D02*Y40850D01*
X491245Y41636D02*Y40850D01*
G54D74*X551400Y31900D02*Y18000D01*
X538600Y31900D02*X551400D01*
X538600D02*Y18000D01*
X551400D01*
X528500Y119500D02*X567500D01*
X528500D02*Y88500D01*
X567500D01*
Y119500D02*Y106500D01*
Y101500D02*Y88500D01*
Y106500D02*G75*G03X567500Y101500I0J-2500D01*G01*
G54D75*X575607Y91245D02*X576393D01*
X575607Y96755D02*X576393D01*
G54D74*X537900Y141950D02*X558100D01*
X537900D02*Y123050D01*
X558100D01*
Y141950D02*Y135000D01*
Y130000D02*Y123050D01*
X458500Y145500D02*X497500D01*
X458500D02*Y114500D01*
X497500D01*
Y145500D02*Y132500D01*
Y127500D02*Y114500D01*
Y132500D02*G75*G03X497500Y127500I0J-2500D01*G01*
G54D75*X506607Y116745D02*X507393D01*
X506607Y122255D02*X507393D01*
G54D74*X537900Y66050D02*X558100D01*
Y84950D02*Y66050D01*
X537900Y84950D02*X558100D01*
X537900Y73000D02*Y66050D01*
Y84950D02*Y78000D01*
X452900Y66050D02*X473100D01*
Y84950D02*Y66050D01*
X452900Y84950D02*X473100D01*
X452900Y73000D02*Y66050D01*
Y84950D02*Y78000D01*
X476400Y31900D02*Y18000D01*
X463600Y31900D02*X476400D01*
X463600D02*Y18000D01*
X476400D01*
X456400Y31900D02*Y18000D01*
X443600Y31900D02*X456400D01*
X443600D02*Y18000D01*
X456400D01*
X466400Y48300D02*Y34400D01*
X453600Y48300D02*X466400D01*
X453600D02*Y34400D01*
X466400D01*
X486400Y48300D02*Y34400D01*
X473600Y48300D02*X486400D01*
X473600D02*Y34400D01*
X486400D01*
X258500Y145500D02*X297500D01*
X258500D02*Y114500D01*
X297500D01*
Y145500D02*Y132500D01*
Y127500D02*Y114500D01*
Y132500D02*G75*G03X297500Y127500I0J-2500D01*G01*
X252900Y66050D02*X273100D01*
Y84950D02*Y66050D01*
X252900Y84950D02*X273100D01*
X252900Y73000D02*Y66050D01*
Y84950D02*Y78000D01*
G54D76*X250000Y15000D02*X290000D01*
X250000Y5000D02*X290000D01*
G54D74*X285000Y15000D02*Y5000D01*
G54D76*X290000D02*G75*G03X290000Y15000I0J5000D01*G01*
X250000D02*G75*G03X250000Y5000I0J-5000D01*G01*
Y185000D02*X290000D01*
X250000Y195000D02*X290000D01*
G54D74*X255000D02*Y185000D01*
G54D76*X250000Y195000D02*G75*G03X250000Y185000I0J-5000D01*G01*
X290000D02*G75*G03X290000Y195000I0J5000D01*G01*
G54D74*X243600Y182000D02*Y168100D01*
X256400D01*
Y182000D01*
X243600D01*
G54D75*X235745Y167893D02*Y167107D01*
X241255Y167893D02*Y167107D01*
X306564Y116745D02*X307350D01*
X306564Y122255D02*X307350D01*
G54D74*X256400Y31900D02*Y18000D01*
X243600Y31900D02*X256400D01*
X243600D02*Y18000D01*
X256400D01*
X266400Y48300D02*Y34400D01*
X253600Y48300D02*X266400D01*
X253600D02*Y34400D01*
X266400D01*
X276400Y31900D02*Y18000D01*
X263600Y31900D02*X276400D01*
X263600D02*Y18000D01*
X276400D01*
X296400Y31900D02*Y18000D01*
X283600Y31900D02*X296400D01*
X283600D02*Y18000D01*
X296400D01*
X286400Y48300D02*Y34400D01*
X273600Y48300D02*X286400D01*
X273600D02*Y34400D01*
X286400D01*
G54D75*X296841Y41350D02*Y40564D01*
X291331Y41350D02*Y40564D01*
G54D77*X9094Y185000D02*G75*G03X20906Y185000I5906J0D01*G01*
G75*G03X9094Y185000I-5906J0D01*G01*
G54D76*X145000Y185000D02*X185000D01*
X145000Y195000D02*X185000D01*
G54D74*X150000D02*Y185000D01*
G54D76*X145000Y195000D02*G75*G03X145000Y185000I0J-5000D01*G01*
X185000D02*G75*G03X185000Y195000I0J5000D01*G01*
G54D74*X178600Y182000D02*Y168100D01*
X191400D01*
Y182000D01*
X178600D01*
G54D76*X50000Y185000D02*X90000D01*
X50000Y195000D02*X90000D01*
G54D74*X55000D02*Y185000D01*
G54D76*X50000Y195000D02*G75*G03X50000Y185000I0J-5000D01*G01*
X90000D02*G75*G03X90000Y195000I0J5000D01*G01*
G54D74*X138700Y182000D02*Y168100D01*
X151500D01*
Y182000D01*
X138700D01*
X158600D02*Y168100D01*
X171400D01*
Y182000D01*
X158600D01*
G54D76*X20000Y110000D02*Y80000D01*
X10000Y110000D02*Y80000D01*
G54D74*Y85000D02*X20000D01*
G54D76*X10000Y80000D02*G75*G03X20000Y80000I5000J0D01*G01*
Y110000D02*G75*G03X10000Y110000I-5000J0D01*G01*
G54D74*X33900Y66050D02*X54100D01*
Y84950D02*Y66050D01*
X33900Y84950D02*X54100D01*
X33900Y73000D02*Y66050D01*
Y84950D02*Y78000D01*
G54D76*X10000Y149000D02*Y139000D01*
X20000Y149000D02*Y139000D01*
G54D74*X10000Y144000D02*X20000D01*
G54D76*Y149000D02*G75*G03X10000Y149000I-5000J0D01*G01*
Y139000D02*G75*G03X20000Y139000I5000J0D01*G01*
G54D74*X55900Y66050D02*X76100D01*
Y84950D02*Y66050D01*
X55900Y84950D02*X76100D01*
X55900Y73000D02*Y66050D01*
Y84950D02*Y78000D01*
G54D75*X30607Y117255D02*X31393D01*
X30607Y111745D02*X31393D01*
G54D74*X137900Y141850D02*X158100D01*
X137900D02*Y122950D01*
X158100D01*
Y141850D02*Y134900D01*
Y129900D02*Y122950D01*
X40500Y88500D02*X79500D01*
Y119500D02*Y88500D01*
X40500Y119500D02*X79500D01*
X40500Y101500D02*Y88500D01*
Y119500D02*Y106500D01*
Y101500D02*G75*G03X40500Y106500I0J2500D01*G01*
X118500Y119500D02*X157500D01*
X118500D02*Y88500D01*
X157500D01*
Y119500D02*Y106500D01*
Y101500D02*Y88500D01*
Y106500D02*G75*G03X157500Y101500I0J-2500D01*G01*
G54D75*X130745Y165807D02*Y165021D01*
X136255Y165807D02*Y165021D01*
G54D74*X148600Y165600D02*Y151700D01*
X161400D01*
Y165600D01*
X148600D01*
X168500D02*Y151700D01*
X181300D01*
Y165600D01*
X168500D01*
G54D77*X9094Y15000D02*G75*G03X20906Y15000I5906J0D01*G01*
G75*G03X9094Y15000I-5906J0D01*G01*
G54D74*X181400Y48300D02*Y34400D01*
X168600Y48300D02*X181400D01*
X168600D02*Y34400D01*
X181400D01*
X191300Y31900D02*Y18000D01*
X178500Y31900D02*X191300D01*
X178500D02*Y18000D01*
X191300D01*
X161250Y48300D02*Y34400D01*
X148450Y48300D02*X161250D01*
X148450D02*Y34400D01*
X161250D01*
G54D75*X166064Y90245D02*X166850D01*
X166064Y95755D02*X166850D01*
X191755Y41393D02*Y40607D01*
X186245Y41393D02*Y40607D01*
G54D74*X151300Y31900D02*Y18000D01*
X138500Y31900D02*X151300D01*
X138500D02*Y18000D01*
X151300D01*
X171300Y31900D02*Y18000D01*
X158500Y31900D02*X171300D01*
X158500D02*Y18000D01*
X171300D01*
G54D76*X145000Y15000D02*X185000D01*
X145000Y5000D02*X185000D01*
G54D74*X180000Y15000D02*Y5000D01*
G54D76*X185000D02*G75*G03X185000Y15000I0J5000D01*G01*
X145000D02*G75*G03X145000Y5000I0J-5000D01*G01*
G54D74*X66400Y48400D02*Y34500D01*
X53600Y48400D02*X66400D01*
X53600D02*Y34500D01*
X66400D01*
X76400Y31900D02*Y18000D01*
X63600Y31900D02*X76400D01*
X63600D02*Y18000D01*
X76400D01*
G54D76*X50000Y15000D02*X90000D01*
X50000Y5000D02*X90000D01*
G54D74*X85000Y15000D02*Y5000D01*
G54D76*X90000D02*G75*G03X90000Y15000I0J5000D01*G01*
X50000D02*G75*G03X50000Y5000I0J-5000D01*G01*
G54D74*X56500Y31900D02*Y18000D01*
X43700Y31900D02*X56500D01*
X43700D02*Y18000D01*
X56500D01*
G54D75*X8000Y78000D02*Y76700D01*
X7300Y76000D02*X8000Y76700D01*
X4700Y76000D02*X7300D01*
X4700D02*X4000Y76700D01*
Y78000D02*Y76700D01*
X4500Y79200D02*X7500D01*
X4500D02*X4000Y79700D01*
Y80700D02*Y79700D01*
Y80700D02*X4500Y81200D01*
X7500D01*
X8000Y80700D02*X7500Y81200D01*
X8000Y80700D02*Y79700D01*
X7500Y79200D02*X8000Y79700D01*
X4000Y82400D02*X8000D01*
X4000D02*X8000Y84900D01*
X4000D02*X8000D01*
X4000Y86100D02*X8000D01*
X4000D02*X8000Y88600D01*
X4000D02*X8000D01*
X4800Y89800D02*X4000Y90600D01*
X8000D01*
Y91300D02*Y89800D01*
X36000Y72900D02*X39500D01*
X40000Y73400D01*
Y74400D02*Y73400D01*
Y74400D02*X39500Y74900D01*
X36000D02*X39500D01*
X40000Y76600D02*X36000Y78600D01*
Y76100D01*
X8000Y136500D02*Y135200D01*
X7300Y134500D02*X8000Y135200D01*
X4700Y134500D02*X7300D01*
X4700D02*X4000Y135200D01*
Y136500D02*Y135200D01*
X4500Y137700D02*X7500D01*
X4500D02*X4000Y138200D01*
Y139200D02*Y138200D01*
Y139200D02*X4500Y139700D01*
X7500D01*
X8000Y139200D02*X7500Y139700D01*
X8000Y139200D02*Y138200D01*
X7500Y137700D02*X8000Y138200D01*
X4000Y140900D02*X8000D01*
X4000D02*X8000Y143400D01*
X4000D02*X8000D01*
X4000Y144600D02*X8000D01*
X4000D02*X8000Y147100D01*
X4000D02*X8000D01*
X4800Y148300D02*X4000Y149100D01*
X8000D01*
Y149800D02*Y148300D01*
X6500Y151000D02*X4000Y153000D01*
X6500Y153500D02*Y151000D01*
X4000Y153000D02*X8000D01*
X12000Y187000D02*Y183000D01*
X14500Y187000D02*Y183000D01*
X12000Y185000D02*X14500D01*
X15700Y186500D02*X16200Y187000D01*
X17700D01*
X18200Y186500D01*
Y185500D01*
X15700Y183000D02*X18200Y185500D01*
X15700Y183000D02*X18200D01*
X27200Y188000D02*X28500D01*
X26500Y188700D02*X27200Y188000D01*
X26500Y191300D02*Y188700D01*
Y191300D02*X27200Y192000D01*
X28500D01*
X29700Y191500D02*Y188500D01*
Y191500D02*X30200Y192000D01*
X31200D01*
X31700Y191500D01*
Y188500D01*
X31200Y188000D02*X31700Y188500D01*
X30200Y188000D02*X31200D01*
X29700Y188500D02*X30200Y188000D01*
X32900Y192000D02*Y188000D01*
Y192000D02*X35400Y188000D01*
Y192000D02*Y188000D01*
X36600Y192000D02*Y188000D01*
Y192000D02*X39100Y188000D01*
Y192000D02*Y188000D01*
X40300Y191500D02*X40800Y192000D01*
X42300D01*
X42800Y191500D01*
Y190500D01*
X40300Y188000D02*X42800Y190500D01*
X40300Y188000D02*X42800D01*
X33093Y119150D02*X34393D01*
X32393Y119850D02*X33093Y119150D01*
X32393Y122450D02*Y119850D01*
Y122450D02*X33093Y123150D01*
X34393D01*
X35593Y122350D02*X36393Y123150D01*
Y119150D01*
X35593D02*X37093D01*
X154000Y134900D02*X157500D01*
X154000D02*X153500Y134400D01*
Y133400D01*
X154000Y132900D01*
X157500D01*
X153500Y131200D02*X155500Y129700D01*
X157000D01*
X157500Y130200D02*X157000Y129700D01*
X157500Y131200D02*Y130200D01*
X157000Y131700D02*X157500Y131200D01*
X156000Y131700D02*X157000D01*
X156000D02*X155500Y131200D01*
Y129700D01*
X150000Y106750D02*X153500D01*
X150000D02*X149500Y106250D01*
Y105250D01*
X150000Y104750D01*
X153500D01*
X153000Y103550D02*X153500Y103050D01*
Y101550D01*
X153000Y101050D01*
X152000D02*X153000D01*
X149500Y103550D02*X152000Y101050D01*
X149500Y103550D02*Y101050D01*
X57500Y73000D02*X61000D01*
X61500Y73500D01*
Y74500D02*Y73500D01*
Y74500D02*X61000Y75000D01*
X57500D02*X61000D01*
Y76200D02*X61500Y76700D01*
X60200Y76200D02*X61000D01*
X60200D02*X59500Y76900D01*
Y77500D02*Y76900D01*
Y77500D02*X60200Y78200D01*
X61000D01*
X61500Y77700D02*X61000Y78200D01*
X61500Y77700D02*Y76700D01*
X58800Y76200D02*X59500Y76900D01*
X58000Y76200D02*X58800D01*
X58000D02*X57500Y76700D01*
Y77700D02*Y76700D01*
Y77700D02*X58000Y78200D01*
X58800D01*
X59500Y77500D02*X58800Y78200D01*
X383400Y165100D02*X386400D01*
X386900Y164600D01*
Y163600D01*
X386400Y163100D01*
X383900D02*X386400D01*
X382900Y164100D02*X383900Y163100D01*
X382900Y164600D02*Y164100D01*
X383400Y165100D02*X382900Y164600D01*
X384400Y164100D02*X382900Y163100D01*
X386400Y161900D02*X386900Y161400D01*
Y159900D01*
X386400Y159400D01*
X385400D02*X386400D01*
X382900Y161900D02*X385400Y159400D01*
X382900Y161900D02*Y159400D01*
X386900Y156700D02*X386400Y156200D01*
X386900Y157700D02*Y156700D01*
X386400Y158200D02*X386900Y157700D01*
X383400Y158200D02*X386400D01*
X383400D02*X382900Y157700D01*
X385100Y156700D02*X384600Y156200D01*
X385100Y158200D02*Y156700D01*
X382900Y157700D02*Y156700D01*
X383400Y156200D01*
X384600D01*
X360000Y106500D02*X363500D01*
X360000D02*X359500Y106000D01*
Y105000D01*
X360000Y104500D01*
X363500D01*
X361000Y103300D02*X363500Y101300D01*
X361000Y103300D02*Y100800D01*
X359500Y101300D02*X363500D01*
X353500Y136500D02*X357000D01*
X353500D02*X353000Y136000D01*
Y135000D01*
X353500Y134500D01*
X357000D01*
X356200Y133300D02*X357000Y132500D01*
X353000D02*X357000D01*
X353000Y133300D02*Y131800D01*
X356500Y130600D02*X357000Y130100D01*
Y128600D01*
X356500Y128100D01*
X355500D02*X356500D01*
X353000Y130600D02*X355500Y128100D01*
X353000Y130600D02*Y128100D01*
X373679Y99150D02*X374979D01*
X372979Y99850D02*X373679Y99150D01*
X372979Y102450D02*Y99850D01*
Y102450D02*X373679Y103150D01*
X374979D01*
X376179Y100650D02*X378179Y103150D01*
X376179Y100650D02*X378679D01*
X378179Y103150D02*Y99150D01*
X289000Y133000D02*X292500D01*
X289000D02*X288500Y132500D01*
Y131500D01*
X289000Y131000D01*
X292500D01*
X292000Y129800D02*X292500Y129300D01*
Y128300D01*
X292000Y127800D01*
X288500Y128300D02*X289000Y127800D01*
X288500Y129300D02*Y128300D01*
X289000Y129800D02*X288500Y129300D01*
X290700D02*Y128300D01*
X291200Y127800D02*X292000D01*
X289000D02*X290200D01*
X290700Y128300D01*
X291200Y127800D02*X290700Y128300D01*
X305507Y124150D02*X306807D01*
X304807Y124850D02*X305507Y124150D01*
X304807Y127450D02*Y124850D01*
Y127450D02*X305507Y128150D01*
X306807D01*
X308007Y127650D02*X308507Y128150D01*
X309507D01*
X310007Y127650D01*
X309507Y124150D02*X310007Y124650D01*
X308507Y124150D02*X309507D01*
X308007Y124650D02*X308507Y124150D01*
Y126350D02*X309507D01*
X310007Y127650D02*Y126850D01*
Y125850D02*Y124650D01*
Y125850D02*X309507Y126350D01*
X310007Y126850D02*X309507Y126350D01*
X363400Y165100D02*X366400D01*
X366900Y164600D01*
Y163600D01*
X366400Y163100D01*
X363900D02*X366400D01*
X362900Y164100D02*X363900Y163100D01*
X362900Y164600D02*Y164100D01*
X363400Y165100D02*X362900Y164600D01*
X364400Y164100D02*X362900Y163100D01*
X366400Y161900D02*X366900Y161400D01*
Y159900D01*
X366400Y159400D01*
X365400D02*X366400D01*
X362900Y161900D02*X365400Y159400D01*
X362900Y161900D02*Y159400D01*
X363400Y158200D02*X362900Y157700D01*
X363400Y158200D02*X364200D01*
X364900Y157500D01*
Y156900D01*
X364200Y156200D01*
X363400D02*X364200D01*
X362900Y156700D02*X363400Y156200D01*
X362900Y157700D02*Y156700D01*
X365600Y158200D02*X364900Y157500D01*
X365600Y158200D02*X366400D01*
X366900Y157700D01*
Y156700D01*
X366400Y156200D01*
X365600D02*X366400D01*
X364900Y156900D02*X365600Y156200D01*
X373400Y181000D02*X376400D01*
X376900Y180500D01*
Y179500D01*
X376400Y179000D01*
X373900D02*X376400D01*
X372900Y180000D02*X373900Y179000D01*
X372900Y180500D02*Y180000D01*
X373400Y181000D02*X372900Y180500D01*
X374400Y180000D02*X372900Y179000D01*
X376400Y177800D02*X376900Y177300D01*
Y175800D01*
X376400Y175300D01*
X375400D02*X376400D01*
X372900Y177800D02*X375400Y175300D01*
X372900Y177800D02*Y175300D01*
Y173600D02*X376900Y171600D01*
Y174100D02*Y171600D01*
X324350Y163850D02*Y161850D01*
Y163850D02*X324850Y164350D01*
X325850D01*
X326350Y163850D02*X325850Y164350D01*
X326350Y163850D02*Y162350D01*
X324350D02*X328350D01*
X326350Y163150D02*X328350Y164350D01*
X324350Y167050D02*X324850Y167550D01*
X324350Y167050D02*Y166050D01*
X324850Y165550D02*X324350Y166050D01*
X324850Y165550D02*X327850D01*
X328350Y166050D01*
X326150Y167050D02*X326650Y167550D01*
X326150Y167050D02*Y165550D01*
X328350Y167050D02*Y166050D01*
Y167050D02*X327850Y167550D01*
X326650D02*X327850D01*
X393400Y181000D02*X396400D01*
X396900Y180500D01*
Y179500D01*
X396400Y179000D01*
X393900D02*X396400D01*
X392900Y180000D02*X393900Y179000D01*
X392900Y180500D02*Y180000D01*
X393400Y181000D02*X392900Y180500D01*
X394400Y180000D02*X392900Y179000D01*
X396400Y177800D02*X396900Y177300D01*
Y175800D01*
X396400Y175300D01*
X395400D02*X396400D01*
X392900Y177800D02*X395400Y175300D01*
X392900Y177800D02*Y175300D01*
X396900Y174100D02*Y172100D01*
X394900Y174100D02*X396900D01*
X394900D02*X395400Y173600D01*
Y172600D01*
X394900Y172100D01*
X393400D02*X394900D01*
X392900Y172600D02*X393400Y172100D01*
X392900Y173600D02*Y172600D01*
X393400Y174100D02*X392900Y173600D01*
X353400Y181500D02*X356400D01*
X356900Y181000D01*
Y180000D01*
X356400Y179500D01*
X353900D02*X356400D01*
X352900Y180500D02*X353900Y179500D01*
X352900Y181000D02*Y180500D01*
X353400Y181500D02*X352900Y181000D01*
X354400Y180500D02*X352900Y179500D01*
X356400Y178300D02*X356900Y177800D01*
Y176300D01*
X356400Y175800D01*
X355400D02*X356400D01*
X352900Y178300D02*X355400Y175800D01*
X352900Y178300D02*Y175800D01*
Y174100D02*X354900Y172600D01*
X356400D01*
X356900Y173100D02*X356400Y172600D01*
X356900Y174100D02*Y173100D01*
X356400Y174600D02*X356900Y174100D01*
X355400Y174600D02*X356400D01*
X355400D02*X354900Y174100D01*
Y172600D01*
X258400Y181000D02*X261400D01*
X261900Y180500D01*
Y179500D01*
X261400Y179000D01*
X258900D02*X261400D01*
X257900Y180000D02*X258900Y179000D01*
X257900Y180500D02*Y180000D01*
X258400Y181000D02*X257900Y180500D01*
X259400Y180000D02*X257900Y179000D01*
X261100Y177800D02*X261900Y177000D01*
X257900D02*X261900D01*
X257900Y177800D02*Y176300D01*
Y174600D02*X259900Y173100D01*
X261400D01*
X261900Y173600D02*X261400Y173100D01*
X261900Y174600D02*Y173600D01*
X261400Y175100D02*X261900Y174600D01*
X260400Y175100D02*X261400D01*
X260400D02*X259900Y174600D01*
Y173100D01*
X322700Y188000D02*X324000D01*
X322000Y188700D02*X322700Y188000D01*
X322000Y191300D02*Y188700D01*
Y191300D02*X322700Y192000D01*
X324000D01*
X325200Y191500D02*Y188500D01*
Y191500D02*X325700Y192000D01*
X326700D01*
X327200Y191500D01*
Y188500D01*
X326700Y188000D02*X327200Y188500D01*
X325700Y188000D02*X326700D01*
X325200Y188500D02*X325700Y188000D01*
X328400Y192000D02*Y188000D01*
Y192000D02*X330900Y188000D01*
Y192000D02*Y188000D01*
X332100Y192000D02*Y188000D01*
Y192000D02*X334600Y188000D01*
Y192000D02*Y188000D01*
X335800Y188500D02*X336300Y188000D01*
X335800Y189300D02*Y188500D01*
Y189300D02*X336500Y190000D01*
X337100D01*
X337800Y189300D01*
Y188500D01*
X337300Y188000D02*X337800Y188500D01*
X336300Y188000D02*X337300D01*
X335800Y190700D02*X336500Y190000D01*
X335800Y191500D02*Y190700D01*
Y191500D02*X336300Y192000D01*
X337300D01*
X337800Y191500D01*
Y190700D01*
X337100Y190000D02*X337800Y190700D01*
X12000Y17000D02*Y13000D01*
X14500Y17000D02*Y13000D01*
X12000Y15000D02*X14500D01*
X15700Y16200D02*X16500Y17000D01*
Y13000D01*
X15700D02*X17200D01*
X227700Y8000D02*X229000D01*
X227000Y8700D02*X227700Y8000D01*
X227000Y11300D02*Y8700D01*
Y11300D02*X227700Y12000D01*
X229000D01*
X230200Y11500D02*Y8500D01*
Y11500D02*X230700Y12000D01*
X231700D01*
X232200Y11500D01*
Y8500D01*
X231700Y8000D02*X232200Y8500D01*
X230700Y8000D02*X231700D01*
X230200Y8500D02*X230700Y8000D01*
X233400Y12000D02*Y8000D01*
Y12000D02*X235900Y8000D01*
Y12000D02*Y8000D01*
X237100Y12000D02*Y8000D01*
Y12000D02*X239600Y8000D01*
Y12000D02*Y8000D01*
X241300D02*X243300Y12000D01*
X240800D02*X243300D01*
X122700Y8000D02*X124000D01*
X122000Y8700D02*X122700Y8000D01*
X122000Y11300D02*Y8700D01*
Y11300D02*X122700Y12000D01*
X124000D01*
X125200Y11500D02*Y8500D01*
Y11500D02*X125700Y12000D01*
X126700D01*
X127200Y11500D01*
Y8500D01*
X126700Y8000D02*X127200Y8500D01*
X125700Y8000D02*X126700D01*
X125200Y8500D02*X125700Y8000D01*
X128400Y12000D02*Y8000D01*
Y12000D02*X130900Y8000D01*
Y12000D02*Y8000D01*
X132100Y12000D02*Y8000D01*
Y12000D02*X134600Y8000D01*
Y12000D02*Y8000D01*
X135800Y12000D02*X137800D01*
X135800D02*Y10000D01*
X136300Y10500D01*
X137300D01*
X137800Y10000D01*
Y8500D01*
X137300Y8000D02*X137800Y8500D01*
X136300Y8000D02*X137300D01*
X135800Y8500D02*X136300Y8000D01*
X27700D02*X29000D01*
X27000Y8700D02*X27700Y8000D01*
X27000Y11300D02*Y8700D01*
Y11300D02*X27700Y12000D01*
X29000D01*
X30200Y11500D02*Y8500D01*
Y11500D02*X30700Y12000D01*
X31700D01*
X32200Y11500D01*
Y8500D01*
X31700Y8000D02*X32200Y8500D01*
X30700Y8000D02*X31700D01*
X30200Y8500D02*X30700Y8000D01*
X33400Y12000D02*Y8000D01*
Y12000D02*X35900Y8000D01*
Y12000D02*Y8000D01*
X37100Y12000D02*Y8000D01*
Y12000D02*X39600Y8000D01*
Y12000D02*Y8000D01*
X40800Y11500D02*X41300Y12000D01*
X42300D01*
X42800Y11500D01*
X42300Y8000D02*X42800Y8500D01*
X41300Y8000D02*X42300D01*
X40800Y8500D02*X41300Y8000D01*
Y10200D02*X42300D01*
X42800Y11500D02*Y10700D01*
Y9700D02*Y8500D01*
Y9700D02*X42300Y10200D01*
X42800Y10700D02*X42300Y10200D01*
X163600Y35900D02*X166600D01*
X163600D02*X163100Y36400D01*
Y37400D02*Y36400D01*
Y37400D02*X163600Y37900D01*
X166100D01*
X167100Y36900D02*X166100Y37900D01*
X167100Y36900D02*Y36400D01*
X166600Y35900D02*X167100Y36400D01*
X165600Y36900D02*X167100Y37900D01*
Y39600D02*X163100Y41600D01*
Y39100D01*
X133500Y20000D02*X136500D01*
X133500D02*X133000Y20500D01*
Y21500D02*Y20500D01*
Y21500D02*X133500Y22000D01*
X136000D01*
X137000Y21000D02*X136000Y22000D01*
X137000Y21000D02*Y20500D01*
X136500Y20000D02*X137000Y20500D01*
X135500Y21000D02*X137000Y22000D01*
X135500Y23200D02*X133000Y25200D01*
X135500Y25700D02*Y23200D01*
X133000Y25200D02*X137000D01*
X153500Y20000D02*X156500D01*
X153500D02*X153000Y20500D01*
Y21500D02*Y20500D01*
Y21500D02*X153500Y22000D01*
X156000D01*
X157000Y21000D02*X156000Y22000D01*
X157000Y21000D02*Y20500D01*
X156500Y20000D02*X157000Y20500D01*
X155500Y21000D02*X157000Y22000D01*
X153000Y24700D02*X153500Y25200D01*
X153000Y24700D02*Y23700D01*
X153500Y23200D02*X153000Y23700D01*
X153500Y23200D02*X156500D01*
X157000Y23700D01*
X154800Y24700D02*X155300Y25200D01*
X154800Y24700D02*Y23200D01*
X157000Y24700D02*Y23700D01*
Y24700D02*X156500Y25200D01*
X155300D02*X156500D01*
X143450Y35900D02*X146450D01*
X143450D02*X142950Y36400D01*
Y37400D02*Y36400D01*
Y37400D02*X143450Y37900D01*
X145950D01*
X146950Y36900D02*X145950Y37900D01*
X146950Y36900D02*Y36400D01*
X146450Y35900D02*X146950Y36400D01*
X145450Y36900D02*X146950Y37900D01*
X142950Y41100D02*Y39100D01*
X144950D01*
X144450Y39600D01*
Y40600D02*Y39600D01*
Y40600D02*X144950Y41100D01*
X146450D01*
X146950Y40600D02*X146450Y41100D01*
X146950Y40600D02*Y39600D01*
X146450Y39100D02*X146950Y39600D01*
X48450Y36150D02*X51450D01*
X48450D02*X47950Y36650D01*
Y37650D02*Y36650D01*
Y37650D02*X48450Y38150D01*
X50950D01*
X51950Y37150D02*X50950Y38150D01*
X51950Y37150D02*Y36650D01*
X51450Y36150D02*X51950Y36650D01*
X50450Y37150D02*X51950Y38150D01*
X48450Y39350D02*X47950Y39850D01*
Y41350D02*Y39850D01*
Y41350D02*X48450Y41850D01*
X49450D01*
X51950Y39350D02*X49450Y41850D01*
X51950D02*Y39350D01*
X58800Y19200D02*X61800D01*
X58800D02*X58300Y19700D01*
Y20700D02*Y19700D01*
Y20700D02*X58800Y21200D01*
X61300D01*
X62300Y20200D02*X61300Y21200D01*
X62300Y20200D02*Y19700D01*
X61800Y19200D02*X62300Y19700D01*
X60800Y20200D02*X62300Y21200D01*
X58800Y22400D02*X58300Y22900D01*
Y23900D02*Y22900D01*
Y23900D02*X58800Y24400D01*
X62300Y23900D02*X61800Y24400D01*
X62300Y23900D02*Y22900D01*
X61800Y22400D02*X62300Y22900D01*
X60100Y23900D02*Y22900D01*
X58800Y24400D02*X59600D01*
X60600D02*X61800D01*
X60600D02*X60100Y23900D01*
X59600Y24400D02*X60100Y23900D01*
X38700Y19500D02*X41700D01*
X38700D02*X38200Y20000D01*
Y21000D02*Y20000D01*
Y21000D02*X38700Y21500D01*
X41200D01*
X42200Y20500D02*X41200Y21500D01*
X42200Y20500D02*Y20000D01*
X41700Y19500D02*X42200Y20000D01*
X40700Y20500D02*X42200Y21500D01*
X39000Y22700D02*X38200Y23500D01*
X42200D01*
Y24200D02*Y22700D01*
X173500Y20000D02*X176500D01*
X173500D02*X173000Y20500D01*
Y21500D02*Y20500D01*
Y21500D02*X173500Y22000D01*
X176000D01*
X177000Y21000D02*X176000Y22000D01*
X177000Y21000D02*Y20500D01*
X176500Y20000D02*X177000Y20500D01*
X175500Y21000D02*X177000Y22000D01*
X176500Y23200D02*X177000Y23700D01*
X175700Y23200D02*X176500D01*
X175700D02*X175000Y23900D01*
Y24500D02*Y23900D01*
Y24500D02*X175700Y25200D01*
X176500D01*
X177000Y24700D02*X176500Y25200D01*
X177000Y24700D02*Y23700D01*
X174300Y23200D02*X175000Y23900D01*
X173500Y23200D02*X174300D01*
X173500D02*X173000Y23700D01*
Y24700D02*Y23700D01*
Y24700D02*X173500Y25200D01*
X174300D01*
X175000Y24500D02*X174300Y25200D01*
X243100Y18000D02*X246100D01*
X243100D02*X242600Y18500D01*
Y19500D02*Y18500D01*
Y19500D02*X243100Y20000D01*
X245600D01*
X246600Y19000D02*X245600Y20000D01*
X246600Y19000D02*Y18500D01*
X246100Y18000D02*X246600Y18500D01*
X245100Y19000D02*X246600Y20000D01*
X243400Y21200D02*X242600Y22000D01*
X246600D01*
Y22700D02*Y21200D01*
X245100Y23900D02*X242600Y25900D01*
X245100Y26400D02*Y23900D01*
X242600Y25900D02*X246600D01*
X192850Y36393D02*Y34393D01*
Y36393D02*X193350Y36893D01*
X194350D01*
X194850Y36393D02*X194350Y36893D01*
X194850Y36393D02*Y34893D01*
X192850D02*X196850D01*
X194850Y35693D02*X196850Y36893D01*
X193650Y38093D02*X192850Y38893D01*
X196850D01*
Y39593D02*Y38093D01*
X45000Y102000D02*X48500D01*
X49000Y102500D01*
Y103500D02*Y102500D01*
Y103500D02*X48500Y104000D01*
X45000D02*X48500D01*
X45800Y105200D02*X45000Y106000D01*
X49000D01*
Y106700D02*Y105200D01*
X163786Y97650D02*X165086D01*
X163086Y98350D02*X163786Y97650D01*
X163086Y100950D02*Y98350D01*
Y100950D02*X163786Y101650D01*
X165086D01*
X166286Y101150D02*X166786Y101650D01*
X168286D01*
X168786Y101150D01*
Y100150D01*
X166286Y97650D02*X168786Y100150D01*
X166286Y97650D02*X168786D01*
X230350Y164264D02*Y162264D01*
Y164264D02*X230850Y164764D01*
X231850D01*
X232350Y164264D02*X231850Y164764D01*
X232350Y164264D02*Y162764D01*
X230350D02*X234350D01*
X232350Y163564D02*X234350Y164764D01*
X232850Y165964D02*X230350Y167964D01*
X232850Y168464D02*Y165964D01*
X230350Y167964D02*X234350D01*
X125350Y162678D02*Y160678D01*
Y162678D02*X125850Y163178D01*
X126850D01*
X127350Y162678D02*X126850Y163178D01*
X127350Y162678D02*Y161178D01*
X125350D02*X129350D01*
X127350Y161978D02*X129350Y163178D01*
X125850Y164378D02*X125350Y164878D01*
Y166378D02*Y164878D01*
Y166378D02*X125850Y166878D01*
X126850D01*
X129350Y164378D02*X126850Y166878D01*
X129350D02*Y164378D01*
X163400Y164100D02*X166400D01*
X166900Y163600D01*
Y162600D01*
X166400Y162100D01*
X163900D02*X166400D01*
X162900Y163100D02*X163900Y162100D01*
X162900Y163600D02*Y163100D01*
X163400Y164100D02*X162900Y163600D01*
X164400Y163100D02*X162900Y162100D01*
X166100Y160900D02*X166900Y160100D01*
X162900D02*X166900D01*
X162900Y160900D02*Y159400D01*
X166400Y158200D02*X166900Y157700D01*
Y156200D01*
X166400Y155700D01*
X165400D02*X166400D01*
X162900Y158200D02*X165400Y155700D01*
X162900Y158200D02*Y155700D01*
X122200Y188000D02*X123500D01*
X121500Y188700D02*X122200Y188000D01*
X121500Y191300D02*Y188700D01*
Y191300D02*X122200Y192000D01*
X123500D01*
X124700Y191500D02*Y188500D01*
Y191500D02*X125200Y192000D01*
X126200D01*
X126700Y191500D01*
Y188500D01*
X126200Y188000D02*X126700Y188500D01*
X125200Y188000D02*X126200D01*
X124700Y188500D02*X125200Y188000D01*
X127900Y192000D02*Y188000D01*
Y192000D02*X130400Y188000D01*
Y192000D02*Y188000D01*
X131600Y192000D02*Y188000D01*
Y192000D02*X134100Y188000D01*
Y192000D02*Y188000D01*
X135300Y189500D02*X137300Y192000D01*
X135300Y189500D02*X137800D01*
X137300Y192000D02*Y188000D01*
X193400Y181000D02*X196400D01*
X196900Y180500D01*
Y179500D01*
X196400Y179000D01*
X193900D02*X196400D01*
X192900Y180000D02*X193900Y179000D01*
X192900Y180500D02*Y180000D01*
X193400Y181000D02*X192900Y180500D01*
X194400Y180000D02*X192900Y179000D01*
Y177300D02*X194900Y175800D01*
X196400D01*
X196900Y176300D02*X196400Y175800D01*
X196900Y177300D02*Y176300D01*
X196400Y177800D02*X196900Y177300D01*
X195400Y177800D02*X196400D01*
X195400D02*X194900Y177300D01*
Y175800D01*
X227700Y188000D02*X229000D01*
X227000Y188700D02*X227700Y188000D01*
X227000Y191300D02*Y188700D01*
Y191300D02*X227700Y192000D01*
X229000D01*
X230200Y191500D02*Y188500D01*
Y191500D02*X230700Y192000D01*
X231700D01*
X232200Y191500D01*
Y188500D01*
X231700Y188000D02*X232200Y188500D01*
X230700Y188000D02*X231700D01*
X230200Y188500D02*X230700Y188000D01*
X233400Y192000D02*Y188000D01*
Y192000D02*X235900Y188000D01*
Y192000D02*Y188000D01*
X237100Y192000D02*Y188000D01*
Y192000D02*X239600Y188000D01*
Y192000D02*Y188000D01*
X242300Y192000D02*X242800Y191500D01*
X241300Y192000D02*X242300D01*
X240800Y191500D02*X241300Y192000D01*
X240800Y191500D02*Y188500D01*
X241300Y188000D01*
X242300Y190200D02*X242800Y189700D01*
X240800Y190200D02*X242300D01*
X241300Y188000D02*X242300D01*
X242800Y188500D01*
Y189700D02*Y188500D01*
X153500Y181500D02*X156500D01*
X157000Y181000D01*
Y180000D01*
X156500Y179500D01*
X154000D02*X156500D01*
X153000Y180500D02*X154000Y179500D01*
X153000Y181000D02*Y180500D01*
X153500Y181500D02*X153000Y181000D01*
X154500Y180500D02*X153000Y179500D01*
X156200Y178300D02*X157000Y177500D01*
X153000D02*X157000D01*
X153000Y178300D02*Y176800D01*
X156500Y175600D02*X157000Y175100D01*
Y174100D01*
X156500Y173600D01*
X153000Y174100D02*X153500Y173600D01*
X153000Y175100D02*Y174100D01*
X153500Y175600D02*X153000Y175100D01*
X155200D02*Y174100D01*
X155700Y173600D02*X156500D01*
X153500D02*X154700D01*
X155200Y174100D01*
X155700Y173600D02*X155200Y174100D01*
X173500Y181000D02*X176500D01*
X177000Y180500D01*
Y179500D01*
X176500Y179000D01*
X174000D02*X176500D01*
X173000Y180000D02*X174000Y179000D01*
X173000Y180500D02*Y180000D01*
X173500Y181000D02*X173000Y180500D01*
X174500Y180000D02*X173000Y179000D01*
X176200Y177800D02*X177000Y177000D01*
X173000D02*X177000D01*
X173000Y177800D02*Y176300D01*
X176200Y175100D02*X177000Y174300D01*
X173000D02*X177000D01*
X173000Y175100D02*Y173600D01*
X183300Y164600D02*X186300D01*
X186800Y164100D01*
Y163100D01*
X186300Y162600D01*
X183800D02*X186300D01*
X182800Y163600D02*X183800Y162600D01*
X182800Y164100D02*Y163600D01*
X183300Y164600D02*X182800Y164100D01*
X184300Y163600D02*X182800Y162600D01*
X186000Y161400D02*X186800Y160600D01*
X182800D02*X186800D01*
X182800Y161400D02*Y159900D01*
X183300Y158700D02*X182800Y158200D01*
X183300Y158700D02*X186300D01*
X186800Y158200D01*
Y157200D01*
X186300Y156700D01*
X183300D02*X186300D01*
X182800Y157200D02*X183300Y156700D01*
X182800Y158200D02*Y157200D01*
X183800Y158700D02*X185800Y156700D01*
X607000Y17000D02*Y13000D01*
X609500Y17000D02*Y13000D01*
X607000Y15000D02*X609500D01*
X610700Y14500D02*X612700Y17000D01*
X610700Y14500D02*X613200D01*
X612700Y17000D02*Y13000D01*
X483100Y18000D02*X486100D01*
X483100D02*X482600Y18500D01*
Y19500D02*Y18500D01*
Y19500D02*X483100Y20000D01*
X485600D01*
X486600Y19000D02*X485600Y20000D01*
X486600Y19000D02*Y18500D01*
X486100Y18000D02*X486600Y18500D01*
X485100Y19000D02*X486600Y20000D01*
X483100Y21200D02*X482600Y21700D01*
Y22700D02*Y21700D01*
Y22700D02*X483100Y23200D01*
X486600Y22700D02*X486100Y23200D01*
X486600Y22700D02*Y21700D01*
X486100Y21200D02*X486600Y21700D01*
X484400Y22700D02*Y21700D01*
X483100Y23200D02*X483900D01*
X484900D02*X486100D01*
X484900D02*X484400Y22700D01*
X483900Y23200D02*X484400Y22700D01*
X485100Y24400D02*X482600Y26400D01*
X485100Y26900D02*Y24400D01*
X482600Y26400D02*X486600D01*
X468600Y20000D02*X471600D01*
X468600D02*X468100Y20500D01*
Y21500D02*Y20500D01*
Y21500D02*X468600Y22000D01*
X471100D01*
X472100Y21000D02*X471100Y22000D01*
X472100Y21000D02*Y20500D01*
X471600Y20000D02*X472100Y20500D01*
X470600Y21000D02*X472100Y22000D01*
X468600Y23200D02*X468100Y23700D01*
Y24700D02*Y23700D01*
Y24700D02*X468600Y25200D01*
X472100Y24700D02*X471600Y25200D01*
X472100Y24700D02*Y23700D01*
X471600Y23200D02*X472100Y23700D01*
X469900Y24700D02*Y23700D01*
X468600Y25200D02*X469400D01*
X470400D02*X471600D01*
X470400D02*X469900Y24700D01*
X469400Y25200D02*X469900Y24700D01*
X468600Y26400D02*X468100Y26900D01*
Y28400D02*Y26900D01*
Y28400D02*X468600Y28900D01*
X469600D01*
X472100Y26400D02*X469600Y28900D01*
X472100D02*Y26400D01*
X519700Y8000D02*X521000D01*
X519000Y8700D02*X519700Y8000D01*
X519000Y11300D02*Y8700D01*
Y11300D02*X519700Y12000D01*
X521000D01*
X522200Y11500D02*Y8500D01*
Y11500D02*X522700Y12000D01*
X523700D01*
X524200Y11500D01*
Y8500D01*
X523700Y8000D02*X524200Y8500D01*
X522700Y8000D02*X523700D01*
X522200Y8500D02*X522700Y8000D01*
X525400Y12000D02*Y8000D01*
Y12000D02*X527900Y8000D01*
Y12000D02*Y8000D01*
X529100Y12000D02*Y8000D01*
Y12000D02*X531600Y8000D01*
Y12000D02*Y8000D01*
X532800Y11200D02*X533600Y12000D01*
Y8000D01*
X532800D02*X534300D01*
X535500Y11500D02*X536000Y12000D01*
X537000D01*
X537500Y11500D01*
X537000Y8000D02*X537500Y8500D01*
X536000Y8000D02*X537000D01*
X535500Y8500D02*X536000Y8000D01*
Y10200D02*X537000D01*
X537500Y11500D02*Y10700D01*
Y9700D02*Y8500D01*
Y9700D02*X537000Y10200D01*
X537500Y10700D02*X537000Y10200D01*
X533600Y18500D02*X536600D01*
X533600D02*X533100Y19000D01*
Y20000D02*Y19000D01*
Y20000D02*X533600Y20500D01*
X536100D01*
X537100Y19500D02*X536100Y20500D01*
X537100Y19500D02*Y19000D01*
X536600Y18500D02*X537100Y19000D01*
X535600Y19500D02*X537100Y20500D01*
X533600Y21700D02*X533100Y22200D01*
Y23200D02*Y22200D01*
Y23200D02*X533600Y23700D01*
X537100Y23200D02*X536600Y23700D01*
X537100Y23200D02*Y22200D01*
X536600Y21700D02*X537100Y22200D01*
X534900Y23200D02*Y22200D01*
X533600Y23700D02*X534400D01*
X535400D02*X536600D01*
X535400D02*X534900Y23200D01*
X534400Y23700D02*X534900Y23200D01*
X533100Y26400D02*X533600Y26900D01*
X533100Y26400D02*Y25400D01*
X533600Y24900D02*X533100Y25400D01*
X533600Y24900D02*X536600D01*
X537100Y25400D01*
X534900Y26400D02*X535400Y26900D01*
X534900Y26400D02*Y24900D01*
X537100Y26400D02*Y25400D01*
Y26400D02*X536600Y26900D01*
X535400D02*X536600D01*
X573636Y98150D02*X574936D01*
X572936Y98850D02*X573636Y98150D01*
X572936Y101450D02*Y98850D01*
Y101450D02*X573636Y102150D01*
X574936D01*
X577636D02*X578136Y101650D01*
X576636Y102150D02*X577636D01*
X576136Y101650D02*X576636Y102150D01*
X576136Y101650D02*Y98650D01*
X576636Y98150D01*
X577636Y100350D02*X578136Y99850D01*
X576136Y100350D02*X577636D01*
X576636Y98150D02*X577636D01*
X578136Y98650D01*
Y99850D02*Y98650D01*
X454500Y71500D02*X458000D01*
X458500Y72000D01*
Y73000D02*Y72000D01*
Y73000D02*X458000Y73500D01*
X454500D02*X458000D01*
X455300Y74700D02*X454500Y75500D01*
X458500D01*
Y76200D02*Y74700D01*
X455000Y77400D02*X454500Y77900D01*
Y78900D02*Y77900D01*
Y78900D02*X455000Y79400D01*
X458500Y78900D02*X458000Y79400D01*
X458500Y78900D02*Y77900D01*
X458000Y77400D02*X458500Y77900D01*
X456300Y78900D02*Y77900D01*
X455000Y79400D02*X455800D01*
X456800D02*X458000D01*
X456800D02*X456300Y78900D01*
X455800Y79400D02*X456300Y78900D01*
X553600Y19400D02*X556600D01*
X553600D02*X553100Y19900D01*
Y20900D02*Y19900D01*
Y20900D02*X553600Y21400D01*
X556100D01*
X557100Y20400D02*X556100Y21400D01*
X557100Y20400D02*Y19900D01*
X556600Y19400D02*X557100Y19900D01*
X555600Y20400D02*X557100Y21400D01*
X553600Y22600D02*X553100Y23100D01*
Y24100D02*Y23100D01*
Y24100D02*X553600Y24600D01*
X557100Y24100D02*X556600Y24600D01*
X557100Y24100D02*Y23100D01*
X556600Y22600D02*X557100Y23100D01*
X554900Y24100D02*Y23100D01*
X553600Y24600D02*X554400D01*
X555400D02*X556600D01*
X555400D02*X554900Y24100D01*
X554400Y24600D02*X554900Y24100D01*
X556600Y25800D02*X557100Y26300D01*
X555800Y25800D02*X556600D01*
X555800D02*X555100Y26500D01*
Y27100D02*Y26500D01*
Y27100D02*X555800Y27800D01*
X556600D01*
X557100Y27300D02*X556600Y27800D01*
X557100Y27300D02*Y26300D01*
X554400Y25800D02*X555100Y26500D01*
X553600Y25800D02*X554400D01*
X553600D02*X553100Y26300D01*
Y27300D02*Y26300D01*
Y27300D02*X553600Y27800D01*
X554400D01*
X555100Y27100D02*X554400Y27800D01*
X539500Y72000D02*X543000D01*
X543500Y72500D01*
Y73500D02*Y72500D01*
Y73500D02*X543000Y74000D01*
X539500D02*X543000D01*
X540300Y75200D02*X539500Y76000D01*
X543500D01*
Y76700D02*Y75200D01*
X542000Y77900D02*X539500Y79900D01*
X542000Y80400D02*Y77900D01*
X539500Y79900D02*X543500D01*
X543600Y35400D02*X546600D01*
X543600D02*X543100Y35900D01*
Y36900D02*Y35900D01*
Y36900D02*X543600Y37400D01*
X546100D01*
X547100Y36400D02*X546100Y37400D01*
X547100Y36400D02*Y35900D01*
X546600Y35400D02*X547100Y35900D01*
X545600Y36400D02*X547100Y37400D01*
X543600Y38600D02*X543100Y39100D01*
Y40100D02*Y39100D01*
Y40100D02*X543600Y40600D01*
X547100Y40100D02*X546600Y40600D01*
X547100Y40100D02*Y39100D01*
X546600Y38600D02*X547100Y39100D01*
X544900Y40100D02*Y39100D01*
X543600Y40600D02*X544400D01*
X545400D02*X546600D01*
X545400D02*X544900Y40100D01*
X544400Y40600D02*X544900Y40100D01*
X547100Y42300D02*X543100Y44300D01*
Y41800D01*
X573600Y19000D02*X576600D01*
X573600D02*X573100Y19500D01*
Y20500D02*Y19500D01*
Y20500D02*X573600Y21000D01*
X576100D01*
X577100Y20000D02*X576100Y21000D01*
X577100Y20000D02*Y19500D01*
X576600Y19000D02*X577100Y19500D01*
X575600Y20000D02*X577100Y21000D01*
X575600Y22200D02*X573100Y24200D01*
X575600Y24700D02*Y22200D01*
X573100Y24200D02*X577100D01*
X576600Y25900D02*X577100Y26400D01*
X573600Y25900D02*X576600D01*
X573600D02*X573100Y26400D01*
Y27400D02*Y26400D01*
Y27400D02*X573600Y27900D01*
X576600D01*
X577100Y27400D02*X576600Y27900D01*
X577100Y27400D02*Y26400D01*
X576100Y25900D02*X574100Y27900D01*
X593592Y43078D02*Y41078D01*
Y43078D02*X594092Y43578D01*
X595092D01*
X595592Y43078D02*X595092Y43578D01*
X595592Y43078D02*Y41578D01*
X593592D02*X597592D01*
X595592Y42378D02*X597592Y43578D01*
Y45278D02*X595592Y46778D01*
X594092D02*X595592D01*
X593592Y46278D02*X594092Y46778D01*
X593592Y46278D02*Y45278D01*
X594092Y44778D02*X593592Y45278D01*
X594092Y44778D02*X595092D01*
X595592Y45278D01*
Y46778D02*Y45278D01*
X622000Y34000D02*Y32700D01*
X621300Y32000D02*X622000Y32700D01*
X618700Y32000D02*X621300D01*
X618700D02*X618000Y32700D01*
Y34000D02*Y32700D01*
X618500Y35200D02*X621500D01*
X618500D02*X618000Y35700D01*
Y36700D02*Y35700D01*
Y36700D02*X618500Y37200D01*
X621500D01*
X622000Y36700D02*X621500Y37200D01*
X622000Y36700D02*Y35700D01*
X621500Y35200D02*X622000Y35700D01*
X618000Y38400D02*X622000D01*
X618000D02*X622000Y40900D01*
X618000D02*X622000D01*
X618000Y42100D02*X622000D01*
X618000D02*X622000Y44600D01*
X618000D02*X622000D01*
X618800Y45800D02*X618000Y46600D01*
X622000D01*
Y47300D02*Y45800D01*
X618000Y50500D02*Y48500D01*
X620000D01*
X619500Y49000D01*
Y50000D02*Y49000D01*
Y50000D02*X620000Y50500D01*
X621500D01*
X622000Y50000D02*X621500Y50500D01*
X622000Y50000D02*Y49000D01*
X621500Y48500D02*X622000Y49000D01*
X498850Y42193D02*Y40193D01*
Y42193D02*X499350Y42693D01*
X500350D01*
X500850Y42193D02*X500350Y42693D01*
X500850Y42193D02*Y40693D01*
X498850D02*X502850D01*
X500850Y41493D02*X502850Y42693D01*
Y44393D02*X498850Y46393D01*
Y43893D01*
X563600Y35400D02*X566600D01*
X563600D02*X563100Y35900D01*
Y36900D02*Y35900D01*
Y36900D02*X563600Y37400D01*
X566100D01*
X567100Y36400D02*X566100Y37400D01*
X567100Y36400D02*Y35900D01*
X566600Y35400D02*X567100Y35900D01*
X565600Y36400D02*X567100Y37400D01*
X563600Y38600D02*X563100Y39100D01*
Y40100D02*Y39100D01*
Y40100D02*X563600Y40600D01*
X567100Y40100D02*X566600Y40600D01*
X567100Y40100D02*Y39100D01*
X566600Y38600D02*X567100Y39100D01*
X564900Y40100D02*Y39100D01*
X563600Y40600D02*X564400D01*
X565400D02*X566600D01*
X565400D02*X564900Y40100D01*
X564400Y40600D02*X564900Y40100D01*
X567100Y42300D02*X565100Y43800D01*
X563600D02*X565100D01*
X563100Y43300D02*X563600Y43800D01*
X563100Y43300D02*Y42300D01*
X563600Y41800D02*X563100Y42300D01*
X563600Y41800D02*X564600D01*
X565100Y42300D01*
Y43800D02*Y42300D01*
X453100Y34400D02*X456100D01*
X453100D02*X452600Y34900D01*
Y35900D02*Y34900D01*
Y35900D02*X453100Y36400D01*
X455600D01*
X456600Y35400D02*X455600Y36400D01*
X456600Y35400D02*Y34900D01*
X456100Y34400D02*X456600Y34900D01*
X455100Y35400D02*X456600Y36400D01*
X453100Y37600D02*X452600Y38100D01*
Y39100D02*Y38100D01*
Y39100D02*X453100Y39600D01*
X456600Y39100D02*X456100Y39600D01*
X456600Y39100D02*Y38100D01*
X456100Y37600D02*X456600Y38100D01*
X454400Y39100D02*Y38100D01*
X453100Y39600D02*X453900D01*
X454900D02*X456100D01*
X454900D02*X454400Y39100D01*
X453900Y39600D02*X454400Y39100D01*
X453400Y40800D02*X452600Y41600D01*
X456600D01*
Y42300D02*Y40800D01*
X473100Y34400D02*X476100D01*
X473100D02*X472600Y34900D01*
Y35900D02*Y34900D01*
Y35900D02*X473100Y36400D01*
X475600D01*
X476600Y35400D02*X475600Y36400D01*
X476600Y35400D02*Y34900D01*
X476100Y34400D02*X476600Y34900D01*
X475100Y35400D02*X476600Y36400D01*
X473100Y37600D02*X472600Y38100D01*
Y39100D02*Y38100D01*
Y39100D02*X473100Y39600D01*
X476600Y39100D02*X476100Y39600D01*
X476600Y39100D02*Y38100D01*
X476100Y37600D02*X476600Y38100D01*
X474400Y39100D02*Y38100D01*
X473100Y39600D02*X473900D01*
X474900D02*X476100D01*
X474900D02*X474400Y39100D01*
X473900Y39600D02*X474400Y39100D01*
X473100Y40800D02*X472600Y41300D01*
Y42300D02*Y41300D01*
Y42300D02*X473100Y42800D01*
X476600Y42300D02*X476100Y42800D01*
X476600Y42300D02*Y41300D01*
X476100Y40800D02*X476600Y41300D01*
X474400Y42300D02*Y41300D01*
X473100Y42800D02*X473900D01*
X474900D02*X476100D01*
X474900D02*X474400Y42300D01*
X473900Y42800D02*X474400Y42300D01*
X255000Y73000D02*X258500D01*
X259000Y73500D01*
Y74500D02*Y73500D01*
Y74500D02*X258500Y75000D01*
X255000D02*X258500D01*
X255800Y76200D02*X255000Y77000D01*
X259000D01*
Y77700D02*Y76200D01*
X258500Y78900D02*X259000Y79400D01*
X255500Y78900D02*X258500D01*
X255500D02*X255000Y79400D01*
Y80400D02*Y79400D01*
Y80400D02*X255500Y80900D01*
X258500D01*
X259000Y80400D02*X258500Y80900D01*
X259000Y80400D02*Y79400D01*
X258000Y78900D02*X256000Y80900D01*
X270500Y28000D02*X273500D01*
X270500D02*X270000Y28500D01*
Y29500D02*Y28500D01*
Y29500D02*X270500Y30000D01*
X273000D01*
X274000Y29000D02*X273000Y30000D01*
X274000Y29000D02*Y28500D01*
X273500Y28000D02*X274000Y28500D01*
X272500Y29000D02*X274000Y30000D01*
X270800Y31200D02*X270000Y32000D01*
X274000D01*
Y32700D02*Y31200D01*
X270000Y35400D02*X270500Y35900D01*
X270000Y35400D02*Y34400D01*
X270500Y33900D02*X270000Y34400D01*
X270500Y33900D02*X273500D01*
X274000Y34400D01*
X271800Y35400D02*X272300Y35900D01*
X271800Y35400D02*Y33900D01*
X274000Y35400D02*Y34400D01*
Y35400D02*X273500Y35900D01*
X272300D02*X273500D01*
X253100Y34400D02*X256100D01*
X253100D02*X252600Y34900D01*
Y35900D02*Y34900D01*
Y35900D02*X253100Y36400D01*
X255600D01*
X256600Y35400D02*X255600Y36400D01*
X256600Y35400D02*Y34900D01*
X256100Y34400D02*X256600Y34900D01*
X255100Y35400D02*X256600Y36400D01*
X253400Y37600D02*X252600Y38400D01*
X256600D01*
Y39100D02*Y37600D01*
X252600Y42300D02*Y40300D01*
X254600D01*
X254100Y40800D01*
Y41800D02*Y40800D01*
Y41800D02*X254600Y42300D01*
X256100D01*
X256600Y41800D02*X256100Y42300D01*
X256600Y41800D02*Y40800D01*
X256100Y40300D02*X256600Y40800D01*
X322700Y8000D02*X324000D01*
X322000Y8700D02*X322700Y8000D01*
X322000Y11300D02*Y8700D01*
Y11300D02*X322700Y12000D01*
X324000D01*
X325200Y11500D02*Y8500D01*
Y11500D02*X325700Y12000D01*
X326700D01*
X327200Y11500D01*
Y8500D01*
X326700Y8000D02*X327200Y8500D01*
X325700Y8000D02*X326700D01*
X325200Y8500D02*X325700Y8000D01*
X328400Y12000D02*Y8000D01*
Y12000D02*X330900Y8000D01*
Y12000D02*Y8000D01*
X332100Y12000D02*Y8000D01*
Y12000D02*X334600Y8000D01*
Y12000D02*Y8000D01*
X336300D02*X337800Y10000D01*
Y11500D02*Y10000D01*
X337300Y12000D02*X337800Y11500D01*
X336300Y12000D02*X337300D01*
X335800Y11500D02*X336300Y12000D01*
X335800Y11500D02*Y10500D01*
X336300Y10000D01*
X337800D01*
X339000Y72000D02*X342500D01*
X343000Y72500D01*
Y73500D02*Y72500D01*
Y73500D02*X342500Y74000D01*
X339000D02*X342500D01*
X339800Y75200D02*X339000Y76000D01*
X343000D01*
Y76700D02*Y75200D01*
X339800Y77900D02*X339000Y78700D01*
X343000D01*
Y79400D02*Y77900D01*
X333700Y18500D02*X336700D01*
X333700D02*X333200Y19000D01*
Y20000D02*Y19000D01*
Y20000D02*X333700Y20500D01*
X336200D01*
X337200Y19500D02*X336200Y20500D01*
X337200Y19500D02*Y19000D01*
X336700Y18500D02*X337200Y19000D01*
X335700Y19500D02*X337200Y20500D01*
X333700Y21700D02*X333200Y22200D01*
Y23700D02*Y22200D01*
Y23700D02*X333700Y24200D01*
X334700D01*
X337200Y21700D02*X334700Y24200D01*
X337200D02*Y21700D01*
X336700Y25400D02*X337200Y25900D01*
X333700Y25400D02*X336700D01*
X333700D02*X333200Y25900D01*
Y26900D02*Y25900D01*
Y26900D02*X333700Y27400D01*
X336700D01*
X337200Y26900D02*X336700Y27400D01*
X337200Y26900D02*Y25900D01*
X336200Y25400D02*X334200Y27400D01*
X353600Y18500D02*X356600D01*
X353600D02*X353100Y19000D01*
Y20000D02*Y19000D01*
Y20000D02*X353600Y20500D01*
X356100D01*
X357100Y19500D02*X356100Y20500D01*
X357100Y19500D02*Y19000D01*
X356600Y18500D02*X357100Y19000D01*
X355600Y19500D02*X357100Y20500D01*
X353600Y21700D02*X353100Y22200D01*
Y23700D02*Y22200D01*
Y23700D02*X353600Y24200D01*
X354600D01*
X357100Y21700D02*X354600Y24200D01*
X357100D02*Y21700D01*
X353600Y25400D02*X353100Y25900D01*
Y27400D02*Y25900D01*
Y27400D02*X353600Y27900D01*
X354600D01*
X357100Y25400D02*X354600Y27900D01*
X357100D02*Y25400D01*
X343300Y35000D02*X346300D01*
X343300D02*X342800Y35500D01*
Y36500D02*Y35500D01*
Y36500D02*X343300Y37000D01*
X345800D01*
X346800Y36000D02*X345800Y37000D01*
X346800Y36000D02*Y35500D01*
X346300Y35000D02*X346800Y35500D01*
X345300Y36000D02*X346800Y37000D01*
X343300Y38200D02*X342800Y38700D01*
Y40200D02*Y38700D01*
Y40200D02*X343300Y40700D01*
X344300D01*
X346800Y38200D02*X344300Y40700D01*
X346800D02*Y38200D01*
X343600Y41900D02*X342800Y42700D01*
X346800D01*
Y43400D02*Y41900D01*
X283100Y18000D02*X286100D01*
X283100D02*X282600Y18500D01*
Y19500D02*Y18500D01*
Y19500D02*X283100Y20000D01*
X285600D01*
X286600Y19000D02*X285600Y20000D01*
X286600Y19000D02*Y18500D01*
X286100Y18000D02*X286600Y18500D01*
X285100Y19000D02*X286600Y20000D01*
X283400Y21200D02*X282600Y22000D01*
X286600D01*
Y22700D02*Y21200D01*
X286100Y23900D02*X286600Y24400D01*
X285300Y23900D02*X286100D01*
X285300D02*X284600Y24600D01*
Y25200D02*Y24600D01*
Y25200D02*X285300Y25900D01*
X286100D01*
X286600Y25400D02*X286100Y25900D01*
X286600Y25400D02*Y24400D01*
X283900Y23900D02*X284600Y24600D01*
X283100Y23900D02*X283900D01*
X283100D02*X282600Y24400D01*
Y25400D02*Y24400D01*
Y25400D02*X283100Y25900D01*
X283900D01*
X284600Y25200D02*X283900Y25900D01*
X273100Y34400D02*X276100D01*
X273100D02*X272600Y34900D01*
Y35900D02*Y34900D01*
Y35900D02*X273100Y36400D01*
X275600D01*
X276600Y35400D02*X275600Y36400D01*
X276600Y35400D02*Y34900D01*
X276100Y34400D02*X276600Y34900D01*
X275100Y35400D02*X276600Y36400D01*
X273400Y37600D02*X272600Y38400D01*
X276600D01*
Y39100D02*Y37600D01*
Y40800D02*X272600Y42800D01*
Y40300D01*
X373600Y18500D02*X376600D01*
X373600D02*X373100Y19000D01*
Y20000D02*Y19000D01*
Y20000D02*X373600Y20500D01*
X376100D01*
X377100Y19500D02*X376100Y20500D01*
X377100Y19500D02*Y19000D01*
X376600Y18500D02*X377100Y19000D01*
X375600Y19500D02*X377100Y20500D01*
X373600Y21700D02*X373100Y22200D01*
Y23700D02*Y22200D01*
Y23700D02*X373600Y24200D01*
X374600D01*
X377100Y21700D02*X374600Y24200D01*
X377100D02*Y21700D01*
X375600Y25400D02*X373100Y27400D01*
X375600Y27900D02*Y25400D01*
X373100Y27400D02*X377100D01*
X363600Y34900D02*X366600D01*
X363600D02*X363100Y35400D01*
Y36400D02*Y35400D01*
Y36400D02*X363600Y36900D01*
X366100D01*
X367100Y35900D02*X366100Y36900D01*
X367100Y35900D02*Y35400D01*
X366600Y34900D02*X367100Y35400D01*
X365600Y35900D02*X367100Y36900D01*
X363600Y38100D02*X363100Y38600D01*
Y40100D02*Y38600D01*
Y40100D02*X363600Y40600D01*
X364600D01*
X367100Y38100D02*X364600Y40600D01*
X367100D02*Y38100D01*
X363600Y41800D02*X363100Y42300D01*
Y43300D02*Y42300D01*
Y43300D02*X363600Y43800D01*
X367100Y43300D02*X366600Y43800D01*
X367100Y43300D02*Y42300D01*
X366600Y41800D02*X367100Y42300D01*
X364900Y43300D02*Y42300D01*
X363600Y43800D02*X364400D01*
X365400D02*X366600D01*
X365400D02*X364900Y43300D01*
X364400Y43800D02*X364900Y43300D01*
X426200Y8000D02*X427500D01*
X425500Y8700D02*X426200Y8000D01*
X425500Y11300D02*Y8700D01*
Y11300D02*X426200Y12000D01*
X427500D01*
X428700Y11500D02*Y8500D01*
Y11500D02*X429200Y12000D01*
X430200D01*
X430700Y11500D01*
Y8500D01*
X430200Y8000D02*X430700Y8500D01*
X429200Y8000D02*X430200D01*
X428700Y8500D02*X429200Y8000D01*
X431900Y12000D02*Y8000D01*
Y12000D02*X434400Y8000D01*
Y12000D02*Y8000D01*
X435600Y12000D02*Y8000D01*
Y12000D02*X438100Y8000D01*
Y12000D02*Y8000D01*
X439300Y11200D02*X440100Y12000D01*
Y8000D01*
X439300D02*X440800D01*
X442000Y11200D02*X442800Y12000D01*
Y8000D01*
X442000D02*X443500D01*
X393350Y42893D02*Y40893D01*
Y42893D02*X393850Y43393D01*
X394850D01*
X395350Y42893D02*X394850Y43393D01*
X395350Y42893D02*Y41393D01*
X393350D02*X397350D01*
X395350Y42193D02*X397350Y43393D01*
X393350Y46593D02*Y44593D01*
X395350D01*
X394850Y45093D01*
Y46093D02*Y45093D01*
Y46093D02*X395350Y46593D01*
X396850D01*
X397350Y46093D02*X396850Y46593D01*
X397350Y46093D02*Y45093D01*
X396850Y44593D02*X397350Y45093D01*
X443100Y18000D02*X446100D01*
X443100D02*X442600Y18500D01*
Y19500D02*Y18500D01*
Y19500D02*X443100Y20000D01*
X445600D01*
X446600Y19000D02*X445600Y20000D01*
X446600Y19000D02*Y18500D01*
X446100Y18000D02*X446600Y18500D01*
X445100Y19000D02*X446600Y20000D01*
X443100Y21200D02*X442600Y21700D01*
Y22700D02*Y21700D01*
Y22700D02*X443100Y23200D01*
X446600Y22700D02*X446100Y23200D01*
X446600Y22700D02*Y21700D01*
X446100Y21200D02*X446600Y21700D01*
X444400Y22700D02*Y21700D01*
X443100Y23200D02*X443900D01*
X444900D02*X446100D01*
X444900D02*X444400Y22700D01*
X443900Y23200D02*X444400Y22700D01*
X446100Y24400D02*X446600Y24900D01*
X443100Y24400D02*X446100D01*
X443100D02*X442600Y24900D01*
Y25900D02*Y24900D01*
Y25900D02*X443100Y26400D01*
X446100D01*
X446600Y25900D02*X446100Y26400D01*
X446600Y25900D02*Y24900D01*
X445600Y24400D02*X443600Y26400D01*
X298936Y38236D02*Y36236D01*
Y38236D02*X299436Y38736D01*
X300436D01*
X300936Y38236D02*X300436Y38736D01*
X300936Y38236D02*Y36736D01*
X298936D02*X302936D01*
X300936Y37536D02*X302936Y38736D01*
X299436Y39936D02*X298936Y40436D01*
Y41436D02*Y40436D01*
Y41436D02*X299436Y41936D01*
X302936Y41436D02*X302436Y41936D01*
X302936Y41436D02*Y40436D01*
X302436Y39936D02*X302936Y40436D01*
X300736Y41436D02*Y40436D01*
X299436Y41936D02*X300236D01*
X301236D02*X302436D01*
X301236D02*X300736Y41436D01*
X300236Y41936D02*X300736Y41436D01*
X607000Y187000D02*Y183000D01*
X609500Y187000D02*Y183000D01*
X607000Y185000D02*X609500D01*
X610700Y186500D02*X611200Y187000D01*
X612200D01*
X612700Y186500D01*
X612200Y183000D02*X612700Y183500D01*
X611200Y183000D02*X612200D01*
X610700Y183500D02*X611200Y183000D01*
Y185200D02*X612200D01*
X612700Y186500D02*Y185700D01*
Y184700D02*Y183500D01*
Y184700D02*X612200Y185200D01*
X612700Y185700D02*X612200Y185200D01*
X573400Y181500D02*X576400D01*
X576900Y181000D01*
Y180000D01*
X576400Y179500D01*
X573900D02*X576400D01*
X572900Y180500D02*X573900Y179500D01*
X572900Y181000D02*Y180500D01*
X573400Y181500D02*X572900Y181000D01*
X574400Y180500D02*X572900Y179500D01*
X574400Y178300D02*X576900Y176300D01*
X574400Y178300D02*Y175800D01*
X572900Y176300D02*X576900D01*
X576400Y174600D02*X576900Y174100D01*
Y173100D01*
X576400Y172600D01*
X572900Y173100D02*X573400Y172600D01*
X572900Y174100D02*Y173100D01*
X573400Y174600D02*X572900Y174100D01*
X575100D02*Y173100D01*
X575600Y172600D02*X576400D01*
X573400D02*X574600D01*
X575100Y173100D01*
X575600Y172600D02*X575100Y173100D01*
X560000Y107000D02*X563500D01*
X560000D02*X559500Y106500D01*
Y105500D01*
X560000Y105000D01*
X563500D01*
Y102300D02*X563000Y101800D01*
X563500Y103300D02*Y102300D01*
X563000Y103800D02*X563500Y103300D01*
X560000Y103800D02*X563000D01*
X560000D02*X559500Y103300D01*
X561700Y102300D02*X561200Y101800D01*
X561700Y103800D02*Y102300D01*
X559500Y103300D02*Y102300D01*
X560000Y101800D01*
X561200D01*
X583400Y164600D02*X586400D01*
X586900Y164100D01*
Y163100D01*
X586400Y162600D01*
X583900D02*X586400D01*
X582900Y163600D02*X583900Y162600D01*
X582900Y164100D02*Y163600D01*
X583400Y164600D02*X582900Y164100D01*
X584400Y163600D02*X582900Y162600D01*
X584400Y161400D02*X586900Y159400D01*
X584400Y161400D02*Y158900D01*
X582900Y159400D02*X586900D01*
X586400Y157700D02*X586900Y157200D01*
Y155700D01*
X586400Y155200D01*
X585400D02*X586400D01*
X582900Y157700D02*X585400Y155200D01*
X582900Y157700D02*Y155200D01*
X563400Y164100D02*X566400D01*
X566900Y163600D01*
Y162600D01*
X566400Y162100D01*
X563900D02*X566400D01*
X562900Y163100D02*X563900Y162100D01*
X562900Y163600D02*Y163100D01*
X563400Y164100D02*X562900Y163600D01*
X564400Y163100D02*X562900Y162100D01*
X564400Y160900D02*X566900Y158900D01*
X564400Y160900D02*Y158400D01*
X562900Y158900D02*X566900D01*
X564400Y157200D02*X566900Y155200D01*
X564400Y157200D02*Y154700D01*
X562900Y155200D02*X566900D01*
X593400Y181500D02*X596400D01*
X596900Y181000D01*
Y180000D01*
X596400Y179500D01*
X593900D02*X596400D01*
X592900Y180500D02*X593900Y179500D01*
X592900Y181000D02*Y180500D01*
X593400Y181500D02*X592900Y181000D01*
X594400Y180500D02*X592900Y179500D01*
X594400Y178300D02*X596900Y176300D01*
X594400Y178300D02*Y175800D01*
X592900Y176300D02*X596900D01*
X596100Y174600D02*X596900Y173800D01*
X592900D02*X596900D01*
X592900Y174600D02*Y173100D01*
X553200Y137100D02*X556700D01*
X553200D02*X552700Y136600D01*
Y135600D01*
X553200Y135100D01*
X556700D01*
X555900Y133900D02*X556700Y133100D01*
X552700D02*X556700D01*
X552700Y133900D02*Y132400D01*
X556700Y131200D02*Y129200D01*
X554700Y131200D02*X556700D01*
X554700D02*X555200Y130700D01*
Y129700D01*
X554700Y129200D01*
X553200D02*X554700D01*
X552700Y129700D02*X553200Y129200D01*
X552700Y130700D02*Y129700D01*
X553200Y131200D02*X552700Y130700D01*
X490000Y132000D02*X493500D01*
X490000D02*X489500Y131500D01*
Y130500D01*
X490000Y130000D01*
X493500D01*
Y128800D02*Y126800D01*
X491500Y128800D02*X493500D01*
X491500D02*X492000Y128300D01*
Y127300D01*
X491500Y126800D01*
X490000D02*X491500D01*
X489500Y127300D02*X490000Y126800D01*
X489500Y128300D02*Y127300D01*
X490000Y128800D02*X489500Y128300D01*
X504964Y124150D02*X506264D01*
X504264Y124850D02*X504964Y124150D01*
X504264Y127450D02*Y124850D01*
Y127450D02*X504964Y128150D01*
X506264D01*
X507464D02*X509464D01*
X507464D02*Y126150D01*
X507964Y126650D01*
X508964D01*
X509464Y126150D01*
Y124650D01*
X508964Y124150D02*X509464Y124650D01*
X507964Y124150D02*X508964D01*
X507464Y124650D02*X507964Y124150D01*
X458683Y181361D02*X461683D01*
X462183Y180861D01*
Y179861D01*
X461683Y179361D01*
X459183D02*X461683D01*
X458183Y180361D02*X459183Y179361D01*
X458183Y180861D02*Y180361D01*
X458683Y181361D02*X458183Y180861D01*
X459683Y180361D02*X458183Y179361D01*
X461683Y178161D02*X462183Y177661D01*
Y176661D01*
X461683Y176161D01*
X458183Y176661D02*X458683Y176161D01*
X458183Y177661D02*Y176661D01*
X458683Y178161D02*X458183Y177661D01*
X460383D02*Y176661D01*
X460883Y176161D02*X461683D01*
X458683D02*X459883D01*
X460383Y176661D01*
X460883Y176161D02*X460383Y176661D01*
X462183Y174961D02*Y172961D01*
X460183Y174961D02*X462183D01*
X460183D02*X460683Y174461D01*
Y173461D01*
X460183Y172961D01*
X458683D02*X460183D01*
X458183Y173461D02*X458683Y172961D01*
X458183Y174461D02*Y173461D01*
X458683Y174961D02*X458183Y174461D01*
X553400Y181500D02*X556400D01*
X556900Y181000D01*
Y180000D01*
X556400Y179500D01*
X553900D02*X556400D01*
X552900Y180500D02*X553900Y179500D01*
X552900Y181000D02*Y180500D01*
X553400Y181500D02*X552900Y181000D01*
X554400Y180500D02*X552900Y179500D01*
X554400Y178300D02*X556900Y176300D01*
X554400Y178300D02*Y175800D01*
X552900Y176300D02*X556900D01*
Y174600D02*Y172600D01*
X554900Y174600D02*X556900D01*
X554900D02*X555400Y174100D01*
Y173100D01*
X554900Y172600D01*
X553400D02*X554900D01*
X552900Y173100D02*X553400Y172600D01*
X552900Y174100D02*Y173100D01*
X553400Y174600D02*X552900Y174100D01*
X525050Y163036D02*Y161036D01*
Y163036D02*X525550Y163536D01*
X526550D01*
X527050Y163036D02*X526550Y163536D01*
X527050Y163036D02*Y161536D01*
X525050D02*X529050D01*
X527050Y162336D02*X529050Y163536D01*
X525850Y164736D02*X525050Y165536D01*
X529050D01*
Y166236D02*Y164736D01*
X528550Y167436D02*X529050Y167936D01*
X525550Y167436D02*X528550D01*
X525550D02*X525050Y167936D01*
Y168936D02*Y167936D01*
Y168936D02*X525550Y169436D01*
X528550D01*
X529050Y168936D02*X528550Y169436D01*
X529050Y168936D02*Y167936D01*
X528050Y167436D02*X526050Y169436D01*
X519503Y187837D02*X520803D01*
X518803Y188537D02*X519503Y187837D01*
X518803Y191137D02*Y188537D01*
Y191137D02*X519503Y191837D01*
X520803D01*
X522003Y191337D02*Y188337D01*
Y191337D02*X522503Y191837D01*
X523503D01*
X524003Y191337D01*
Y188337D01*
X523503Y187837D02*X524003Y188337D01*
X522503Y187837D02*X523503D01*
X522003Y188337D02*X522503Y187837D01*
X525203Y191837D02*Y187837D01*
Y191837D02*X527703Y187837D01*
Y191837D02*Y187837D01*
X528903Y191837D02*Y187837D01*
Y191837D02*X531403Y187837D01*
Y191837D02*Y187837D01*
X532603Y191037D02*X533403Y191837D01*
Y187837D01*
X532603D02*X534103D01*
X535303Y191337D02*X535803Y191837D01*
X537303D01*
X537803Y191337D01*
Y190337D01*
X535303Y187837D02*X537803Y190337D01*
X535303Y187837D02*X537803D01*
X425200Y188000D02*X426500D01*
X424500Y188700D02*X425200Y188000D01*
X424500Y191300D02*Y188700D01*
Y191300D02*X425200Y192000D01*
X426500D01*
X427700Y191500D02*Y188500D01*
Y191500D02*X428200Y192000D01*
X429200D01*
X429700Y191500D01*
Y188500D01*
X429200Y188000D02*X429700Y188500D01*
X428200Y188000D02*X429200D01*
X427700Y188500D02*X428200Y188000D01*
X430900Y192000D02*Y188000D01*
Y192000D02*X433400Y188000D01*
Y192000D02*Y188000D01*
X434600Y192000D02*Y188000D01*
Y192000D02*X437100Y188000D01*
Y192000D02*Y188000D01*
X438300Y191200D02*X439100Y192000D01*
Y188000D01*
X438300D02*X439800D01*
X441000Y188500D02*X441500Y188000D01*
X441000Y191500D02*Y188500D01*
Y191500D02*X441500Y192000D01*
X442500D01*
X443000Y191500D01*
Y188500D01*
X442500Y188000D02*X443000Y188500D01*
X441500Y188000D02*X442500D01*
X441000Y189000D02*X443000Y191000D01*
X430397Y165803D02*Y163803D01*
Y165803D02*X430897Y166303D01*
X431897D01*
X432397Y165803D02*X431897Y166303D01*
X432397Y165803D02*Y164303D01*
X430397D02*X434397D01*
X432397Y165103D02*X434397Y166303D01*
X433897Y167503D02*X434397Y168003D01*
X433097Y167503D02*X433897D01*
X433097D02*X432397Y168203D01*
Y168803D02*Y168203D01*
Y168803D02*X433097Y169503D01*
X433897D01*
X434397Y169003D02*X433897Y169503D01*
X434397Y169003D02*Y168003D01*
X431697Y167503D02*X432397Y168203D01*
X430897Y167503D02*X431697D01*
X430897D02*X430397Y168003D01*
Y169003D02*Y168003D01*
Y169003D02*X430897Y169503D01*
X431697D01*
X432397Y168803D02*X431697Y169503D01*
M02*
