G04 start of page 8 for group 14 layer_idx 7 *
G04 Title: (unknown), Intern *
G04 Creator: pcb-rnd 1.2.7 *
G04 CreationDate: 2018-01-15 01:16:43 UTC *
G04 For: newell *
G04 Format: Gerber/RS-274X *
G04 PCB-Dimensions: 625000 200000 *
G04 PCB-Coordinate-Origin: lower left *
%MOIN*%
%FSLAX25Y25*%
%LNGROUP14*%
%ADD53C,0.1181*%
%ADD52C,0.0280*%
%ADD51C,0.0200*%
%ADD50C,0.0360*%
%ADD49C,0.0600*%
%ADD48C,0.0001*%
G54D48*G36*
X382000Y13000D02*Y7000D01*
X388000D01*
Y13000D01*
X382000D01*
G37*
G54D49*X375000Y10000D03*
X365000D03*
X355000D03*
X345000D03*
G54D48*G36*
X287000Y13000D02*Y7000D01*
X293000D01*
Y13000D01*
X287000D01*
G37*
G54D49*X290000Y190000D03*
X280000Y10000D03*
Y190000D03*
X270000Y10000D03*
X260000D03*
X250000D03*
G54D48*G36*
X247000Y193000D02*Y187000D01*
X253000D01*
Y193000D01*
X247000D01*
G37*
G54D49*X260000Y190000D03*
X270000D03*
G54D48*G36*
X342000Y193000D02*Y187000D01*
X348000D01*
Y193000D01*
X342000D01*
G37*
G54D49*X355000Y190000D03*
X365000D03*
X375000D03*
X385000D03*
G54D48*G36*
X12000Y83000D02*Y77000D01*
X18000D01*
Y83000D01*
X12000D01*
G37*
G54D49*X15000Y90000D03*
Y100000D03*
Y110000D03*
G54D48*G36*
X12000Y152000D02*Y146000D01*
X18000D01*
Y152000D01*
X12000D01*
G37*
G54D49*X15000Y139000D03*
G54D48*G36*
X607000Y49000D02*Y43000D01*
X613000D01*
Y49000D01*
X607000D01*
G37*
G54D49*X610000Y36000D03*
G54D48*G36*
X487000Y13000D02*Y7000D01*
X493000D01*
Y13000D01*
X487000D01*
G37*
G54D49*X480000Y10000D03*
X470000D03*
X460000D03*
X450000D03*
G54D48*G36*
X582000Y13000D02*Y7000D01*
X588000D01*
Y13000D01*
X582000D01*
G37*
G54D49*X575000Y10000D03*
X565000D03*
X555000D03*
X545000D03*
G54D48*G36*
X142000Y193000D02*Y187000D01*
X148000D01*
Y193000D01*
X142000D01*
G37*
G54D49*X155000Y190000D03*
X165000D03*
X175000D03*
X185000D03*
G54D48*G36*
X47000Y193000D02*Y187000D01*
X53000D01*
Y193000D01*
X47000D01*
G37*
G54D49*X60000Y190000D03*
X70000D03*
X80000D03*
X90000D03*
G54D48*G36*
X447000Y193000D02*Y187000D01*
X453000D01*
Y193000D01*
X447000D01*
G37*
G54D49*X460000Y190000D03*
X470000D03*
X480000D03*
X490000D03*
G54D48*G36*
X182000Y13000D02*Y7000D01*
X188000D01*
Y13000D01*
X182000D01*
G37*
G54D49*X175000Y10000D03*
X165000D03*
X155000D03*
X145000D03*
G54D48*G36*
X87000Y13000D02*Y7000D01*
X93000D01*
Y13000D01*
X87000D01*
G37*
G54D49*X80000Y10000D03*
X70000D03*
X60000D03*
X50000D03*
G54D48*G36*
X542000Y193000D02*Y187000D01*
X548000D01*
Y193000D01*
X542000D01*
G37*
G54D49*X555000Y190000D03*
X565000D03*
X575000D03*
X585000D03*
G54D50*X525000Y114000D03*
X535500Y100500D03*
X540500Y104000D03*
X545500Y107500D03*
X595000Y171000D03*
X535000Y175000D03*
X570500Y176500D03*
X579000Y148000D03*
X559000D03*
X585500Y94000D03*
X551000Y52000D03*
X571000D03*
X555500Y86500D03*
X550500Y75500D03*
X560500Y86500D03*
X559500Y23500D03*
X595000Y25000D03*
X470500Y104000D03*
X465500Y100500D03*
X475500Y107500D03*
X490500Y133000D03*
X495500Y127000D03*
X480500Y111500D03*
X460500Y97000D03*
X454500Y140000D03*
X441000Y123000D03*
X445000Y119000D03*
X441000Y115000D03*
X470500Y153500D03*
X480500Y148500D03*
X485500Y163500D03*
X465500Y158500D03*
X460000Y171000D03*
X501500Y113000D03*
X507000D03*
X512500D03*
X518000Y119500D03*
X535000Y29000D03*
X500000Y25000D03*
X335000Y29000D03*
X359000Y23500D03*
X395000Y25000D03*
X456000Y52000D03*
X476000D03*
X464500Y23500D03*
X440000Y29000D03*
X449000Y81500D03*
X490500D03*
X485500Y75500D03*
X371000Y52000D03*
X351000D03*
X324500Y81500D03*
X385500Y94000D03*
X350500Y75500D03*
X360500Y86500D03*
X355500D03*
X70000Y35500D03*
X58500Y62500D03*
X50000Y45500D03*
X40000Y29000D03*
X240000D03*
X195000Y25000D03*
X159500Y23500D03*
X135000Y29000D03*
Y36500D03*
X256000Y52000D03*
X151000D03*
X171000D03*
X276000D03*
X264500Y23500D03*
X300000Y25000D03*
X334500Y175000D03*
X370500Y176500D03*
X395000Y171000D03*
X379000Y148000D03*
X359000D03*
X345500Y107500D03*
X335500Y100500D03*
X340500Y104000D03*
X325000Y114000D03*
X134500Y175000D03*
X195000Y171000D03*
X179000Y148000D03*
X159000D03*
X170000Y176500D03*
X135500Y107500D03*
X140500Y79500D03*
X125500Y100500D03*
X120500Y123000D03*
Y85000D03*
X130500Y104000D03*
X177000Y93000D03*
X62500Y107500D03*
X25000D03*
Y80000D03*
X36500Y88500D03*
X27500Y121500D03*
X72500Y100500D03*
X57500Y123000D03*
X83000Y93500D03*
X47500Y123000D03*
X67500Y104000D03*
X260000Y171000D03*
X254500Y140000D03*
X285500Y163000D03*
X265500Y158000D03*
X270500Y153500D03*
X280500Y148500D03*
X260500Y97000D03*
X241000Y123000D03*
X245000Y119000D03*
X241000Y115000D03*
X249000Y81500D03*
X265500Y100500D03*
X270500Y104000D03*
X275500Y107500D03*
X280500Y111500D03*
X290500Y81500D03*
X285500Y86500D03*
X301500Y113000D03*
X307000D03*
X312500D03*
X295500Y127000D03*
X290500Y133000D03*
X318000Y119500D03*
G54D51*G54D52*G54D53*G54D52*G54D53*G54D52*G54D53*G54D52*G54D53*G54D52*M02*
