M48
INCH
T62C0.020
T61C0.028
%
T62
X052500Y011400
X053550Y010050
X054050Y010400
X054550Y010750
X059500Y017100
X053500Y017500
X057050Y017650
X057900Y014800
X055900Y014800
X058550Y009400
X055100Y005200
X057100Y005200
X055550Y008650
X055050Y007550
X056050Y008650
X055950Y002350
X059500Y002500
X047050Y010400
X046550Y010050
X047550Y010750
X049050Y013300
X049550Y012700
X048050Y011150
X046050Y009700
X045450Y014000
X044100Y012300
X044500Y011900
X044100Y011500
X047050Y015350
X048050Y014850
X048550Y016350
X046550Y015850
X046000Y017100
X050150Y011300
X050700Y011300
X051250Y011300
X051800Y011950
X053500Y002900
X050000Y002500
X033500Y002900
X035900Y002350
X039500Y002500
X045600Y005200
X047600Y005200
X046450Y002350
X044000Y002900
X044900Y008150
X049050Y008150
X048550Y007550
X037100Y005200
X035100Y005200
X032450Y008150
X038550Y009400
X035050Y007550
X036050Y008650
X035550Y008650
X007000Y003550
X005850Y006250
X005000Y004550
X004000Y002900
X024000Y002900
X019500Y002500
X015950Y002350
X013500Y002900
X013500Y003650
X025600Y005200
X015100Y005200
X017100Y005200
X027600Y005200
X026450Y002350
X030000Y002500
X033450Y017500
X037050Y017650
X039500Y017100
X037900Y014800
X035900Y014800
X034550Y010750
X033550Y010050
X034050Y010400
X032500Y011400
X013450Y017500
X019500Y017100
X017900Y014800
X015900Y014800
X017000Y017650
X013550Y010750
X014050Y007950
X012550Y010050
X012050Y012300
X012050Y008500
X013050Y010400
X017700Y009300
X006250Y010750
X002500Y010750
X002500Y008000
X003650Y008850
X002750Y012150
X007250Y010050
X005750Y012300
X008300Y009350
X004750Y012300
X006750Y010400
X026000Y017100
X025450Y014000
X028550Y016300
X026550Y015800
X027050Y015350
X028050Y014850
X026050Y009700
X024100Y012300
X024500Y011900
X024100Y011500
X024900Y008150
X026550Y010050
X027050Y010400
X027550Y010750
X028050Y011150
X029050Y008150
X028550Y008650
X030150Y011300
X030700Y011300
X031250Y011300
X029550Y012700
X029050Y013300
X031800Y011950
T61
X038500Y001000
X037500Y001000
X036500Y001000
X035500Y001000
X034500Y001000
X029000Y001000
X029000Y019000
X028000Y001000
X028000Y019000
X027000Y001000
X026000Y001000
X025000Y001000
X025000Y019000
X026000Y019000
X027000Y019000
X034500Y019000
X035500Y019000
X036500Y019000
X037500Y019000
X038500Y019000
X001500Y008000
X001500Y009000
X001500Y010000
X001500Y011000
X001500Y014900
X001500Y013900
X061000Y004600
X061000Y003600
X049000Y001000
X048000Y001000
X047000Y001000
X046000Y001000
X045000Y001000
X058500Y001000
X057500Y001000
X056500Y001000
X055500Y001000
X054500Y001000
X014500Y019000
X015500Y019000
X016500Y019000
X017500Y019000
X018500Y019000
X005000Y019000
X006000Y019000
X007000Y019000
X008000Y019000
X009000Y019000
X045000Y019000
X046000Y019000
X047000Y019000
X048000Y019000
X049000Y019000
X018500Y001000
X017500Y001000
X016500Y001000
X015500Y001000
X014500Y001000
X009000Y001000
X008000Y001000
X007000Y001000
X006000Y001000
X005000Y001000
X054500Y019000
X055500Y019000
X056500Y019000
X057500Y019000
X058500Y019000
M30
