G04 start of page 16 for group 0 layer_idx 0 *
G04 Title: (unknown), top_paste *
G04 Creator: pcb-rnd 1.2.7 *
G04 CreationDate: 2018-01-15 01:16:43 UTC *
G04 For: newell *
G04 Format: Gerber/RS-274X *
G04 PCB-Dimensions: 625000 200000 *
G04 PCB-Coordinate-Origin: lower left *
%MOIN*%
%FSLAX25Y25*%
%LNTOPPASTE*%
%ADD81R,0.0512X0.0512*%
%ADD80R,0.0320X0.0320*%
%ADD79R,0.0200X0.0200*%
%ADD78R,0.0340X0.0340*%
G54D78*X371100Y154900D02*Y154300D01*
X378900Y154900D02*Y154300D01*
X375000Y163100D02*Y162500D01*
G54D79*X365500Y117500D02*Y111000D01*
X360500Y117500D02*Y111000D01*
X355500Y117500D02*Y111000D01*
X350500Y117500D02*Y111000D01*
X345500Y117500D02*Y111000D01*
X340500Y117500D02*Y111000D01*
X335500Y117500D02*Y111000D01*
X330500Y117500D02*Y111000D01*
Y97000D02*Y90500D01*
X335500Y97000D02*Y90500D01*
X340500Y97000D02*Y90500D01*
X345500Y97000D02*Y90500D01*
X350500Y97000D02*Y90500D01*
X355500Y97000D02*Y90500D01*
X360500Y97000D02*Y90500D01*
X365500Y97000D02*Y90500D01*
X295500Y143500D02*Y137000D01*
X290500Y143500D02*Y137000D01*
X285500Y143500D02*Y137000D01*
X280500Y143500D02*Y137000D01*
X275500Y143500D02*Y137000D01*
X270500Y143500D02*Y137000D01*
X265500Y143500D02*Y137000D01*
X260500Y143500D02*Y137000D01*
Y123000D02*Y116500D01*
X265500Y123000D02*Y116500D01*
X270500Y123000D02*Y116500D01*
X275500Y123000D02*Y116500D01*
X280500Y123000D02*Y116500D01*
X285500Y123000D02*Y116500D01*
X290500Y123000D02*Y116500D01*
X295500Y123000D02*Y116500D01*
G54D78*X178900Y45700D02*Y45100D01*
X171100Y45700D02*Y45100D01*
X175000Y37500D02*Y36900D01*
X148800Y29300D02*Y28700D01*
X141000Y29300D02*Y28700D01*
X144900Y21100D02*Y20500D01*
X168800Y29300D02*Y28700D01*
X161000Y29300D02*Y28700D01*
X164900Y21100D02*Y20500D01*
X561100Y171300D02*Y170700D01*
X568900Y171300D02*Y170700D01*
X565000Y179500D02*Y178900D01*
G54D79*X565500Y117500D02*Y111000D01*
X560500Y117500D02*Y111000D01*
X555500Y117500D02*Y111000D01*
X550500Y117500D02*Y111000D01*
X545500Y117500D02*Y111000D01*
X540500Y117500D02*Y111000D01*
X535500Y117500D02*Y111000D01*
X530500Y117500D02*Y111000D01*
Y97000D02*Y90500D01*
X535500Y97000D02*Y90500D01*
X540500Y97000D02*Y90500D01*
X545500Y97000D02*Y90500D01*
X550500Y97000D02*Y90500D01*
X555500Y97000D02*Y90500D01*
X560500Y97000D02*Y90500D01*
X565500Y97000D02*Y90500D01*
G54D80*X355500Y139350D02*Y137450D01*
X350500Y139350D02*Y137450D01*
X345500Y139350D02*Y137450D01*
X340500Y139350D02*Y137450D01*
Y127550D02*Y125650D01*
X345500Y127550D02*Y125650D01*
X350500Y127550D02*Y125650D01*
X355500Y127550D02*Y125650D01*
X340500Y70550D02*Y68650D01*
X345500Y70550D02*Y68650D01*
X350500Y70550D02*Y68650D01*
X355500Y70550D02*Y68650D01*
Y82350D02*Y80450D01*
X350500Y82350D02*Y80450D01*
X345500Y82350D02*Y80450D01*
X340500Y82350D02*Y80450D01*
G54D78*X181100Y171300D02*Y170700D01*
X188900Y171300D02*Y170700D01*
X185000Y179500D02*Y178900D01*
X188800Y29300D02*Y28700D01*
X181000Y29300D02*Y28700D01*
X184900Y21100D02*Y20500D01*
X158750Y45700D02*Y45100D01*
X150950Y45700D02*Y45100D01*
X154850Y37500D02*Y36900D01*
G54D80*X255500Y70550D02*Y68650D01*
X260500Y70550D02*Y68650D01*
X265500Y70550D02*Y68650D01*
X270500Y70550D02*Y68650D01*
Y82350D02*Y80450D01*
X265500Y82350D02*Y80450D01*
X260500Y82350D02*Y80450D01*
X255500Y82350D02*Y80450D01*
X36500Y70550D02*Y68650D01*
X41500Y70550D02*Y68650D01*
X46500Y70550D02*Y68650D01*
X51500Y70550D02*Y68650D01*
Y82350D02*Y80450D01*
X46500Y82350D02*Y80450D01*
X41500Y82350D02*Y80450D01*
X36500Y82350D02*Y80450D01*
G54D81*X310500Y119893D02*Y119107D01*
X303414Y119893D02*Y119107D01*
X579543Y94393D02*Y93607D01*
X572457Y94393D02*Y93607D01*
X27457Y114893D02*Y114107D01*
X34543Y114893D02*Y114107D01*
G54D79*X42500Y97000D02*Y90500D01*
X47500Y97000D02*Y90500D01*
X52500Y97000D02*Y90500D01*
X57500Y97000D02*Y90500D01*
X62500Y97000D02*Y90500D01*
X67500Y97000D02*Y90500D01*
X72500Y97000D02*Y90500D01*
X77500Y97000D02*Y90500D01*
Y117500D02*Y111000D01*
X72500Y117500D02*Y111000D01*
X67500Y117500D02*Y111000D01*
X62500Y117500D02*Y111000D01*
X57500Y117500D02*Y111000D01*
X52500Y117500D02*Y111000D01*
X47500Y117500D02*Y111000D01*
X42500Y117500D02*Y111000D01*
G54D80*X555500Y139350D02*Y137450D01*
X550500Y139350D02*Y137450D01*
X545500Y139350D02*Y137450D01*
X540500Y139350D02*Y137450D01*
Y127550D02*Y125650D01*
X545500Y127550D02*Y125650D01*
X550500Y127550D02*Y125650D01*
X555500Y127550D02*Y125650D01*
G54D78*X253900Y29300D02*Y28700D01*
X246100Y29300D02*Y28700D01*
X250000Y21100D02*Y20500D01*
X273900Y29300D02*Y28700D01*
X266100Y29300D02*Y28700D01*
X270000Y21100D02*Y20500D01*
X263900Y45700D02*Y45100D01*
X256100Y45700D02*Y45100D01*
X260000Y37500D02*Y36900D01*
X349000Y29300D02*Y28700D01*
X341200Y29300D02*Y28700D01*
X345100Y21100D02*Y20500D01*
X446215Y171341D02*Y170741D01*
X454015Y171341D02*Y170741D01*
X450115Y179541D02*Y178941D01*
X493900Y29300D02*Y28700D01*
X486100Y29300D02*Y28700D01*
X490000Y21100D02*Y20500D01*
X368900Y29300D02*Y28700D01*
X361100Y29300D02*Y28700D01*
X365000Y21100D02*Y20500D01*
X358800Y45700D02*Y45100D01*
X351000Y45700D02*Y45100D01*
X354900Y37500D02*Y36900D01*
X293900Y29300D02*Y28700D01*
X286100Y29300D02*Y28700D01*
X290000Y21100D02*Y20500D01*
X283900Y45700D02*Y45100D01*
X276100Y45700D02*Y45100D01*
X280000Y37500D02*Y36900D01*
X571100Y154900D02*Y154300D01*
X578900Y154900D02*Y154300D01*
X575000Y163100D02*Y162500D01*
G54D80*X155500Y139250D02*Y137350D01*
X150500Y139250D02*Y137350D01*
X145500Y139250D02*Y137350D01*
X140500Y139250D02*Y137350D01*
Y127450D02*Y125550D01*
X145500Y127450D02*Y125550D01*
X150500Y127450D02*Y125550D01*
X155500Y127450D02*Y125550D01*
G54D81*X170000Y93393D02*Y92607D01*
X162914Y93393D02*Y92607D01*
G54D78*X388900Y29300D02*Y28700D01*
X381100Y29300D02*Y28700D01*
X385000Y21100D02*Y20500D01*
X378900Y45700D02*Y45100D01*
X371100Y45700D02*Y45100D01*
X375000Y37500D02*Y36900D01*
X568900Y29300D02*Y28700D01*
X561100Y29300D02*Y28700D01*
X565000Y21100D02*Y20500D01*
X351100Y154900D02*Y154300D01*
X358900Y154900D02*Y154300D01*
X355000Y163100D02*Y162500D01*
X361100Y171300D02*Y170700D01*
X368900Y171300D02*Y170700D01*
X365000Y179500D02*Y178900D01*
X588900Y29300D02*Y28700D01*
X581100Y29300D02*Y28700D01*
X585000Y21100D02*Y20500D01*
X381100Y171300D02*Y170700D01*
X388900Y171300D02*Y170700D01*
X385000Y179500D02*Y178900D01*
X341100Y171300D02*Y170700D01*
X348900Y171300D02*Y170700D01*
X345000Y179500D02*Y178900D01*
X541100Y171300D02*Y170700D01*
X548900Y171300D02*Y170700D01*
X545000Y179500D02*Y178900D01*
X551100Y154900D02*Y154300D01*
X558900Y154900D02*Y154300D01*
X555000Y163100D02*Y162500D01*
X581100Y171300D02*Y170700D01*
X588900Y171300D02*Y170700D01*
X585000Y179500D02*Y178900D01*
G54D81*X293693Y44500D02*X294479D01*
X293693Y37414D02*X294479D01*
G54D78*X246100Y171300D02*Y170700D01*
X253900Y171300D02*Y170700D01*
X250000Y179500D02*Y178900D01*
G54D81*X533107Y161957D02*X533893D01*
X533107Y169043D02*X533893D01*
G54D80*X540500Y70550D02*Y68650D01*
X545500Y70550D02*Y68650D01*
X550500Y70550D02*Y68650D01*
X555500Y70550D02*Y68650D01*
Y82350D02*Y80450D01*
X550500Y82350D02*Y80450D01*
X545500Y82350D02*Y80450D01*
X540500Y82350D02*Y80450D01*
G54D81*X588435Y44857D02*X589221D01*
X588435Y37771D02*X589221D01*
G54D79*X495500Y143500D02*Y137000D01*
X490500Y143500D02*Y137000D01*
X485500Y143500D02*Y137000D01*
X480500Y143500D02*Y137000D01*
X475500Y143500D02*Y137000D01*
X470500Y143500D02*Y137000D01*
X465500Y143500D02*Y137000D01*
X460500Y143500D02*Y137000D01*
Y123000D02*Y116500D01*
X465500Y123000D02*Y116500D01*
X470500Y123000D02*Y116500D01*
X475500Y123000D02*Y116500D01*
X480500Y123000D02*Y116500D01*
X485500Y123000D02*Y116500D01*
X490500Y123000D02*Y116500D01*
X495500Y123000D02*Y116500D01*
G54D78*X473900Y29300D02*Y28700D01*
X466100Y29300D02*Y28700D01*
X470000Y21100D02*Y20500D01*
G54D80*X455500Y70550D02*Y68650D01*
X460500Y70550D02*Y68650D01*
X465500Y70550D02*Y68650D01*
X470500Y70550D02*Y68650D01*
Y82350D02*Y80450D01*
X465500Y82350D02*Y80450D01*
X460500Y82350D02*Y80450D01*
X455500Y82350D02*Y80450D01*
G54D78*X63900Y45800D02*Y45200D01*
X56100Y45800D02*Y45200D01*
X60000Y37600D02*Y37000D01*
X73900Y29300D02*Y28700D01*
X66100Y29300D02*Y28700D01*
X70000Y21100D02*Y20500D01*
X54000Y29300D02*Y28700D01*
X46200Y29300D02*Y28700D01*
X50100Y21100D02*Y20500D01*
G54D81*X493607Y44786D02*X494393D01*
X493607Y37700D02*X494393D01*
X510543Y119893D02*Y119107D01*
X503457Y119893D02*Y119107D01*
X438154Y163910D02*X438940D01*
X438154Y170996D02*X438940D01*
X333107Y161914D02*X333893D01*
X333107Y169000D02*X333893D01*
X388607Y44543D02*X389393D01*
X388607Y37457D02*X389393D01*
X238107Y163957D02*X238893D01*
X238107Y171043D02*X238893D01*
X133107Y161871D02*X133893D01*
X133107Y168957D02*X133893D01*
G54D78*X141200Y171300D02*Y170700D01*
X149000Y171300D02*Y170700D01*
X145100Y179500D02*Y178900D01*
X151100Y154900D02*Y154300D01*
X158900Y154900D02*Y154300D01*
X155000Y163100D02*Y162500D01*
X161100Y171300D02*Y170700D01*
X168900Y171300D02*Y170700D01*
X165000Y179500D02*Y178900D01*
X171000Y154900D02*Y154300D01*
X178800Y154900D02*Y154300D01*
X174900Y163100D02*Y162500D01*
X548900Y29300D02*Y28700D01*
X541100Y29300D02*Y28700D01*
X545000Y21100D02*Y20500D01*
X558900Y45700D02*Y45100D01*
X551100Y45700D02*Y45100D01*
X555000Y37500D02*Y36900D01*
X578900Y45700D02*Y45100D01*
X571100Y45700D02*Y45100D01*
X575000Y37500D02*Y36900D01*
X453900Y29300D02*Y28700D01*
X446100Y29300D02*Y28700D01*
X450000Y21100D02*Y20500D01*
X463900Y45700D02*Y45100D01*
X456100Y45700D02*Y45100D01*
X460000Y37500D02*Y36900D01*
X483900Y45700D02*Y45100D01*
X476100Y45700D02*Y45100D01*
X480000Y37500D02*Y36900D01*
G54D81*X379500Y94393D02*Y93607D01*
X372414Y94393D02*Y93607D01*
X188607Y44543D02*X189393D01*
X188607Y37457D02*X189393D01*
G54D79*X155500Y117500D02*Y111000D01*
X150500Y117500D02*Y111000D01*
X145500Y117500D02*Y111000D01*
X140500Y117500D02*Y111000D01*
X135500Y117500D02*Y111000D01*
X130500Y117500D02*Y111000D01*
X125500Y117500D02*Y111000D01*
X120500Y117500D02*Y111000D01*
Y97000D02*Y90500D01*
X125500Y97000D02*Y90500D01*
X130500Y97000D02*Y90500D01*
X135500Y97000D02*Y90500D01*
X140500Y97000D02*Y90500D01*
X145500Y97000D02*Y90500D01*
X150500Y97000D02*Y90500D01*
X155500Y97000D02*Y90500D01*
G54D80*X58500Y70550D02*Y68650D01*
X63500Y70550D02*Y68650D01*
X68500Y70550D02*Y68650D01*
X73500Y70550D02*Y68650D01*
Y82350D02*Y80450D01*
X68500Y82350D02*Y80450D01*
X63500Y82350D02*Y80450D01*
X58500Y82350D02*Y80450D01*
M02*
