G04 start of page 14 for group 1 layer_idx 9 *
G04 Title: (unknown), top_silk *
G04 Creator: pcb-rnd 1.2.7 *
G04 CreationDate: 2018-01-15 01:01:03 UTC *
G04 For: newell *
G04 Format: Gerber/RS-274X *
G04 PCB-Dimensions: 625000 200000 *
G04 PCB-Coordinate-Origin: lower left *
%MOIN*%
%FSLAX25Y25*%
%LNTOPSILK*%
%ADD225C,0.0059*%
%ADD224C,0.0200*%
%ADD223C,0.0061*%
%ADD222C,0.0079*%
%ADD221C,0.0080*%
%ADD220C,0.0100*%
G54D220*X557062Y27030D02*X561062D01*
X564062Y29030D02*Y25030D01*
Y28030D02*X565062Y29030D01*
X568062D01*
X545062D02*X548062D01*
X553062D02*X550062D01*
X545062Y25030D02*X548062D01*
X550062D02*X553062D01*
X550062Y34030D02*Y25030D01*
X554062Y26030D02*Y28030D01*
X553062Y29030D02*X554062Y28030D01*
Y26030D02*X553062Y25030D01*
X538062Y29030D02*X541062D01*
Y25030D02*X538062D01*
X542062Y28030D02*Y26030D01*
X538062Y29030D02*Y21030D01*
X541062Y29030D02*X542062Y28030D01*
X541062Y25030D02*X542062Y26030D01*
X544062Y28030D02*Y26030D01*
Y28030D02*X545062Y29030D01*
X544062Y26030D02*X545062Y25030D01*
X570062Y29030D02*Y25030D01*
Y28030D02*X571062Y29030D01*
X573062D01*
X574062Y28030D02*X573062Y29030D01*
X574062Y28030D02*Y25030D01*
X576062Y28030D02*Y26030D01*
X577062Y25030D02*X580062D01*
X576062Y26030D02*X577062Y25030D01*
X580062D02*Y34030D01*
Y29030D02*X577062D01*
X576062Y28030D02*X577062Y29030D01*
X537062Y20030D02*G75*G03X539062Y20030I1000J0D01*G01*
G75*G03X537062Y20030I-1000J0D01*G01*
X549062Y35030D02*G75*G03X551062Y35030I1000J0D01*G01*
G75*G03X549062Y35030I-1000J0D01*G01*
X579062D02*G75*G03X581062Y35030I1000J0D01*G01*
G75*G03X579062Y35030I-1000J0D01*G01*
G54D221*X552562Y32530D02*Y31030D01*
Y32530D02*X553062Y33030D01*
X553562D01*
X554062Y32530D01*
Y31030D01*
Y32530D02*X554562Y33030D01*
X555062D01*
X555562Y32530D01*
Y31030D01*
X552062Y33030D02*X552562Y32530D01*
X558262Y33030D02*X558762Y32530D01*
X557262Y33030D02*X558262D01*
X556762Y32530D02*X557262Y33030D01*
X556762Y32530D02*Y31530D01*
X557262Y31030D01*
X558762Y33030D02*Y31530D01*
X559262Y31030D01*
X557262D02*X558262D01*
X558762Y31530D01*
X562462Y35030D02*Y31030D01*
X561962D02*X562462Y31530D01*
X560962Y31030D02*X561962D01*
X560462Y31530D02*X560962Y31030D01*
X560462Y32530D02*Y31530D01*
Y32530D02*X560962Y33030D01*
X561962D01*
X562462Y32530D01*
X564162Y31030D02*X565662D01*
X563662Y31530D02*X564162Y31030D01*
X563662Y32530D02*Y31530D01*
Y32530D02*X564162Y33030D01*
X565162D01*
X565662Y32530D01*
X563662Y32030D02*X565662D01*
Y32530D02*Y32030D01*
X568662Y33030D02*Y31530D01*
X569162Y31030D01*
X569662D01*
X570162Y31530D01*
Y33030D02*Y31530D01*
X570662Y31030D01*
X571162D01*
X571662Y31530D01*
Y33030D02*Y31530D01*
X572862Y34030D02*Y33930D01*
Y32530D02*Y31030D01*
X574362Y35030D02*Y31530D01*
X574862Y31030D01*
X573862Y33530D02*X574862D01*
X575862Y35030D02*Y31030D01*
Y32530D02*X576362Y33030D01*
X577362D01*
X577862Y32530D01*
Y31030D01*
G54D220*X485434Y58326D02*Y39674D01*
X516566D01*
Y58326D01*
X485434D02*X498500D01*
X516566D02*X503500D01*
X498500D02*G75*G03X503500Y58326I2500J0D01*G01*
G54D222*X606094Y14000D02*G75*G03X617906Y14000I5906J0D01*G01*
G75*G03X606094Y14000I-5906J0D01*G01*
G54D220*X485434Y81326D02*Y62674D01*
X516566D01*
Y81326D01*
X485434D02*X498500D01*
X516566D02*X503500D01*
X498500D02*G75*G03X503500Y81326I2500J0D01*G01*
X117000Y67000D02*Y53000D01*
X117071Y67071D02*G75*G03X102929Y52929I-7071J-7071D01*G01*
X102929Y52929D02*G75*G03X117071Y52929I7071J7071D01*G01*
G54D221*X169607Y73245D02*X170393D01*
X169607Y78755D02*X170393D01*
X157107Y21245D02*X157893D01*
X157107Y26755D02*X157893D01*
G54D223*X140220Y55992D02*X167780D01*
X140220Y30008D02*X167780D01*
X140220Y55992D02*Y30008D01*
X167780Y55992D02*Y30008D01*
G54D224*X134000Y126000D02*X174000D01*
Y108000D01*
X134000D01*
Y126000D01*
X174000D01*
Y120000D01*
X134000D01*
Y126000D01*
G54D220*X147000D02*Y120000D01*
X161000Y126000D02*Y120000D01*
G54D224*X118900Y160900D02*Y143100D01*
G54D220*X125900Y140600D01*
X160100D01*
Y163400D02*Y140600D01*
X125900Y163400D02*X160100D01*
X125900D02*X118900Y160900D01*
X187201Y80934D02*X202799D01*
X187201Y113066D02*Y80934D01*
Y113066D02*X202799D01*
Y80934D01*
G54D221*X124245Y93393D02*Y92607D01*
X129755Y93393D02*Y92607D01*
G54D220*X149100Y97200D02*Y100100D01*
X152700Y103700D01*
X158900D01*
Y97200D01*
X149100Y92800D02*Y86300D01*
X158900D01*
Y92800D01*
X210969Y173969D02*Y156465D01*
X170031Y173969D02*X210969D01*
X170031D02*X167031Y170969D01*
Y156465D01*
X210969Y147535D02*Y130031D01*
X170031D02*X210969D01*
X170031D02*X167031Y133031D01*
Y147535D02*Y133031D01*
X122934Y167201D02*Y182799D01*
X155066D01*
Y167201D01*
X122934D01*
G54D223*X223315Y46638D02*Y1362D01*
X262685Y46638D02*Y1362D01*
X223315D02*X262685D01*
X223315Y46638D02*X262685D01*
G54D220*X404000Y191500D02*X424000D01*
Y162500D01*
X404000D02*X424000D01*
X404000Y191500D02*Y162500D01*
G54D221*X390107Y119755D02*X390893D01*
X390107Y114245D02*X390893D01*
X390150Y111755D02*X390936D01*
X390150Y106245D02*X390936D01*
X390150Y103755D02*X390936D01*
X390150Y98245D02*X390936D01*
G54D224*X280000Y94000D02*X320000D01*
Y76000D01*
X280000D01*
Y94000D01*
X320000D01*
Y88000D01*
X280000D01*
Y94000D01*
G54D220*X293000D02*Y88000D01*
X307000Y94000D02*Y88000D01*
G54D221*X324245Y82393D02*Y81607D01*
X329755Y82393D02*Y81607D01*
G54D224*X327000Y181000D02*X337000D01*
X327000Y191000D02*X337000D01*
G54D220*X332000D02*Y181000D01*
G54D224*X327000Y191000D02*G75*G03X327000Y181000I0J-5000D01*G01*
X337000D02*G75*G03X337000Y191000I0J5000D01*G01*
X238000Y181000D02*X248000D01*
X238000Y191000D02*X248000D01*
G54D220*X243000D02*Y181000D01*
G54D224*X238000Y191000D02*G75*G03X238000Y181000I0J-5000D01*G01*
X248000D02*G75*G03X248000Y191000I0J5000D01*G01*
G54D220*X243000Y75000D02*Y71000D01*
X241000Y73000D02*X245000D01*
X243000Y103000D02*Y99000D01*
Y77000D02*G75*G03X243000Y97000I0J10000D01*G01*
G75*G03X243000Y77000I0J-10000D01*G01*
G54D221*X270245Y82393D02*Y81607D01*
X275755Y82393D02*Y81607D01*
G54D222*X8094Y14000D02*G75*G03X19906Y14000I5906J0D01*G01*
G75*G03X8094Y14000I-5906J0D01*G01*
Y186000D02*G75*G03X19906Y186000I5906J0D01*G01*
G75*G03X8094Y186000I-5906J0D01*G01*
G54D225*X38504Y152000D02*G75*G03X111496Y152000I36496J0D01*G01*
Y152000D02*G75*G03X38504Y152000I-36496J0D01*G01*
G54D224*X65300Y96400D02*X88700D01*
G54D220*X65300D02*X62000Y90300D01*
Y53600D01*
X92000D01*
Y90300D02*Y53600D01*
Y90300D02*X88700Y96400D01*
G54D224*X22300D02*X45700D01*
G54D220*X22300D02*X19000Y90300D01*
Y53600D01*
X49000D01*
Y90300D02*Y53600D01*
Y90300D02*X45700Y96400D01*
G54D221*X106607Y76245D02*X107393D01*
X106607Y81755D02*X107393D01*
G54D223*X409225Y93882D02*X467217D01*
X409225Y8370D02*X467217D01*
X409225Y93882D02*Y8370D01*
X467217Y93882D02*Y8370D01*
G54D221*X474245Y33436D02*Y32650D01*
X479755Y33436D02*Y32650D01*
X391245Y59850D02*Y59064D01*
X396755Y59850D02*Y59064D01*
X453298Y106393D02*Y105607D01*
X447788Y106393D02*Y105607D01*
X391245Y75436D02*Y74650D01*
X396755Y75436D02*Y74650D01*
G54D224*X426000Y144300D02*Y104300D01*
Y144300D02*X444000D01*
Y104300D01*
X426000D02*X444000D01*
X426000Y144300D02*Y104300D01*
Y144300D02*X432000D01*
Y104300D01*
X426000D02*X432000D01*
G54D220*X426000Y117300D02*X432000D01*
X426000Y131300D02*X432000D01*
G54D221*X455150Y121245D02*X455936D01*
X455150Y126755D02*X455936D01*
G54D223*X456283Y190780D02*Y163220D01*
X491717Y190780D02*Y163220D01*
X456283D02*X491717D01*
X456283Y190780D02*X491717D01*
G54D221*X441107Y147745D02*X441893D01*
X441107Y153255D02*X441893D01*
G54D224*X529000Y191000D02*X579000D01*
X529000Y181000D02*X579000D01*
G54D220*X574000Y191000D02*Y181000D01*
G54D224*X579000D02*G75*G03X579000Y191000I0J5000D01*G01*
X529000D02*G75*G03X529000Y181000I0J-5000D01*G01*
G54D222*X606094Y186000D02*G75*G03X617906Y186000I5906J0D01*G01*
G75*G03X606094Y186000I-5906J0D01*G01*
G54D221*X511607Y188755D02*X512393D01*
X511607Y183245D02*X512393D01*
X527607Y165755D02*X528393D01*
X527607Y160245D02*X528393D01*
X547607D02*X548393D01*
X547607Y165755D02*X548393D01*
X457245Y106393D02*Y105607D01*
X462755Y106393D02*Y105607D01*
X560379Y122479D02*Y98621D01*
X533621D02*X560379D01*
X533621Y125379D02*Y98621D01*
Y125379D02*X557479D01*
X560379Y122479D01*
X557479Y123479D02*G75*G03X557479Y121479I0J-1000D01*G01*
G75*G03X557479Y123479I0J1000D01*G01*
G54D224*X617000Y142000D02*Y112000D01*
X607000Y142000D02*Y112000D01*
G54D220*Y117000D02*X617000D01*
G54D224*X607000Y112000D02*G75*G03X617000Y112000I5000J0D01*G01*
Y142000D02*G75*G03X607000Y142000I-5000J0D01*G01*
X525000Y157600D02*X550300D01*
Y139300D02*X525000D01*
X550300Y139400D02*G75*G03X550300Y157600I0J9100D01*G01*
X525000D02*G75*G03X525000Y139400I0J-9100D01*G01*
G54D221*X498000Y54500D02*Y51000D01*
X498500Y50500D01*
X499500D01*
X500000Y51000D01*
Y54500D02*Y51000D01*
X501200Y52000D02*X503200Y54500D01*
X501200Y52000D02*X503700D01*
X503200Y54500D02*Y50500D01*
X434874Y60658D02*Y57158D01*
X435374Y56658D01*
X436374D01*
X436874Y57158D01*
Y60658D02*Y57158D01*
X438074Y60158D02*X438574Y60658D01*
X440074D01*
X440574Y60158D01*
Y59158D01*
X438074Y56658D02*X440574Y59158D01*
X438074Y56658D02*X440574D01*
X464764Y108150D02*X466764D01*
X467264Y107650D01*
Y106650D01*
X466764Y106150D02*X467264Y106650D01*
X465264Y106150D02*X466764D01*
X465264Y108150D02*Y104150D01*
X466064Y106150D02*X467264Y104150D01*
X468464Y108150D02*X470464D01*
X468464D02*Y106150D01*
X468964Y106650D01*
X469964D01*
X470464Y106150D01*
Y104650D01*
X469964Y104150D02*X470464Y104650D01*
X468964Y104150D02*X469964D01*
X468464Y104650D02*X468964Y104150D01*
X468850Y31893D02*Y29893D01*
Y31893D02*X469350Y32393D01*
X470350D01*
X470850Y31893D02*X470350Y32393D01*
X470850Y31893D02*Y30393D01*
X468850D02*X472850D01*
X470850Y31193D02*X472850Y32393D01*
X471350Y33593D02*X468850Y35593D01*
X471350Y36093D02*Y33593D01*
X468850Y35593D02*X472850D01*
X447464Y113693D02*X448764D01*
X446764Y114393D02*X447464Y113693D01*
X446764Y116993D02*Y114393D01*
Y116993D02*X447464Y117693D01*
X448764D01*
X449964Y116893D02*X450764Y117693D01*
Y113693D01*
X449964D02*X451464D01*
X452664Y114193D02*X453164Y113693D01*
X452664Y117193D02*Y114193D01*
Y117193D02*X453164Y117693D01*
X454164D01*
X454664Y117193D01*
Y114193D01*
X454164Y113693D02*X454664Y114193D01*
X453164Y113693D02*X454164D01*
X452664Y114693D02*X454664Y116693D01*
X498500Y77500D02*Y74000D01*
X499000Y73500D01*
X500000D01*
X500500Y74000D01*
Y77500D02*Y74000D01*
X501700Y77000D02*X502200Y77500D01*
X503200D01*
X503700Y77000D01*
X503200Y73500D02*X503700Y74000D01*
X502200Y73500D02*X503200D01*
X501700Y74000D02*X502200Y73500D01*
Y75700D02*X503200D01*
X503700Y77000D02*Y76200D01*
Y75200D02*Y74000D01*
Y75200D02*X503200Y75700D01*
X503700Y76200D02*X503200Y75700D01*
X394350Y132650D02*Y128650D01*
X396350D01*
X397550Y130850D02*X399050D01*
X397550Y128650D02*X399550D01*
X397550Y132650D02*Y128650D01*
Y132650D02*X399550D01*
X401250D02*Y128650D01*
X402550Y132650D02*X403250Y131950D01*
Y129350D01*
X402550Y128650D02*X403250Y129350D01*
X400750Y128650D02*X402550D01*
X400750Y132650D02*X402550D01*
X404450Y128650D02*X406450D01*
X407650Y131650D02*Y128650D01*
Y131650D02*X408350Y132650D01*
X409450D01*
X410150Y131650D01*
Y128650D01*
X407650Y130650D02*X410150D01*
X412050Y128650D02*X413350D01*
X411350Y129350D02*X412050Y128650D01*
X411350Y131950D02*Y129350D01*
Y131950D02*X412050Y132650D01*
X413350D01*
X414550D02*X416550D01*
X415550D02*Y128650D01*
X452136Y128150D02*X453436D01*
X451436Y128850D02*X452136Y128150D01*
X451436Y131450D02*Y128850D01*
Y131450D02*X452136Y132150D01*
X453436D01*
X454636Y131350D02*X455436Y132150D01*
Y128150D01*
X454636D02*X456136D01*
X457336Y132150D02*X459336D01*
X457336D02*Y130150D01*
X457836Y130650D01*
X458836D01*
X459336Y130150D01*
Y128650D01*
X458836Y128150D02*X459336Y128650D01*
X457836Y128150D02*X458836D01*
X457336Y128650D02*X457836Y128150D01*
X394436Y127150D02*Y123150D01*
X396436D01*
X397636Y125350D02*X399136D01*
X397636Y123150D02*X399636D01*
X397636Y127150D02*Y123150D01*
Y127150D02*X399636D01*
X401336D02*Y123150D01*
X402636Y127150D02*X403336Y126450D01*
Y123850D01*
X402636Y123150D02*X403336Y123850D01*
X400836Y123150D02*X402636D01*
X400836Y127150D02*X402636D01*
X404536Y123150D02*X406536D01*
X407736Y125350D02*X409236D01*
X407736Y123150D02*X409736D01*
X407736Y127150D02*Y123150D01*
Y127150D02*X409736D01*
X410936D02*X412936D01*
X413436Y126650D01*
Y125650D01*
X412936Y125150D02*X413436Y125650D01*
X411436Y125150D02*X412936D01*
X411436Y127150D02*Y123150D01*
X412236Y125150D02*X413436Y123150D01*
X414636Y127150D02*X416636D01*
X417136Y126650D01*
Y125650D01*
X416636Y125150D02*X417136Y125650D01*
X415136Y125150D02*X416636D01*
X415136Y127150D02*Y123150D01*
X415936Y125150D02*X417136Y123150D01*
X420000Y107300D02*X423500D01*
X424000Y107800D01*
Y108800D02*Y107800D01*
Y108800D02*X423500Y109300D01*
X420000D02*X423500D01*
X420000Y112000D02*X420500Y112500D01*
X420000Y112000D02*Y111000D01*
X420500Y110500D02*X420000Y111000D01*
X420500Y110500D02*X423500D01*
X424000Y111000D01*
X421800Y112000D02*X422300Y112500D01*
X421800Y112000D02*Y110500D01*
X424000Y112000D02*Y111000D01*
Y112000D02*X423500Y112500D01*
X422300D02*X423500D01*
X458000Y196437D02*X460000D01*
X460500Y195937D01*
Y194937D01*
X460000Y194437D02*X460500Y194937D01*
X458500Y194437D02*X460000D01*
X458500Y196437D02*Y192437D01*
X459300Y194437D02*X460500Y192437D01*
X461700Y194637D02*X463200D01*
X461700Y192437D02*X463700D01*
X461700Y196437D02*Y192437D01*
Y196437D02*X463700D01*
X466900D02*X467400Y195937D01*
X465400Y196437D02*X466900D01*
X464900Y195937D02*X465400Y196437D01*
X464900Y195937D02*Y194937D01*
X465400Y194437D01*
X466900D01*
X467400Y193937D01*
Y192937D01*
X466900Y192437D02*X467400Y192937D01*
X465400Y192437D02*X466900D01*
X464900Y192937D02*X465400Y192437D01*
X468600Y194637D02*X470100D01*
X468600Y192437D02*X470600D01*
X468600Y196437D02*Y192437D01*
Y196437D02*X470600D01*
X471800D02*X473800D01*
X472800D02*Y192437D01*
X475000D02*X477000D01*
X480200Y196437D02*X480700Y195937D01*
X478700Y196437D02*X480200D01*
X478200Y195937D02*X478700Y196437D01*
X478200Y195937D02*Y194937D01*
X478700Y194437D01*
X480200D01*
X480700Y193937D01*
Y192937D01*
X480200Y192437D02*X480700Y192937D01*
X478700Y192437D02*X480200D01*
X478200Y192937D02*X478700Y192437D01*
X481900Y196437D02*Y194437D01*
X482400Y192437D01*
X483400Y194437D01*
X484400Y192437D01*
X484900Y194437D01*
Y196437D02*Y194437D01*
X486100Y195637D02*X486900Y196437D01*
Y192437D01*
X486100D02*X487600D01*
X510093Y190650D02*X511393D01*
X509393Y191350D02*X510093Y190650D01*
X509393Y193950D02*Y191350D01*
Y193950D02*X510093Y194650D01*
X511393D01*
X514093D02*X514593Y194150D01*
X513093Y194650D02*X514093D01*
X512593Y194150D02*X513093Y194650D01*
X512593Y194150D02*Y191150D01*
X513093Y190650D01*
X514093Y192850D02*X514593Y192350D01*
X512593Y192850D02*X514093D01*
X513093Y190650D02*X514093D01*
X514593Y191150D01*
Y192350D02*Y191150D01*
X525550Y167236D02*X526850D01*
X524850Y167936D02*X525550Y167236D01*
X524850Y170536D02*Y167936D01*
Y170536D02*X525550Y171236D01*
X526850D01*
X528050Y167736D02*X528550Y167236D01*
X528050Y168536D02*Y167736D01*
Y168536D02*X528750Y169236D01*
X529350D01*
X530050Y168536D01*
Y167736D01*
X529550Y167236D02*X530050Y167736D01*
X528550Y167236D02*X529550D01*
X528050Y169936D02*X528750Y169236D01*
X528050Y170736D02*Y169936D01*
Y170736D02*X528550Y171236D01*
X529550D01*
X530050Y170736D01*
Y169936D01*
X529350Y169236D02*X530050Y169936D01*
X546093Y167150D02*X547393D01*
X545393Y167850D02*X546093Y167150D01*
X545393Y170450D02*Y167850D01*
Y170450D02*X546093Y171150D01*
X547393D01*
X549093Y167150D02*X551093Y171150D01*
X548593D02*X551093D01*
X544500Y118000D02*Y114500D01*
X545000Y114000D01*
X546000D01*
X546500Y114500D01*
Y118000D02*Y114500D01*
X547700Y117200D02*X548500Y118000D01*
Y114000D01*
X547700D02*X549200D01*
X536000Y150500D02*X537000Y148500D01*
X538000Y150500D01*
X537000Y148500D02*Y146500D01*
X539200Y150000D02*X539700Y150500D01*
X540700D01*
X541200Y150000D01*
X540700Y146500D02*X541200Y147000D01*
X539700Y146500D02*X540700D01*
X539200Y147000D02*X539700Y146500D01*
Y148700D02*X540700D01*
X541200Y150000D02*Y149200D01*
Y148200D02*Y147000D01*
Y148200D02*X540700Y148700D01*
X541200Y149200D02*X540700Y148700D01*
X438007Y154650D02*X439307D01*
X437307Y155350D02*X438007Y154650D01*
X437307Y157950D02*Y155350D01*
Y157950D02*X438007Y158650D01*
X439307D01*
X440507Y157850D02*X441307Y158650D01*
Y154650D01*
X440507D02*X442007D01*
X443207Y156150D02*X445207Y158650D01*
X443207Y156150D02*X445707D01*
X445207Y158650D02*Y154650D01*
X119086Y61000D02*Y58000D01*
Y61000D02*X119586Y61500D01*
X120586D01*
X121086Y61000D01*
Y58500D01*
X120086Y57500D02*X121086Y58500D01*
X119586Y57500D02*X120086D01*
X119086Y58000D02*X119586Y57500D01*
X120086Y59000D02*X121086Y57500D01*
X122286Y61000D02*X122786Y61500D01*
X124286D01*
X124786Y61000D01*
Y60000D01*
X122286Y57500D02*X124786Y60000D01*
X122286Y57500D02*X124786D01*
X53700Y70400D02*X55000D01*
X53000Y71100D02*X53700Y70400D01*
X53000Y73700D02*Y71100D01*
Y73700D02*X53700Y74400D01*
X55000D01*
X56200D02*X58200D01*
X56200D02*Y72400D01*
X56700Y72900D01*
X57700D01*
X58200Y72400D01*
Y70900D01*
X57700Y70400D02*X58200Y70900D01*
X56700Y70400D02*X57700D01*
X56200Y70900D02*X56700Y70400D01*
X104264Y87650D02*X106264D01*
X106764Y87150D01*
Y86150D01*
X106264Y85650D02*X106764Y86150D01*
X104764Y85650D02*X106264D01*
X104764Y87650D02*Y83650D01*
X105564Y85650D02*X106764Y83650D01*
X107964Y87150D02*X108464Y87650D01*
X109464D01*
X109964Y87150D01*
X109464Y83650D02*X109964Y84150D01*
X108464Y83650D02*X109464D01*
X107964Y84150D02*X108464Y83650D01*
Y85850D02*X109464D01*
X109964Y87150D02*Y86350D01*
Y85350D02*Y84150D01*
Y85350D02*X109464Y85850D01*
X109964Y86350D02*X109464Y85850D01*
X11556Y16222D02*Y12222D01*
X14056Y16222D02*Y12222D01*
X11556Y14222D02*X14056D01*
X15256Y15422D02*X16056Y16222D01*
Y12222D01*
X15256D02*X16756D01*
X11700Y70400D02*X13000D01*
X11000Y71100D02*X11700Y70400D01*
X11000Y73700D02*Y71100D01*
Y73700D02*X11700Y74400D01*
X13000D01*
X14200Y73600D02*X15000Y74400D01*
Y70400D01*
X14200D02*X15700D01*
X10811Y187946D02*Y183946D01*
X13311Y187946D02*Y183946D01*
X10811Y185946D02*X13311D01*
X14511Y187446D02*X15011Y187946D01*
X16511D01*
X17011Y187446D01*
Y186446D01*
X14511Y183946D02*X17011Y186446D01*
X14511Y183946D02*X17011D01*
X38000Y176437D02*Y172437D01*
X40000D01*
X41200Y175637D02*X42000Y176437D01*
Y172437D01*
X41200D02*X42700D01*
X170200Y175449D02*X171500D01*
X169500Y176149D02*X170200Y175449D01*
X169500Y178749D02*Y176149D01*
Y178749D02*X170200Y179449D01*
X171500D01*
X172700Y176949D02*X174700Y179449D01*
X172700Y176949D02*X175200D01*
X174700Y179449D02*Y175449D01*
X127000Y125000D02*Y122000D01*
Y125000D02*X127500Y125500D01*
X128500D01*
X129000Y125000D01*
Y122500D01*
X128000Y121500D02*X129000Y122500D01*
X127500Y121500D02*X128000D01*
X127000Y122000D02*X127500Y121500D01*
X128000Y123000D02*X129000Y121500D01*
X130200Y124700D02*X131000Y125500D01*
Y121500D01*
X130200D02*X131700D01*
X126000Y138600D02*Y134600D01*
X127300Y138600D02*X128000Y137900D01*
Y135300D01*
X127300Y134600D02*X128000Y135300D01*
X125500Y134600D02*X127300D01*
X125500Y138600D02*X127300D01*
X129200Y137800D02*X130000Y138600D01*
Y134600D01*
X129200D02*X130700D01*
X122934Y188767D02*X124934D01*
X125434Y188267D01*
Y187267D01*
X124934Y186767D02*X125434Y187267D01*
X123434Y186767D02*X124934D01*
X123434Y188767D02*Y184767D01*
X124234Y186767D02*X125434Y184767D01*
X126634Y188267D02*X127134Y188767D01*
X128634D01*
X129134Y188267D01*
Y187267D01*
X126634Y184767D02*X129134Y187267D01*
X126634Y184767D02*X129134D01*
X124464Y100650D02*X125764D01*
X123764Y101350D02*X124464Y100650D01*
X123764Y103950D02*Y101350D01*
Y103950D02*X124464Y104650D01*
X125764D01*
X126964Y104150D02*X127464Y104650D01*
X128964D01*
X129464Y104150D01*
Y103150D01*
X126964Y100650D02*X129464Y103150D01*
X126964Y100650D02*X129464D01*
X167464Y67150D02*X168764D01*
X166764Y67850D02*X167464Y67150D01*
X166764Y70450D02*Y67850D01*
Y70450D02*X167464Y71150D01*
X168764D01*
X169964Y70650D02*X170464Y71150D01*
X171464D01*
X171964Y70650D01*
X171464Y67150D02*X171964Y67650D01*
X170464Y67150D02*X171464D01*
X169964Y67650D02*X170464Y67150D01*
Y69350D02*X171464D01*
X171964Y70650D02*Y69850D01*
Y68850D02*Y67650D01*
Y68850D02*X171464Y69350D01*
X171964Y69850D02*X171464Y69350D01*
X154936Y19607D02*X156936D01*
X157436Y19107D01*
Y18107D01*
X156936Y17607D02*X157436Y18107D01*
X155436Y17607D02*X156936D01*
X155436Y19607D02*Y15607D01*
X156236Y17607D02*X157436Y15607D01*
X158636Y18807D02*X159436Y19607D01*
Y15607D01*
X158636D02*X160136D01*
X169500Y55437D02*X170500Y51437D01*
X171500Y55437D01*
X172700D02*X174700D01*
X175200Y54937D01*
Y53937D01*
X174700Y53437D02*X175200Y53937D01*
X173200Y53437D02*X174700D01*
X173200Y55437D02*Y51437D01*
X174000Y53437D02*X175200Y51437D01*
X176400Y54637D02*X177200Y55437D01*
Y51437D01*
X176400D02*X177900D01*
X181233Y82934D02*Y80934D01*
Y82934D02*X181733Y83434D01*
X182733D01*
X183233Y82934D02*X182733Y83434D01*
X183233Y82934D02*Y81434D01*
X181233D02*X185233D01*
X183233Y82234D02*X185233Y83434D01*
X181233Y86634D02*X181733Y87134D01*
X181233Y86634D02*Y85134D01*
X181733Y84634D02*X181233Y85134D01*
X181733Y84634D02*X182733D01*
X183233Y85134D01*
Y86634D02*Y85134D01*
Y86634D02*X183733Y87134D01*
X184733D01*
X185233Y86634D02*X184733Y87134D01*
X185233Y86634D02*Y85134D01*
X184733Y84634D02*X185233Y85134D01*
X183033Y89834D02*Y88334D01*
X185233Y90334D02*Y88334D01*
X181233D02*X185233D01*
X181233Y90334D02*Y88334D01*
Y91534D02*X185233D01*
X181233D02*X185233Y94034D01*
X181233D02*X185233D01*
X181233Y97234D02*X181733Y97734D01*
X181233Y97234D02*Y95734D01*
X181733Y95234D02*X181233Y95734D01*
X181733Y95234D02*X182733D01*
X183233Y95734D01*
Y97234D02*Y95734D01*
Y97234D02*X183733Y97734D01*
X184733D01*
X185233Y97234D02*X184733Y97734D01*
X185233Y97234D02*Y95734D01*
X184733Y95234D02*X185233Y95734D01*
X183033Y100434D02*Y98934D01*
X185233Y100934D02*Y98934D01*
X181233D02*X185233D01*
X181233Y100934D02*Y98934D01*
X166000Y86000D02*Y82500D01*
X166500Y82000D01*
X167500D01*
X168000Y82500D01*
Y86000D02*Y82500D01*
X169700Y82000D02*X171700Y86000D01*
X169200D02*X171700D01*
X587000Y188000D02*Y184000D01*
Y188000D02*X589000D01*
X587000Y186200D02*X588500D01*
X590200Y188000D02*X592200D01*
X591200D02*Y184000D01*
X593900Y188000D02*Y184000D01*
X595200Y188000D02*X595900Y187300D01*
Y184700D01*
X595200Y184000D02*X595900Y184700D01*
X593400Y184000D02*X595200D01*
X593400Y188000D02*X595200D01*
X597100D02*X598100D01*
X597600D02*Y184000D01*
X597100D02*X598100D01*
X608946Y16054D02*Y12054D01*
X611446Y16054D02*Y12054D01*
X608946Y14054D02*X611446D01*
X612646Y13554D02*X614646Y16054D01*
X612646Y13554D02*X615146D01*
X614646Y16054D02*Y12054D01*
X614000Y90500D02*Y89200D01*
X613300Y88500D02*X614000Y89200D01*
X610700Y88500D02*X613300D01*
X610700D02*X610000Y89200D01*
Y90500D02*Y89200D01*
X610500Y91700D02*X613500D01*
X610500D02*X610000Y92200D01*
Y93200D02*Y92200D01*
Y93200D02*X610500Y93700D01*
X613500D01*
X614000Y93200D02*X613500Y93700D01*
X614000Y93200D02*Y92200D01*
X613500Y91700D02*X614000Y92200D01*
X610000Y94900D02*X614000D01*
X610000D02*X614000Y97400D01*
X610000D02*X614000D01*
X610000Y98600D02*X614000D01*
X610000D02*X614000Y101100D01*
X610000D02*X614000D01*
X610500Y102300D02*X610000Y102800D01*
Y103800D02*Y102800D01*
Y103800D02*X610500Y104300D01*
X614000Y103800D02*X613500Y104300D01*
X614000Y103800D02*Y102800D01*
X613500Y102300D02*X614000Y102800D01*
X611800Y103800D02*Y102800D01*
X610500Y104300D02*X611300D01*
X612300D02*X613500D01*
X612300D02*X611800Y103800D01*
X611300Y104300D02*X611800Y103800D01*
X609189Y188189D02*Y184189D01*
X611689Y188189D02*Y184189D01*
X609189Y186189D02*X611689D01*
X612889Y187689D02*X613389Y188189D01*
X614389D01*
X614889Y187689D01*
X614389Y184189D02*X614889Y184689D01*
X613389Y184189D02*X614389D01*
X612889Y184689D02*X613389Y184189D01*
Y186389D02*X614389D01*
X614889Y187689D02*Y186889D01*
Y185889D02*Y184689D01*
Y185889D02*X614389Y186389D01*
X614889Y186889D02*X614389Y186389D01*
X389350Y59307D02*Y58007D01*
X388650Y57307D02*X389350Y58007D01*
X386050Y57307D02*X388650D01*
X386050D02*X385350Y58007D01*
Y59307D02*Y58007D01*
X389350Y61007D02*X387350Y62507D01*
X385850D02*X387350D01*
X385350Y62007D02*X385850Y62507D01*
X385350Y62007D02*Y61007D01*
X385850Y60507D02*X385350Y61007D01*
X385850Y60507D02*X386850D01*
X387350Y61007D01*
Y62507D02*Y61007D01*
X394113Y138268D02*Y134268D01*
X396113D01*
X397313Y136468D02*X398813D01*
X397313Y134268D02*X399313D01*
X397313Y138268D02*Y134268D01*
Y138268D02*X399313D01*
X401013D02*Y134268D01*
X402313Y138268D02*X403013Y137568D01*
Y134968D01*
X402313Y134268D02*X403013Y134968D01*
X400513Y134268D02*X402313D01*
X400513Y138268D02*X402313D01*
X404213Y134268D02*X406213D01*
X407413Y138268D02*Y136268D01*
X407913Y134268D01*
X408913Y136268D01*
X409913Y134268D01*
X410413Y136268D01*
Y138268D02*Y136268D01*
X411613Y138268D02*X412613D01*
X412113D02*Y134268D01*
X411613D02*X412613D01*
X413813Y138268D02*Y134268D01*
Y138268D02*X415813D01*
X413813Y136468D02*X415313D01*
X417013Y138268D02*X418013D01*
X417513D02*Y134268D01*
X417013D02*X418013D01*
X404000Y197500D02*X405000D01*
X404500D02*Y193500D01*
X404000D02*X405000D01*
X408200Y197500D02*X408700Y197000D01*
X406700Y197500D02*X408200D01*
X406200Y197000D02*X406700Y197500D01*
X406200Y197000D02*Y196000D01*
X406700Y195500D01*
X408200D01*
X408700Y195000D01*
Y194000D01*
X408200Y193500D02*X408700Y194000D01*
X406700Y193500D02*X408200D01*
X406200Y194000D02*X406700Y193500D01*
X410400Y197500D02*Y193500D01*
X409900Y197500D02*X411900D01*
X412400Y197000D01*
Y196000D01*
X411900Y195500D02*X412400Y196000D01*
X410400Y195500D02*X411900D01*
X413600Y196700D02*X414400Y197500D01*
Y193500D01*
X413600D02*X415100D01*
X386350Y125150D02*X388350D01*
X388850Y124650D01*
Y123650D01*
X388350Y123150D02*X388850Y123650D01*
X386850Y123150D02*X388350D01*
X386850Y125150D02*Y121150D01*
X387650Y123150D02*X388850Y121150D01*
X390550D02*X392050Y123150D01*
Y124650D02*Y123150D01*
X391550Y125150D02*X392050Y124650D01*
X390550Y125150D02*X391550D01*
X390050Y124650D02*X390550Y125150D01*
X390050Y124650D02*Y123650D01*
X390550Y123150D01*
X392050D01*
X369350Y110650D02*X371350D01*
X371850Y110150D01*
Y109150D01*
X371350Y108650D02*X371850Y109150D01*
X369850Y108650D02*X371350D01*
X369850Y110650D02*Y106650D01*
X370650Y108650D02*X371850Y106650D01*
X373050Y107150D02*X373550Y106650D01*
X373050Y107950D02*Y107150D01*
Y107950D02*X373750Y108650D01*
X374350D01*
X375050Y107950D01*
Y107150D01*
X374550Y106650D02*X375050Y107150D01*
X373550Y106650D02*X374550D01*
X373050Y109350D02*X373750Y108650D01*
X373050Y110150D02*Y109350D01*
Y110150D02*X373550Y110650D01*
X374550D01*
X375050Y110150D01*
Y109350D01*
X374350Y108650D02*X375050Y109350D01*
X387393Y96650D02*X389393D01*
X389893Y96150D01*
Y95150D01*
X389393Y94650D02*X389893Y95150D01*
X387893Y94650D02*X389393D01*
X387893Y96650D02*Y92650D01*
X388693Y94650D02*X389893Y92650D01*
X391593D02*X393593Y96650D01*
X391093D02*X393593D01*
X385350Y74221D02*Y72221D01*
Y74221D02*X385850Y74721D01*
X386850D01*
X387350Y74221D02*X386850Y74721D01*
X387350Y74221D02*Y72721D01*
X385350D02*X389350D01*
X387350Y73521D02*X389350Y74721D01*
X385350Y77421D02*X385850Y77921D01*
X385350Y77421D02*Y76421D01*
X385850Y75921D02*X385350Y76421D01*
X385850Y75921D02*X388850D01*
X389350Y76421D01*
X387150Y77421D02*X387650Y77921D01*
X387150Y77421D02*Y75921D01*
X389350Y77421D02*Y76421D01*
Y77421D02*X388850Y77921D01*
X387650D02*X388850D01*
X323200Y193500D02*X324500D01*
X322500Y194200D02*X323200Y193500D01*
X322500Y196800D02*Y194200D01*
Y196800D02*X323200Y197500D01*
X324500D01*
X325700Y197000D02*Y194000D01*
Y197000D02*X326200Y197500D01*
X327200D01*
X327700Y197000D01*
Y194000D01*
X327200Y193500D02*X327700Y194000D01*
X326200Y193500D02*X327200D01*
X325700Y194000D02*X326200Y193500D01*
X328900Y197500D02*Y193500D01*
Y197500D02*X331400Y193500D01*
Y197500D02*Y193500D01*
X332600Y197500D02*Y193500D01*
Y197500D02*X335100Y193500D01*
Y197500D02*Y193500D01*
X336300Y197000D02*X336800Y197500D01*
X338300D01*
X338800Y197000D01*
Y196000D01*
X336300Y193500D02*X338800Y196000D01*
X336300Y193500D02*X338800D01*
X234700D02*X236000D01*
X234000Y194200D02*X234700Y193500D01*
X234000Y196800D02*Y194200D01*
Y196800D02*X234700Y197500D01*
X236000D01*
X237200Y197000D02*Y194000D01*
Y197000D02*X237700Y197500D01*
X238700D01*
X239200Y197000D01*
Y194000D01*
X238700Y193500D02*X239200Y194000D01*
X237700Y193500D02*X238700D01*
X237200Y194000D02*X237700Y193500D01*
X240400Y197500D02*Y193500D01*
Y197500D02*X242900Y193500D01*
Y197500D02*Y193500D01*
X244100Y197500D02*Y193500D01*
Y197500D02*X246600Y193500D01*
Y197500D02*Y193500D01*
X247800Y195000D02*X249800Y197500D01*
X247800Y195000D02*X250300D01*
X249800Y197500D02*Y193500D01*
X231000Y85500D02*Y84200D01*
X230300Y83500D02*X231000Y84200D01*
X227700Y83500D02*X230300D01*
X227700D02*X227000Y84200D01*
Y85500D02*Y84200D01*
X227800Y86700D02*X227000Y87500D01*
X231000D01*
Y88200D02*Y86700D01*
X227800Y89400D02*X227000Y90200D01*
X231000D01*
Y90900D02*Y89400D01*
X280000Y100500D02*Y97000D01*
X280500Y96500D01*
X281500D01*
X282000Y97000D01*
Y100500D02*Y97000D01*
X283200Y100500D02*X285200D01*
X283200D02*Y98500D01*
X283700Y99000D01*
X284700D01*
X285200Y98500D01*
Y97000D01*
X284700Y96500D02*X285200Y97000D01*
X283700Y96500D02*X284700D01*
X283200Y97000D02*X283700Y96500D01*
X335350Y79893D02*Y78593D01*
X334650Y77893D02*X335350Y78593D01*
X332050Y77893D02*X334650D01*
X332050D02*X331350Y78593D01*
Y79893D02*Y78593D01*
X332150Y81093D02*X331350Y81893D01*
X335350D01*
Y82593D02*Y81093D01*
X331850Y83793D02*X331350Y84293D01*
Y85293D02*Y84293D01*
Y85293D02*X331850Y85793D01*
X335350Y85293D02*X334850Y85793D01*
X335350Y85293D02*Y84293D01*
X334850Y83793D02*X335350Y84293D01*
X333150Y85293D02*Y84293D01*
X331850Y85793D02*X332650D01*
X333650D02*X334850D01*
X333650D02*X333150Y85293D01*
X332650Y85793D02*X333150Y85293D01*
X268350Y79350D02*Y78050D01*
X267650Y77350D02*X268350Y78050D01*
X265050Y77350D02*X267650D01*
X265050D02*X264350Y78050D01*
Y79350D02*Y78050D01*
X265150Y80550D02*X264350Y81350D01*
X268350D01*
Y82050D02*Y80550D01*
X264850Y83250D02*X264350Y83750D01*
Y85250D02*Y83750D01*
Y85250D02*X264850Y85750D01*
X265850D01*
X268350Y83250D02*X265850Y85750D01*
X268350D02*Y83250D01*
X236700Y48437D02*X238000D01*
X236000Y49137D02*X236700Y48437D01*
X236000Y51737D02*Y49137D01*
Y51737D02*X236700Y52437D01*
X238000D01*
X239200Y51937D02*Y48937D01*
Y51937D02*X239700Y52437D01*
X240700D01*
X241200Y51937D01*
Y48937D01*
X240700Y48437D02*X241200Y48937D01*
X239700Y48437D02*X240700D01*
X239200Y48937D02*X239700Y48437D01*
X242400Y52437D02*Y48437D01*
Y52437D02*X244900Y48437D01*
Y52437D02*Y48437D01*
X246100Y52437D02*Y48437D01*
Y52437D02*X248600Y48437D01*
Y52437D02*Y48437D01*
X249800Y51637D02*X250600Y52437D01*
Y48437D01*
X249800D02*X251300D01*
M02*
