G04 start of page 3 for group 5 layer_idx 5 *
G04 Title: (unknown), Intern *
G04 Creator: pcb-rnd 1.2.7 *
G04 CreationDate: 2018-01-15 01:01:03 UTC *
G04 For: newell *
G04 Format: Gerber/RS-274X *
G04 PCB-Dimensions: 625000 200000 *
G04 PCB-Coordinate-Origin: lower left *
%MOIN*%
%FSLAX25Y25*%
%LNGROUP5*%
%ADD66C,0.0420*%
%ADD65C,0.0460*%
%ADD64C,0.0394*%
%ADD63C,0.0320*%
%ADD62C,0.0280*%
%ADD61C,0.0984*%
%ADD60C,0.1181*%
%ADD59C,0.1378*%
%ADD58C,0.0300*%
%ADD57C,0.0200*%
%ADD56C,0.0350*%
%ADD55C,0.0360*%
%ADD54C,0.0720*%
%ADD53C,0.0660*%
%ADD52C,0.0787*%
%ADD51C,0.1230*%
%ADD50C,0.1427*%
%ADD49C,0.1624*%
%ADD48C,0.0600*%
%ADD47C,0.0900*%
%ADD46C,0.0001*%
G54D46*G36*
X285500Y86500D02*Y77500D01*
X294500D01*
Y86500D01*
X285500D01*
G37*
G54D47*X300000Y82000D03*
X310000D03*
X164000Y114000D03*
G54D46*G36*
X240000Y85000D02*Y79000D01*
X246000D01*
Y85000D01*
X240000D01*
G37*
G54D48*X243000Y92000D03*
G54D49*Y38567D03*
G54D50*Y14157D03*
G54D51*X256780Y18094D03*
G54D46*G36*
X576000Y189000D02*Y183000D01*
X582000D01*
Y189000D01*
X576000D01*
G37*
G54D48*X569000Y186000D03*
X559000D03*
X549000D03*
X539000D03*
X547200Y148500D03*
G54D46*G36*
X609000Y115000D02*Y109000D01*
X615000D01*
Y115000D01*
X609000D01*
G37*
G54D48*X612000Y122000D03*
Y132000D03*
Y142000D03*
X529000Y186000D03*
G54D52*X461205Y185858D03*
X486795D03*
G54D46*G36*
X405700Y190300D02*Y183700D01*
X412300D01*
Y190300D01*
X405700D01*
G37*
G54D53*X409000Y177000D03*
Y167000D03*
X419000Y187000D03*
Y177000D03*
Y167000D03*
G54D46*G36*
X433500Y118800D02*Y109800D01*
X442500D01*
Y118800D01*
X433500D01*
G37*
G54D47*X438000Y124300D03*
Y134300D03*
G54D52*X461205Y168142D03*
X486795D03*
G54D46*G36*
X324000Y189000D02*Y183000D01*
X330000D01*
Y189000D01*
X324000D01*
G37*
G54D48*X337000Y186000D03*
G54D46*G36*
X235000Y189000D02*Y183000D01*
X241000D01*
Y189000D01*
X235000D01*
G37*
G54D48*X248000Y186000D03*
G54D46*G36*
X525000Y151500D02*Y145500D01*
X531000D01*
Y151500D01*
X525000D01*
G37*
G36*
X106400Y53600D02*Y46400D01*
X113600D01*
Y53600D01*
X106400D01*
G37*
G54D54*X110000Y60000D03*
Y70000D03*
G54D46*G36*
X139500Y118500D02*Y109500D01*
X148500D01*
Y118500D01*
X139500D01*
G37*
G54D47*X154000Y114000D03*
G54D52*X154138Y53000D03*
Y33000D03*
X144138Y43000D03*
G54D48*X117500Y175000D03*
X223000Y144000D03*
X236000D03*
Y152000D03*
Y160000D03*
X223000Y152000D03*
Y160000D03*
G54D55*X538000Y163000D03*
X508000Y180000D03*
G54D48*X452500Y150500D03*
G54D55*X573000Y120000D03*
G54D48*X549000Y122000D03*
X467000Y124000D03*
G54D55*X578000Y117000D03*
X558000Y115000D03*
G54D48*X379000Y109000D03*
X190000Y76000D03*
X199000D03*
X208000D03*
Y85000D03*
X181000Y76000D03*
X169000Y24000D03*
X77000Y47500D03*
X34000D03*
X273000Y70000D03*
X127000Y82500D03*
X327000Y70000D03*
G54D55*X402000Y71500D03*
G54D48*X400500Y35500D03*
X415000Y101500D03*
G54D55*X495000Y42500D03*
X482500Y52500D03*
G54D48*X477000Y45000D03*
G54D55*X495000Y35500D03*
Y65500D03*
Y72000D03*
X482500Y78500D03*
Y67000D03*
Y61500D03*
X507000Y74500D03*
X473500Y59000D03*
X444000Y87500D03*
X536000Y87000D03*
X495000Y85000D03*
X521500Y104000D03*
X527000Y96500D03*
G54D56*G54D57*G54D56*G54D57*G54D56*G54D57*G54D56*G54D57*G54D56*G54D57*G54D56*G54D57*G54D48*G54D58*G54D59*G54D60*G54D61*G54D62*G54D60*G54D62*G54D63*G54D60*G54D62*G54D64*G54D65*G54D48*G54D64*G54D62*G54D63*G54D66*G54D60*G54D48*G54D64*M02*
