G04 start of page 12 for group 2 layer_idx 0 *
G04 Title: (unknown), top_mask *
G04 Creator: pcb-rnd 1.2.7 *
G04 CreationDate: 2018-01-15 01:01:03 UTC *
G04 For: newell *
G04 Format: Gerber/RS-274X *
G04 PCB-Dimensions: 625000 200000 *
G04 PCB-Coordinate-Origin: lower left *
%MOIN*%
%FSLAX25Y25*%
%LNTOPMASK*%
%ADD209R,0.0187X0.0187*%
%ADD208R,0.0355X0.0355*%
%ADD207R,0.0230X0.0230*%
%ADD206R,0.0344X0.0344*%
%ADD205R,0.0300X0.0300*%
%ADD204R,0.1290X0.1290*%
%ADD203R,0.0572X0.0572*%
%ADD202R,0.0733X0.0733*%
%ADD201R,0.0909X0.0909*%
%ADD200R,0.1460X0.1460*%
%ADD199R,0.1128X0.1128*%
%ADD198C,0.0780*%
%ADD197C,0.0860*%
%ADD196C,0.0817*%
%ADD195C,0.1281*%
%ADD194C,0.1260*%
%ADD193C,0.1457*%
%ADD192C,0.1654*%
%ADD191C,0.0660*%
%ADD190C,0.0960*%
%ADD189C,0.0001*%
G54D189*G36*
X285200Y86800D02*Y77200D01*
X294800D01*
Y86800D01*
X285200D01*
G37*
G54D190*X300000Y82000D03*
X310000D03*
X164000Y114000D03*
G54D189*G36*
X239700Y85300D02*Y78700D01*
X246300D01*
Y85300D01*
X239700D01*
G37*
G54D191*X243000Y92000D03*
G54D192*Y38567D03*
G54D193*Y14157D03*
G54D194*X256780Y18094D03*
G54D189*G36*
X575700Y189300D02*Y182700D01*
X582300D01*
Y189300D01*
X575700D01*
G37*
G54D191*X569000Y186000D03*
X559000D03*
X549000D03*
G54D195*X612000D03*
G54D191*X539000D03*
X547200Y148500D03*
G54D195*X612000Y14000D03*
G54D189*G36*
X608700Y115300D02*Y108700D01*
X615300D01*
Y115300D01*
X608700D01*
G37*
G54D191*X612000Y122000D03*
Y132000D03*
Y142000D03*
X529000Y186000D03*
G54D196*X461205Y185858D03*
X486795D03*
G54D189*G36*
X404700Y191300D02*Y182700D01*
X413300D01*
Y191300D01*
X404700D01*
G37*
G54D197*X409000Y177000D03*
Y167000D03*
X419000Y187000D03*
Y177000D03*
Y167000D03*
G54D189*G36*
X433200Y119100D02*Y109500D01*
X442800D01*
Y119100D01*
X433200D01*
G37*
G54D190*X438000Y124300D03*
Y134300D03*
G54D196*X461205Y168142D03*
X486795D03*
G54D189*G36*
X323700Y189300D02*Y182700D01*
X330300D01*
Y189300D01*
X323700D01*
G37*
G54D191*X337000Y186000D03*
G54D189*G36*
X234700Y189300D02*Y182700D01*
X241300D01*
Y189300D01*
X234700D01*
G37*
G54D191*X248000Y186000D03*
G54D189*G36*
X524700Y151800D02*Y145200D01*
X531300D01*
Y151800D01*
X524700D01*
G37*
G36*
X106100Y53900D02*Y46100D01*
X113900D01*
Y53900D01*
X106100D01*
G37*
G54D198*X110000Y60000D03*
Y70000D03*
G54D195*X14000Y14000D03*
Y186000D03*
G54D189*G36*
X139200Y118800D02*Y109200D01*
X148800D01*
Y118800D01*
X139200D01*
G37*
G54D190*X154000Y114000D03*
G54D196*X154138Y53000D03*
Y33000D03*
X144138Y43000D03*
G54D199*X44488Y152000D02*X45000D01*
X105000D02*X105512D01*
G54D200*X129400Y153900D02*Y150100D01*
G54D201*X127977Y177755D02*Y172245D01*
G54D200*X150600Y153900D02*Y150100D01*
G54D202*X168922Y152000D02*X177977D01*
X200023D02*X209078D01*
G54D201*X150023Y177755D02*Y172245D01*
G54D203*X126607Y89457D02*X127393D01*
X126607Y96543D02*X127393D01*
X110543Y79393D02*Y78607D01*
G54D204*X71400Y86000D02*X82600D01*
X71400Y63000D02*X82600D01*
X28400Y86000D02*X39600D01*
X28400Y63000D02*X39600D01*
G54D203*X103457Y79393D02*Y78607D01*
G54D205*X140600Y102500D02*X146900D01*
X161100D02*X167400D01*
X140600Y97500D02*X146900D01*
X161100D02*X167400D01*
X140600Y92500D02*X146900D01*
X140600Y87500D02*X146900D01*
X161100D02*X167400D01*
X161100Y92500D02*X167400D01*
G54D206*X459737Y96047D02*Y91717D01*
X447737Y96047D02*Y91717D01*
X443737Y96047D02*Y91717D01*
X439737Y96047D02*Y91717D01*
X435737Y96047D02*Y91717D01*
G54D203*X173543Y76393D02*Y75607D01*
X166457Y76393D02*Y75607D01*
G54D201*X192245Y85977D02*X197755D01*
G54D203*X272607Y78457D02*X273393D01*
X272607Y85543D02*X273393D01*
X459607Y109543D02*X460393D01*
X450150D02*X450936D01*
G54D201*X192245Y108023D02*X197755D01*
G54D203*X459086Y124393D02*Y123607D01*
X452000Y124393D02*Y123607D01*
G54D207*X487083Y49000D02*X491689D01*
X487083Y46441D02*X491689D01*
X487083Y43882D02*X491689D01*
X487083Y41323D02*X491689D01*
X487083Y56677D02*X491689D01*
X487083Y54118D02*X491689D01*
X487083Y51559D02*X491689D01*
X510311Y41323D02*X514917D01*
G54D203*X161043Y24393D02*Y23607D01*
X153957Y24393D02*Y23607D01*
G54D207*X510311Y43882D02*X514917D01*
X510311Y46441D02*X514917D01*
X510311Y49000D02*X514917D01*
X510311Y51559D02*X514917D01*
X510311Y54118D02*X514917D01*
X510311Y56677D02*X514917D01*
G54D206*X431737Y96047D02*Y91717D01*
X427737Y96047D02*Y91717D01*
G54D203*X326607Y78457D02*X327393D01*
X326607Y85543D02*X327393D01*
X459607Y102457D02*X460393D01*
X450150D02*X450936D01*
X387000Y101393D02*Y100607D01*
X394086Y101393D02*Y100607D01*
G54D208*X401441Y101492D02*Y100508D01*
X406559Y101492D02*Y100508D01*
G54D203*X386957Y117393D02*Y116607D01*
X394043Y117393D02*Y116607D01*
X387000Y109393D02*Y108607D01*
X394086Y109393D02*Y108607D01*
G54D208*X401441Y117492D02*Y116508D01*
Y109492D02*Y108508D01*
X406559Y117492D02*Y116508D01*
Y109492D02*Y108508D01*
G54D207*X487083Y79677D02*X491689D01*
X487083Y77118D02*X491689D01*
X487083Y74559D02*X491689D01*
X487083Y72000D02*X491689D01*
X487083Y69441D02*X491689D01*
X487083Y66882D02*X491689D01*
X487083Y64323D02*X491689D01*
X510311D02*X514917D01*
X510311Y66882D02*X514917D01*
X510311Y69441D02*X514917D01*
X510311Y72000D02*X514917D01*
X510311Y74559D02*X514917D01*
X510311Y77118D02*X514917D01*
X510311Y79677D02*X514917D01*
G54D206*X423737Y96047D02*Y91717D01*
X419737Y96047D02*Y91717D01*
X407060Y83370D02*X411390D01*
X407060Y79370D02*X411390D01*
X407060Y75370D02*X411390D01*
X407060Y71370D02*X411390D01*
X407060Y55370D02*X411390D01*
X407060Y47370D02*X411390D01*
X407060Y43370D02*X411390D01*
G54D203*X393607Y55914D02*X394393D01*
X393607Y63000D02*X394393D01*
X393607Y71500D02*X394393D01*
X393607Y78586D02*X394393D01*
G54D206*X407060Y39370D02*X411390D01*
X407060Y35370D02*X411390D01*
X465052Y79394D02*X469382D01*
G54D203*X445043Y150893D02*Y150107D01*
X437957Y150893D02*Y150107D01*
G54D206*X465052Y75394D02*X469382D01*
X465052Y71394D02*X469382D01*
X465052Y67394D02*X469382D01*
X465052Y63394D02*X469382D01*
X465052Y59394D02*X469382D01*
X465052Y55394D02*X469382D01*
X465052Y51394D02*X469382D01*
X465052Y47394D02*X469382D01*
X465052Y43394D02*X469382D01*
G54D203*X476607Y29500D02*X477393D01*
X476607Y36586D02*X477393D01*
X508457Y186393D02*Y185607D01*
X515543Y186393D02*Y185607D01*
X524457Y163393D02*Y162607D01*
X531543Y163393D02*Y162607D01*
X551543Y163393D02*Y162607D01*
X544457Y163393D02*Y162607D01*
G54D209*X558023Y132992D02*Y128566D01*
X554874Y132992D02*Y128566D01*
X551724Y132992D02*Y128566D01*
X548575Y132992D02*Y128566D01*
X545425Y132992D02*Y128566D01*
X542275Y132992D02*Y128566D01*
X539126Y132992D02*Y128566D01*
X535976Y132992D02*Y128566D01*
X526008Y123023D02*X530434D01*
X526008Y119874D02*X530434D01*
X526008Y116724D02*X530434D01*
X526008Y113575D02*X530434D01*
X526008Y110425D02*X530434D01*
X526008Y107275D02*X530434D01*
X526008Y104126D02*X530434D01*
X526008Y100976D02*X530434D01*
X535977Y95434D02*Y91008D01*
X539126Y95434D02*Y91008D01*
X542276Y95434D02*Y91008D01*
X545425Y95434D02*Y91008D01*
X548575Y95434D02*Y91008D01*
X551725Y95434D02*Y91008D01*
X554874Y95434D02*Y91008D01*
X558024Y95434D02*Y91008D01*
X563566Y100977D02*X567992D01*
X563566Y104126D02*X567992D01*
X563566Y107276D02*X567992D01*
X563566Y110425D02*X567992D01*
X563566Y113575D02*X567992D01*
X563566Y116725D02*X567992D01*
X563566Y119874D02*X567992D01*
X563566Y123024D02*X567992D01*
M02*
