G04 start of page 4 for group 7 layer_idx 2 *
G04 Title: (unknown), Intern *
G04 Creator: pcb-rnd 1.2.7 *
G04 CreationDate: 2018-01-15 01:01:03 UTC *
G04 For: newell *
G04 Format: Gerber/RS-274X *
G04 PCB-Dimensions: 625000 200000 *
G04 PCB-Coordinate-Origin: lower left *
%MOIN*%
%FSLAX25Y25*%
%LNGROUP7*%
%ADD87C,0.0420*%
%ADD86C,0.0460*%
%ADD85C,0.0394*%
%ADD84C,0.0320*%
%ADD83C,0.0280*%
%ADD82C,0.0984*%
%ADD81C,0.1181*%
%ADD80C,0.1378*%
%ADD79C,0.0300*%
%ADD78C,0.0200*%
%ADD77C,0.0350*%
%ADD76C,0.0360*%
%ADD75C,0.0720*%
%ADD74C,0.0660*%
%ADD73C,0.0787*%
%ADD72C,0.1230*%
%ADD71C,0.1427*%
%ADD70C,0.1624*%
%ADD69C,0.0600*%
%ADD68C,0.0900*%
%ADD67C,0.0001*%
G54D67*G36*
X285500Y86500D02*Y77500D01*
X294500D01*
Y86500D01*
X285500D01*
G37*
G54D68*X300000Y82000D03*
X310000D03*
X164000Y114000D03*
G54D67*G36*
X240000Y85000D02*Y79000D01*
X246000D01*
Y85000D01*
X240000D01*
G37*
G54D69*X243000Y92000D03*
G54D70*Y38567D03*
G54D71*Y14157D03*
G54D72*X256780Y18094D03*
G54D67*G36*
X576000Y189000D02*Y183000D01*
X582000D01*
Y189000D01*
X576000D01*
G37*
G54D69*X569000Y186000D03*
X559000D03*
X549000D03*
X539000D03*
X547200Y148500D03*
G54D67*G36*
X609000Y115000D02*Y109000D01*
X615000D01*
Y115000D01*
X609000D01*
G37*
G54D69*X612000Y122000D03*
Y132000D03*
Y142000D03*
X529000Y186000D03*
G54D73*X461205Y185858D03*
X486795D03*
G54D67*G36*
X405700Y190300D02*Y183700D01*
X412300D01*
Y190300D01*
X405700D01*
G37*
G54D74*X409000Y177000D03*
Y167000D03*
X419000Y187000D03*
Y177000D03*
Y167000D03*
G54D67*G36*
X433500Y118800D02*Y109800D01*
X442500D01*
Y118800D01*
X433500D01*
G37*
G54D68*X438000Y124300D03*
Y134300D03*
G54D73*X461205Y168142D03*
X486795D03*
G54D67*G36*
X324000Y189000D02*Y183000D01*
X330000D01*
Y189000D01*
X324000D01*
G37*
G54D69*X337000Y186000D03*
G54D67*G36*
X235000Y189000D02*Y183000D01*
X241000D01*
Y189000D01*
X235000D01*
G37*
G54D69*X248000Y186000D03*
G54D67*G36*
X525000Y151500D02*Y145500D01*
X531000D01*
Y151500D01*
X525000D01*
G37*
G36*
X106400Y53600D02*Y46400D01*
X113600D01*
Y53600D01*
X106400D01*
G37*
G54D75*X110000Y60000D03*
Y70000D03*
G54D67*G36*
X139500Y118500D02*Y109500D01*
X148500D01*
Y118500D01*
X139500D01*
G37*
G54D68*X154000Y114000D03*
G54D73*X154138Y53000D03*
Y33000D03*
X144138Y43000D03*
G54D69*X117500Y175000D03*
X223000Y144000D03*
X236000D03*
Y152000D03*
Y160000D03*
X223000Y152000D03*
Y160000D03*
G54D76*X538000Y163000D03*
X508000Y180000D03*
G54D69*X452500Y150500D03*
G54D76*X573000Y120000D03*
G54D69*X549000Y122000D03*
X467000Y124000D03*
G54D76*X578000Y117000D03*
X558000Y115000D03*
G54D69*X379000Y109000D03*
X190000Y76000D03*
X199000D03*
X208000D03*
Y85000D03*
X181000Y76000D03*
X169000Y24000D03*
X77000Y47500D03*
X34000D03*
X273000Y70000D03*
X127000Y82500D03*
X327000Y70000D03*
G54D76*X402000Y71500D03*
G54D69*X400500Y35500D03*
X415000Y101500D03*
G54D76*X495000Y42500D03*
X482500Y52500D03*
G54D69*X477000Y45000D03*
G54D76*X495000Y35500D03*
Y65500D03*
Y72000D03*
X482500Y78500D03*
Y67000D03*
Y61500D03*
X507000Y74500D03*
X473500Y59000D03*
X444000Y87500D03*
X536000Y87000D03*
X495000Y85000D03*
X521500Y104000D03*
X527000Y96500D03*
G54D77*G54D78*G54D77*G54D78*G54D77*G54D78*G54D77*G54D78*G54D77*G54D78*G54D77*G54D78*G54D69*G54D79*G54D80*G54D81*G54D82*G54D83*G54D81*G54D83*G54D84*G54D81*G54D83*G54D85*G54D86*G54D69*G54D85*G54D83*G54D84*G54D87*G54D81*G54D69*G54D85*M02*
