M48
INCH
T186C0.020
T185C0.035
T184C0.042
T183C0.046
T182C0.039
T181C0.032
T180C0.028
T179C0.098
T178C0.118
T177C0.138
T176C0.030
T175C0.060
%
T186
X053800Y016300
X050800Y018000
X057300Y012000
X057800Y011700
X055800Y011500
X040200Y007150
X049500Y004250
X048250Y005250
X049500Y003550
X049500Y006550
X049500Y007200
X048250Y007850
X048250Y006700
X048250Y006150
X050700Y007450
X047350Y005900
X044400Y008750
X053600Y008700
X049500Y008500
X052150Y010400
X052700Y009650
T180
X057900Y018600
X056900Y018600
X055900Y018600
X054900Y018600
X053900Y018600
X061200Y011200
X061200Y012200
X061200Y013200
X061200Y014200
X052900Y018600
X032700Y018600
X033700Y018600
X023800Y018600
X024800Y018600
T176
X024300Y008200
X024300Y009200
T181
X054720Y014850
X052800Y014850
T185
X011750Y017500
X022300Y014400
X023600Y014400
X023600Y015200
X023600Y016000
X022300Y015200
X022300Y016000
X045250Y015050
X054900Y012200
X046700Y012400
X037900Y010900
X019000Y007600
X019900Y007600
X020800Y007600
X020800Y008500
X018100Y007600
X016900Y002400
X007700Y004750
X003400Y004750
X027300Y007000
X012700Y008250
X032700Y007000
X040050Y003550
X041500Y010150
X047700Y004500
T182
X046120Y018586
X048680Y018586
X046120Y016814
X048680Y016814
X015414Y005300
X015414Y003300
X014414Y004300
T184
X011000Y005000
X011000Y006000
X011000Y007000
T183
X040900Y018700
X040900Y017700
X040900Y016700
X041900Y018700
X041900Y017700
X041900Y016700
T175
X029000Y008200
X030000Y008200
X031000Y008200
X016400Y011400
X043800Y011430
X043800Y012430
X043800Y013430
X014400Y011400
X015400Y011400
T179
X025678Y001809
T178
X024300Y001416
T177
X024300Y003857
M30
