G04 start of page 15 for group -1 layer_idx 16777221 *
G04 Title: (unknown), <virtual group> *
G04 Creator: pcb-rnd 1.2.7 *
G04 CreationDate: 2018-01-15 00:32:24 UTC *
G04 For: newell *
G04 Format: Gerber/RS-274X *
G04 PCB-Dimensions: 625000 200000 *
G04 PCB-Coordinate-Origin: lower left *
%MOIN*%
%FSLAX25Y25*%
%LNFAB*%
%ADD240C,0.0100*%
%ADD239C,0.0075*%
%ADD238C,0.0060*%
%ADD237R,0.0080X0.0080*%
%ADD236C,0.0001*%
G54D236*G36*
X239400Y42733D02*X247166Y34967D01*
X246600Y34401D01*
X238834Y42167D01*
X239400Y42733D01*
G37*
G36*
X238834Y34967D02*X246600Y42733D01*
X247166Y42167D01*
X239400Y34401D01*
X238834Y34967D01*
G37*
G54D237*X241400Y40167D02*X244600D01*
X241400D02*Y36967D01*
X244600D01*
Y40167D02*Y36967D01*
X239800Y41767D02*X246200D01*
X239800D02*Y35367D01*
X246200D01*
Y41767D02*Y35367D01*
G54D236*G36*
X11400Y215416D02*X19166Y207650D01*
X18600Y207084D01*
X10834Y214850D01*
X11400Y215416D01*
G37*
G36*
X10834Y207650D02*X18600Y215416D01*
X19166Y214850D01*
X11400Y207084D01*
X10834Y207650D01*
G37*
G54D237*X13400Y212850D02*X16600D01*
X13400D02*Y209650D01*
X16600D01*
Y212850D02*Y209650D01*
X11800Y214450D02*X18200D01*
X11800D02*Y208050D01*
X18200D01*
Y214450D02*Y208050D01*
G54D238*X135000Y213500D02*X136500Y210500D01*
X138000Y213500D01*
X136500Y210500D02*Y207500D01*
X139800Y210800D02*X142050D01*
X139800Y207500D02*X142800D01*
X139800Y213500D02*Y207500D01*
Y213500D02*X142800D01*
X147600D02*X148350Y212750D01*
X145350Y213500D02*X147600D01*
X144600Y212750D02*X145350Y213500D01*
X144600Y212750D02*Y211250D01*
X145350Y210500D01*
X147600D01*
X148350Y209750D01*
Y208250D01*
X147600Y207500D02*X148350Y208250D01*
X145350Y207500D02*X147600D01*
X144600Y208250D02*X145350Y207500D01*
X98000Y212300D02*X99200Y213500D01*
Y207500D01*
X98000D02*X100250D01*
X45000Y208250D02*X45750Y207500D01*
X45000Y212750D02*Y208250D01*
Y212750D02*X45750Y213500D01*
X47250D01*
X48000Y212750D01*
Y208250D01*
X47250Y207500D02*X48000Y208250D01*
X45750Y207500D02*X47250D01*
X45000Y209000D02*X48000Y212000D01*
X49800Y207500D02*X50550D01*
X52350Y212300D02*X53550Y213500D01*
Y207500D01*
X52350D02*X54600D01*
X56400Y212750D02*X57150Y213500D01*
X58650D01*
X59400Y212750D01*
X58650Y207500D02*X59400Y208250D01*
X57150Y207500D02*X58650D01*
X56400Y208250D02*X57150Y207500D01*
Y210800D02*X58650D01*
X59400Y212750D02*Y211550D01*
Y210050D02*Y208250D01*
Y210050D02*X58650Y210800D01*
X59400Y211550D02*X58650Y210800D01*
X61200Y208250D02*X61950Y207500D01*
X61200Y209450D02*Y208250D01*
Y209450D02*X62250Y210500D01*
X63150D01*
X64200Y209450D01*
Y208250D01*
X63450Y207500D02*X64200Y208250D01*
X61950Y207500D02*X63450D01*
X61200Y211550D02*X62250Y210500D01*
X61200Y212750D02*Y211550D01*
Y212750D02*X61950Y213500D01*
X63450D01*
X64200Y212750D01*
Y211550D01*
X63150Y210500D02*X64200Y211550D01*
X612000Y14000D02*Y9200D01*
Y14000D02*X616160Y16400D01*
X612000Y14000D02*X607840Y16400D01*
X610400Y14000D02*G75*G03X613600Y14000I1600J0D01*G01*
G75*G03X610400Y14000I-1600J0D01*G01*
X608800D02*G75*G03X615200Y14000I3200J0D01*G01*
G75*G03X608800Y14000I-3200J0D01*G01*
X612000Y186000D02*Y181200D01*
Y186000D02*X616160Y188400D01*
X612000Y186000D02*X607840Y188400D01*
X610400Y186000D02*G75*G03X613600Y186000I1600J0D01*G01*
G75*G03X610400Y186000I-1600J0D01*G01*
X608800D02*G75*G03X615200Y186000I3200J0D01*G01*
G75*G03X608800Y186000I-3200J0D01*G01*
X14000Y14000D02*Y9200D01*
Y14000D02*X18160Y16400D01*
X14000Y14000D02*X9840Y16400D01*
X12400Y14000D02*G75*G03X15600Y14000I1600J0D01*G01*
G75*G03X12400Y14000I-1600J0D01*G01*
X10800D02*G75*G03X17200Y14000I3200J0D01*G01*
G75*G03X10800Y14000I-3200J0D01*G01*
X14000Y186000D02*Y181200D01*
Y186000D02*X18160Y188400D01*
X14000Y186000D02*X9840Y188400D01*
X12400Y186000D02*G75*G03X15600Y186000I1600J0D01*G01*
G75*G03X12400Y186000I-1600J0D01*G01*
X10800D02*G75*G03X17200Y186000I3200J0D01*G01*
G75*G03X10800Y186000I-3200J0D01*G01*
X243000Y18957D02*Y9357D01*
X238200Y14157D02*X247800D01*
X241400Y15757D02*X244600D01*
X241400D02*Y12557D01*
X244600D01*
Y15757D02*Y12557D01*
X239800Y17357D02*X246200D01*
X239800D02*Y10957D01*
X246200D01*
Y17357D02*Y10957D01*
X15000Y231050D02*Y221450D01*
X10200Y226250D02*X19800D01*
X13400Y227850D02*X16600D01*
X13400D02*Y224650D01*
X16600D01*
Y227850D02*Y224650D01*
X11800Y229450D02*X18200D01*
X11800D02*Y223050D01*
X18200D01*
Y229450D02*Y223050D01*
X135000Y228500D02*X136500Y225500D01*
X138000Y228500D01*
X136500Y225500D02*Y222500D01*
X139800Y225800D02*X142050D01*
X139800Y222500D02*X142800D01*
X139800Y228500D02*Y222500D01*
Y228500D02*X142800D01*
X147600D02*X148350Y227750D01*
X145350Y228500D02*X147600D01*
X144600Y227750D02*X145350Y228500D01*
X144600Y227750D02*Y226250D01*
X145350Y225500D01*
X147600D01*
X148350Y224750D01*
Y223250D01*
X147600Y222500D02*X148350Y223250D01*
X145350Y222500D02*X147600D01*
X144600Y223250D02*X145350Y222500D01*
X98000Y227300D02*X99200Y228500D01*
Y222500D01*
X98000D02*X100250D01*
X15000Y241250D02*Y236450D01*
Y241250D02*X19160Y243650D01*
X15000Y241250D02*X10840Y243650D01*
X13400Y241250D02*G75*G03X16600Y241250I1600J0D01*G01*
G75*G03X13400Y241250I-1600J0D01*G01*
X11800D02*G75*G03X18200Y241250I3200J0D01*G01*
G75*G03X11800Y241250I-3200J0D01*G01*
X140000Y243500D02*Y237500D01*
Y243500D02*X143750Y237500D01*
Y243500D02*Y237500D01*
X145550Y242750D02*Y238250D01*
Y242750D02*X146300Y243500D01*
X147800D01*
X148550Y242750D01*
Y238250D01*
X147800Y237500D02*X148550Y238250D01*
X146300Y237500D02*X147800D01*
X145550Y238250D02*X146300Y237500D01*
X98000Y239750D02*X101000Y243500D01*
X98000Y239750D02*X101750D01*
X101000Y243500D02*Y237500D01*
X45000Y238250D02*X45750Y237500D01*
X45000Y242750D02*Y238250D01*
Y242750D02*X45750Y243500D01*
X47250D01*
X48000Y242750D01*
Y238250D01*
X47250Y237500D02*X48000Y238250D01*
X45750Y237500D02*X47250D01*
X45000Y239000D02*X48000Y242000D01*
X49800Y237500D02*X50550D01*
X52350Y242300D02*X53550Y243500D01*
Y237500D01*
X52350D02*X54600D01*
X56400Y242300D02*X57600Y243500D01*
Y237500D01*
X56400D02*X58650D01*
X60450Y238250D02*X61200Y237500D01*
X60450Y239450D02*Y238250D01*
Y239450D02*X61500Y240500D01*
X62400D01*
X63450Y239450D01*
Y238250D01*
X62700Y237500D02*X63450Y238250D01*
X61200Y237500D02*X62700D01*
X60450Y241550D02*X61500Y240500D01*
X60450Y242750D02*Y241550D01*
Y242750D02*X61200Y243500D01*
X62700D01*
X63450Y242750D01*
Y241550D01*
X62400Y240500D02*X63450Y241550D01*
X45000Y223250D02*X45750Y222500D01*
X45000Y227750D02*Y223250D01*
Y227750D02*X45750Y228500D01*
X47250D01*
X48000Y227750D01*
Y223250D01*
X47250Y222500D02*X48000Y223250D01*
X45750Y222500D02*X47250D01*
X45000Y224000D02*X48000Y227000D01*
X49800Y222500D02*X50550D01*
X52350Y227300D02*X53550Y228500D01*
Y222500D01*
X52350D02*X54600D01*
X56400Y227300D02*X57600Y228500D01*
Y222500D01*
X56400D02*X58650D01*
X60450Y223250D02*X61200Y222500D01*
X60450Y224450D02*Y223250D01*
Y224450D02*X61500Y225500D01*
X62400D01*
X63450Y224450D01*
Y223250D01*
X62700Y222500D02*X63450Y223250D01*
X61200Y222500D02*X62700D01*
X60450Y226550D02*X61500Y225500D01*
X60450Y227750D02*Y226550D01*
Y227750D02*X61200Y228500D01*
X62700D01*
X63450Y227750D01*
Y226550D01*
X62400Y225500D02*X63450Y226550D01*
X255180Y19694D02*X258380D01*
X255180D02*Y16494D01*
X258380D01*
Y19694D02*Y16494D01*
X253580Y21294D02*X259980D01*
X253580D02*Y14894D01*
X259980D01*
Y21294D02*Y14894D01*
X13400Y257850D02*X16600D01*
X13400D02*Y254650D01*
X16600D01*
Y257850D02*Y254650D01*
X11800Y259450D02*X18200D01*
X11800D02*Y253050D01*
X18200D01*
Y259450D02*Y253050D01*
X135000Y258500D02*X136500Y255500D01*
X138000Y258500D01*
X136500Y255500D02*Y252500D01*
X139800Y255800D02*X142050D01*
X139800Y252500D02*X142800D01*
X139800Y258500D02*Y252500D01*
Y258500D02*X142800D01*
X147600D02*X148350Y257750D01*
X145350Y258500D02*X147600D01*
X144600Y257750D02*X145350Y258500D01*
X144600Y257750D02*Y256250D01*
X145350Y255500D01*
X147600D01*
X148350Y254750D01*
Y253250D01*
X147600Y252500D02*X148350Y253250D01*
X145350Y252500D02*X147600D01*
X144600Y253250D02*X145350Y252500D01*
X98000Y257300D02*X99200Y258500D01*
Y252500D01*
X98000D02*X100250D01*
X45000Y253250D02*X45750Y252500D01*
X45000Y257750D02*Y253250D01*
Y257750D02*X45750Y258500D01*
X47250D01*
X48000Y257750D01*
Y253250D01*
X47250Y252500D02*X48000Y253250D01*
X45750Y252500D02*X47250D01*
X45000Y254000D02*X48000Y257000D01*
X49800Y252500D02*X50550D01*
X52350Y253250D02*X53100Y252500D01*
X52350Y257750D02*Y253250D01*
Y257750D02*X53100Y258500D01*
X54600D01*
X55350Y257750D01*
Y253250D01*
X54600Y252500D02*X55350Y253250D01*
X53100Y252500D02*X54600D01*
X52350Y254000D02*X55350Y257000D01*
X57900Y252500D02*X60150Y255500D01*
Y257750D02*Y255500D01*
X59400Y258500D02*X60150Y257750D01*
X57900Y258500D02*X59400D01*
X57150Y257750D02*X57900Y258500D01*
X57150Y257750D02*Y256250D01*
X57900Y255500D01*
X60150D01*
X61950Y253250D02*X62700Y252500D01*
X61950Y254450D02*Y253250D01*
Y254450D02*X63000Y255500D01*
X63900D01*
X64950Y254450D01*
Y253250D01*
X64200Y252500D02*X64950Y253250D01*
X62700Y252500D02*X64200D01*
X61950Y256550D02*X63000Y255500D01*
X61950Y257750D02*Y256550D01*
Y257750D02*X62700Y258500D01*
X64200D01*
X64950Y257750D01*
Y256550D01*
X63900Y255500D02*X64950Y256550D01*
X437200Y114300D02*G75*G03X438800Y114300I800J0D01*G01*
G75*G03X437200Y114300I-800J0D01*G01*
X435600D02*G75*G03X440400Y114300I2400J0D01*G01*
G75*G03X435600Y114300I-2400J0D01*G01*
X437200Y124300D02*G75*G03X438800Y124300I800J0D01*G01*
G75*G03X437200Y124300I-800J0D01*G01*
X435600D02*G75*G03X440400Y124300I2400J0D01*G01*
G75*G03X435600Y124300I-2400J0D01*G01*
X437200Y134300D02*G75*G03X438800Y134300I800J0D01*G01*
G75*G03X437200Y134300I-800J0D01*G01*
X435600D02*G75*G03X440400Y134300I2400J0D01*G01*
G75*G03X435600Y134300I-2400J0D01*G01*
X289200Y82000D02*G75*G03X290800Y82000I800J0D01*G01*
G75*G03X289200Y82000I-800J0D01*G01*
X287600D02*G75*G03X292400Y82000I2400J0D01*G01*
G75*G03X287600Y82000I-2400J0D01*G01*
X299200D02*G75*G03X300800Y82000I800J0D01*G01*
G75*G03X299200Y82000I-800J0D01*G01*
X297600D02*G75*G03X302400Y82000I2400J0D01*G01*
G75*G03X297600Y82000I-2400J0D01*G01*
X309200D02*G75*G03X310800Y82000I800J0D01*G01*
G75*G03X309200Y82000I-800J0D01*G01*
X307600D02*G75*G03X312400Y82000I2400J0D01*G01*
G75*G03X307600Y82000I-2400J0D01*G01*
X143200Y114000D02*G75*G03X144800Y114000I800J0D01*G01*
G75*G03X143200Y114000I-800J0D01*G01*
X141600D02*G75*G03X146400Y114000I2400J0D01*G01*
G75*G03X141600Y114000I-2400J0D01*G01*
X153200D02*G75*G03X154800Y114000I800J0D01*G01*
G75*G03X153200Y114000I-800J0D01*G01*
X151600D02*G75*G03X156400Y114000I2400J0D01*G01*
G75*G03X151600Y114000I-2400J0D01*G01*
X163200D02*G75*G03X164800Y114000I800J0D01*G01*
G75*G03X163200Y114000I-800J0D01*G01*
X161600D02*G75*G03X166400Y114000I2400J0D01*G01*
G75*G03X161600Y114000I-2400J0D01*G01*
X14200Y271250D02*G75*G03X15800Y271250I800J0D01*G01*
G75*G03X14200Y271250I-800J0D01*G01*
X12600D02*G75*G03X17400Y271250I2400J0D01*G01*
G75*G03X12600Y271250I-2400J0D01*G01*
X135000Y273500D02*X136500Y270500D01*
X138000Y273500D01*
X136500Y270500D02*Y267500D01*
X139800Y270800D02*X142050D01*
X139800Y267500D02*X142800D01*
X139800Y273500D02*Y267500D01*
Y273500D02*X142800D01*
X147600D02*X148350Y272750D01*
X145350Y273500D02*X147600D01*
X144600Y272750D02*X145350Y273500D01*
X144600Y272750D02*Y271250D01*
X145350Y270500D01*
X147600D01*
X148350Y269750D01*
Y268250D01*
X147600Y267500D02*X148350Y268250D01*
X145350Y267500D02*X147600D01*
X144600Y268250D02*X145350Y267500D01*
X98750D02*X101000Y270500D01*
Y272750D02*Y270500D01*
X100250Y273500D02*X101000Y272750D01*
X98750Y273500D02*X100250D01*
X98000Y272750D02*X98750Y273500D01*
X98000Y272750D02*Y271250D01*
X98750Y270500D01*
X101000D01*
X45000Y268250D02*X45750Y267500D01*
X45000Y272750D02*Y268250D01*
Y272750D02*X45750Y273500D01*
X47250D01*
X48000Y272750D01*
Y268250D01*
X47250Y267500D02*X48000Y268250D01*
X45750Y267500D02*X47250D01*
X45000Y269000D02*X48000Y272000D01*
X49800Y267500D02*X50550D01*
X52350Y268250D02*X53100Y267500D01*
X52350Y272750D02*Y268250D01*
Y272750D02*X53100Y273500D01*
X54600D01*
X55350Y272750D01*
Y268250D01*
X54600Y267500D02*X55350Y268250D01*
X53100Y267500D02*X54600D01*
X52350Y269000D02*X55350Y272000D01*
X59400Y273500D02*X60150Y272750D01*
X57900Y273500D02*X59400D01*
X57150Y272750D02*X57900Y273500D01*
X57150Y272750D02*Y268250D01*
X57900Y267500D01*
X59400Y270800D02*X60150Y270050D01*
X57150Y270800D02*X59400D01*
X57900Y267500D02*X59400D01*
X60150Y268250D01*
Y270050D02*Y268250D01*
X61950D02*X62700Y267500D01*
X61950Y272750D02*Y268250D01*
Y272750D02*X62700Y273500D01*
X64200D01*
X64950Y272750D01*
Y268250D01*
X64200Y267500D02*X64950Y268250D01*
X62700Y267500D02*X64200D01*
X61950Y269000D02*X64950Y272000D01*
X406600Y189400D02*X411400Y184600D01*
X406600D02*X411400Y189400D01*
X407400Y188600D02*X410600D01*
X407400D02*Y185400D01*
X410600D01*
Y188600D02*Y185400D01*
X416600Y189400D02*X421400Y184600D01*
X416600D02*X421400Y189400D01*
X417400Y188600D02*X420600D01*
X417400D02*Y185400D01*
X420600D01*
Y188600D02*Y185400D01*
X406600Y179400D02*X411400Y174600D01*
X406600D02*X411400Y179400D01*
X407400Y178600D02*X410600D01*
X407400D02*Y175400D01*
X410600D01*
Y178600D02*Y175400D01*
X416600Y179400D02*X421400Y174600D01*
X416600D02*X421400Y179400D01*
X417400Y178600D02*X420600D01*
X417400D02*Y175400D01*
X420600D01*
Y178600D02*Y175400D01*
X406600Y169400D02*X411400Y164600D01*
X406600D02*X411400Y169400D01*
X407400Y168600D02*X410600D01*
X407400D02*Y165400D01*
X410600D01*
Y168600D02*Y165400D01*
X416600Y169400D02*X421400Y164600D01*
X416600D02*X421400Y169400D01*
X417400Y168600D02*X420600D01*
X417400D02*Y165400D01*
X420600D01*
Y168600D02*Y165400D01*
X12600Y288650D02*X17400Y283850D01*
X12600D02*X17400Y288650D01*
X13400Y287850D02*X16600D01*
X13400D02*Y284650D01*
X16600D01*
Y287850D02*Y284650D01*
X135000Y288500D02*X136500Y285500D01*
X138000Y288500D01*
X136500Y285500D02*Y282500D01*
X139800Y285800D02*X142050D01*
X139800Y282500D02*X142800D01*
X139800Y288500D02*Y282500D01*
Y288500D02*X142800D01*
X147600D02*X148350Y287750D01*
X145350Y288500D02*X147600D01*
X144600Y287750D02*X145350Y288500D01*
X144600Y287750D02*Y286250D01*
X145350Y285500D01*
X147600D01*
X148350Y284750D01*
Y283250D01*
X147600Y282500D02*X148350Y283250D01*
X145350Y282500D02*X147600D01*
X144600Y283250D02*X145350Y282500D01*
X100250Y288500D02*X101000Y287750D01*
X98750Y288500D02*X100250D01*
X98000Y287750D02*X98750Y288500D01*
X98000Y287750D02*Y283250D01*
X98750Y282500D01*
X100250Y285800D02*X101000Y285050D01*
X98000Y285800D02*X100250D01*
X98750Y282500D02*X100250D01*
X101000Y283250D01*
Y285050D02*Y283250D01*
X45000D02*X45750Y282500D01*
X45000Y287750D02*Y283250D01*
Y287750D02*X45750Y288500D01*
X47250D01*
X48000Y287750D01*
Y283250D01*
X47250Y282500D02*X48000Y283250D01*
X45750Y282500D02*X47250D01*
X45000Y284000D02*X48000Y287000D01*
X49800Y282500D02*X50550D01*
X52350Y283250D02*X53100Y282500D01*
X52350Y287750D02*Y283250D01*
Y287750D02*X53100Y288500D01*
X54600D01*
X55350Y287750D01*
Y283250D01*
X54600Y282500D02*X55350Y283250D01*
X53100Y282500D02*X54600D01*
X52350Y284000D02*X55350Y287000D01*
X57150Y284750D02*X60150Y288500D01*
X57150Y284750D02*X60900D01*
X60150Y288500D02*Y282500D01*
X64950Y288500D02*X65700Y287750D01*
X63450Y288500D02*X64950D01*
X62700Y287750D02*X63450Y288500D01*
X62700Y287750D02*Y283250D01*
X63450Y282500D01*
X64950Y285800D02*X65700Y285050D01*
X62700Y285800D02*X64950D01*
X63450Y282500D02*X64950D01*
X65700Y283250D01*
Y285050D02*Y283250D01*
X110000Y53200D02*Y46800D01*
X106800Y50000D02*X113200D01*
X108400Y51600D02*X111600D01*
X108400D02*Y48400D01*
X111600D01*
Y51600D02*Y48400D01*
X110000Y63200D02*Y56800D01*
X106800Y60000D02*X113200D01*
X108400Y61600D02*X111600D01*
X108400D02*Y58400D01*
X111600D01*
Y61600D02*Y58400D01*
X110000Y73200D02*Y66800D01*
X106800Y70000D02*X113200D01*
X108400Y71600D02*X111600D01*
X108400D02*Y68400D01*
X111600D01*
Y71600D02*Y68400D01*
X15000Y304450D02*Y298050D01*
X11800Y301250D02*X18200D01*
X13400Y302850D02*X16600D01*
X13400D02*Y299650D01*
X16600D01*
Y302850D02*Y299650D01*
X135000Y303500D02*X136500Y300500D01*
X138000Y303500D01*
X136500Y300500D02*Y297500D01*
X139800Y300800D02*X142050D01*
X139800Y297500D02*X142800D01*
X139800Y303500D02*Y297500D01*
Y303500D02*X142800D01*
X147600D02*X148350Y302750D01*
X145350Y303500D02*X147600D01*
X144600Y302750D02*X145350Y303500D01*
X144600Y302750D02*Y301250D01*
X145350Y300500D01*
X147600D01*
X148350Y299750D01*
Y298250D01*
X147600Y297500D02*X148350Y298250D01*
X145350Y297500D02*X147600D01*
X144600Y298250D02*X145350Y297500D01*
X98000Y302750D02*X98750Y303500D01*
X100250D01*
X101000Y302750D01*
X100250Y297500D02*X101000Y298250D01*
X98750Y297500D02*X100250D01*
X98000Y298250D02*X98750Y297500D01*
Y300800D02*X100250D01*
X101000Y302750D02*Y301550D01*
Y300050D02*Y298250D01*
Y300050D02*X100250Y300800D01*
X101000Y301550D02*X100250Y300800D01*
X45000Y298250D02*X45750Y297500D01*
X45000Y302750D02*Y298250D01*
Y302750D02*X45750Y303500D01*
X47250D01*
X48000Y302750D01*
Y298250D01*
X47250Y297500D02*X48000Y298250D01*
X45750Y297500D02*X47250D01*
X45000Y299000D02*X48000Y302000D01*
X49800Y297500D02*X50550D01*
X52350Y298250D02*X53100Y297500D01*
X52350Y302750D02*Y298250D01*
Y302750D02*X53100Y303500D01*
X54600D01*
X55350Y302750D01*
Y298250D01*
X54600Y297500D02*X55350Y298250D01*
X53100Y297500D02*X54600D01*
X52350Y299000D02*X55350Y302000D01*
X57150Y299750D02*X60150Y303500D01*
X57150Y299750D02*X60900D01*
X60150Y303500D02*Y297500D01*
X62700Y302750D02*X63450Y303500D01*
X65700D01*
X66450Y302750D01*
Y301250D01*
X62700Y297500D02*X66450Y301250D01*
X62700Y297500D02*X66450D01*
X154138Y53000D02*Y49800D01*
Y53000D02*X156911Y54600D01*
X154138Y53000D02*X151364Y54600D01*
X152538Y53000D02*G75*G03X155738Y53000I1600J0D01*G01*
G75*G03X152538Y53000I-1600J0D01*G01*
X154138Y33000D02*Y29800D01*
Y33000D02*X156911Y34600D01*
X154138Y33000D02*X151364Y34600D01*
X152538Y33000D02*G75*G03X155738Y33000I1600J0D01*G01*
G75*G03X152538Y33000I-1600J0D01*G01*
X144138Y43000D02*Y39800D01*
Y43000D02*X146911Y44600D01*
X144138Y43000D02*X141364Y44600D01*
X142538Y43000D02*G75*G03X145738Y43000I1600J0D01*G01*
G75*G03X142538Y43000I-1600J0D01*G01*
X461205Y168142D02*Y164942D01*
Y168142D02*X463978Y169742D01*
X461205Y168142D02*X458431Y169742D01*
X459605Y168142D02*G75*G03X462805Y168142I1600J0D01*G01*
G75*G03X459605Y168142I-1600J0D01*G01*
X486795D02*Y164942D01*
Y168142D02*X489569Y169742D01*
X486795Y168142D02*X484022Y169742D01*
X485195Y168142D02*G75*G03X488395Y168142I1600J0D01*G01*
G75*G03X485195Y168142I-1600J0D01*G01*
X461205Y185858D02*Y182658D01*
Y185858D02*X463978Y187458D01*
X461205Y185858D02*X458431Y187458D01*
X459605Y185858D02*G75*G03X462805Y185858I1600J0D01*G01*
G75*G03X459605Y185858I-1600J0D01*G01*
X486795D02*Y182658D01*
Y185858D02*X489569Y187458D01*
X486795Y185858D02*X484022Y187458D01*
X485195Y185858D02*G75*G03X488395Y185858I1600J0D01*G01*
G75*G03X485195Y185858I-1600J0D01*G01*
X15000Y316250D02*Y313050D01*
Y316250D02*X17773Y317850D01*
X15000Y316250D02*X12227Y317850D01*
X13400Y316250D02*G75*G03X16600Y316250I1600J0D01*G01*
G75*G03X13400Y316250I-1600J0D01*G01*
X135000Y318500D02*X136500Y315500D01*
X138000Y318500D01*
X136500Y315500D02*Y312500D01*
X139800Y315800D02*X142050D01*
X139800Y312500D02*X142800D01*
X139800Y318500D02*Y312500D01*
Y318500D02*X142800D01*
X147600D02*X148350Y317750D01*
X145350Y318500D02*X147600D01*
X144600Y317750D02*X145350Y318500D01*
X144600Y317750D02*Y316250D01*
X145350Y315500D01*
X147600D01*
X148350Y314750D01*
Y313250D01*
X147600Y312500D02*X148350Y313250D01*
X145350Y312500D02*X147600D01*
X144600Y313250D02*X145350Y312500D01*
X98750D02*X101750Y318500D01*
X98000D02*X101750D01*
X45000Y313250D02*X45750Y312500D01*
X45000Y317750D02*Y313250D01*
Y317750D02*X45750Y318500D01*
X47250D01*
X48000Y317750D01*
Y313250D01*
X47250Y312500D02*X48000Y313250D01*
X45750Y312500D02*X47250D01*
X45000Y314000D02*X48000Y317000D01*
X49800Y312500D02*X50550D01*
X52350Y313250D02*X53100Y312500D01*
X52350Y317750D02*Y313250D01*
Y317750D02*X53100Y318500D01*
X54600D01*
X55350Y317750D01*
Y313250D01*
X54600Y312500D02*X55350Y313250D01*
X53100Y312500D02*X54600D01*
X52350Y314000D02*X55350Y317000D01*
X57150Y317750D02*X57900Y318500D01*
X59400D01*
X60150Y317750D01*
X59400Y312500D02*X60150Y313250D01*
X57900Y312500D02*X59400D01*
X57150Y313250D02*X57900Y312500D01*
Y315800D02*X59400D01*
X60150Y317750D02*Y316550D01*
Y315050D02*Y313250D01*
Y315050D02*X59400Y315800D01*
X60150Y316550D02*X59400Y315800D01*
X62700Y312500D02*X64950Y315500D01*
Y317750D02*Y315500D01*
X64200Y318500D02*X64950Y317750D01*
X62700Y318500D02*X64200D01*
X61950Y317750D02*X62700Y318500D01*
X61950Y317750D02*Y316250D01*
X62700Y315500D01*
X64950D01*
X115900Y176600D02*X119100D01*
X115900D02*Y173400D01*
X119100D01*
Y176600D02*Y173400D01*
X188400Y77600D02*X191600D01*
X188400D02*Y74400D01*
X191600D01*
Y77600D02*Y74400D01*
X197400Y77600D02*X200600D01*
X197400D02*Y74400D01*
X200600D01*
Y77600D02*Y74400D01*
X206400Y77600D02*X209600D01*
X206400D02*Y74400D01*
X209600D01*
Y77600D02*Y74400D01*
X206400Y86600D02*X209600D01*
X206400D02*Y83400D01*
X209600D01*
Y86600D02*Y83400D01*
X179400Y77600D02*X182600D01*
X179400D02*Y74400D01*
X182600D01*
Y77600D02*Y74400D01*
X167400Y25600D02*X170600D01*
X167400D02*Y22400D01*
X170600D01*
Y25600D02*Y22400D01*
X75400Y49100D02*X78600D01*
X75400D02*Y45900D01*
X78600D01*
Y49100D02*Y45900D01*
X32400Y49100D02*X35600D01*
X32400D02*Y45900D01*
X35600D01*
Y49100D02*Y45900D01*
X221400Y145600D02*X224600D01*
X221400D02*Y142400D01*
X224600D01*
Y145600D02*Y142400D01*
X221400Y153600D02*X224600D01*
X221400D02*Y150400D01*
X224600D01*
Y153600D02*Y150400D01*
X221400Y161600D02*X224600D01*
X221400D02*Y158400D01*
X224600D01*
Y161600D02*Y158400D01*
X234400Y145600D02*X237600D01*
X234400D02*Y142400D01*
X237600D01*
Y145600D02*Y142400D01*
X234400Y153600D02*X237600D01*
X234400D02*Y150400D01*
X237600D01*
Y153600D02*Y150400D01*
X234400Y161600D02*X237600D01*
X234400D02*Y158400D01*
X237600D01*
Y161600D02*Y158400D01*
X271400Y71600D02*X274600D01*
X271400D02*Y68400D01*
X274600D01*
Y71600D02*Y68400D01*
X325400Y71600D02*X328600D01*
X325400D02*Y68400D01*
X328600D01*
Y71600D02*Y68400D01*
X547400Y123600D02*X550600D01*
X547400D02*Y120400D01*
X550600D01*
Y123600D02*Y120400D01*
X398900Y37100D02*X402100D01*
X398900D02*Y33900D01*
X402100D01*
Y37100D02*Y33900D01*
X475400Y46600D02*X478600D01*
X475400D02*Y43400D01*
X478600D01*
Y46600D02*Y43400D01*
X465400Y125600D02*X468600D01*
X465400D02*Y122400D01*
X468600D01*
Y125600D02*Y122400D01*
X377400Y110600D02*X380600D01*
X377400D02*Y107400D01*
X380600D01*
Y110600D02*Y107400D01*
X450900Y152100D02*X454100D01*
X450900D02*Y148900D01*
X454100D01*
Y152100D02*Y148900D01*
X413400Y103100D02*X416600D01*
X413400D02*Y99900D01*
X416600D01*
Y103100D02*Y99900D01*
X125400Y84100D02*X128600D01*
X125400D02*Y80900D01*
X128600D01*
Y84100D02*Y80900D01*
X13400Y332850D02*X16600D01*
X13400D02*Y329650D01*
X16600D01*
Y332850D02*Y329650D01*
X135000Y333500D02*X136500Y330500D01*
X138000Y333500D01*
X136500Y330500D02*Y327500D01*
X139800Y330800D02*X142050D01*
X139800Y327500D02*X142800D01*
X139800Y333500D02*Y327500D01*
Y333500D02*X142800D01*
X147600D02*X148350Y332750D01*
X145350Y333500D02*X147600D01*
X144600Y332750D02*X145350Y333500D01*
X144600Y332750D02*Y331250D01*
X145350Y330500D01*
X147600D01*
X148350Y329750D01*
Y328250D01*
X147600Y327500D02*X148350Y328250D01*
X145350Y327500D02*X147600D01*
X144600Y328250D02*X145350Y327500D01*
X98000Y332750D02*X98750Y333500D01*
X101000D01*
X101750Y332750D01*
Y331250D01*
X98000Y327500D02*X101750Y331250D01*
X98000Y327500D02*X101750D01*
X103550Y333500D02*X106550D01*
X103550D02*Y330500D01*
X104300Y331250D01*
X105800D01*
X106550Y330500D01*
Y328250D01*
X105800Y327500D02*X106550Y328250D01*
X104300Y327500D02*X105800D01*
X103550Y328250D02*X104300Y327500D01*
X45000Y328250D02*X45750Y327500D01*
X45000Y332750D02*Y328250D01*
Y332750D02*X45750Y333500D01*
X47250D01*
X48000Y332750D01*
Y328250D01*
X47250Y327500D02*X48000Y328250D01*
X45750Y327500D02*X47250D01*
X45000Y329000D02*X48000Y332000D01*
X49800Y327500D02*X50550D01*
X52350Y328250D02*X53100Y327500D01*
X52350Y332750D02*Y328250D01*
Y332750D02*X53100Y333500D01*
X54600D01*
X55350Y332750D01*
Y328250D01*
X54600Y327500D02*X55350Y328250D01*
X53100Y327500D02*X54600D01*
X52350Y329000D02*X55350Y332000D01*
X57150Y332750D02*X57900Y333500D01*
X59400D01*
X60150Y332750D01*
X59400Y327500D02*X60150Y328250D01*
X57900Y327500D02*X59400D01*
X57150Y328250D02*X57900Y327500D01*
Y330800D02*X59400D01*
X60150Y332750D02*Y331550D01*
Y330050D02*Y328250D01*
Y330050D02*X59400Y330800D01*
X60150Y331550D02*X59400Y330800D01*
X61950Y333500D02*X64950D01*
X61950D02*Y330500D01*
X62700Y331250D01*
X64200D01*
X64950Y330500D01*
Y328250D01*
X64200Y327500D02*X64950Y328250D01*
X62700Y327500D02*X64200D01*
X61950Y328250D02*X62700Y327500D01*
X527200Y148500D02*G75*G03X528800Y148500I800J0D01*G01*
G75*G03X527200Y148500I-800J0D01*G01*
X546400D02*G75*G03X548000Y148500I800J0D01*G01*
G75*G03X546400Y148500I-800J0D01*G01*
X14200Y346250D02*G75*G03X15800Y346250I800J0D01*G01*
G75*G03X14200Y346250I-800J0D01*G01*
X135000Y348500D02*X136500Y345500D01*
X138000Y348500D01*
X136500Y345500D02*Y342500D01*
X139800Y345800D02*X142050D01*
X139800Y342500D02*X142800D01*
X139800Y348500D02*Y342500D01*
Y348500D02*X142800D01*
X147600D02*X148350Y347750D01*
X145350Y348500D02*X147600D01*
X144600Y347750D02*X145350Y348500D01*
X144600Y347750D02*Y346250D01*
X145350Y345500D01*
X147600D01*
X148350Y344750D01*
Y343250D01*
X147600Y342500D02*X148350Y343250D01*
X145350Y342500D02*X147600D01*
X144600Y343250D02*X145350Y342500D01*
X98000Y347750D02*X98750Y348500D01*
X101000D01*
X101750Y347750D01*
Y346250D01*
X98000Y342500D02*X101750Y346250D01*
X98000Y342500D02*X101750D01*
X45000Y343250D02*X45750Y342500D01*
X45000Y347750D02*Y343250D01*
Y347750D02*X45750Y348500D01*
X47250D01*
X48000Y347750D01*
Y343250D01*
X47250Y342500D02*X48000Y343250D01*
X45750Y342500D02*X47250D01*
X45000Y344000D02*X48000Y347000D01*
X49800Y342500D02*X50550D01*
X52350Y343250D02*X53100Y342500D01*
X52350Y347750D02*Y343250D01*
Y347750D02*X53100Y348500D01*
X54600D01*
X55350Y347750D01*
Y343250D01*
X54600Y342500D02*X55350Y343250D01*
X53100Y342500D02*X54600D01*
X52350Y344000D02*X55350Y347000D01*
X57150Y347750D02*X57900Y348500D01*
X59400D01*
X60150Y347750D01*
X59400Y342500D02*X60150Y343250D01*
X57900Y342500D02*X59400D01*
X57150Y343250D02*X57900Y342500D01*
Y345800D02*X59400D01*
X60150Y347750D02*Y346550D01*
Y345050D02*Y343250D01*
Y345050D02*X59400Y345800D01*
X60150Y346550D02*X59400Y345800D01*
X61950Y347750D02*X62700Y348500D01*
X64950D01*
X65700Y347750D01*
Y346250D01*
X61950Y342500D02*X65700Y346250D01*
X61950Y342500D02*X65700D01*
X241800Y83200D02*X244200Y80800D01*
X241800D02*X244200Y83200D01*
X241800Y93200D02*X244200Y90800D01*
X241800D02*X244200Y93200D01*
X13800Y362450D02*X16200Y360050D01*
X13800D02*X16200Y362450D01*
X135000Y363500D02*X136500Y360500D01*
X138000Y363500D01*
X136500Y360500D02*Y357500D01*
X139800Y360800D02*X142050D01*
X139800Y357500D02*X142800D01*
X139800Y363500D02*Y357500D01*
Y363500D02*X142800D01*
X147600D02*X148350Y362750D01*
X145350Y363500D02*X147600D01*
X144600Y362750D02*X145350Y363500D01*
X144600Y362750D02*Y361250D01*
X145350Y360500D01*
X147600D01*
X148350Y359750D01*
Y358250D01*
X147600Y357500D02*X148350Y358250D01*
X145350Y357500D02*X147600D01*
X144600Y358250D02*X145350Y357500D01*
X98000Y362750D02*X98750Y363500D01*
X101000D01*
X101750Y362750D01*
Y361250D01*
X98000Y357500D02*X101750Y361250D01*
X98000Y357500D02*X101750D01*
X45000Y358250D02*X45750Y357500D01*
X45000Y362750D02*Y358250D01*
Y362750D02*X45750Y363500D01*
X47250D01*
X48000Y362750D01*
Y358250D01*
X47250Y357500D02*X48000Y358250D01*
X45750Y357500D02*X47250D01*
X45000Y359000D02*X48000Y362000D01*
X49800Y357500D02*X50550D01*
X52350Y358250D02*X53100Y357500D01*
X52350Y362750D02*Y358250D01*
Y362750D02*X53100Y363500D01*
X54600D01*
X55350Y362750D01*
Y358250D01*
X54600Y357500D02*X55350Y358250D01*
X53100Y357500D02*X54600D01*
X52350Y359000D02*X55350Y362000D01*
X57150Y362750D02*X57900Y363500D01*
X59400D01*
X60150Y362750D01*
X59400Y357500D02*X60150Y358250D01*
X57900Y357500D02*X59400D01*
X57150Y358250D02*X57900Y357500D01*
Y360800D02*X59400D01*
X60150Y362750D02*Y361550D01*
Y360050D02*Y358250D01*
Y360050D02*X59400Y360800D01*
X60150Y361550D02*X59400Y360800D01*
X61950Y358250D02*X62700Y357500D01*
X61950Y362750D02*Y358250D01*
Y362750D02*X62700Y363500D01*
X64200D01*
X64950Y362750D01*
Y358250D01*
X64200Y357500D02*X64950Y358250D01*
X62700Y357500D02*X64200D01*
X61950Y359000D02*X64950Y362000D01*
X579000Y187600D02*Y184400D01*
X577400Y186000D02*X580600D01*
X569000Y187600D02*Y184400D01*
X567400Y186000D02*X570600D01*
X559000Y187600D02*Y184400D01*
X557400Y186000D02*X560600D01*
X549000Y187600D02*Y184400D01*
X547400Y186000D02*X550600D01*
X539000Y187600D02*Y184400D01*
X537400Y186000D02*X540600D01*
X529000Y187600D02*Y184400D01*
X527400Y186000D02*X530600D01*
X327000Y187600D02*Y184400D01*
X325400Y186000D02*X328600D01*
X337000Y187600D02*Y184400D01*
X335400Y186000D02*X338600D01*
X238000Y187600D02*Y184400D01*
X236400Y186000D02*X239600D01*
X248000Y187600D02*Y184400D01*
X246400Y186000D02*X249600D01*
X612000Y113600D02*Y110400D01*
X610400Y112000D02*X613600D01*
X612000Y123600D02*Y120400D01*
X610400Y122000D02*X613600D01*
X612000Y133600D02*Y130400D01*
X610400Y132000D02*X613600D01*
X612000Y143600D02*Y140400D01*
X610400Y142000D02*X613600D01*
X15000Y377850D02*Y374650D01*
X13400Y376250D02*X16600D01*
X135000Y378500D02*X136500Y375500D01*
X138000Y378500D01*
X136500Y375500D02*Y372500D01*
X139800Y375800D02*X142050D01*
X139800Y372500D02*X142800D01*
X139800Y378500D02*Y372500D01*
Y378500D02*X142800D01*
X147600D02*X148350Y377750D01*
X145350Y378500D02*X147600D01*
X144600Y377750D02*X145350Y378500D01*
X144600Y377750D02*Y376250D01*
X145350Y375500D01*
X147600D01*
X148350Y374750D01*
Y373250D01*
X147600Y372500D02*X148350Y373250D01*
X145350Y372500D02*X147600D01*
X144600Y373250D02*X145350Y372500D01*
X98000Y377300D02*X99200Y378500D01*
Y372500D01*
X98000D02*X100250D01*
X102050Y374750D02*X105050Y378500D01*
X102050Y374750D02*X105800D01*
X105050Y378500D02*Y372500D01*
X45000Y373250D02*X45750Y372500D01*
X45000Y377750D02*Y373250D01*
Y377750D02*X45750Y378500D01*
X47250D01*
X48000Y377750D01*
Y373250D01*
X47250Y372500D02*X48000Y373250D01*
X45750Y372500D02*X47250D01*
X45000Y374000D02*X48000Y377000D01*
X49800Y372500D02*X50550D01*
X52350Y373250D02*X53100Y372500D01*
X52350Y377750D02*Y373250D01*
Y377750D02*X53100Y378500D01*
X54600D01*
X55350Y377750D01*
Y373250D01*
X54600Y372500D02*X55350Y373250D01*
X53100Y372500D02*X54600D01*
X52350Y374000D02*X55350Y377000D01*
X57150Y377750D02*X57900Y378500D01*
X60150D01*
X60900Y377750D01*
Y376250D01*
X57150Y372500D02*X60900Y376250D01*
X57150Y372500D02*X60900D01*
X62700Y373250D02*X63450Y372500D01*
X62700Y374450D02*Y373250D01*
Y374450D02*X63750Y375500D01*
X64650D01*
X65700Y374450D01*
Y373250D01*
X64950Y372500D02*X65700Y373250D01*
X63450Y372500D02*X64950D01*
X62700Y376550D02*X63750Y375500D01*
X62700Y377750D02*Y376550D01*
Y377750D02*X63450Y378500D01*
X64950D01*
X65700Y377750D01*
Y376550D01*
X64650Y375500D02*X65700Y376550D01*
X538000Y163000D02*Y161400D01*
Y163000D02*X539387Y163800D01*
X538000Y163000D02*X536613Y163800D01*
X573000Y120000D02*Y118400D01*
Y120000D02*X574387Y120800D01*
X573000Y120000D02*X571613Y120800D01*
X578000Y117000D02*Y115400D01*
Y117000D02*X579387Y117800D01*
X578000Y117000D02*X576613Y117800D01*
X558000Y115000D02*Y113400D01*
Y115000D02*X559387Y115800D01*
X558000Y115000D02*X556613Y115800D01*
X508000Y180000D02*Y178400D01*
Y180000D02*X509387Y180800D01*
X508000Y180000D02*X506613Y180800D01*
X495000Y42500D02*Y40900D01*
Y42500D02*X496387Y43300D01*
X495000Y42500D02*X493613Y43300D01*
X495000Y65500D02*Y63900D01*
Y65500D02*X496387Y66300D01*
X495000Y65500D02*X493613Y66300D01*
X495000Y72000D02*Y70400D01*
Y72000D02*X496387Y72800D01*
X495000Y72000D02*X493613Y72800D01*
X482500Y78500D02*Y76900D01*
Y78500D02*X483887Y79300D01*
X482500Y78500D02*X481113Y79300D01*
X482500Y52500D02*Y50900D01*
Y52500D02*X483887Y53300D01*
X482500Y52500D02*X481113Y53300D01*
X482500Y67000D02*Y65400D01*
Y67000D02*X483887Y67800D01*
X482500Y67000D02*X481113Y67800D01*
X482500Y61500D02*Y59900D01*
Y61500D02*X483887Y62300D01*
X482500Y61500D02*X481113Y62300D01*
X473500Y59000D02*Y57400D01*
Y59000D02*X474887Y59800D01*
X473500Y59000D02*X472113Y59800D01*
X402000Y71500D02*Y69900D01*
Y71500D02*X403387Y72300D01*
X402000Y71500D02*X400613Y72300D01*
X444000Y87500D02*Y85900D01*
Y87500D02*X445387Y88300D01*
X444000Y87500D02*X442613Y88300D01*
X507000Y74500D02*Y72900D01*
Y74500D02*X508387Y75300D01*
X507000Y74500D02*X505613Y75300D01*
X536000Y87000D02*Y85400D01*
Y87000D02*X537387Y87800D01*
X536000Y87000D02*X534613Y87800D01*
X521500Y104000D02*Y102400D01*
Y104000D02*X522887Y104800D01*
X521500Y104000D02*X520113Y104800D01*
X527000Y96500D02*Y94900D01*
Y96500D02*X528387Y97300D01*
X527000Y96500D02*X525613Y97300D01*
X495000Y85000D02*Y83400D01*
Y85000D02*X496387Y85800D01*
X495000Y85000D02*X493613Y85800D01*
X495000Y35500D02*Y33900D01*
Y35500D02*X496387Y36300D01*
X495000Y35500D02*X493613Y36300D01*
X15000Y391250D02*Y389650D01*
Y391250D02*X16387Y392050D01*
X15000Y391250D02*X13613Y392050D01*
X135000Y393500D02*X136500Y390500D01*
X138000Y393500D01*
X136500Y390500D02*Y387500D01*
X139800Y390800D02*X142050D01*
X139800Y387500D02*X142800D01*
X139800Y393500D02*Y387500D01*
Y393500D02*X142800D01*
X147600D02*X148350Y392750D01*
X145350Y393500D02*X147600D01*
X144600Y392750D02*X145350Y393500D01*
X144600Y392750D02*Y391250D01*
X145350Y390500D01*
X147600D01*
X148350Y389750D01*
Y388250D01*
X147600Y387500D02*X148350Y388250D01*
X145350Y387500D02*X147600D01*
X144600Y388250D02*X145350Y387500D01*
X98000Y392750D02*X98750Y393500D01*
X101000D01*
X101750Y392750D01*
Y391250D01*
X98000Y387500D02*X101750Y391250D01*
X98000Y387500D02*X101750D01*
X103550Y392300D02*X104750Y393500D01*
Y387500D01*
X103550D02*X105800D01*
X45000Y388250D02*X45750Y387500D01*
X45000Y392750D02*Y388250D01*
Y392750D02*X45750Y393500D01*
X47250D01*
X48000Y392750D01*
Y388250D01*
X47250Y387500D02*X48000Y388250D01*
X45750Y387500D02*X47250D01*
X45000Y389000D02*X48000Y392000D01*
X49800Y387500D02*X50550D01*
X52350Y388250D02*X53100Y387500D01*
X52350Y392750D02*Y388250D01*
Y392750D02*X53100Y393500D01*
X54600D01*
X55350Y392750D01*
Y388250D01*
X54600Y387500D02*X55350Y388250D01*
X53100Y387500D02*X54600D01*
X52350Y389000D02*X55350Y392000D01*
X57150Y392750D02*X57900Y393500D01*
X60150D01*
X60900Y392750D01*
Y391250D01*
X57150Y387500D02*X60900Y391250D01*
X57150Y387500D02*X60900D01*
X62700Y388250D02*X63450Y387500D01*
X62700Y392750D02*Y388250D01*
Y392750D02*X63450Y393500D01*
X64950D01*
X65700Y392750D01*
Y388250D01*
X64950Y387500D02*X65700Y388250D01*
X63450Y387500D02*X64950D01*
X62700Y389000D02*X65700Y392000D01*
X3000Y408500D02*X3750Y407750D01*
X750Y408500D02*X3000D01*
X0Y407750D02*X750Y408500D01*
X0Y407750D02*Y406250D01*
X750Y405500D01*
X3000D01*
X3750Y404750D01*
Y403250D01*
X3000Y402500D02*X3750Y403250D01*
X750Y402500D02*X3000D01*
X0Y403250D02*X750Y402500D01*
X5550Y405500D02*Y403250D01*
X6300Y402500D01*
X8550Y405500D02*Y401000D01*
X7800Y400250D02*X8550Y401000D01*
X6300Y400250D02*X7800D01*
X5550Y401000D02*X6300Y400250D01*
Y402500D02*X7800D01*
X8550Y403250D01*
X11100Y404750D02*Y402500D01*
Y404750D02*X11850Y405500D01*
X12600D01*
X13350Y404750D01*
Y402500D01*
Y404750D02*X14100Y405500D01*
X14850D01*
X15600Y404750D01*
Y402500D01*
X10350Y405500D02*X11100Y404750D01*
X17400Y408500D02*Y402500D01*
Y403250D02*X18150Y402500D01*
X19650D01*
X20400Y403250D01*
Y404750D02*Y403250D01*
X19650Y405500D02*X20400Y404750D01*
X18150Y405500D02*X19650D01*
X17400Y404750D02*X18150Y405500D01*
X22200Y404750D02*Y403250D01*
Y404750D02*X22950Y405500D01*
X24450D01*
X25200Y404750D01*
Y403250D01*
X24450Y402500D02*X25200Y403250D01*
X22950Y402500D02*X24450D01*
X22200Y403250D02*X22950Y402500D01*
X27000Y408500D02*Y403250D01*
X27750Y402500D01*
X0Y399250D02*X29250D01*
X41750Y408500D02*Y402500D01*
X43700Y408500D02*X44750Y407450D01*
Y403550D01*
X43700Y402500D02*X44750Y403550D01*
X41000Y402500D02*X43700D01*
X41000Y408500D02*X43700D01*
G54D239*X46550Y407000D02*Y406850D01*
G54D238*Y404750D02*Y402500D01*
X50300Y405500D02*X51050Y404750D01*
X48800Y405500D02*X50300D01*
X48050Y404750D02*X48800Y405500D01*
X48050Y404750D02*Y403250D01*
X48800Y402500D01*
X51050Y405500D02*Y403250D01*
X51800Y402500D01*
X48800D02*X50300D01*
X51050Y403250D01*
X54350Y404750D02*Y402500D01*
Y404750D02*X55100Y405500D01*
X55850D01*
X56600Y404750D01*
Y402500D01*
Y404750D02*X57350Y405500D01*
X58100D01*
X58850Y404750D01*
Y402500D01*
X53600Y405500D02*X54350Y404750D01*
X60650Y402500D02*X61400D01*
X65900Y403250D02*X66650Y402500D01*
X65900Y407750D02*X66650Y408500D01*
X65900Y407750D02*Y403250D01*
X68450Y408500D02*X69950D01*
X69200D02*Y402500D01*
X68450D02*X69950D01*
X72500Y404750D02*Y402500D01*
Y404750D02*X73250Y405500D01*
X74000D01*
X74750Y404750D01*
Y402500D01*
X71750Y405500D02*X72500Y404750D01*
X77300Y405500D02*X79550D01*
X76550Y404750D02*X77300Y405500D01*
X76550Y404750D02*Y403250D01*
X77300Y402500D01*
X79550D01*
X81350Y408500D02*Y402500D01*
Y404750D02*X82100Y405500D01*
X83600D01*
X84350Y404750D01*
Y402500D01*
X86150Y408500D02*X86900Y407750D01*
Y403250D01*
X86150Y402500D02*X86900Y403250D01*
X41000Y399250D02*X88700D01*
X96050Y402500D02*X98000D01*
X95000Y403550D02*X96050Y402500D01*
X95000Y407450D02*Y403550D01*
Y407450D02*X96050Y408500D01*
X98000D01*
X99800Y404750D02*Y403250D01*
Y404750D02*X100550Y405500D01*
X102050D01*
X102800Y404750D01*
Y403250D01*
X102050Y402500D02*X102800Y403250D01*
X100550Y402500D02*X102050D01*
X99800Y403250D02*X100550Y402500D01*
X104600Y405500D02*Y403250D01*
X105350Y402500D01*
X106850D01*
X107600Y403250D01*
Y405500D02*Y403250D01*
X110150Y404750D02*Y402500D01*
Y404750D02*X110900Y405500D01*
X111650D01*
X112400Y404750D01*
Y402500D01*
X109400Y405500D02*X110150Y404750D01*
X114950Y408500D02*Y403250D01*
X115700Y402500D01*
X114200Y406250D02*X115700D01*
X95000Y399250D02*X117200D01*
X130750Y408500D02*Y402500D01*
X130000Y408500D02*X133000D01*
X133750Y407750D01*
Y406250D01*
X133000Y405500D02*X133750Y406250D01*
X130750Y405500D02*X133000D01*
X135550Y408500D02*Y403250D01*
X136300Y402500D01*
X140050Y405500D02*X140800Y404750D01*
X138550Y405500D02*X140050D01*
X137800Y404750D02*X138550Y405500D01*
X137800Y404750D02*Y403250D01*
X138550Y402500D01*
X140800Y405500D02*Y403250D01*
X141550Y402500D01*
X138550D02*X140050D01*
X140800Y403250D01*
X144100Y408500D02*Y403250D01*
X144850Y402500D01*
X143350Y406250D02*X144850D01*
X147100Y402500D02*X149350D01*
X146350Y403250D02*X147100Y402500D01*
X146350Y404750D02*Y403250D01*
Y404750D02*X147100Y405500D01*
X148600D01*
X149350Y404750D01*
X146350Y404000D02*X149350D01*
Y404750D02*Y404000D01*
X154150Y408500D02*Y402500D01*
X153400D02*X154150Y403250D01*
X151900Y402500D02*X153400D01*
X151150Y403250D02*X151900Y402500D01*
X151150Y404750D02*Y403250D01*
Y404750D02*X151900Y405500D01*
X153400D01*
X154150Y404750D01*
X157450Y405500D02*Y404750D01*
Y403250D02*Y402500D01*
X155950Y407750D02*Y407000D01*
Y407750D02*X156700Y408500D01*
X158200D01*
X158950Y407750D01*
Y407000D01*
X157450Y405500D02*X158950Y407000D01*
X130000Y399250D02*X160750D01*
X0Y423500D02*X3000D01*
X1500D02*Y417500D01*
X4800Y423500D02*Y417500D01*
Y419750D02*X5550Y420500D01*
X7050D01*
X7800Y419750D01*
Y417500D01*
X10350D02*X12600D01*
X9600Y418250D02*X10350Y417500D01*
X9600Y419750D02*Y418250D01*
Y419750D02*X10350Y420500D01*
X11850D01*
X12600Y419750D01*
X9600Y419000D02*X12600D01*
Y419750D02*Y419000D01*
X15150Y419750D02*Y417500D01*
Y419750D02*X15900Y420500D01*
X17400D01*
X14400D02*X15150Y419750D01*
X19950Y417500D02*X22200D01*
X19200Y418250D02*X19950Y417500D01*
X19200Y419750D02*Y418250D01*
Y419750D02*X19950Y420500D01*
X21450D01*
X22200Y419750D01*
X19200Y419000D02*X22200D01*
Y419750D02*Y419000D01*
X28950Y420500D02*X29700Y419750D01*
X27450Y420500D02*X28950D01*
X26700Y419750D02*X27450Y420500D01*
X26700Y419750D02*Y418250D01*
X27450Y417500D01*
X29700Y420500D02*Y418250D01*
X30450Y417500D01*
X27450D02*X28950D01*
X29700Y418250D01*
X33000Y419750D02*Y417500D01*
Y419750D02*X33750Y420500D01*
X35250D01*
X32250D02*X33000Y419750D01*
X37800Y417500D02*X40050D01*
X37050Y418250D02*X37800Y417500D01*
X37050Y419750D02*Y418250D01*
Y419750D02*X37800Y420500D01*
X39300D01*
X40050Y419750D01*
X37050Y419000D02*X40050D01*
Y419750D02*Y419000D01*
X44550Y422300D02*X45750Y423500D01*
Y417500D01*
X44550D02*X46800D01*
X48600Y422750D02*X49350Y423500D01*
X51600D01*
X52350Y422750D01*
Y421250D01*
X48600Y417500D02*X52350Y421250D01*
X48600Y417500D02*X52350D01*
X59850Y423500D02*Y417500D01*
X59100D02*X59850Y418250D01*
X57600Y417500D02*X59100D01*
X56850Y418250D02*X57600Y417500D01*
X56850Y419750D02*Y418250D01*
Y419750D02*X57600Y420500D01*
X59100D01*
X59850Y419750D01*
G54D239*X61650Y422000D02*Y421850D01*
G54D238*Y419750D02*Y417500D01*
X63900Y422750D02*Y417500D01*
Y422750D02*X64650Y423500D01*
X65400D01*
X63150Y420500D02*X64650D01*
X67650Y422750D02*Y417500D01*
Y422750D02*X68400Y423500D01*
X69150D01*
X66900Y420500D02*X68400D01*
X71400Y417500D02*X73650D01*
X70650Y418250D02*X71400Y417500D01*
X70650Y419750D02*Y418250D01*
Y419750D02*X71400Y420500D01*
X72900D01*
X73650Y419750D01*
X70650Y419000D02*X73650D01*
Y419750D02*Y419000D01*
X76200Y419750D02*Y417500D01*
Y419750D02*X76950Y420500D01*
X78450D01*
X75450D02*X76200Y419750D01*
X81000Y417500D02*X83250D01*
X80250Y418250D02*X81000Y417500D01*
X80250Y419750D02*Y418250D01*
Y419750D02*X81000Y420500D01*
X82500D01*
X83250Y419750D01*
X80250Y419000D02*X83250D01*
Y419750D02*Y419000D01*
X85800Y419750D02*Y417500D01*
Y419750D02*X86550Y420500D01*
X87300D01*
X88050Y419750D01*
Y417500D01*
X85050Y420500D02*X85800Y419750D01*
X90600Y423500D02*Y418250D01*
X91350Y417500D01*
X89850Y421250D02*X91350D01*
X98550Y423500D02*Y417500D01*
X97800D02*X98550Y418250D01*
X96300Y417500D02*X97800D01*
X95550Y418250D02*X96300Y417500D01*
X95550Y419750D02*Y418250D01*
Y419750D02*X96300Y420500D01*
X97800D01*
X98550Y419750D01*
X101100D02*Y417500D01*
Y419750D02*X101850Y420500D01*
X103350D01*
X100350D02*X101100Y419750D01*
G54D239*X105150Y422000D02*Y421850D01*
G54D238*Y419750D02*Y417500D01*
X106650Y423500D02*Y418250D01*
X107400Y417500D01*
X108900Y423500D02*Y418250D01*
X109650Y417500D01*
X114600D02*X116850D01*
X117600Y418250D01*
X116850Y419000D02*X117600Y418250D01*
X114600Y419000D02*X116850D01*
X113850Y419750D02*X114600Y419000D01*
X113850Y419750D02*X114600Y420500D01*
X116850D01*
X117600Y419750D01*
X113850Y418250D02*X114600Y417500D01*
G54D239*X119400Y422000D02*Y421850D01*
G54D238*Y419750D02*Y417500D01*
X120900Y420500D02*X123900D01*
X120900Y417500D02*X123900Y420500D01*
X120900Y417500D02*X123900D01*
X126450D02*X128700D01*
X125700Y418250D02*X126450Y417500D01*
X125700Y419750D02*Y418250D01*
Y419750D02*X126450Y420500D01*
X127950D01*
X128700Y419750D01*
X125700Y419000D02*X128700D01*
Y419750D02*Y419000D01*
X131250Y417500D02*X133500D01*
X134250Y418250D01*
X133500Y419000D02*X134250Y418250D01*
X131250Y419000D02*X133500D01*
X130500Y419750D02*X131250Y419000D01*
X130500Y419750D02*X131250Y420500D01*
X133500D01*
X134250Y419750D01*
X130500Y418250D02*X131250Y417500D01*
X138750Y420500D02*Y418250D01*
X139500Y417500D01*
X141000D01*
X141750Y418250D01*
Y420500D02*Y418250D01*
X144300Y417500D02*X146550D01*
X147300Y418250D01*
X146550Y419000D02*X147300Y418250D01*
X144300Y419000D02*X146550D01*
X143550Y419750D02*X144300Y419000D01*
X143550Y419750D02*X144300Y420500D01*
X146550D01*
X147300Y419750D01*
X143550Y418250D02*X144300Y417500D01*
X149850D02*X152100D01*
X149100Y418250D02*X149850Y417500D01*
X149100Y419750D02*Y418250D01*
Y419750D02*X149850Y420500D01*
X151350D01*
X152100Y419750D01*
X149100Y419000D02*X152100D01*
Y419750D02*Y419000D01*
X156900Y423500D02*Y417500D01*
X156150D02*X156900Y418250D01*
X154650Y417500D02*X156150D01*
X153900Y418250D02*X154650Y417500D01*
X153900Y419750D02*Y418250D01*
Y419750D02*X154650Y420500D01*
X156150D01*
X156900Y419750D01*
G54D239*X161400Y422000D02*Y421850D01*
G54D238*Y419750D02*Y417500D01*
X163650Y419750D02*Y417500D01*
Y419750D02*X164400Y420500D01*
X165150D01*
X165900Y419750D01*
Y417500D01*
X162900Y420500D02*X163650Y419750D01*
X171150Y423500D02*Y418250D01*
X171900Y417500D01*
X170400Y421250D02*X171900D01*
X173400Y423500D02*Y417500D01*
Y419750D02*X174150Y420500D01*
X175650D01*
X176400Y419750D01*
Y417500D01*
G54D239*X178200Y422000D02*Y421850D01*
G54D238*Y419750D02*Y417500D01*
X180450D02*X182700D01*
X183450Y418250D01*
X182700Y419000D02*X183450Y418250D01*
X180450Y419000D02*X182700D01*
X179700Y419750D02*X180450Y419000D01*
X179700Y419750D02*X180450Y420500D01*
X182700D01*
X183450Y419750D01*
X179700Y418250D02*X180450Y417500D01*
X187950Y423500D02*Y418250D01*
X188700Y417500D01*
X192450Y420500D02*X193200Y419750D01*
X190950Y420500D02*X192450D01*
X190200Y419750D02*X190950Y420500D01*
X190200Y419750D02*Y418250D01*
X190950Y417500D01*
X193200Y420500D02*Y418250D01*
X193950Y417500D01*
X190950D02*X192450D01*
X193200Y418250D01*
X195750Y420500D02*Y418250D01*
X196500Y417500D01*
X198750Y420500D02*Y416000D01*
X198000Y415250D02*X198750Y416000D01*
X196500Y415250D02*X198000D01*
X195750Y416000D02*X196500Y415250D01*
Y417500D02*X198000D01*
X198750Y418250D01*
X200550Y419750D02*Y418250D01*
Y419750D02*X201300Y420500D01*
X202800D01*
X203550Y419750D01*
Y418250D01*
X202800Y417500D02*X203550Y418250D01*
X201300Y417500D02*X202800D01*
X200550Y418250D02*X201300Y417500D01*
X205350Y420500D02*Y418250D01*
X206100Y417500D01*
X207600D01*
X208350Y418250D01*
Y420500D02*Y418250D01*
X210900Y423500D02*Y418250D01*
X211650Y417500D01*
X210150Y421250D02*X211650D01*
X213150Y416000D02*X214650Y417500D01*
X219900D02*X222150Y420500D01*
Y422750D02*Y420500D01*
X221400Y423500D02*X222150Y422750D01*
X219900Y423500D02*X221400D01*
X219150Y422750D02*X219900Y423500D01*
X219150Y422750D02*Y421250D01*
X219900Y420500D01*
X222150D01*
X226200Y423500D02*X226950Y422750D01*
X224700Y423500D02*X226200D01*
X223950Y422750D02*X224700Y423500D01*
X223950Y422750D02*Y418250D01*
X224700Y417500D01*
X226200Y420800D02*X226950Y420050D01*
X223950Y420800D02*X226200D01*
X224700Y417500D02*X226200D01*
X226950Y418250D01*
Y420050D02*Y418250D01*
X231450Y423500D02*Y417500D01*
Y419750D02*X232200Y420500D01*
X233700D01*
X234450Y419750D01*
Y417500D01*
X236250Y419750D02*Y418250D01*
Y419750D02*X237000Y420500D01*
X238500D01*
X239250Y419750D01*
Y418250D01*
X238500Y417500D02*X239250Y418250D01*
X237000Y417500D02*X238500D01*
X236250Y418250D02*X237000Y417500D01*
X241050Y423500D02*Y418250D01*
X241800Y417500D01*
X244050D02*X246300D01*
X243300Y418250D02*X244050Y417500D01*
X243300Y419750D02*Y418250D01*
Y419750D02*X244050Y420500D01*
X245550D01*
X246300Y419750D01*
X243300Y419000D02*X246300D01*
Y419750D02*Y419000D01*
X248850Y417500D02*X251100D01*
X251850Y418250D01*
X251100Y419000D02*X251850Y418250D01*
X248850Y419000D02*X251100D01*
X248100Y419750D02*X248850Y419000D01*
X248100Y419750D02*X248850Y420500D01*
X251100D01*
X251850Y419750D01*
X248100Y418250D02*X248850Y417500D01*
X257100Y423500D02*Y418250D01*
X257850Y417500D01*
X256350Y421250D02*X257850D01*
X259350Y419750D02*Y418250D01*
Y419750D02*X260100Y420500D01*
X261600D01*
X262350Y419750D01*
Y418250D01*
X261600Y417500D02*X262350Y418250D01*
X260100Y417500D02*X261600D01*
X259350Y418250D02*X260100Y417500D01*
X264900Y423500D02*Y418250D01*
X265650Y417500D01*
X264150Y421250D02*X265650D01*
X269400Y420500D02*X270150Y419750D01*
X267900Y420500D02*X269400D01*
X267150Y419750D02*X267900Y420500D01*
X267150Y419750D02*Y418250D01*
X267900Y417500D01*
X270150Y420500D02*Y418250D01*
X270900Y417500D01*
X267900D02*X269400D01*
X270150Y418250D01*
X272700Y423500D02*Y418250D01*
X273450Y417500D01*
G54D240*X0Y200000D02*X625000D01*
X0D02*Y0D01*
X625000Y200000D02*Y0D01*
X0D02*X625000D01*
G54D238*X200000Y213500D02*Y207500D01*
Y213500D02*X202250Y210500D01*
X204500Y213500D01*
Y207500D01*
X208550Y210500D02*X209300Y209750D01*
X207050Y210500D02*X208550D01*
X206300Y209750D02*X207050Y210500D01*
X206300Y209750D02*Y208250D01*
X207050Y207500D01*
X209300Y210500D02*Y208250D01*
X210050Y207500D01*
X207050D02*X208550D01*
X209300Y208250D01*
X211850Y210500D02*X214850Y207500D01*
X211850D02*X214850Y210500D01*
G54D239*X216650Y212000D02*Y211850D01*
G54D238*Y209750D02*Y207500D01*
X218900Y209750D02*Y207500D01*
Y209750D02*X219650Y210500D01*
X220400D01*
X221150Y209750D01*
Y207500D01*
Y209750D02*X221900Y210500D01*
X222650D01*
X223400Y209750D01*
Y207500D01*
X218150Y210500D02*X218900Y209750D01*
X225200Y210500D02*Y208250D01*
X225950Y207500D01*
X227450D01*
X228200Y208250D01*
Y210500D02*Y208250D01*
X230750Y209750D02*Y207500D01*
Y209750D02*X231500Y210500D01*
X232250D01*
X233000Y209750D01*
Y207500D01*
Y209750D02*X233750Y210500D01*
X234500D01*
X235250Y209750D01*
Y207500D01*
X230000Y210500D02*X230750Y209750D01*
X240500Y213500D02*Y207500D01*
X242450Y213500D02*X243500Y212450D01*
Y208550D01*
X242450Y207500D02*X243500Y208550D01*
X239750Y207500D02*X242450D01*
X239750Y213500D02*X242450D01*
G54D239*X245300Y212000D02*Y211850D01*
G54D238*Y209750D02*Y207500D01*
X247550Y209750D02*Y207500D01*
Y209750D02*X248300Y210500D01*
X249050D01*
X249800Y209750D01*
Y207500D01*
Y209750D02*X250550Y210500D01*
X251300D01*
X252050Y209750D01*
Y207500D01*
X246800Y210500D02*X247550Y209750D01*
X254600Y207500D02*X256850D01*
X253850Y208250D02*X254600Y207500D01*
X253850Y209750D02*Y208250D01*
Y209750D02*X254600Y210500D01*
X256100D01*
X256850Y209750D01*
X253850Y209000D02*X256850D01*
Y209750D02*Y209000D01*
X259400Y209750D02*Y207500D01*
Y209750D02*X260150Y210500D01*
X260900D01*
X261650Y209750D01*
Y207500D01*
X258650Y210500D02*X259400Y209750D01*
X264200Y207500D02*X266450D01*
X267200Y208250D01*
X266450Y209000D02*X267200Y208250D01*
X264200Y209000D02*X266450D01*
X263450Y209750D02*X264200Y209000D01*
X263450Y209750D02*X264200Y210500D01*
X266450D01*
X267200Y209750D01*
X263450Y208250D02*X264200Y207500D01*
G54D239*X269000Y212000D02*Y211850D01*
G54D238*Y209750D02*Y207500D01*
X270500Y209750D02*Y208250D01*
Y209750D02*X271250Y210500D01*
X272750D01*
X273500Y209750D01*
Y208250D01*
X272750Y207500D02*X273500Y208250D01*
X271250Y207500D02*X272750D01*
X270500Y208250D02*X271250Y207500D01*
X276050Y209750D02*Y207500D01*
Y209750D02*X276800Y210500D01*
X277550D01*
X278300Y209750D01*
Y207500D01*
X275300Y210500D02*X276050Y209750D01*
X280850Y207500D02*X283100D01*
X283850Y208250D01*
X283100Y209000D02*X283850Y208250D01*
X280850Y209000D02*X283100D01*
X280100Y209750D02*X280850Y209000D01*
X280100Y209750D02*X280850Y210500D01*
X283100D01*
X283850Y209750D01*
X280100Y208250D02*X280850Y207500D01*
X285650Y211250D02*X286400D01*
X285650Y209750D02*X286400D01*
X293150Y213500D02*X293900Y212750D01*
X291650Y213500D02*X293150D01*
X290900Y212750D02*X291650Y213500D01*
X290900Y212750D02*Y208250D01*
X291650Y207500D01*
X293150Y210800D02*X293900Y210050D01*
X290900Y210800D02*X293150D01*
X291650Y207500D02*X293150D01*
X293900Y208250D01*
Y210050D02*Y208250D01*
X295700Y212750D02*X296450Y213500D01*
X298700D01*
X299450Y212750D01*
Y211250D01*
X295700Y207500D02*X299450Y211250D01*
X295700Y207500D02*X299450D01*
X301250Y213500D02*X304250D01*
X301250D02*Y210500D01*
X302000Y211250D01*
X303500D01*
X304250Y210500D01*
Y208250D01*
X303500Y207500D02*X304250Y208250D01*
X302000Y207500D02*X303500D01*
X301250Y208250D02*X302000Y207500D01*
X306050Y208250D02*X306800Y207500D01*
X306050Y212750D02*Y208250D01*
Y212750D02*X306800Y213500D01*
X308300D01*
X309050Y212750D01*
Y208250D01*
X308300Y207500D02*X309050Y208250D01*
X306800Y207500D02*X308300D01*
X306050Y209000D02*X309050Y212000D01*
X310850Y207500D02*X311600D01*
X313400Y208250D02*X314150Y207500D01*
X313400Y212750D02*Y208250D01*
Y212750D02*X314150Y213500D01*
X315650D01*
X316400Y212750D01*
Y208250D01*
X315650Y207500D02*X316400Y208250D01*
X314150Y207500D02*X315650D01*
X313400Y209000D02*X316400Y212000D01*
X318200Y208250D02*X318950Y207500D01*
X318200Y212750D02*Y208250D01*
Y212750D02*X318950Y213500D01*
X320450D01*
X321200Y212750D01*
Y208250D01*
X320450Y207500D02*X321200Y208250D01*
X318950Y207500D02*X320450D01*
X318200Y209000D02*X321200Y212000D01*
X323000Y208250D02*X323750Y207500D01*
X323000Y212750D02*Y208250D01*
Y212750D02*X323750Y213500D01*
X325250D01*
X326000Y212750D01*
Y208250D01*
X325250Y207500D02*X326000Y208250D01*
X323750Y207500D02*X325250D01*
X323000Y209000D02*X326000Y212000D01*
X327800Y208250D02*X328550Y207500D01*
X327800Y212750D02*Y208250D01*
Y212750D02*X328550Y213500D01*
X330050D01*
X330800Y212750D01*
Y208250D01*
X330050Y207500D02*X330800Y208250D01*
X328550Y207500D02*X330050D01*
X327800Y209000D02*X330800Y212000D01*
X332600Y208250D02*X333350Y207500D01*
X332600Y212750D02*Y208250D01*
Y212750D02*X333350Y213500D01*
X334850D01*
X335600Y212750D01*
Y208250D01*
X334850Y207500D02*X335600Y208250D01*
X333350Y207500D02*X334850D01*
X332600Y209000D02*X335600Y212000D01*
X337400Y208250D02*X338150Y207500D01*
X337400Y212750D02*Y208250D01*
Y212750D02*X338150Y213500D01*
X339650D01*
X340400Y212750D01*
Y208250D01*
X339650Y207500D02*X340400Y208250D01*
X338150Y207500D02*X339650D01*
X337400Y209000D02*X340400Y212000D01*
X345650Y209750D02*Y207500D01*
Y209750D02*X346400Y210500D01*
X347150D01*
X347900Y209750D01*
Y207500D01*
Y209750D02*X348650Y210500D01*
X349400D01*
X350150Y209750D01*
Y207500D01*
X344900Y210500D02*X345650Y209750D01*
G54D239*X351950Y212000D02*Y211850D01*
G54D238*Y209750D02*Y207500D01*
X353450Y213500D02*Y208250D01*
X354200Y207500D01*
X356450D02*X358700D01*
X359450Y208250D01*
X358700Y209000D02*X359450Y208250D01*
X356450Y209000D02*X358700D01*
X355700Y209750D02*X356450Y209000D01*
X355700Y209750D02*X356450Y210500D01*
X358700D01*
X359450Y209750D01*
X355700Y208250D02*X356450Y207500D01*
X363950Y210500D02*Y208250D01*
X364700Y207500D01*
X365450D01*
X366200Y208250D01*
Y210500D02*Y208250D01*
X366950Y207500D01*
X367700D01*
X368450Y208250D01*
Y210500D02*Y208250D01*
G54D239*X370250Y212000D02*Y211850D01*
G54D238*Y209750D02*Y207500D01*
X374750Y213500D02*Y207500D01*
X374000D02*X374750Y208250D01*
X372500Y207500D02*X374000D01*
X371750Y208250D02*X372500Y207500D01*
X371750Y209750D02*Y208250D01*
Y209750D02*X372500Y210500D01*
X374000D01*
X374750Y209750D01*
X377300Y207500D02*X379550D01*
X376550Y208250D02*X377300Y207500D01*
X376550Y209750D02*Y208250D01*
Y209750D02*X377300Y210500D01*
X378800D01*
X379550Y209750D01*
X376550Y209000D02*X379550D01*
Y209750D02*Y209000D01*
X381350Y206000D02*X382850Y207500D01*
X387350Y212750D02*X388100Y213500D01*
X390350D01*
X391100Y212750D01*
Y211250D01*
X387350Y207500D02*X391100Y211250D01*
X387350Y207500D02*X391100D01*
X392900Y208250D02*X393650Y207500D01*
X392900Y212750D02*Y208250D01*
Y212750D02*X393650Y213500D01*
X395150D01*
X395900Y212750D01*
Y208250D01*
X395150Y207500D02*X395900Y208250D01*
X393650Y207500D02*X395150D01*
X392900Y209000D02*X395900Y212000D01*
X397700Y208250D02*X398450Y207500D01*
X397700Y212750D02*Y208250D01*
Y212750D02*X398450Y213500D01*
X399950D01*
X400700Y212750D01*
Y208250D01*
X399950Y207500D02*X400700Y208250D01*
X398450Y207500D02*X399950D01*
X397700Y209000D02*X400700Y212000D01*
X402500Y208250D02*X403250Y207500D01*
X402500Y212750D02*Y208250D01*
Y212750D02*X403250Y213500D01*
X404750D01*
X405500Y212750D01*
Y208250D01*
X404750Y207500D02*X405500Y208250D01*
X403250Y207500D02*X404750D01*
X402500Y209000D02*X405500Y212000D01*
X407300Y207500D02*X408050D01*
X409850Y208250D02*X410600Y207500D01*
X409850Y212750D02*Y208250D01*
Y212750D02*X410600Y213500D01*
X412100D01*
X412850Y212750D01*
Y208250D01*
X412100Y207500D02*X412850Y208250D01*
X410600Y207500D02*X412100D01*
X409850Y209000D02*X412850Y212000D01*
X414650Y208250D02*X415400Y207500D01*
X414650Y212750D02*Y208250D01*
Y212750D02*X415400Y213500D01*
X416900D01*
X417650Y212750D01*
Y208250D01*
X416900Y207500D02*X417650Y208250D01*
X415400Y207500D02*X416900D01*
X414650Y209000D02*X417650Y212000D01*
X419450Y208250D02*X420200Y207500D01*
X419450Y212750D02*Y208250D01*
Y212750D02*X420200Y213500D01*
X421700D01*
X422450Y212750D01*
Y208250D01*
X421700Y207500D02*X422450Y208250D01*
X420200Y207500D02*X421700D01*
X419450Y209000D02*X422450Y212000D01*
X424250Y208250D02*X425000Y207500D01*
X424250Y212750D02*Y208250D01*
Y212750D02*X425000Y213500D01*
X426500D01*
X427250Y212750D01*
Y208250D01*
X426500Y207500D02*X427250Y208250D01*
X425000Y207500D02*X426500D01*
X424250Y209000D02*X427250Y212000D01*
X429050Y208250D02*X429800Y207500D01*
X429050Y212750D02*Y208250D01*
Y212750D02*X429800Y213500D01*
X431300D01*
X432050Y212750D01*
Y208250D01*
X431300Y207500D02*X432050Y208250D01*
X429800Y207500D02*X431300D01*
X429050Y209000D02*X432050Y212000D01*
X433850Y208250D02*X434600Y207500D01*
X433850Y212750D02*Y208250D01*
Y212750D02*X434600Y213500D01*
X436100D01*
X436850Y212750D01*
Y208250D01*
X436100Y207500D02*X436850Y208250D01*
X434600Y207500D02*X436100D01*
X433850Y209000D02*X436850Y212000D01*
X442100Y209750D02*Y207500D01*
Y209750D02*X442850Y210500D01*
X443600D01*
X444350Y209750D01*
Y207500D01*
Y209750D02*X445100Y210500D01*
X445850D01*
X446600Y209750D01*
Y207500D01*
X441350Y210500D02*X442100Y209750D01*
G54D239*X448400Y212000D02*Y211850D01*
G54D238*Y209750D02*Y207500D01*
X449900Y213500D02*Y208250D01*
X450650Y207500D01*
X452900D02*X455150D01*
X455900Y208250D01*
X455150Y209000D02*X455900Y208250D01*
X452900Y209000D02*X455150D01*
X452150Y209750D02*X452900Y209000D01*
X452150Y209750D02*X452900Y210500D01*
X455150D01*
X455900Y209750D01*
X452150Y208250D02*X452900Y207500D01*
X460400Y213500D02*Y207500D01*
Y209750D02*X461150Y210500D01*
X462650D01*
X463400Y209750D01*
Y207500D01*
G54D239*X465200Y212000D02*Y211850D01*
G54D238*Y209750D02*Y207500D01*
X468950Y210500D02*X469700Y209750D01*
X467450Y210500D02*X468950D01*
X466700Y209750D02*X467450Y210500D01*
X466700Y209750D02*Y208250D01*
X467450Y207500D01*
X468950D01*
X469700Y208250D01*
X466700Y206000D02*X467450Y205250D01*
X468950D01*
X469700Y206000D01*
Y210500D02*Y206000D01*
X471500Y213500D02*Y207500D01*
Y209750D02*X472250Y210500D01*
X473750D01*
X474500Y209750D01*
Y207500D01*
X109025Y-9500D02*X112025D01*
X112775Y-8750D01*
Y-6950D02*Y-8750D01*
X112025Y-6200D02*X112775Y-6950D01*
X109775Y-6200D02*X112025D01*
X109775Y-3500D02*Y-9500D01*
X109025Y-3500D02*X112025D01*
X112775Y-4250D01*
Y-5450D01*
X112025Y-6200D02*X112775Y-5450D01*
X114575Y-7250D02*Y-8750D01*
Y-7250D02*X115325Y-6500D01*
X116825D01*
X117575Y-7250D01*
Y-8750D01*
X116825Y-9500D02*X117575Y-8750D01*
X115325Y-9500D02*X116825D01*
X114575Y-8750D02*X115325Y-9500D01*
X121625Y-6500D02*X122375Y-7250D01*
X120125Y-6500D02*X121625D01*
X119375Y-7250D02*X120125Y-6500D01*
X119375Y-7250D02*Y-8750D01*
X120125Y-9500D01*
X122375Y-6500D02*Y-8750D01*
X123125Y-9500D01*
X120125D02*X121625D01*
X122375Y-8750D01*
X125675Y-7250D02*Y-9500D01*
Y-7250D02*X126425Y-6500D01*
X127925D01*
X124925D02*X125675Y-7250D01*
X132725Y-3500D02*Y-9500D01*
X131975D02*X132725Y-8750D01*
X130475Y-9500D02*X131975D01*
X129725Y-8750D02*X130475Y-9500D01*
X129725Y-7250D02*Y-8750D01*
Y-7250D02*X130475Y-6500D01*
X131975D01*
X132725Y-7250D01*
X137225D02*Y-8750D01*
Y-7250D02*X137975Y-6500D01*
X139475D01*
X140225Y-7250D01*
Y-8750D01*
X139475Y-9500D02*X140225Y-8750D01*
X137975Y-9500D02*X139475D01*
X137225Y-8750D02*X137975Y-9500D01*
X142025Y-6500D02*Y-8750D01*
X142775Y-9500D01*
X144275D01*
X145025Y-8750D01*
Y-6500D02*Y-8750D01*
X147575Y-3500D02*Y-8750D01*
X148325Y-9500D01*
X146825Y-5750D02*X148325D01*
X149825Y-3500D02*Y-8750D01*
X150575Y-9500D01*
G54D239*X152075Y-5000D02*Y-5150D01*
G54D238*Y-7250D02*Y-9500D01*
X154325Y-7250D02*Y-9500D01*
Y-7250D02*X155075Y-6500D01*
X155825D01*
X156575Y-7250D01*
Y-9500D01*
X153575Y-6500D02*X154325Y-7250D01*
X159125Y-9500D02*X161375D01*
X158375Y-8750D02*X159125Y-9500D01*
X158375Y-7250D02*Y-8750D01*
Y-7250D02*X159125Y-6500D01*
X160625D01*
X161375Y-7250D01*
X158375Y-8000D02*X161375D01*
Y-7250D02*Y-8000D01*
G54D239*X165875Y-5000D02*Y-5150D01*
G54D238*Y-7250D02*Y-9500D01*
X168125D02*X170375D01*
X171125Y-8750D01*
X170375Y-8000D02*X171125Y-8750D01*
X168125Y-8000D02*X170375D01*
X167375Y-7250D02*X168125Y-8000D01*
X167375Y-7250D02*X168125Y-6500D01*
X170375D01*
X171125Y-7250D01*
X167375Y-8750D02*X168125Y-9500D01*
X176375Y-3500D02*Y-8750D01*
X177125Y-9500D01*
X175625Y-5750D02*X177125D01*
X178625Y-3500D02*Y-9500D01*
Y-7250D02*X179375Y-6500D01*
X180875D01*
X181625Y-7250D01*
Y-9500D01*
X184175D02*X186425D01*
X183425Y-8750D02*X184175Y-9500D01*
X183425Y-7250D02*Y-8750D01*
Y-7250D02*X184175Y-6500D01*
X185675D01*
X186425Y-7250D01*
X183425Y-8000D02*X186425D01*
Y-7250D02*Y-8000D01*
X191675Y-6500D02*X193925D01*
X190925Y-7250D02*X191675Y-6500D01*
X190925Y-7250D02*Y-8750D01*
X191675Y-9500D01*
X193925D01*
X196475D02*X198725D01*
X195725Y-8750D02*X196475Y-9500D01*
X195725Y-7250D02*Y-8750D01*
Y-7250D02*X196475Y-6500D01*
X197975D01*
X198725Y-7250D01*
X195725Y-8000D02*X198725D01*
Y-7250D02*Y-8000D01*
X201275Y-7250D02*Y-9500D01*
Y-7250D02*X202025Y-6500D01*
X202775D01*
X203525Y-7250D01*
Y-9500D01*
X200525Y-6500D02*X201275Y-7250D01*
X206075Y-3500D02*Y-8750D01*
X206825Y-9500D01*
X205325Y-5750D02*X206825D01*
X209075Y-9500D02*X211325D01*
X208325Y-8750D02*X209075Y-9500D01*
X208325Y-7250D02*Y-8750D01*
Y-7250D02*X209075Y-6500D01*
X210575D01*
X211325Y-7250D01*
X208325Y-8000D02*X211325D01*
Y-7250D02*Y-8000D01*
X213875Y-7250D02*Y-9500D01*
Y-7250D02*X214625Y-6500D01*
X216125D01*
X213125D02*X213875Y-7250D01*
X217925Y-3500D02*Y-8750D01*
X218675Y-9500D01*
G54D239*X220175Y-5000D02*Y-5150D01*
G54D238*Y-7250D02*Y-9500D01*
X222425Y-7250D02*Y-9500D01*
Y-7250D02*X223175Y-6500D01*
X223925D01*
X224675Y-7250D01*
Y-9500D01*
X221675Y-6500D02*X222425Y-7250D01*
X227225Y-9500D02*X229475D01*
X226475Y-8750D02*X227225Y-9500D01*
X226475Y-7250D02*Y-8750D01*
Y-7250D02*X227225Y-6500D01*
X228725D01*
X229475Y-7250D01*
X226475Y-8000D02*X229475D01*
Y-7250D02*Y-8000D01*
X233975Y-7250D02*Y-8750D01*
Y-7250D02*X234725Y-6500D01*
X236225D01*
X236975Y-7250D01*
Y-8750D01*
X236225Y-9500D02*X236975Y-8750D01*
X234725Y-9500D02*X236225D01*
X233975Y-8750D02*X234725Y-9500D01*
X239525Y-4250D02*Y-9500D01*
Y-4250D02*X240275Y-3500D01*
X241025D01*
X238775Y-6500D02*X240275D01*
X245975Y-3500D02*Y-8750D01*
X246725Y-9500D01*
X245225Y-5750D02*X246725D01*
X248225Y-3500D02*Y-9500D01*
Y-7250D02*X248975Y-6500D01*
X250475D01*
X251225Y-7250D01*
Y-9500D01*
G54D239*X253025Y-5000D02*Y-5150D01*
G54D238*Y-7250D02*Y-9500D01*
X255275D02*X257525D01*
X258275Y-8750D01*
X257525Y-8000D02*X258275Y-8750D01*
X255275Y-8000D02*X257525D01*
X254525Y-7250D02*X255275Y-8000D01*
X254525Y-7250D02*X255275Y-6500D01*
X257525D01*
X258275Y-7250D01*
X254525Y-8750D02*X255275Y-9500D01*
X262775Y-8750D02*X263525Y-9500D01*
X262775Y-7550D02*Y-8750D01*
Y-7550D02*X263825Y-6500D01*
X264725D01*
X265775Y-7550D01*
Y-8750D01*
X265025Y-9500D02*X265775Y-8750D01*
X263525Y-9500D02*X265025D01*
X262775Y-5450D02*X263825Y-6500D01*
X262775Y-4250D02*Y-5450D01*
Y-4250D02*X263525Y-3500D01*
X265025D01*
X265775Y-4250D01*
Y-5450D01*
X264725Y-6500D02*X265775Y-5450D01*
X267575Y-9500D02*X268325D01*
X270125Y-8750D02*X270875Y-9500D01*
X270125Y-4250D02*Y-8750D01*
Y-4250D02*X270875Y-3500D01*
X272375D01*
X273125Y-4250D01*
Y-8750D01*
X272375Y-9500D02*X273125Y-8750D01*
X270875Y-9500D02*X272375D01*
X270125Y-8000D02*X273125Y-5000D01*
X274925Y-8750D02*X275675Y-9500D01*
X274925Y-4250D02*Y-8750D01*
Y-4250D02*X275675Y-3500D01*
X277175D01*
X277925Y-4250D01*
Y-8750D01*
X277175Y-9500D02*X277925Y-8750D01*
X275675Y-9500D02*X277175D01*
X274925Y-8000D02*X277925Y-5000D01*
X279725Y-8750D02*X280475Y-9500D01*
X279725Y-4250D02*Y-8750D01*
Y-4250D02*X280475Y-3500D01*
X281975D01*
X282725Y-4250D01*
Y-8750D01*
X281975Y-9500D02*X282725Y-8750D01*
X280475Y-9500D02*X281975D01*
X279725Y-8000D02*X282725Y-5000D01*
X284525Y-8750D02*X285275Y-9500D01*
X284525Y-4250D02*Y-8750D01*
Y-4250D02*X285275Y-3500D01*
X286775D01*
X287525Y-4250D01*
Y-8750D01*
X286775Y-9500D02*X287525Y-8750D01*
X285275Y-9500D02*X286775D01*
X284525Y-8000D02*X287525Y-5000D01*
X289325Y-8750D02*X290075Y-9500D01*
X289325Y-4250D02*Y-8750D01*
Y-4250D02*X290075Y-3500D01*
X291575D01*
X292325Y-4250D01*
Y-8750D01*
X291575Y-9500D02*X292325Y-8750D01*
X290075Y-9500D02*X291575D01*
X289325Y-8000D02*X292325Y-5000D01*
X294125Y-8750D02*X294875Y-9500D01*
X294125Y-4250D02*Y-8750D01*
Y-4250D02*X294875Y-3500D01*
X296375D01*
X297125Y-4250D01*
Y-8750D01*
X296375Y-9500D02*X297125Y-8750D01*
X294875Y-9500D02*X296375D01*
X294125Y-8000D02*X297125Y-5000D01*
X302375Y-7250D02*Y-9500D01*
Y-7250D02*X303125Y-6500D01*
X303875D01*
X304625Y-7250D01*
Y-9500D01*
Y-7250D02*X305375Y-6500D01*
X306125D01*
X306875Y-7250D01*
Y-9500D01*
X301625Y-6500D02*X302375Y-7250D01*
G54D239*X308675Y-5000D02*Y-5150D01*
G54D238*Y-7250D02*Y-9500D01*
X310175Y-3500D02*Y-8750D01*
X310925Y-9500D01*
X315875Y-7250D02*Y-9500D01*
Y-7250D02*X316625Y-6500D01*
X318125D01*
X315125D02*X315875Y-7250D01*
X320675Y-9500D02*X322925D01*
X319925Y-8750D02*X320675Y-9500D01*
X319925Y-7250D02*Y-8750D01*
Y-7250D02*X320675Y-6500D01*
X322175D01*
X322925Y-7250D01*
X319925Y-8000D02*X322925D01*
Y-7250D02*Y-8000D01*
X325475Y-6500D02*X327725D01*
X324725Y-7250D02*X325475Y-6500D01*
X324725Y-7250D02*Y-8750D01*
X325475Y-9500D01*
X327725D01*
X330275Y-3500D02*Y-8750D01*
X331025Y-9500D01*
X329525Y-5750D02*X331025D01*
X334775Y-6500D02*X335525Y-7250D01*
X333275Y-6500D02*X334775D01*
X332525Y-7250D02*X333275Y-6500D01*
X332525Y-7250D02*Y-8750D01*
X333275Y-9500D01*
X335525Y-6500D02*Y-8750D01*
X336275Y-9500D01*
X333275D02*X334775D01*
X335525Y-8750D01*
X338825Y-7250D02*Y-9500D01*
Y-7250D02*X339575Y-6500D01*
X340325D01*
X341075Y-7250D01*
Y-9500D01*
X338075Y-6500D02*X338825Y-7250D01*
X345125Y-6500D02*X345875Y-7250D01*
X343625Y-6500D02*X345125D01*
X342875Y-7250D02*X343625Y-6500D01*
X342875Y-7250D02*Y-8750D01*
X343625Y-9500D01*
X345125D01*
X345875Y-8750D01*
X342875Y-11000D02*X343625Y-11750D01*
X345125D01*
X345875Y-11000D01*
Y-6500D02*Y-11000D01*
X347675Y-3500D02*Y-8750D01*
X348425Y-9500D01*
X350675D02*X352925D01*
X349925Y-8750D02*X350675Y-9500D01*
X349925Y-7250D02*Y-8750D01*
Y-7250D02*X350675Y-6500D01*
X352175D01*
X352925Y-7250D01*
X349925Y-8000D02*X352925D01*
Y-7250D02*Y-8000D01*
X357425Y-6500D02*X360425D01*
X364925Y-8750D02*X365675Y-9500D01*
X364925Y-4250D02*Y-8750D01*
Y-4250D02*X365675Y-3500D01*
X367175D01*
X367925Y-4250D01*
Y-8750D01*
X367175Y-9500D02*X367925Y-8750D01*
X365675Y-9500D02*X367175D01*
X364925Y-8000D02*X367925Y-5000D01*
X369725Y-11000D02*X371225Y-9500D01*
X373025Y-8750D02*X373775Y-9500D01*
X373025Y-4250D02*Y-8750D01*
Y-4250D02*X373775Y-3500D01*
X375275D01*
X376025Y-4250D01*
Y-8750D01*
X375275Y-9500D02*X376025Y-8750D01*
X373775Y-9500D02*X375275D01*
X373025Y-8000D02*X376025Y-5000D01*
X381275Y-3500D02*Y-8750D01*
X382025Y-9500D01*
X380525Y-5750D02*X382025D01*
X383525Y-7250D02*Y-8750D01*
Y-7250D02*X384275Y-6500D01*
X385775D01*
X386525Y-7250D01*
Y-8750D01*
X385775Y-9500D02*X386525Y-8750D01*
X384275Y-9500D02*X385775D01*
X383525Y-8750D02*X384275Y-9500D01*
X393275Y-3500D02*X394025Y-4250D01*
X391775Y-3500D02*X393275D01*
X391025Y-4250D02*X391775Y-3500D01*
X391025Y-4250D02*Y-8750D01*
X391775Y-9500D01*
X393275Y-6200D02*X394025Y-6950D01*
X391025Y-6200D02*X393275D01*
X391775Y-9500D02*X393275D01*
X394025Y-8750D01*
Y-6950D02*Y-8750D01*
X395825Y-4250D02*X396575Y-3500D01*
X398825D01*
X399575Y-4250D01*
Y-5750D01*
X395825Y-9500D02*X399575Y-5750D01*
X395825Y-9500D02*X399575D01*
X401375Y-3500D02*X404375D01*
X401375D02*Y-6500D01*
X402125Y-5750D01*
X403625D01*
X404375Y-6500D01*
Y-8750D01*
X403625Y-9500D02*X404375Y-8750D01*
X402125Y-9500D02*X403625D01*
X401375Y-8750D02*X402125Y-9500D01*
X406175Y-8750D02*X406925Y-9500D01*
X406175Y-4250D02*Y-8750D01*
Y-4250D02*X406925Y-3500D01*
X408425D01*
X409175Y-4250D01*
Y-8750D01*
X408425Y-9500D02*X409175Y-8750D01*
X406925Y-9500D02*X408425D01*
X406175Y-8000D02*X409175Y-5000D01*
X410975Y-9500D02*X411725D01*
X413525Y-8750D02*X414275Y-9500D01*
X413525Y-4250D02*Y-8750D01*
Y-4250D02*X414275Y-3500D01*
X415775D01*
X416525Y-4250D01*
Y-8750D01*
X415775Y-9500D02*X416525Y-8750D01*
X414275Y-9500D02*X415775D01*
X413525Y-8000D02*X416525Y-5000D01*
X418325Y-8750D02*X419075Y-9500D01*
X418325Y-4250D02*Y-8750D01*
Y-4250D02*X419075Y-3500D01*
X420575D01*
X421325Y-4250D01*
Y-8750D01*
X420575Y-9500D02*X421325Y-8750D01*
X419075Y-9500D02*X420575D01*
X418325Y-8000D02*X421325Y-5000D01*
X423125Y-8750D02*X423875Y-9500D01*
X423125Y-4250D02*Y-8750D01*
Y-4250D02*X423875Y-3500D01*
X425375D01*
X426125Y-4250D01*
Y-8750D01*
X425375Y-9500D02*X426125Y-8750D01*
X423875Y-9500D02*X425375D01*
X423125Y-8000D02*X426125Y-5000D01*
X427925Y-8750D02*X428675Y-9500D01*
X427925Y-4250D02*Y-8750D01*
Y-4250D02*X428675Y-3500D01*
X430175D01*
X430925Y-4250D01*
Y-8750D01*
X430175Y-9500D02*X430925Y-8750D01*
X428675Y-9500D02*X430175D01*
X427925Y-8000D02*X430925Y-5000D01*
X432725Y-8750D02*X433475Y-9500D01*
X432725Y-4250D02*Y-8750D01*
Y-4250D02*X433475Y-3500D01*
X434975D01*
X435725Y-4250D01*
Y-8750D01*
X434975Y-9500D02*X435725Y-8750D01*
X433475Y-9500D02*X434975D01*
X432725Y-8000D02*X435725Y-5000D01*
X437525Y-8750D02*X438275Y-9500D01*
X437525Y-4250D02*Y-8750D01*
Y-4250D02*X438275Y-3500D01*
X439775D01*
X440525Y-4250D01*
Y-8750D01*
X439775Y-9500D02*X440525Y-8750D01*
X438275Y-9500D02*X439775D01*
X437525Y-8000D02*X440525Y-5000D01*
X442325Y-11000D02*X443825Y-9500D01*
X445625Y-4250D02*X446375Y-3500D01*
X448625D01*
X449375Y-4250D01*
Y-5750D01*
X445625Y-9500D02*X449375Y-5750D01*
X445625Y-9500D02*X449375D01*
X451175Y-8750D02*X451925Y-9500D01*
X451175Y-4250D02*Y-8750D01*
Y-4250D02*X451925Y-3500D01*
X453425D01*
X454175Y-4250D01*
Y-8750D01*
X453425Y-9500D02*X454175Y-8750D01*
X451925Y-9500D02*X453425D01*
X451175Y-8000D02*X454175Y-5000D01*
X455975Y-8750D02*X456725Y-9500D01*
X455975Y-4250D02*Y-8750D01*
Y-4250D02*X456725Y-3500D01*
X458225D01*
X458975Y-4250D01*
Y-8750D01*
X458225Y-9500D02*X458975Y-8750D01*
X456725Y-9500D02*X458225D01*
X455975Y-8000D02*X458975Y-5000D01*
X460775Y-8750D02*X461525Y-9500D01*
X460775Y-4250D02*Y-8750D01*
Y-4250D02*X461525Y-3500D01*
X463025D01*
X463775Y-4250D01*
Y-8750D01*
X463025Y-9500D02*X463775Y-8750D01*
X461525Y-9500D02*X463025D01*
X460775Y-8000D02*X463775Y-5000D01*
X465575Y-9500D02*X466325D01*
X468125Y-8750D02*X468875Y-9500D01*
X468125Y-4250D02*Y-8750D01*
Y-4250D02*X468875Y-3500D01*
X470375D01*
X471125Y-4250D01*
Y-8750D01*
X470375Y-9500D02*X471125Y-8750D01*
X468875Y-9500D02*X470375D01*
X468125Y-8000D02*X471125Y-5000D01*
X472925Y-8750D02*X473675Y-9500D01*
X472925Y-4250D02*Y-8750D01*
Y-4250D02*X473675Y-3500D01*
X475175D01*
X475925Y-4250D01*
Y-8750D01*
X475175Y-9500D02*X475925Y-8750D01*
X473675Y-9500D02*X475175D01*
X472925Y-8000D02*X475925Y-5000D01*
X477725Y-8750D02*X478475Y-9500D01*
X477725Y-4250D02*Y-8750D01*
Y-4250D02*X478475Y-3500D01*
X479975D01*
X480725Y-4250D01*
Y-8750D01*
X479975Y-9500D02*X480725Y-8750D01*
X478475Y-9500D02*X479975D01*
X477725Y-8000D02*X480725Y-5000D01*
X482525Y-8750D02*X483275Y-9500D01*
X482525Y-4250D02*Y-8750D01*
Y-4250D02*X483275Y-3500D01*
X484775D01*
X485525Y-4250D01*
Y-8750D01*
X484775Y-9500D02*X485525Y-8750D01*
X483275Y-9500D02*X484775D01*
X482525Y-8000D02*X485525Y-5000D01*
X487325Y-8750D02*X488075Y-9500D01*
X487325Y-4250D02*Y-8750D01*
Y-4250D02*X488075Y-3500D01*
X489575D01*
X490325Y-4250D01*
Y-8750D01*
X489575Y-9500D02*X490325Y-8750D01*
X488075Y-9500D02*X489575D01*
X487325Y-8000D02*X490325Y-5000D01*
X492125Y-8750D02*X492875Y-9500D01*
X492125Y-4250D02*Y-8750D01*
Y-4250D02*X492875Y-3500D01*
X494375D01*
X495125Y-4250D01*
Y-8750D01*
X494375Y-9500D02*X495125Y-8750D01*
X492875Y-9500D02*X494375D01*
X492125Y-8000D02*X495125Y-5000D01*
X500375Y-7250D02*Y-9500D01*
Y-7250D02*X501125Y-6500D01*
X501875D01*
X502625Y-7250D01*
Y-9500D01*
Y-7250D02*X503375Y-6500D01*
X504125D01*
X504875Y-7250D01*
Y-9500D01*
X499625Y-6500D02*X500375Y-7250D01*
G54D239*X506675Y-5000D02*Y-5150D01*
G54D238*Y-7250D02*Y-9500D01*
X508175Y-3500D02*Y-8750D01*
X508925Y-9500D01*
X511175D02*X513425D01*
X514175Y-8750D01*
X513425Y-8000D02*X514175Y-8750D01*
X511175Y-8000D02*X513425D01*
X510425Y-7250D02*X511175Y-8000D01*
X510425Y-7250D02*X511175Y-6500D01*
X513425D01*
X514175Y-7250D01*
X510425Y-8750D02*X511175Y-9500D01*
X200750Y228500D02*Y222500D01*
X202700Y228500D02*X203750Y227450D01*
Y223550D01*
X202700Y222500D02*X203750Y223550D01*
X200000Y222500D02*X202700D01*
X200000Y228500D02*X202700D01*
X207800Y225500D02*X208550Y224750D01*
X206300Y225500D02*X207800D01*
X205550Y224750D02*X206300Y225500D01*
X205550Y224750D02*Y223250D01*
X206300Y222500D01*
X208550Y225500D02*Y223250D01*
X209300Y222500D01*
X206300D02*X207800D01*
X208550Y223250D01*
X211850Y228500D02*Y223250D01*
X212600Y222500D01*
X211100Y226250D02*X212600D01*
X214850Y222500D02*X217100D01*
X214100Y223250D02*X214850Y222500D01*
X214100Y224750D02*Y223250D01*
Y224750D02*X214850Y225500D01*
X216350D01*
X217100Y224750D01*
X214100Y224000D02*X217100D01*
Y224750D02*Y224000D01*
X218900Y226250D02*X219650D01*
X218900Y224750D02*X219650D01*
X224150Y227750D02*X224900Y228500D01*
X227150D01*
X227900Y227750D01*
Y226250D01*
X224150Y222500D02*X227900Y226250D01*
X224150Y222500D02*X227900D01*
X229700Y223250D02*X230450Y222500D01*
X229700Y227750D02*Y223250D01*
Y227750D02*X230450Y228500D01*
X231950D01*
X232700Y227750D01*
Y223250D01*
X231950Y222500D02*X232700Y223250D01*
X230450Y222500D02*X231950D01*
X229700Y224000D02*X232700Y227000D01*
X234500Y227300D02*X235700Y228500D01*
Y222500D01*
X234500D02*X236750D01*
X238550Y223250D02*X239300Y222500D01*
X238550Y224450D02*Y223250D01*
Y224450D02*X239600Y225500D01*
X240500D01*
X241550Y224450D01*
Y223250D01*
X240800Y222500D02*X241550Y223250D01*
X239300Y222500D02*X240800D01*
X238550Y226550D02*X239600Y225500D01*
X238550Y227750D02*Y226550D01*
Y227750D02*X239300Y228500D01*
X240800D01*
X241550Y227750D01*
Y226550D01*
X240500Y225500D02*X241550Y226550D01*
X243350Y225500D02*X246350D01*
X248150Y223250D02*X248900Y222500D01*
X248150Y227750D02*Y223250D01*
Y227750D02*X248900Y228500D01*
X250400D01*
X251150Y227750D01*
Y223250D01*
X250400Y222500D02*X251150Y223250D01*
X248900Y222500D02*X250400D01*
X248150Y224000D02*X251150Y227000D01*
X252950Y227300D02*X254150Y228500D01*
Y222500D01*
X252950D02*X255200D01*
X257000Y225500D02*X260000D01*
X261800Y227300D02*X263000Y228500D01*
Y222500D01*
X261800D02*X264050D01*
X265850Y228500D02*X268850D01*
X265850D02*Y225500D01*
X266600Y226250D01*
X268100D01*
X268850Y225500D01*
Y223250D01*
X268100Y222500D02*X268850Y223250D01*
X266600Y222500D02*X268100D01*
X265850Y223250D02*X266600Y222500D01*
X273350Y223250D02*X274100Y222500D01*
X273350Y227750D02*Y223250D01*
Y227750D02*X274100Y228500D01*
X275600D01*
X276350Y227750D01*
Y223250D01*
X275600Y222500D02*X276350Y223250D01*
X274100Y222500D02*X275600D01*
X273350Y224000D02*X276350Y227000D01*
X278150Y223250D02*X278900Y222500D01*
X278150Y227750D02*Y223250D01*
Y227750D02*X278900Y228500D01*
X280400D01*
X281150Y227750D01*
Y223250D01*
X280400Y222500D02*X281150Y223250D01*
X278900Y222500D02*X280400D01*
X278150Y224000D02*X281150Y227000D01*
X282950Y226250D02*X283700D01*
X282950Y224750D02*X283700D01*
X285500Y227750D02*X286250Y228500D01*
X287750D01*
X288500Y227750D01*
X287750Y222500D02*X288500Y223250D01*
X286250Y222500D02*X287750D01*
X285500Y223250D02*X286250Y222500D01*
Y225800D02*X287750D01*
X288500Y227750D02*Y226550D01*
Y225050D02*Y223250D01*
Y225050D02*X287750Y225800D01*
X288500Y226550D02*X287750Y225800D01*
X290300Y227750D02*X291050Y228500D01*
X293300D01*
X294050Y227750D01*
Y226250D01*
X290300Y222500D02*X294050Y226250D01*
X290300Y222500D02*X294050D01*
X295850Y226250D02*X296600D01*
X295850Y224750D02*X296600D01*
X298400Y227750D02*X299150Y228500D01*
X301400D01*
X302150Y227750D01*
Y226250D01*
X298400Y222500D02*X302150Y226250D01*
X298400Y222500D02*X302150D01*
X303950Y224750D02*X306950Y228500D01*
X303950Y224750D02*X307700D01*
X306950Y228500D02*Y222500D01*
X312200Y228500D02*Y223250D01*
X312950Y222500D01*
X314450D01*
X315200Y223250D01*
Y228500D02*Y223250D01*
X317000Y228500D02*X320000D01*
X318500D02*Y222500D01*
X322850D02*X324800D01*
X321800Y223550D02*X322850Y222500D01*
X321800Y227450D02*Y223550D01*
Y227450D02*X322850Y228500D01*
X324800D01*
X200000Y242000D02*Y237500D01*
Y242000D02*X201050Y243500D01*
X202700D01*
X203750Y242000D01*
Y237500D01*
X200000Y240500D02*X203750D01*
X205550D02*Y238250D01*
X206300Y237500D01*
X207800D01*
X208550Y238250D01*
Y240500D02*Y238250D01*
X211100Y243500D02*Y238250D01*
X211850Y237500D01*
X210350Y241250D02*X211850D01*
X213350Y243500D02*Y237500D01*
Y239750D02*X214100Y240500D01*
X215600D01*
X216350Y239750D01*
Y237500D01*
X218150Y239750D02*Y238250D01*
Y239750D02*X218900Y240500D01*
X220400D01*
X221150Y239750D01*
Y238250D01*
X220400Y237500D02*X221150Y238250D01*
X218900Y237500D02*X220400D01*
X218150Y238250D02*X218900Y237500D01*
X223700Y239750D02*Y237500D01*
Y239750D02*X224450Y240500D01*
X225950D01*
X222950D02*X223700Y239750D01*
X227750Y241250D02*X228500D01*
X227750Y239750D02*X228500D01*
X233750D02*Y237500D01*
Y239750D02*X234500Y240500D01*
X235250D01*
X236000Y239750D01*
Y237500D01*
X233000Y240500D02*X233750Y239750D01*
X238550Y237500D02*X240800D01*
X237800Y238250D02*X238550Y237500D01*
X237800Y239750D02*Y238250D01*
Y239750D02*X238550Y240500D01*
X240050D01*
X240800Y239750D01*
X237800Y239000D02*X240800D01*
Y239750D02*Y239000D01*
X242600Y240500D02*Y238250D01*
X243350Y237500D01*
X244100D01*
X244850Y238250D01*
Y240500D02*Y238250D01*
X245600Y237500D01*
X246350D01*
X247100Y238250D01*
Y240500D02*Y238250D01*
X249650Y237500D02*X251900D01*
X248900Y238250D02*X249650Y237500D01*
X248900Y239750D02*Y238250D01*
Y239750D02*X249650Y240500D01*
X251150D01*
X251900Y239750D01*
X248900Y239000D02*X251900D01*
Y239750D02*Y239000D01*
X253700Y243500D02*Y238250D01*
X254450Y237500D01*
X255950Y243500D02*Y238250D01*
X256700Y237500D01*
X200000Y258500D02*X203000D01*
X201500D02*Y252500D01*
G54D239*X204800Y257000D02*Y256850D01*
G54D238*Y254750D02*Y252500D01*
X207050Y258500D02*Y253250D01*
X207800Y252500D01*
X206300Y256250D02*X207800D01*
X209300Y258500D02*Y253250D01*
X210050Y252500D01*
X212300D02*X214550D01*
X211550Y253250D02*X212300Y252500D01*
X211550Y254750D02*Y253250D01*
Y254750D02*X212300Y255500D01*
X213800D01*
X214550Y254750D01*
X211550Y254000D02*X214550D01*
Y254750D02*Y254000D01*
X216350Y256250D02*X217100D01*
X216350Y254750D02*X217100D01*
X221600Y253250D02*X222350Y252500D01*
X221600Y257750D02*X222350Y258500D01*
X221600Y257750D02*Y253250D01*
X224150Y255500D02*Y253250D01*
X224900Y252500D01*
X226400D01*
X227150Y253250D01*
Y255500D02*Y253250D01*
X229700Y254750D02*Y252500D01*
Y254750D02*X230450Y255500D01*
X231200D01*
X231950Y254750D01*
Y252500D01*
X228950Y255500D02*X229700Y254750D01*
X233750Y258500D02*Y252500D01*
Y254750D02*X236000Y252500D01*
X233750Y254750D02*X235250Y256250D01*
X238550Y254750D02*Y252500D01*
Y254750D02*X239300Y255500D01*
X240050D01*
X240800Y254750D01*
Y252500D01*
X237800Y255500D02*X238550Y254750D01*
X242600D02*Y253250D01*
Y254750D02*X243350Y255500D01*
X244850D01*
X245600Y254750D01*
Y253250D01*
X244850Y252500D02*X245600Y253250D01*
X243350Y252500D02*X244850D01*
X242600Y253250D02*X243350Y252500D01*
X247400Y255500D02*Y253250D01*
X248150Y252500D01*
X248900D01*
X249650Y253250D01*
Y255500D02*Y253250D01*
X250400Y252500D01*
X251150D01*
X251900Y253250D01*
Y255500D02*Y253250D01*
X254450Y254750D02*Y252500D01*
Y254750D02*X255200Y255500D01*
X255950D01*
X256700Y254750D01*
Y252500D01*
X253700Y255500D02*X254450Y254750D01*
X258500Y258500D02*X259250Y257750D01*
Y253250D01*
X258500Y252500D02*X259250Y253250D01*
X263750Y255500D02*X266750D01*
X271250Y258500D02*Y252500D01*
Y258500D02*X274250D01*
X271250Y255800D02*X273500D01*
X278300Y255500D02*X279050Y254750D01*
X276800Y255500D02*X278300D01*
X276050Y254750D02*X276800Y255500D01*
X276050Y254750D02*Y253250D01*
X276800Y252500D01*
X279050Y255500D02*Y253250D01*
X279800Y252500D01*
X276800D02*X278300D01*
X279050Y253250D01*
X281600Y258500D02*Y252500D01*
Y253250D02*X282350Y252500D01*
X283850D01*
X284600Y253250D01*
Y254750D02*Y253250D01*
X283850Y255500D02*X284600Y254750D01*
X282350Y255500D02*X283850D01*
X281600Y254750D02*X282350Y255500D01*
X287150Y254750D02*Y252500D01*
Y254750D02*X287900Y255500D01*
X289400D01*
X286400D02*X287150Y254750D01*
G54D239*X291200Y257000D02*Y256850D01*
G54D238*Y254750D02*Y252500D01*
X293450Y255500D02*X295700D01*
X292700Y254750D02*X293450Y255500D01*
X292700Y254750D02*Y253250D01*
X293450Y252500D01*
X295700D01*
X299750Y255500D02*X300500Y254750D01*
X298250Y255500D02*X299750D01*
X297500Y254750D02*X298250Y255500D01*
X297500Y254750D02*Y253250D01*
X298250Y252500D01*
X300500Y255500D02*Y253250D01*
X301250Y252500D01*
X298250D02*X299750D01*
X300500Y253250D01*
X303800Y258500D02*Y253250D01*
X304550Y252500D01*
X303050Y256250D02*X304550D01*
G54D239*X306050Y257000D02*Y256850D01*
G54D238*Y254750D02*Y252500D01*
X307550Y254750D02*Y253250D01*
Y254750D02*X308300Y255500D01*
X309800D01*
X310550Y254750D01*
Y253250D01*
X309800Y252500D02*X310550Y253250D01*
X308300Y252500D02*X309800D01*
X307550Y253250D02*X308300Y252500D01*
X313100Y254750D02*Y252500D01*
Y254750D02*X313850Y255500D01*
X314600D01*
X315350Y254750D01*
Y252500D01*
X312350Y255500D02*X313100Y254750D01*
X320600Y258500D02*Y252500D01*
X322550Y258500D02*X323600Y257450D01*
Y253550D01*
X322550Y252500D02*X323600Y253550D01*
X319850Y252500D02*X322550D01*
X319850Y258500D02*X322550D01*
X326150Y254750D02*Y252500D01*
Y254750D02*X326900Y255500D01*
X328400D01*
X325400D02*X326150Y254750D01*
X332450Y255500D02*X333200Y254750D01*
X330950Y255500D02*X332450D01*
X330200Y254750D02*X330950Y255500D01*
X330200Y254750D02*Y253250D01*
X330950Y252500D01*
X333200Y255500D02*Y253250D01*
X333950Y252500D01*
X330950D02*X332450D01*
X333200Y253250D01*
X335750Y255500D02*Y253250D01*
X336500Y252500D01*
X337250D01*
X338000Y253250D01*
Y255500D02*Y253250D01*
X338750Y252500D01*
X339500D01*
X340250Y253250D01*
Y255500D02*Y253250D01*
G54D239*X342050Y257000D02*Y256850D01*
G54D238*Y254750D02*Y252500D01*
X344300Y254750D02*Y252500D01*
Y254750D02*X345050Y255500D01*
X345800D01*
X346550Y254750D01*
Y252500D01*
X343550Y255500D02*X344300Y254750D01*
X350600Y255500D02*X351350Y254750D01*
X349100Y255500D02*X350600D01*
X348350Y254750D02*X349100Y255500D01*
X348350Y254750D02*Y253250D01*
X349100Y252500D01*
X350600D01*
X351350Y253250D01*
X348350Y251000D02*X349100Y250250D01*
X350600D01*
X351350Y251000D01*
Y255500D02*Y251000D01*
M02*
