G04 start of page 13 for group 17 layer_idx 0 *
G04 Title: (unknown), bottom_mask *
G04 Creator: pcb-rnd 1.2.7 *
G04 CreationDate: 2018-01-15 01:01:03 UTC *
G04 For: newell *
G04 Format: Gerber/RS-274X *
G04 PCB-Dimensions: 625000 200000 *
G04 PCB-Coordinate-Origin: lower left *
%MOIN*%
%FSLAX25Y25*%
%LNBOTTOMMASK*%
%ADD219C,0.0780*%
%ADD218C,0.0860*%
%ADD217C,0.0817*%
%ADD216C,0.1281*%
%ADD215C,0.1260*%
%ADD214C,0.1457*%
%ADD213C,0.1654*%
%ADD212C,0.0660*%
%ADD211C,0.0960*%
%ADD210C,0.0001*%
G54D210*G36*
X285200Y86800D02*Y77200D01*
X294800D01*
Y86800D01*
X285200D01*
G37*
G54D211*X300000Y82000D03*
X310000D03*
X164000Y114000D03*
G54D210*G36*
X239700Y85300D02*Y78700D01*
X246300D01*
Y85300D01*
X239700D01*
G37*
G54D212*X243000Y92000D03*
G54D213*Y38567D03*
G54D214*Y14157D03*
G54D215*X256780Y18094D03*
G54D210*G36*
X575700Y189300D02*Y182700D01*
X582300D01*
Y189300D01*
X575700D01*
G37*
G54D212*X569000Y186000D03*
X559000D03*
X549000D03*
G54D216*X612000D03*
G54D212*X539000D03*
X547200Y148500D03*
G54D216*X612000Y14000D03*
G54D210*G36*
X608700Y115300D02*Y108700D01*
X615300D01*
Y115300D01*
X608700D01*
G37*
G54D212*X612000Y122000D03*
Y132000D03*
Y142000D03*
X529000Y186000D03*
G54D217*X461205Y185858D03*
X486795D03*
G54D210*G36*
X404700Y191300D02*Y182700D01*
X413300D01*
Y191300D01*
X404700D01*
G37*
G54D218*X409000Y177000D03*
Y167000D03*
X419000Y187000D03*
Y177000D03*
Y167000D03*
G54D210*G36*
X433200Y119100D02*Y109500D01*
X442800D01*
Y119100D01*
X433200D01*
G37*
G54D211*X438000Y124300D03*
Y134300D03*
G54D217*X461205Y168142D03*
X486795D03*
G54D210*G36*
X323700Y189300D02*Y182700D01*
X330300D01*
Y189300D01*
X323700D01*
G37*
G54D212*X337000Y186000D03*
G54D210*G36*
X234700Y189300D02*Y182700D01*
X241300D01*
Y189300D01*
X234700D01*
G37*
G54D212*X248000Y186000D03*
G54D210*G36*
X524700Y151800D02*Y145200D01*
X531300D01*
Y151800D01*
X524700D01*
G37*
G36*
X106100Y53900D02*Y46100D01*
X113900D01*
Y53900D01*
X106100D01*
G37*
G54D219*X110000Y60000D03*
Y70000D03*
G54D216*X14000Y14000D03*
Y186000D03*
G54D210*G36*
X139200Y118800D02*Y109200D01*
X148800D01*
Y118800D01*
X139200D01*
G37*
G54D211*X154000Y114000D03*
G54D217*X154138Y53000D03*
Y33000D03*
X144138Y43000D03*
M02*
