G04 start of page 2 for group 3 layer_idx 0 *
G04 Title: (unknown), top_copper *
G04 Creator: pcb-rnd 1.2.7 *
G04 CreationDate: 2018-01-15 01:01:03 UTC *
G04 For: newell *
G04 Format: Gerber/RS-274X *
G04 PCB-Dimensions: 625000 200000 *
G04 PCB-Coordinate-Origin: lower left *
%MOIN*%
%FSLAX25Y25*%
%LNTOP*%
%ADD45C,0.0420*%
%ADD44C,0.0460*%
%ADD43C,0.0394*%
%ADD42C,0.0320*%
%ADD41C,0.0280*%
%ADD40C,0.0984*%
%ADD39C,0.1181*%
%ADD38C,0.1378*%
%ADD37C,0.0300*%
%ADD36C,0.0350*%
%ADD35C,0.0360*%
%ADD34R,0.0157X0.0157*%
%ADD33R,0.0295X0.0295*%
%ADD32R,0.0130X0.0130*%
%ADD31R,0.0315X0.0315*%
%ADD30R,0.0240X0.0240*%
%ADD29R,0.1230X0.1230*%
%ADD28R,0.0512X0.0512*%
%ADD27R,0.0633X0.0633*%
%ADD26R,0.0709X0.0709*%
%ADD25R,0.1400X0.1400*%
%ADD24R,0.1098X0.1098*%
%ADD23C,0.0720*%
%ADD22C,0.0660*%
%ADD21C,0.0787*%
%ADD20C,0.1230*%
%ADD19C,0.1427*%
%ADD18C,0.1624*%
%ADD17C,0.0600*%
%ADD16C,0.0900*%
%ADD15C,0.0200*%
%ADD14C,0.0250*%
%ADD13C,0.0100*%
%ADD12C,0.0400*%
%ADD11C,0.0001*%
G54D11*G36*
X163602Y27952D02*X158484D01*
X158327Y27943D01*
X158174Y27906D01*
X158029Y27846D01*
X157894Y27764D01*
X157775Y27661D01*
X157672Y27542D01*
X157590Y27407D01*
X157530Y27262D01*
X157500Y27137D01*
X157470Y27262D01*
X157410Y27407D01*
X157328Y27542D01*
X157225Y27661D01*
X157138Y27736D01*
Y29349D01*
X157489Y29649D01*
X157972Y30214D01*
X158360Y30849D01*
X158645Y31536D01*
X158818Y32259D01*
X158862Y33000D01*
X158818Y33741D01*
X158645Y34464D01*
X158360Y35151D01*
X157972Y35786D01*
X157489Y36351D01*
X156923Y36834D01*
X156289Y37222D01*
X155602Y37507D01*
X154879Y37681D01*
X154138Y37739D01*
X153678Y37703D01*
X148835Y42545D01*
X148862Y43000D01*
X228000D01*
Y0D01*
X13980D01*
Y900D01*
X14000Y899D01*
X16049Y1060D01*
X18049Y1540D01*
X19948Y2327D01*
X21701Y3401D01*
X23264Y4736D01*
X24599Y6299D01*
X25673Y8052D01*
X26460Y9951D01*
X26940Y11951D01*
X27061Y14000D01*
X26940Y16049D01*
X26460Y18049D01*
X25673Y19948D01*
X24599Y21701D01*
X23264Y23264D01*
X21701Y24599D01*
X19948Y25673D01*
X18049Y26460D01*
X16049Y26940D01*
X14000Y27101D01*
X13980Y27100D01*
Y43000D01*
X139399D01*
X139457Y42259D01*
X139631Y41536D01*
X139915Y40849D01*
X140304Y40214D01*
X140787Y39649D01*
X141352Y39166D01*
X141986Y38778D01*
X142673Y38493D01*
X143396Y38319D01*
X144138Y38261D01*
X144598Y38297D01*
X149435Y33460D01*
X149399Y33000D01*
X149457Y32259D01*
X149631Y31536D01*
X149915Y30849D01*
X150304Y30214D01*
X150787Y29649D01*
X151138Y29349D01*
Y27918D01*
X151088Y27906D01*
X150943Y27846D01*
X150808Y27764D01*
X150689Y27661D01*
X150586Y27542D01*
X150504Y27407D01*
X150444Y27262D01*
X150407Y27109D01*
X150398Y26952D01*
Y21048D01*
X150407Y20891D01*
X150444Y20738D01*
X150504Y20593D01*
X150586Y20458D01*
X150689Y20339D01*
X150808Y20236D01*
X150943Y20154D01*
X151088Y20094D01*
X151241Y20057D01*
X151398Y20048D01*
X156516D01*
X156673Y20057D01*
X156826Y20094D01*
X156971Y20154D01*
X157106Y20236D01*
X157225Y20339D01*
X157328Y20458D01*
X157410Y20593D01*
X157470Y20738D01*
X157500Y20863D01*
X157530Y20738D01*
X157590Y20593D01*
X157672Y20458D01*
X157775Y20339D01*
X157894Y20236D01*
X158029Y20154D01*
X158174Y20094D01*
X158327Y20057D01*
X158484Y20048D01*
X163602D01*
X163759Y20057D01*
X163912Y20094D01*
X164057Y20154D01*
X164192Y20236D01*
X164311Y20339D01*
X164414Y20458D01*
X164496Y20593D01*
X164556Y20738D01*
X164593Y20891D01*
X164599Y21000D01*
X166354D01*
X166642Y20754D01*
X167178Y20425D01*
X167760Y20184D01*
X168372Y20037D01*
X169000Y19988D01*
X169628Y20037D01*
X170240Y20184D01*
X170822Y20425D01*
X171358Y20754D01*
X171837Y21163D01*
X172246Y21642D01*
X172575Y22178D01*
X172816Y22760D01*
X172963Y23372D01*
X173000Y24000D01*
X172963Y24628D01*
X172816Y25240D01*
X172575Y25822D01*
X172246Y26358D01*
X171837Y26837D01*
X171358Y27246D01*
X170822Y27575D01*
X170240Y27816D01*
X169628Y27963D01*
X169000Y28012D01*
X168372Y27963D01*
X167760Y27816D01*
X167178Y27575D01*
X166642Y27246D01*
X166354Y27000D01*
X164599D01*
X164593Y27109D01*
X164556Y27262D01*
X164496Y27407D01*
X164414Y27542D01*
X164311Y27661D01*
X164192Y27764D01*
X164057Y27846D01*
X163912Y27906D01*
X163759Y27943D01*
X163602Y27952D01*
G37*
G36*
X13980Y0D02*X0D01*
Y43000D01*
X13980D01*
Y27100D01*
X11951Y26940D01*
X9951Y26460D01*
X8052Y25673D01*
X6299Y24599D01*
X4736Y23264D01*
X3401Y21701D01*
X2327Y19948D01*
X1540Y18049D01*
X1060Y16049D01*
X899Y14000D01*
X1060Y11951D01*
X1540Y9951D01*
X2327Y8052D01*
X3401Y6299D01*
X4736Y4736D01*
X6299Y3401D01*
X8052Y2327D01*
X9951Y1540D01*
X11951Y1060D01*
X13980Y900D01*
Y0D01*
G37*
G36*
X0Y106000D02*X92000D01*
Y75000D01*
X0D01*
Y106000D01*
G37*
G36*
X13980Y200000D02*X38000D01*
Y102000D01*
X13980D01*
Y172900D01*
X14000Y172899D01*
X16049Y173060D01*
X18049Y173540D01*
X19948Y174327D01*
X21701Y175401D01*
X23264Y176736D01*
X24599Y178299D01*
X25673Y180052D01*
X26460Y181951D01*
X26940Y183951D01*
X27061Y186000D01*
X26940Y188049D01*
X26460Y190049D01*
X25673Y191948D01*
X24599Y193701D01*
X23264Y195264D01*
X21701Y196599D01*
X19948Y197673D01*
X18049Y198460D01*
X16049Y198940D01*
X14000Y199101D01*
X13980Y199100D01*
Y200000D01*
G37*
G36*
X0D02*X13980D01*
Y199100D01*
X11951Y198940D01*
X9951Y198460D01*
X8052Y197673D01*
X6299Y196599D01*
X4736Y195264D01*
X3401Y193701D01*
X2327Y191948D01*
X1540Y190049D01*
X1060Y188049D01*
X899Y186000D01*
X1060Y183951D01*
X1540Y181951D01*
X2327Y180052D01*
X3401Y178299D01*
X4736Y176736D01*
X6299Y175401D01*
X8052Y174327D01*
X9951Y173540D01*
X11951Y173060D01*
X13980Y172900D01*
Y102000D01*
X0D01*
Y200000D01*
G37*
G36*
Y115000D02*X92000D01*
Y102000D01*
X0D01*
Y115000D01*
G37*
G36*
Y78000D02*X19000D01*
Y31000D01*
X0D01*
Y78000D01*
G37*
G36*
X33000Y160000D02*X53000D01*
Y144000D01*
X33000D01*
Y160000D01*
G37*
G36*
X143000Y200000D02*X186000D01*
Y139000D01*
X143000D01*
Y200000D01*
G37*
G36*
X251547D02*X262000D01*
Y174000D01*
X251547D01*
Y183850D01*
X251552Y183850D01*
X251657Y183883D01*
X251756Y183931D01*
X251846Y183995D01*
X251925Y184072D01*
X251991Y184160D01*
X252041Y184258D01*
X252186Y184629D01*
X252292Y185013D01*
X252364Y185404D01*
X252400Y185801D01*
Y186199D01*
X252364Y186596D01*
X252292Y186987D01*
X252186Y187371D01*
X252045Y187744D01*
X251994Y187842D01*
X251927Y187930D01*
X251848Y188008D01*
X251758Y188071D01*
X251658Y188120D01*
X251553Y188153D01*
X251547Y188154D01*
Y200000D01*
G37*
G36*
X248002D02*X251547D01*
Y188154D01*
X251443Y188169D01*
X251332Y188167D01*
X251223Y188148D01*
X251119Y188112D01*
X251021Y188061D01*
X250932Y187994D01*
X250855Y187915D01*
X250791Y187825D01*
X250742Y187725D01*
X250710Y187620D01*
X250694Y187510D01*
X250696Y187399D01*
X250714Y187290D01*
X250752Y187186D01*
X250851Y186934D01*
X250924Y186673D01*
X250972Y186406D01*
X250997Y186136D01*
Y185864D01*
X250972Y185594D01*
X250924Y185327D01*
X250851Y185066D01*
X250755Y184812D01*
X250717Y184709D01*
X250699Y184600D01*
X250697Y184490D01*
X250713Y184381D01*
X250745Y184276D01*
X250794Y184177D01*
X250857Y184087D01*
X250934Y184008D01*
X251022Y183942D01*
X251120Y183890D01*
X251224Y183855D01*
X251333Y183836D01*
X251443Y183835D01*
X251547Y183850D01*
Y174000D01*
X248002D01*
Y181600D01*
X248199D01*
X248596Y181636D01*
X248987Y181708D01*
X249371Y181814D01*
X249744Y181955D01*
X249842Y182006D01*
X249930Y182073D01*
X250008Y182152D01*
X250071Y182242D01*
X250120Y182342D01*
X250153Y182447D01*
X250169Y182557D01*
X250167Y182668D01*
X250148Y182777D01*
X250112Y182881D01*
X250061Y182979D01*
X249994Y183068D01*
X249915Y183145D01*
X249825Y183209D01*
X249725Y183258D01*
X249620Y183290D01*
X249510Y183306D01*
X249399Y183304D01*
X249290Y183286D01*
X249186Y183248D01*
X248934Y183149D01*
X248673Y183076D01*
X248406Y183028D01*
X248136Y183003D01*
X248002D01*
Y188997D01*
X248136D01*
X248406Y188972D01*
X248673Y188924D01*
X248934Y188851D01*
X249188Y188755D01*
X249291Y188717D01*
X249400Y188699D01*
X249510Y188697D01*
X249619Y188713D01*
X249724Y188745D01*
X249823Y188794D01*
X249913Y188857D01*
X249992Y188934D01*
X250058Y189022D01*
X250110Y189120D01*
X250145Y189224D01*
X250164Y189333D01*
X250165Y189443D01*
X250150Y189552D01*
X250117Y189657D01*
X250069Y189756D01*
X250005Y189846D01*
X249928Y189925D01*
X249840Y189991D01*
X249742Y190041D01*
X249371Y190186D01*
X248987Y190292D01*
X248596Y190364D01*
X248199Y190400D01*
X248002D01*
Y200000D01*
G37*
G36*
X244453D02*X248002D01*
Y190400D01*
X247801D01*
X247404Y190364D01*
X247013Y190292D01*
X246629Y190186D01*
X246256Y190045D01*
X246158Y189994D01*
X246070Y189927D01*
X245992Y189848D01*
X245929Y189758D01*
X245880Y189658D01*
X245847Y189553D01*
X245831Y189443D01*
X245833Y189332D01*
X245852Y189223D01*
X245888Y189119D01*
X245939Y189021D01*
X246006Y188932D01*
X246085Y188855D01*
X246175Y188791D01*
X246275Y188742D01*
X246380Y188710D01*
X246490Y188694D01*
X246601Y188696D01*
X246710Y188714D01*
X246814Y188752D01*
X247066Y188851D01*
X247327Y188924D01*
X247594Y188972D01*
X247864Y188997D01*
X248002D01*
Y183003D01*
X247864D01*
X247594Y183028D01*
X247327Y183076D01*
X247066Y183149D01*
X246812Y183245D01*
X246709Y183283D01*
X246600Y183301D01*
X246490Y183303D01*
X246381Y183287D01*
X246276Y183255D01*
X246177Y183206D01*
X246087Y183143D01*
X246008Y183066D01*
X245942Y182978D01*
X245890Y182880D01*
X245855Y182776D01*
X245836Y182667D01*
X245835Y182557D01*
X245850Y182448D01*
X245883Y182343D01*
X245931Y182244D01*
X245995Y182154D01*
X246072Y182075D01*
X246160Y182009D01*
X246258Y181959D01*
X246629Y181814D01*
X247013Y181708D01*
X247404Y181636D01*
X247801Y181600D01*
X248002D01*
Y174000D01*
X244453D01*
Y183846D01*
X244557Y183831D01*
X244668Y183833D01*
X244777Y183852D01*
X244881Y183888D01*
X244979Y183939D01*
X245068Y184006D01*
X245145Y184085D01*
X245209Y184175D01*
X245258Y184275D01*
X245290Y184380D01*
X245306Y184490D01*
X245304Y184601D01*
X245286Y184710D01*
X245248Y184814D01*
X245149Y185066D01*
X245076Y185327D01*
X245028Y185594D01*
X245003Y185864D01*
Y186136D01*
X245028Y186406D01*
X245076Y186673D01*
X245149Y186934D01*
X245245Y187188D01*
X245283Y187291D01*
X245301Y187400D01*
X245303Y187510D01*
X245287Y187619D01*
X245255Y187724D01*
X245206Y187823D01*
X245143Y187913D01*
X245066Y187992D01*
X244978Y188058D01*
X244880Y188110D01*
X244776Y188145D01*
X244667Y188164D01*
X244557Y188165D01*
X244453Y188150D01*
Y200000D01*
G37*
G36*
X241700D02*X244453D01*
Y188150D01*
X244448Y188150D01*
X244343Y188117D01*
X244244Y188069D01*
X244154Y188005D01*
X244075Y187928D01*
X244009Y187840D01*
X243959Y187742D01*
X243814Y187371D01*
X243708Y186987D01*
X243636Y186596D01*
X243600Y186199D01*
Y185801D01*
X243636Y185404D01*
X243708Y185013D01*
X243814Y184629D01*
X243955Y184256D01*
X244006Y184158D01*
X244073Y184070D01*
X244152Y183992D01*
X244242Y183929D01*
X244342Y183880D01*
X244447Y183847D01*
X244453Y183846D01*
Y174000D01*
X241700D01*
Y183698D01*
X241810Y183706D01*
X241917Y183732D01*
X242019Y183774D01*
X242113Y183832D01*
X242197Y183904D01*
X242268Y183987D01*
X242326Y184081D01*
X242368Y184183D01*
X242394Y184290D01*
X242400Y184400D01*
Y187600D01*
X242394Y187710D01*
X242368Y187817D01*
X242326Y187919D01*
X242268Y188013D01*
X242197Y188097D01*
X242113Y188168D01*
X242019Y188226D01*
X241917Y188268D01*
X241810Y188294D01*
X241700Y188302D01*
Y200000D01*
G37*
G36*
X238000D02*X241700D01*
Y188302D01*
X241590Y188294D01*
X241483Y188268D01*
X241381Y188226D01*
X241287Y188168D01*
X241203Y188097D01*
X241132Y188013D01*
X241074Y187919D01*
X241032Y187817D01*
X241006Y187710D01*
X241000Y187600D01*
Y184400D01*
X241006Y184290D01*
X241032Y184183D01*
X241074Y184081D01*
X241132Y183987D01*
X241203Y183904D01*
X241287Y183832D01*
X241381Y183774D01*
X241483Y183732D01*
X241590Y183706D01*
X241700Y183698D01*
Y174000D01*
X238000D01*
Y181600D01*
X239600D01*
X239710Y181606D01*
X239817Y181632D01*
X239919Y181674D01*
X240013Y181732D01*
X240097Y181803D01*
X240168Y181887D01*
X240226Y181981D01*
X240268Y182083D01*
X240294Y182190D01*
X240302Y182300D01*
X240294Y182410D01*
X240268Y182517D01*
X240226Y182619D01*
X240168Y182713D01*
X240097Y182797D01*
X240013Y182868D01*
X239919Y182926D01*
X239817Y182968D01*
X239710Y182994D01*
X239600Y183000D01*
X238000D01*
Y189000D01*
X239600D01*
X239710Y189006D01*
X239817Y189032D01*
X239919Y189074D01*
X240013Y189132D01*
X240097Y189203D01*
X240168Y189287D01*
X240226Y189381D01*
X240268Y189483D01*
X240294Y189590D01*
X240302Y189700D01*
X240294Y189810D01*
X240268Y189917D01*
X240226Y190019D01*
X240168Y190113D01*
X240097Y190197D01*
X240013Y190268D01*
X239919Y190326D01*
X239817Y190368D01*
X239710Y190394D01*
X239600Y190400D01*
X238000D01*
Y200000D01*
G37*
G36*
X234300D02*X238000D01*
Y190400D01*
X236400D01*
X236290Y190394D01*
X236183Y190368D01*
X236081Y190326D01*
X235987Y190268D01*
X235904Y190197D01*
X235832Y190113D01*
X235774Y190019D01*
X235732Y189917D01*
X235706Y189810D01*
X235698Y189700D01*
X235706Y189590D01*
X235732Y189483D01*
X235774Y189381D01*
X235832Y189287D01*
X235904Y189203D01*
X235987Y189132D01*
X236081Y189074D01*
X236183Y189032D01*
X236290Y189006D01*
X236400Y189000D01*
X238000D01*
Y183000D01*
X236400D01*
X236290Y182994D01*
X236183Y182968D01*
X236081Y182926D01*
X235987Y182868D01*
X235904Y182797D01*
X235832Y182713D01*
X235774Y182619D01*
X235732Y182517D01*
X235706Y182410D01*
X235698Y182300D01*
X235706Y182190D01*
X235732Y182083D01*
X235774Y181981D01*
X235832Y181887D01*
X235904Y181803D01*
X235987Y181732D01*
X236081Y181674D01*
X236183Y181632D01*
X236290Y181606D01*
X236400Y181600D01*
X238000D01*
Y174000D01*
X234300D01*
Y183698D01*
X234410Y183706D01*
X234517Y183732D01*
X234619Y183774D01*
X234713Y183832D01*
X234797Y183904D01*
X234868Y183987D01*
X234926Y184081D01*
X234968Y184183D01*
X234994Y184290D01*
X235000Y184400D01*
Y187600D01*
X234994Y187710D01*
X234968Y187817D01*
X234926Y187919D01*
X234868Y188013D01*
X234797Y188097D01*
X234713Y188168D01*
X234619Y188226D01*
X234517Y188268D01*
X234410Y188294D01*
X234300Y188302D01*
Y200000D01*
G37*
G36*
X179000D02*X234300D01*
Y188302D01*
X234190Y188294D01*
X234083Y188268D01*
X233981Y188226D01*
X233887Y188168D01*
X233803Y188097D01*
X233732Y188013D01*
X233674Y187919D01*
X233632Y187817D01*
X233606Y187710D01*
X233600Y187600D01*
Y184400D01*
X233606Y184290D01*
X233632Y184183D01*
X233674Y184081D01*
X233732Y183987D01*
X233803Y183904D01*
X233887Y183832D01*
X233981Y183774D01*
X234083Y183732D01*
X234190Y183706D01*
X234300Y183698D01*
Y174000D01*
X179000D01*
Y200000D01*
G37*
G36*
X112000Y165000D02*X140000D01*
Y139000D01*
X112000D01*
Y165000D01*
G37*
G36*
X97000Y160000D02*X117000D01*
Y144000D01*
X97000D01*
Y160000D01*
G37*
G36*
X168858Y121000D02*X175000D01*
Y100500D01*
X168858D01*
Y110819D01*
X168909Y110848D01*
X168996Y110915D01*
X169071Y110996D01*
X169131Y111088D01*
X169388Y111579D01*
X169591Y112095D01*
X169745Y112627D01*
X169848Y113171D01*
X169900Y113723D01*
Y114277D01*
X169848Y114829D01*
X169745Y115373D01*
X169591Y115905D01*
X169388Y116421D01*
X169137Y116915D01*
X169075Y117007D01*
X169000Y117088D01*
X168912Y117157D01*
X168858Y117186D01*
Y121000D01*
G37*
G36*
X164002D02*X168858D01*
Y117186D01*
X168815Y117210D01*
X168711Y117248D01*
X168602Y117269D01*
X168491Y117273D01*
X168381Y117259D01*
X168274Y117228D01*
X168174Y117181D01*
X168082Y117119D01*
X168001Y117044D01*
X167932Y116956D01*
X167879Y116859D01*
X167841Y116755D01*
X167820Y116646D01*
X167816Y116535D01*
X167830Y116425D01*
X167860Y116318D01*
X167909Y116219D01*
X168105Y115844D01*
X168259Y115452D01*
X168377Y115046D01*
X168455Y114631D01*
X168495Y114211D01*
Y113789D01*
X168455Y113369D01*
X168377Y112954D01*
X168259Y112548D01*
X168105Y112156D01*
X167914Y111779D01*
X167865Y111680D01*
X167835Y111574D01*
X167821Y111465D01*
X167825Y111355D01*
X167846Y111247D01*
X167883Y111143D01*
X167937Y111047D01*
X168004Y110960D01*
X168085Y110885D01*
X168176Y110823D01*
X168276Y110776D01*
X168382Y110746D01*
X168491Y110732D01*
X168601Y110736D01*
X168709Y110757D01*
X168813Y110794D01*
X168858Y110819D01*
Y100500D01*
X164002D01*
Y108100D01*
X164277D01*
X164829Y108152D01*
X165373Y108255D01*
X165905Y108409D01*
X166421Y108612D01*
X166915Y108863D01*
X167007Y108925D01*
X167088Y109000D01*
X167157Y109088D01*
X167210Y109185D01*
X167248Y109289D01*
X167269Y109398D01*
X167273Y109509D01*
X167259Y109619D01*
X167228Y109726D01*
X167181Y109826D01*
X167119Y109918D01*
X167044Y109999D01*
X166956Y110068D01*
X166859Y110121D01*
X166755Y110159D01*
X166646Y110180D01*
X166535Y110184D01*
X166425Y110170D01*
X166318Y110140D01*
X166219Y110091D01*
X165844Y109895D01*
X165452Y109741D01*
X165046Y109623D01*
X164631Y109545D01*
X164211Y109505D01*
X164002D01*
Y118495D01*
X164211D01*
X164631Y118455D01*
X165046Y118377D01*
X165452Y118259D01*
X165844Y118105D01*
X166221Y117914D01*
X166320Y117865D01*
X166426Y117835D01*
X166535Y117821D01*
X166645Y117825D01*
X166753Y117846D01*
X166857Y117883D01*
X166953Y117937D01*
X167040Y118004D01*
X167115Y118085D01*
X167177Y118176D01*
X167224Y118276D01*
X167254Y118382D01*
X167268Y118491D01*
X167264Y118601D01*
X167243Y118709D01*
X167206Y118813D01*
X167152Y118909D01*
X167085Y118996D01*
X167004Y119071D01*
X166912Y119131D01*
X166421Y119388D01*
X165905Y119591D01*
X165373Y119745D01*
X164829Y119848D01*
X164277Y119900D01*
X164002D01*
Y121000D01*
G37*
G36*
X159000D02*X164002D01*
Y119900D01*
X163723D01*
X163171Y119848D01*
X162627Y119745D01*
X162095Y119591D01*
X161579Y119388D01*
X161085Y119137D01*
X160993Y119075D01*
X160912Y119000D01*
X160843Y118912D01*
X160790Y118815D01*
X160752Y118711D01*
X160731Y118602D01*
X160727Y118491D01*
X160741Y118381D01*
X160772Y118274D01*
X160819Y118174D01*
X160881Y118082D01*
X160956Y118001D01*
X161044Y117932D01*
X161141Y117879D01*
X161245Y117841D01*
X161354Y117820D01*
X161465Y117816D01*
X161575Y117830D01*
X161682Y117860D01*
X161781Y117909D01*
X162156Y118105D01*
X162548Y118259D01*
X162954Y118377D01*
X163369Y118455D01*
X163789Y118495D01*
X164002D01*
Y109505D01*
X163789D01*
X163369Y109545D01*
X162954Y109623D01*
X162548Y109741D01*
X162156Y109895D01*
X161779Y110086D01*
X161680Y110135D01*
X161574Y110165D01*
X161465Y110179D01*
X161355Y110175D01*
X161247Y110154D01*
X161143Y110117D01*
X161047Y110063D01*
X160960Y109996D01*
X160885Y109915D01*
X160823Y109824D01*
X160776Y109724D01*
X160746Y109618D01*
X160732Y109509D01*
X160736Y109399D01*
X160757Y109291D01*
X160794Y109187D01*
X160848Y109091D01*
X160915Y109004D01*
X160996Y108929D01*
X161088Y108869D01*
X161579Y108612D01*
X162095Y108409D01*
X162627Y108255D01*
X163171Y108152D01*
X163723Y108100D01*
X164002D01*
Y100500D01*
X159000D01*
Y110797D01*
X159048Y110817D01*
X159090Y110842D01*
X159185Y110790D01*
X159289Y110752D01*
X159398Y110731D01*
X159509Y110727D01*
X159619Y110741D01*
X159726Y110772D01*
X159826Y110819D01*
X159918Y110881D01*
X159999Y110956D01*
X160068Y111044D01*
X160121Y111141D01*
X160159Y111245D01*
X160180Y111354D01*
X160184Y111465D01*
X160170Y111575D01*
X160140Y111682D01*
X160091Y111781D01*
X159895Y112156D01*
X159851Y112268D01*
X159959Y112669D01*
X160053Y113197D01*
X160100Y113732D01*
Y114268D01*
X160053Y114803D01*
X159959Y115331D01*
X159851Y115732D01*
X159895Y115844D01*
X160086Y116221D01*
X160135Y116320D01*
X160165Y116426D01*
X160179Y116535D01*
X160175Y116645D01*
X160154Y116753D01*
X160117Y116857D01*
X160063Y116953D01*
X159996Y117040D01*
X159915Y117115D01*
X159824Y117177D01*
X159724Y117224D01*
X159618Y117254D01*
X159509Y117268D01*
X159399Y117264D01*
X159291Y117243D01*
X159187Y117206D01*
X159100Y117158D01*
X159050Y117187D01*
X159000Y117207D01*
Y121000D01*
G37*
G36*
X144000D02*X149000D01*
Y117772D01*
X148983Y117768D01*
X148881Y117726D01*
X148787Y117668D01*
X148703Y117597D01*
X148632Y117513D01*
X148574Y117419D01*
X148532Y117317D01*
X148506Y117210D01*
X148500Y117100D01*
Y116631D01*
X148366Y116353D01*
X148181Y115849D01*
X148041Y115331D01*
X147947Y114803D01*
X147900Y114268D01*
Y113732D01*
X147947Y113197D01*
X148041Y112669D01*
X148181Y112151D01*
X148366Y111647D01*
X148500Y111361D01*
Y110900D01*
X148506Y110790D01*
X148532Y110683D01*
X148574Y110581D01*
X148632Y110487D01*
X148703Y110404D01*
X148787Y110332D01*
X148881Y110274D01*
X148983Y110232D01*
X149000Y110228D01*
Y100500D01*
X144000D01*
Y108100D01*
X147100D01*
X147210Y108106D01*
X147317Y108132D01*
X147419Y108174D01*
X147513Y108232D01*
X147597Y108303D01*
X147668Y108387D01*
X147726Y108481D01*
X147768Y108583D01*
X147794Y108690D01*
X147802Y108800D01*
X147794Y108910D01*
X147768Y109017D01*
X147726Y109119D01*
X147668Y109213D01*
X147597Y109297D01*
X147513Y109368D01*
X147419Y109426D01*
X147317Y109468D01*
X147210Y109494D01*
X147100Y109500D01*
X144000D01*
Y118500D01*
X147100D01*
X147210Y118506D01*
X147317Y118532D01*
X147419Y118574D01*
X147513Y118632D01*
X147597Y118703D01*
X147668Y118787D01*
X147726Y118881D01*
X147768Y118983D01*
X147794Y119090D01*
X147802Y119200D01*
X147794Y119310D01*
X147768Y119417D01*
X147726Y119519D01*
X147668Y119613D01*
X147597Y119697D01*
X147513Y119768D01*
X147419Y119826D01*
X147317Y119868D01*
X147210Y119894D01*
X147100Y119900D01*
X144000D01*
Y121000D01*
G37*
G36*
X138800D02*X144000D01*
Y119900D01*
X140900D01*
X140790Y119894D01*
X140683Y119868D01*
X140581Y119826D01*
X140487Y119768D01*
X140404Y119697D01*
X140332Y119613D01*
X140274Y119519D01*
X140232Y119417D01*
X140206Y119310D01*
X140198Y119200D01*
X140206Y119090D01*
X140232Y118983D01*
X140274Y118881D01*
X140332Y118787D01*
X140404Y118703D01*
X140487Y118632D01*
X140581Y118574D01*
X140683Y118532D01*
X140790Y118506D01*
X140900Y118500D01*
X144000D01*
Y109500D01*
X140900D01*
X140790Y109494D01*
X140683Y109468D01*
X140581Y109426D01*
X140487Y109368D01*
X140404Y109297D01*
X140332Y109213D01*
X140274Y109119D01*
X140232Y109017D01*
X140206Y108910D01*
X140198Y108800D01*
X140206Y108690D01*
X140232Y108583D01*
X140274Y108481D01*
X140332Y108387D01*
X140404Y108303D01*
X140487Y108232D01*
X140581Y108174D01*
X140683Y108132D01*
X140790Y108106D01*
X140900Y108100D01*
X144000D01*
Y100500D01*
X138800D01*
Y110198D01*
X138910Y110206D01*
X139017Y110232D01*
X139119Y110274D01*
X139213Y110332D01*
X139297Y110404D01*
X139368Y110487D01*
X139426Y110581D01*
X139468Y110683D01*
X139494Y110790D01*
X139500Y110900D01*
Y117100D01*
X139494Y117210D01*
X139468Y117317D01*
X139426Y117419D01*
X139368Y117513D01*
X139297Y117597D01*
X139213Y117668D01*
X139119Y117726D01*
X139017Y117768D01*
X138910Y117794D01*
X138800Y117802D01*
Y121000D01*
G37*
G36*
X133000D02*X138800D01*
Y117802D01*
X138690Y117794D01*
X138583Y117768D01*
X138481Y117726D01*
X138387Y117668D01*
X138303Y117597D01*
X138232Y117513D01*
X138174Y117419D01*
X138132Y117317D01*
X138106Y117210D01*
X138100Y117100D01*
Y110900D01*
X138106Y110790D01*
X138132Y110683D01*
X138174Y110581D01*
X138232Y110487D01*
X138303Y110404D01*
X138387Y110332D01*
X138481Y110274D01*
X138583Y110232D01*
X138690Y110206D01*
X138800Y110198D01*
Y100500D01*
X133000D01*
Y121000D01*
G37*
G36*
X172000D02*X213000D01*
Y100500D01*
X172000D01*
Y121000D01*
G37*
G36*
X159500Y99000D02*X213000D01*
Y89500D01*
X169869D01*
X169817Y89584D01*
X169664Y89764D01*
X169484Y89917D01*
X169283Y90041D01*
X169065Y90131D01*
X168835Y90186D01*
X168600Y90200D01*
X159900D01*
X159665Y90186D01*
X159500Y90147D01*
Y99000D01*
G37*
G36*
X170000D02*X213000D01*
Y71500D01*
X170000D01*
Y72863D01*
X170007Y72891D01*
X170016Y73048D01*
Y78952D01*
X170007Y79109D01*
X170000Y79137D01*
Y85760D01*
X170031Y85835D01*
X170086Y86065D01*
X170100Y86300D01*
Y88700D01*
X170086Y88935D01*
X170031Y89165D01*
X170000Y89240D01*
Y99000D01*
G37*
G36*
X250528Y41590D02*X250699Y41147D01*
X250904Y40426D01*
X251042Y39689D01*
X251111Y38942D01*
Y38192D01*
X251042Y37445D01*
X250904Y36708D01*
X250699Y35987D01*
X250528Y35544D01*
Y41590D01*
G37*
G36*
Y108000D02*X264000D01*
Y0D01*
X250528D01*
Y11626D01*
X250559Y11702D01*
X250850Y12914D01*
X250923Y14157D01*
X250909Y14394D01*
X251148Y14003D01*
X251858Y13173D01*
X252688Y12463D01*
X253620Y11893D01*
X254629Y11475D01*
X255691Y11220D01*
X256780Y11134D01*
X257868Y11220D01*
X258930Y11475D01*
X259939Y11893D01*
X260871Y12463D01*
X261701Y13173D01*
X262411Y14003D01*
X262981Y14935D01*
X263399Y15944D01*
X263654Y17006D01*
X263719Y18094D01*
X263654Y19183D01*
X263399Y20245D01*
X262981Y21254D01*
X262411Y22186D01*
X261701Y23016D01*
X260871Y23726D01*
X259939Y24296D01*
X258930Y24714D01*
X257868Y24969D01*
X256780Y25055D01*
X255691Y24969D01*
X254629Y24714D01*
X253620Y24296D01*
X252688Y23726D01*
X251858Y23016D01*
X251148Y22186D01*
X250578Y21254D01*
X250528Y21133D01*
Y33804D01*
X250790Y34228D01*
X251157Y34966D01*
X251455Y35734D01*
X251680Y36526D01*
X251831Y37335D01*
X251907Y38155D01*
Y38979D01*
X251831Y39799D01*
X251680Y40608D01*
X251455Y41400D01*
X251157Y42168D01*
X250790Y42905D01*
X250528Y43330D01*
Y108000D01*
G37*
G36*
Y0D02*X246700D01*
Y7132D01*
X247672Y7728D01*
X248620Y8538D01*
X249430Y9486D01*
X250081Y10549D01*
X250528Y11626D01*
Y0D01*
G37*
G36*
X246700Y108000D02*X250528D01*
Y43330D01*
X250357Y43606D01*
X249861Y44263D01*
X249817Y44309D01*
X249766Y44347D01*
X249710Y44376D01*
X249650Y44396D01*
X249588Y44407D01*
X249524Y44408D01*
X249462Y44399D01*
X249401Y44380D01*
X249344Y44352D01*
X249293Y44316D01*
X249247Y44272D01*
X249209Y44221D01*
X249180Y44165D01*
X249159Y44105D01*
X249149Y44043D01*
X249148Y43979D01*
X249157Y43917D01*
X249175Y43856D01*
X249203Y43799D01*
X249241Y43748D01*
X249699Y43155D01*
X250094Y42518D01*
X250428Y41846D01*
X250528Y41590D01*
Y35544D01*
X250428Y35287D01*
X250094Y34616D01*
X249699Y33978D01*
X249247Y33380D01*
X249211Y33330D01*
X249183Y33275D01*
X249165Y33215D01*
X249156Y33154D01*
X249157Y33092D01*
X249168Y33031D01*
X249188Y32972D01*
X249217Y32917D01*
X249254Y32868D01*
X249298Y32825D01*
X249349Y32789D01*
X249404Y32762D01*
X249464Y32743D01*
X249525Y32734D01*
X249587Y32735D01*
X249648Y32746D01*
X249707Y32766D01*
X249761Y32795D01*
X249811Y32832D01*
X249853Y32877D01*
X250357Y33528D01*
X250528Y33804D01*
Y21133D01*
X250160Y20245D01*
X249905Y19183D01*
X249826Y18182D01*
X249430Y18829D01*
X248620Y19777D01*
X247672Y20587D01*
X246700Y21183D01*
Y30459D01*
X247339Y30777D01*
X248039Y31210D01*
X248696Y31706D01*
X248742Y31750D01*
X248780Y31801D01*
X248809Y31857D01*
X248830Y31917D01*
X248840Y31979D01*
X248841Y32043D01*
X248832Y32105D01*
X248813Y32166D01*
X248785Y32223D01*
X248749Y32274D01*
X248705Y32320D01*
X248654Y32358D01*
X248598Y32387D01*
X248538Y32408D01*
X248476Y32418D01*
X248412Y32419D01*
X248350Y32410D01*
X248289Y32392D01*
X248232Y32364D01*
X248181Y32326D01*
X247588Y31868D01*
X246951Y31473D01*
X246700Y31348D01*
Y45786D01*
X246951Y45661D01*
X247588Y45266D01*
X248187Y44814D01*
X248237Y44778D01*
X248292Y44750D01*
X248352Y44732D01*
X248413Y44723D01*
X248475Y44724D01*
X248536Y44735D01*
X248595Y44755D01*
X248649Y44784D01*
X248699Y44821D01*
X248742Y44865D01*
X248778Y44916D01*
X248805Y44971D01*
X248824Y45031D01*
X248833Y45092D01*
X248832Y45154D01*
X248821Y45215D01*
X248801Y45274D01*
X248772Y45328D01*
X248735Y45378D01*
X248690Y45420D01*
X248039Y45924D01*
X247339Y46357D01*
X246700Y46675D01*
Y79698D01*
X246810Y79706D01*
X246917Y79732D01*
X247019Y79774D01*
X247113Y79832D01*
X247197Y79904D01*
X247268Y79987D01*
X247326Y80081D01*
X247368Y80183D01*
X247394Y80290D01*
X247400Y80400D01*
Y83600D01*
X247394Y83710D01*
X247368Y83817D01*
X247326Y83919D01*
X247268Y84013D01*
X247197Y84097D01*
X247113Y84168D01*
X247019Y84226D01*
X246917Y84268D01*
X246810Y84294D01*
X246700Y84302D01*
Y89425D01*
X247022Y89951D01*
X247293Y90605D01*
X247458Y91294D01*
X247500Y92000D01*
X247458Y92706D01*
X247293Y93395D01*
X247022Y94049D01*
X246700Y94575D01*
Y108000D01*
G37*
G36*
Y46675D02*X246601Y46724D01*
X245833Y47022D01*
X245041Y47247D01*
X244232Y47398D01*
X243412Y47474D01*
X243000D01*
Y77600D01*
X244600D01*
X244710Y77606D01*
X244817Y77632D01*
X244919Y77674D01*
X245013Y77732D01*
X245097Y77803D01*
X245168Y77887D01*
X245226Y77981D01*
X245268Y78083D01*
X245294Y78190D01*
X245302Y78300D01*
X245294Y78410D01*
X245268Y78517D01*
X245226Y78619D01*
X245168Y78713D01*
X245097Y78797D01*
X245013Y78868D01*
X244919Y78926D01*
X244817Y78968D01*
X244710Y78994D01*
X244600Y79000D01*
X243000D01*
Y85000D01*
X244600D01*
X244710Y85006D01*
X244817Y85032D01*
X244919Y85074D01*
X245013Y85132D01*
X245097Y85203D01*
X245168Y85287D01*
X245226Y85381D01*
X245268Y85483D01*
X245294Y85590D01*
X245302Y85700D01*
X245294Y85810D01*
X245268Y85917D01*
X245226Y86019D01*
X245168Y86113D01*
X245097Y86197D01*
X245013Y86268D01*
X244919Y86326D01*
X244817Y86368D01*
X244710Y86394D01*
X244600Y86400D01*
X243000D01*
Y87486D01*
X243706Y87542D01*
X244395Y87707D01*
X245049Y87978D01*
X245653Y88348D01*
X246192Y88808D01*
X246652Y89347D01*
X246700Y89425D01*
Y84302D01*
X246590Y84294D01*
X246483Y84268D01*
X246381Y84226D01*
X246287Y84168D01*
X246203Y84097D01*
X246132Y84013D01*
X246074Y83919D01*
X246032Y83817D01*
X246006Y83710D01*
X246000Y83600D01*
Y80400D01*
X246006Y80290D01*
X246032Y80183D01*
X246074Y80081D01*
X246132Y79987D01*
X246203Y79904D01*
X246287Y79832D01*
X246381Y79774D01*
X246483Y79732D01*
X246590Y79706D01*
X246700Y79698D01*
Y46675D01*
G37*
G36*
Y31348D02*X246279Y31139D01*
X245580Y30868D01*
X244859Y30662D01*
X244122Y30525D01*
X243375Y30456D01*
X243000D01*
Y46678D01*
X243375D01*
X244122Y46609D01*
X244859Y46471D01*
X245580Y46266D01*
X246279Y45995D01*
X246700Y45786D01*
Y31348D01*
G37*
G36*
Y21183D02*X246608Y21239D01*
X245456Y21716D01*
X244243Y22007D01*
X243000Y22105D01*
Y29659D01*
X243412D01*
X244232Y29735D01*
X245041Y29887D01*
X245833Y30112D01*
X246601Y30410D01*
X246700Y30459D01*
Y21183D01*
G37*
G36*
Y0D02*X243000D01*
Y6210D01*
X244243Y6308D01*
X245456Y6599D01*
X246608Y7076D01*
X246700Y7132D01*
Y0D01*
G37*
G36*
X243000Y108000D02*X246700D01*
Y94575D01*
X246652Y94653D01*
X246192Y95192D01*
X245653Y95652D01*
X245049Y96022D01*
X244395Y96293D01*
X243706Y96458D01*
X243000Y96514D01*
Y108000D01*
G37*
G36*
X239300Y7132D02*X239392Y7076D01*
X240544Y6599D01*
X241757Y6308D01*
X243000Y6210D01*
X243000D01*
Y0D01*
X239300D01*
Y7132D01*
G37*
G36*
Y30459D02*X239399Y30410D01*
X240167Y30112D01*
X240959Y29887D01*
X241768Y29735D01*
X242588Y29659D01*
X243000D01*
Y22105D01*
X243000D01*
X241757Y22007D01*
X240544Y21716D01*
X239392Y21239D01*
X239300Y21183D01*
Y30459D01*
G37*
G36*
Y45786D02*X239721Y45995D01*
X240420Y46266D01*
X241141Y46471D01*
X241878Y46609D01*
X242625Y46678D01*
X243000D01*
Y30456D01*
X242625D01*
X241878Y30525D01*
X241141Y30662D01*
X240420Y30868D01*
X239721Y31139D01*
X239300Y31348D01*
Y45786D01*
G37*
G36*
Y89425D02*X239348Y89347D01*
X239808Y88808D01*
X240347Y88348D01*
X240951Y87978D01*
X241605Y87707D01*
X242294Y87542D01*
X243000Y87486D01*
X243000D01*
Y86400D01*
X241400D01*
X241290Y86394D01*
X241183Y86368D01*
X241081Y86326D01*
X240987Y86268D01*
X240904Y86197D01*
X240832Y86113D01*
X240774Y86019D01*
X240732Y85917D01*
X240706Y85810D01*
X240698Y85700D01*
X240706Y85590D01*
X240732Y85483D01*
X240774Y85381D01*
X240832Y85287D01*
X240904Y85203D01*
X240987Y85132D01*
X241081Y85074D01*
X241183Y85032D01*
X241290Y85006D01*
X241400Y85000D01*
X243000D01*
Y79000D01*
X241400D01*
X241290Y78994D01*
X241183Y78968D01*
X241081Y78926D01*
X240987Y78868D01*
X240904Y78797D01*
X240832Y78713D01*
X240774Y78619D01*
X240732Y78517D01*
X240706Y78410D01*
X240698Y78300D01*
X240706Y78190D01*
X240732Y78083D01*
X240774Y77981D01*
X240832Y77887D01*
X240904Y77803D01*
X240987Y77732D01*
X241081Y77674D01*
X241183Y77632D01*
X241290Y77606D01*
X241400Y77600D01*
X243000D01*
Y47474D01*
X242588D01*
X241768Y47398D01*
X240959Y47247D01*
X240167Y47022D01*
X239399Y46724D01*
X239300Y46675D01*
Y79698D01*
X239410Y79706D01*
X239517Y79732D01*
X239619Y79774D01*
X239713Y79832D01*
X239797Y79904D01*
X239868Y79987D01*
X239926Y80081D01*
X239968Y80183D01*
X239994Y80290D01*
X240000Y80400D01*
Y83600D01*
X239994Y83710D01*
X239968Y83817D01*
X239926Y83919D01*
X239868Y84013D01*
X239797Y84097D01*
X239713Y84168D01*
X239619Y84226D01*
X239517Y84268D01*
X239410Y84294D01*
X239300Y84302D01*
Y89425D01*
G37*
G36*
Y108000D02*X243000D01*
Y96514D01*
X243000D01*
X242294Y96458D01*
X241605Y96293D01*
X240951Y96022D01*
X240347Y95652D01*
X239808Y95192D01*
X239348Y94653D01*
X239300Y94575D01*
Y108000D01*
G37*
G36*
X235472Y11626D02*X235919Y10549D01*
X236570Y9486D01*
X237380Y8538D01*
X238328Y7728D01*
X239300Y7132D01*
Y0D01*
X235472D01*
Y11626D01*
G37*
G36*
Y108000D02*X239300D01*
Y94575D01*
X238978Y94049D01*
X238707Y93395D01*
X238542Y92706D01*
X238486Y92000D01*
X238542Y91294D01*
X238707Y90605D01*
X238978Y89951D01*
X239300Y89425D01*
Y84302D01*
X239190Y84294D01*
X239083Y84268D01*
X238981Y84226D01*
X238887Y84168D01*
X238803Y84097D01*
X238732Y84013D01*
X238674Y83919D01*
X238632Y83817D01*
X238606Y83710D01*
X238600Y83600D01*
Y80400D01*
X238606Y80290D01*
X238632Y80183D01*
X238674Y80081D01*
X238732Y79987D01*
X238803Y79904D01*
X238887Y79832D01*
X238981Y79774D01*
X239083Y79732D01*
X239190Y79706D01*
X239300Y79698D01*
Y46675D01*
X238661Y46357D01*
X237961Y45924D01*
X237304Y45428D01*
X237258Y45384D01*
X237220Y45333D01*
X237191Y45277D01*
X237170Y45217D01*
X237160Y45155D01*
X237159Y45091D01*
X237168Y45029D01*
X237187Y44968D01*
X237215Y44911D01*
X237251Y44860D01*
X237295Y44814D01*
X237346Y44776D01*
X237402Y44747D01*
X237462Y44726D01*
X237524Y44715D01*
X237588Y44715D01*
X237650Y44724D01*
X237711Y44742D01*
X237768Y44770D01*
X237819Y44808D01*
X238412Y45266D01*
X239049Y45661D01*
X239300Y45786D01*
Y31348D01*
X239049Y31473D01*
X238412Y31868D01*
X237813Y32319D01*
X237763Y32356D01*
X237708Y32383D01*
X237648Y32402D01*
X237587Y32411D01*
X237525Y32410D01*
X237464Y32399D01*
X237405Y32379D01*
X237351Y32350D01*
X237301Y32313D01*
X237258Y32269D01*
X237222Y32218D01*
X237195Y32163D01*
X237176Y32103D01*
X237167Y32042D01*
X237168Y31980D01*
X237179Y31919D01*
X237199Y31860D01*
X237228Y31806D01*
X237265Y31756D01*
X237310Y31714D01*
X237961Y31210D01*
X238661Y30777D01*
X239300Y30459D01*
Y21183D01*
X238328Y20587D01*
X237380Y19777D01*
X236570Y18829D01*
X235919Y17766D01*
X235472Y16689D01*
Y33804D01*
X235643Y33528D01*
X236139Y32871D01*
X236183Y32825D01*
X236234Y32787D01*
X236290Y32758D01*
X236350Y32737D01*
X236412Y32727D01*
X236476Y32726D01*
X236538Y32735D01*
X236599Y32753D01*
X236656Y32781D01*
X236707Y32818D01*
X236753Y32862D01*
X236791Y32913D01*
X236820Y32969D01*
X236841Y33029D01*
X236851Y33091D01*
X236852Y33155D01*
X236843Y33217D01*
X236825Y33278D01*
X236797Y33335D01*
X236759Y33386D01*
X236301Y33978D01*
X235906Y34616D01*
X235572Y35287D01*
X235472Y35544D01*
Y41590D01*
X235572Y41846D01*
X235906Y42518D01*
X236301Y43155D01*
X236752Y43754D01*
X236789Y43804D01*
X236817Y43859D01*
X236835Y43919D01*
X236844Y43980D01*
X236843Y44042D01*
X236832Y44103D01*
X236812Y44162D01*
X236783Y44216D01*
X236746Y44266D01*
X236702Y44309D01*
X236651Y44345D01*
X236596Y44372D01*
X236536Y44391D01*
X236475Y44399D01*
X236413Y44399D01*
X236352Y44388D01*
X236293Y44368D01*
X236239Y44339D01*
X236189Y44302D01*
X236147Y44257D01*
X235643Y43606D01*
X235472Y43330D01*
Y108000D01*
G37*
G36*
Y35544D02*X235301Y35987D01*
X235096Y36708D01*
X234958Y37445D01*
X234889Y38192D01*
Y38942D01*
X234958Y39689D01*
X235096Y40426D01*
X235301Y41147D01*
X235472Y41590D01*
Y35544D01*
G37*
G36*
X222000Y108000D02*X235472D01*
Y43330D01*
X235210Y42905D01*
X234843Y42168D01*
X234545Y41400D01*
X234320Y40608D01*
X234169Y39799D01*
X234093Y38979D01*
Y38155D01*
X234169Y37335D01*
X234320Y36526D01*
X234545Y35734D01*
X234843Y34966D01*
X235210Y34228D01*
X235472Y33804D01*
Y16689D01*
X235441Y16613D01*
X235150Y15401D01*
X235052Y14157D01*
X235150Y12914D01*
X235441Y11702D01*
X235472Y11626D01*
Y0D01*
X222000D01*
Y108000D01*
G37*
G36*
X290000D02*X295000D01*
Y85772D01*
X294983Y85768D01*
X294881Y85726D01*
X294787Y85668D01*
X294703Y85597D01*
X294632Y85513D01*
X294574Y85419D01*
X294532Y85317D01*
X294506Y85210D01*
X294500Y85100D01*
Y84400D01*
X294276Y83860D01*
X294056Y82942D01*
X293981Y82000D01*
X294056Y81058D01*
X294276Y80140D01*
X294500Y79600D01*
Y78900D01*
X294506Y78790D01*
X294532Y78683D01*
X294574Y78581D01*
X294632Y78487D01*
X294703Y78404D01*
X294787Y78332D01*
X294881Y78274D01*
X294983Y78232D01*
X295000Y78228D01*
Y74000D01*
X290000D01*
Y76100D01*
X293100D01*
X293210Y76106D01*
X293317Y76132D01*
X293419Y76174D01*
X293513Y76232D01*
X293597Y76303D01*
X293668Y76387D01*
X293726Y76481D01*
X293768Y76583D01*
X293794Y76690D01*
X293802Y76800D01*
X293794Y76910D01*
X293768Y77017D01*
X293726Y77119D01*
X293668Y77213D01*
X293597Y77297D01*
X293513Y77368D01*
X293419Y77426D01*
X293317Y77468D01*
X293210Y77494D01*
X293100Y77500D01*
X290000D01*
Y86500D01*
X293100D01*
X293210Y86506D01*
X293317Y86532D01*
X293419Y86574D01*
X293513Y86632D01*
X293597Y86703D01*
X293668Y86787D01*
X293726Y86881D01*
X293768Y86983D01*
X293794Y87090D01*
X293802Y87200D01*
X293794Y87310D01*
X293768Y87417D01*
X293726Y87519D01*
X293668Y87613D01*
X293597Y87697D01*
X293513Y87768D01*
X293419Y87826D01*
X293317Y87868D01*
X293210Y87894D01*
X293100Y87900D01*
X290000D01*
Y108000D01*
G37*
G36*
X284800D02*X290000D01*
Y87900D01*
X286900D01*
X286790Y87894D01*
X286683Y87868D01*
X286581Y87826D01*
X286487Y87768D01*
X286404Y87697D01*
X286332Y87613D01*
X286274Y87519D01*
X286232Y87417D01*
X286206Y87310D01*
X286198Y87200D01*
X286206Y87090D01*
X286232Y86983D01*
X286274Y86881D01*
X286332Y86787D01*
X286404Y86703D01*
X286487Y86632D01*
X286581Y86574D01*
X286683Y86532D01*
X286790Y86506D01*
X286900Y86500D01*
X290000D01*
Y77500D01*
X286900D01*
X286790Y77494D01*
X286683Y77468D01*
X286581Y77426D01*
X286487Y77368D01*
X286404Y77297D01*
X286332Y77213D01*
X286274Y77119D01*
X286232Y77017D01*
X286206Y76910D01*
X286198Y76800D01*
X286206Y76690D01*
X286232Y76583D01*
X286274Y76481D01*
X286332Y76387D01*
X286404Y76303D01*
X286487Y76232D01*
X286581Y76174D01*
X286683Y76132D01*
X286790Y76106D01*
X286900Y76100D01*
X290000D01*
Y74000D01*
X284800D01*
Y78198D01*
X284910Y78206D01*
X285017Y78232D01*
X285119Y78274D01*
X285213Y78332D01*
X285297Y78404D01*
X285368Y78487D01*
X285426Y78581D01*
X285468Y78683D01*
X285494Y78790D01*
X285500Y78900D01*
Y85100D01*
X285494Y85210D01*
X285468Y85317D01*
X285426Y85419D01*
X285368Y85513D01*
X285297Y85597D01*
X285213Y85668D01*
X285119Y85726D01*
X285017Y85768D01*
X284910Y85794D01*
X284800Y85802D01*
Y108000D01*
G37*
G36*
X269048Y81016D02*Y75898D01*
X269057Y75741D01*
X269094Y75588D01*
X269154Y75443D01*
X269236Y75308D01*
X269339Y75189D01*
X269458Y75086D01*
X269593Y75004D01*
X269738Y74944D01*
X269891Y74907D01*
X270000Y74901D01*
Y74000D01*
X259000D01*
Y108000D01*
X284800D01*
Y85802D01*
X284690Y85794D01*
X284583Y85768D01*
X284481Y85726D01*
X284387Y85668D01*
X284303Y85597D01*
X284232Y85513D01*
X284174Y85419D01*
X284132Y85317D01*
X284106Y85210D01*
X284100Y85100D01*
Y78900D01*
X284106Y78790D01*
X284132Y78683D01*
X284174Y78581D01*
X284232Y78487D01*
X284303Y78404D01*
X284387Y78332D01*
X284481Y78274D01*
X284583Y78232D01*
X284690Y78206D01*
X284800Y78198D01*
Y74000D01*
X276000D01*
Y74901D01*
X276109Y74907D01*
X276262Y74944D01*
X276407Y75004D01*
X276542Y75086D01*
X276661Y75189D01*
X276764Y75308D01*
X276846Y75443D01*
X276906Y75588D01*
X276943Y75741D01*
X276952Y75898D01*
Y81016D01*
X276943Y81173D01*
X276906Y81326D01*
X276846Y81471D01*
X276764Y81606D01*
X276661Y81725D01*
X276542Y81828D01*
X276407Y81910D01*
X276262Y81970D01*
X276109Y82007D01*
X275952Y82016D01*
X270048D01*
X269891Y82007D01*
X269738Y81970D01*
X269593Y81910D01*
X269458Y81828D01*
X269339Y81725D01*
X269236Y81606D01*
X269154Y81471D01*
X269094Y81326D01*
X269057Y81173D01*
X269048Y81016D01*
G37*
G36*
X326994Y108000D02*X359000D01*
Y32000D01*
X326994D01*
Y65988D01*
X327000Y65988D01*
X327628Y66037D01*
X328240Y66184D01*
X328822Y66425D01*
X329358Y66754D01*
X329837Y67163D01*
X330246Y67642D01*
X330575Y68178D01*
X330816Y68760D01*
X330963Y69372D01*
X331000Y70000D01*
X330963Y70628D01*
X330816Y71240D01*
X330575Y71822D01*
X330246Y72358D01*
X330000Y72646D01*
Y74901D01*
X330109Y74907D01*
X330262Y74944D01*
X330407Y75004D01*
X330542Y75086D01*
X330661Y75189D01*
X330764Y75308D01*
X330846Y75443D01*
X330906Y75588D01*
X330943Y75741D01*
X330952Y75898D01*
Y81016D01*
X330943Y81173D01*
X330906Y81326D01*
X330846Y81471D01*
X330764Y81606D01*
X330661Y81725D01*
X330542Y81828D01*
X330407Y81910D01*
X330262Y81970D01*
X330109Y82007D01*
X329952Y82016D01*
X326994D01*
Y108000D01*
G37*
G36*
X314858D02*X326994D01*
Y82016D01*
X324048D01*
X323891Y82007D01*
X323738Y81970D01*
X323593Y81910D01*
X323458Y81828D01*
X323339Y81725D01*
X323236Y81606D01*
X323154Y81471D01*
X323094Y81326D01*
X323057Y81173D01*
X323048Y81016D01*
Y75898D01*
X323057Y75741D01*
X323094Y75588D01*
X323154Y75443D01*
X323236Y75308D01*
X323339Y75189D01*
X323458Y75086D01*
X323593Y75004D01*
X323738Y74944D01*
X323891Y74907D01*
X324000Y74901D01*
Y72646D01*
X323754Y72358D01*
X323425Y71822D01*
X323184Y71240D01*
X323037Y70628D01*
X322988Y70000D01*
X323037Y69372D01*
X323184Y68760D01*
X323425Y68178D01*
X323754Y67642D01*
X324163Y67163D01*
X324642Y66754D01*
X325178Y66425D01*
X325760Y66184D01*
X326372Y66037D01*
X326994Y65988D01*
Y32000D01*
X314858D01*
Y78819D01*
X314909Y78848D01*
X314996Y78915D01*
X315071Y78996D01*
X315131Y79088D01*
X315388Y79579D01*
X315591Y80095D01*
X315745Y80627D01*
X315848Y81171D01*
X315900Y81723D01*
Y82277D01*
X315848Y82829D01*
X315745Y83373D01*
X315591Y83905D01*
X315388Y84421D01*
X315137Y84915D01*
X315075Y85007D01*
X315000Y85088D01*
X314912Y85157D01*
X314858Y85186D01*
Y108000D01*
G37*
G36*
X310002D02*X314858D01*
Y85186D01*
X314815Y85210D01*
X314711Y85248D01*
X314602Y85269D01*
X314491Y85273D01*
X314381Y85259D01*
X314274Y85228D01*
X314174Y85181D01*
X314082Y85119D01*
X314001Y85044D01*
X313932Y84956D01*
X313879Y84859D01*
X313841Y84755D01*
X313820Y84646D01*
X313816Y84535D01*
X313830Y84425D01*
X313860Y84318D01*
X313909Y84219D01*
X314105Y83844D01*
X314259Y83452D01*
X314377Y83046D01*
X314455Y82631D01*
X314495Y82211D01*
Y81789D01*
X314455Y81369D01*
X314377Y80954D01*
X314259Y80548D01*
X314105Y80156D01*
X313914Y79779D01*
X313865Y79680D01*
X313835Y79574D01*
X313821Y79465D01*
X313825Y79355D01*
X313846Y79247D01*
X313883Y79143D01*
X313937Y79047D01*
X314004Y78960D01*
X314085Y78885D01*
X314176Y78823D01*
X314276Y78776D01*
X314382Y78746D01*
X314491Y78732D01*
X314601Y78736D01*
X314709Y78757D01*
X314813Y78794D01*
X314858Y78819D01*
Y32000D01*
X310002D01*
Y76100D01*
X310277D01*
X310829Y76152D01*
X311373Y76255D01*
X311905Y76409D01*
X312421Y76612D01*
X312915Y76863D01*
X313007Y76925D01*
X313088Y77000D01*
X313157Y77088D01*
X313210Y77185D01*
X313248Y77289D01*
X313269Y77398D01*
X313273Y77509D01*
X313259Y77619D01*
X313228Y77726D01*
X313181Y77826D01*
X313119Y77918D01*
X313044Y77999D01*
X312956Y78068D01*
X312859Y78121D01*
X312755Y78159D01*
X312646Y78180D01*
X312535Y78184D01*
X312425Y78170D01*
X312318Y78140D01*
X312219Y78091D01*
X311844Y77895D01*
X311452Y77741D01*
X311046Y77623D01*
X310631Y77545D01*
X310211Y77505D01*
X310002D01*
Y86495D01*
X310211D01*
X310631Y86455D01*
X311046Y86377D01*
X311452Y86259D01*
X311844Y86105D01*
X312221Y85914D01*
X312320Y85865D01*
X312426Y85835D01*
X312535Y85821D01*
X312645Y85825D01*
X312753Y85846D01*
X312857Y85883D01*
X312953Y85937D01*
X313040Y86004D01*
X313115Y86085D01*
X313177Y86176D01*
X313224Y86276D01*
X313254Y86382D01*
X313268Y86491D01*
X313264Y86601D01*
X313243Y86709D01*
X313206Y86813D01*
X313152Y86909D01*
X313085Y86996D01*
X313004Y87071D01*
X312912Y87131D01*
X312421Y87388D01*
X311905Y87591D01*
X311373Y87745D01*
X310829Y87848D01*
X310277Y87900D01*
X310002D01*
Y108000D01*
G37*
G36*
X305000D02*X310002D01*
Y87900D01*
X309723D01*
X309171Y87848D01*
X308627Y87745D01*
X308095Y87591D01*
X307579Y87388D01*
X307085Y87137D01*
X306993Y87075D01*
X306912Y87000D01*
X306843Y86912D01*
X306790Y86815D01*
X306752Y86711D01*
X306731Y86602D01*
X306727Y86491D01*
X306741Y86381D01*
X306772Y86274D01*
X306819Y86174D01*
X306881Y86082D01*
X306956Y86001D01*
X307044Y85932D01*
X307141Y85879D01*
X307245Y85841D01*
X307354Y85820D01*
X307465Y85816D01*
X307575Y85830D01*
X307682Y85860D01*
X307781Y85909D01*
X308156Y86105D01*
X308548Y86259D01*
X308954Y86377D01*
X309369Y86455D01*
X309789Y86495D01*
X310002D01*
Y77505D01*
X309789D01*
X309369Y77545D01*
X308954Y77623D01*
X308548Y77741D01*
X308156Y77895D01*
X307779Y78086D01*
X307680Y78135D01*
X307574Y78165D01*
X307465Y78179D01*
X307355Y78175D01*
X307247Y78154D01*
X307143Y78117D01*
X307047Y78063D01*
X306960Y77996D01*
X306885Y77915D01*
X306823Y77824D01*
X306776Y77724D01*
X306746Y77618D01*
X306732Y77509D01*
X306736Y77399D01*
X306757Y77291D01*
X306794Y77187D01*
X306848Y77091D01*
X306915Y77004D01*
X306996Y76929D01*
X307088Y76869D01*
X307579Y76612D01*
X308095Y76409D01*
X308627Y76255D01*
X309171Y76152D01*
X309723Y76100D01*
X310002D01*
Y32000D01*
X305000D01*
Y78676D01*
X305099Y78837D01*
X305185Y78790D01*
X305289Y78752D01*
X305398Y78731D01*
X305509Y78727D01*
X305619Y78741D01*
X305726Y78772D01*
X305826Y78819D01*
X305918Y78881D01*
X305999Y78956D01*
X306068Y79044D01*
X306121Y79141D01*
X306159Y79245D01*
X306180Y79354D01*
X306184Y79465D01*
X306170Y79575D01*
X306140Y79682D01*
X306091Y79781D01*
X305895Y80156D01*
X305791Y80420D01*
X305944Y81058D01*
X306000Y82000D01*
X305944Y82942D01*
X305791Y83580D01*
X305895Y83844D01*
X306086Y84221D01*
X306135Y84320D01*
X306165Y84426D01*
X306179Y84535D01*
X306175Y84645D01*
X306154Y84753D01*
X306117Y84857D01*
X306063Y84953D01*
X305996Y85040D01*
X305915Y85115D01*
X305824Y85177D01*
X305724Y85224D01*
X305618Y85254D01*
X305509Y85268D01*
X305399Y85264D01*
X305291Y85243D01*
X305187Y85206D01*
X305101Y85158D01*
X305000Y85324D01*
Y108000D01*
G37*
G36*
X509365Y39822D02*X509383Y39815D01*
X509520Y39782D01*
X509661Y39774D01*
X515566D01*
X515708Y39782D01*
X515845Y39815D01*
X515976Y39869D01*
X516097Y39943D01*
X516205Y40035D01*
X516297Y40143D01*
X516371Y40264D01*
X516425Y40395D01*
X516458Y40532D01*
X516466Y40674D01*
Y41973D01*
X516458Y42114D01*
X516425Y42251D01*
X516371Y42382D01*
X516297Y42503D01*
X516212Y42603D01*
X516297Y42702D01*
X516371Y42823D01*
X516425Y42954D01*
X516458Y43091D01*
X516466Y43232D01*
Y44532D01*
X516458Y44673D01*
X516425Y44810D01*
X516371Y44941D01*
X516297Y45062D01*
X516212Y45162D01*
X516297Y45261D01*
X516371Y45382D01*
X516425Y45513D01*
X516458Y45650D01*
X516466Y45792D01*
Y47091D01*
X516458Y47232D01*
X516425Y47369D01*
X516371Y47500D01*
X553941D01*
X554000Y47495D01*
X554235Y47514D01*
X554235Y47514D01*
X554465Y47569D01*
X554683Y47659D01*
X554884Y47783D01*
X555064Y47936D01*
X555102Y47981D01*
X566798Y59677D01*
X566843Y59715D01*
X566996Y59894D01*
X566996Y59895D01*
X567120Y60096D01*
X567210Y60314D01*
X567265Y60544D01*
X567284Y60779D01*
X567279Y60838D01*
Y98690D01*
X568779D01*
X569014Y98704D01*
X569244Y98759D01*
X569462Y98849D01*
X569663Y98973D01*
X569843Y99126D01*
X569996Y99306D01*
X570120Y99507D01*
X570210Y99725D01*
X570265Y99955D01*
X570279Y100190D01*
Y101764D01*
X570265Y101999D01*
X570210Y102229D01*
X570120Y102447D01*
X570056Y102551D01*
X570120Y102656D01*
X570210Y102874D01*
X570265Y103104D01*
X570279Y103339D01*
Y104913D01*
X570265Y105148D01*
X570210Y105378D01*
X570120Y105596D01*
X570055Y105701D01*
X570120Y105806D01*
X570210Y106024D01*
X570265Y106254D01*
X570279Y106489D01*
Y107500D01*
X625000D01*
Y15033D01*
X624940Y16049D01*
X624460Y18049D01*
X623673Y19948D01*
X622599Y21701D01*
X621264Y23264D01*
X619701Y24599D01*
X617948Y25673D01*
X616049Y26460D01*
X614049Y26940D01*
X612000Y27101D01*
X609951Y26940D01*
X607951Y26460D01*
X606052Y25673D01*
X604299Y24599D01*
X602736Y23264D01*
X601401Y21701D01*
X600327Y19948D01*
X599540Y18049D01*
X599060Y16049D01*
X598899Y14000D01*
X599060Y11951D01*
X599540Y9951D01*
X600327Y8052D01*
X601401Y6299D01*
X602736Y4736D01*
X604299Y3401D01*
X606052Y2327D01*
X607951Y1540D01*
X609951Y1060D01*
X612000Y899D01*
X614049Y1060D01*
X616049Y1540D01*
X617948Y2327D01*
X619701Y3401D01*
X621264Y4736D01*
X622599Y6299D01*
X623673Y8052D01*
X624460Y9951D01*
X624940Y11951D01*
X625000Y12967D01*
Y0D01*
X504500D01*
Y39822D01*
X509365D01*
G37*
G36*
X383441Y98750D02*Y98048D01*
X383450Y97891D01*
X383487Y97738D01*
X383547Y97593D01*
X383629Y97458D01*
X383732Y97339D01*
X383851Y97236D01*
X383986Y97154D01*
X384131Y97094D01*
X384284Y97057D01*
X384441Y97048D01*
X389559D01*
X389716Y97057D01*
X389869Y97094D01*
X390014Y97154D01*
X390149Y97236D01*
X390268Y97339D01*
X390371Y97458D01*
X390453Y97593D01*
X390513Y97738D01*
X390543Y97863D01*
X390573Y97738D01*
X390633Y97593D01*
X390715Y97458D01*
X390818Y97339D01*
X390937Y97236D01*
X391072Y97154D01*
X391217Y97094D01*
X391370Y97057D01*
X391527Y97048D01*
X396645D01*
X396802Y97057D01*
X396955Y97094D01*
X397100Y97154D01*
X397235Y97236D01*
X397354Y97339D01*
X397457Y97458D01*
X397500Y97529D01*
Y74896D01*
X397407Y74953D01*
X397262Y75013D01*
X397109Y75050D01*
X396952Y75059D01*
X391048D01*
X390891Y75050D01*
X390738Y75013D01*
X390593Y74953D01*
X390458Y74871D01*
X390339Y74768D01*
X390236Y74649D01*
X390154Y74514D01*
X390094Y74369D01*
X390057Y74216D01*
X390048Y74059D01*
Y68941D01*
X390057Y68784D01*
X390094Y68631D01*
X390154Y68486D01*
X390236Y68351D01*
X390339Y68232D01*
X390458Y68129D01*
X390593Y68047D01*
X390738Y67987D01*
X390891Y67950D01*
X391048Y67941D01*
X392500D01*
Y66559D01*
X391048D01*
X390891Y66550D01*
X390738Y66513D01*
X390593Y66453D01*
X390458Y66371D01*
X390339Y66268D01*
X390236Y66149D01*
X390154Y66014D01*
X390094Y65869D01*
X390057Y65716D01*
X390048Y65559D01*
Y60441D01*
X390057Y60284D01*
X390094Y60131D01*
X390154Y59986D01*
X390236Y59851D01*
X390339Y59732D01*
X390458Y59629D01*
X390593Y59547D01*
X390738Y59487D01*
X390863Y59457D01*
X390738Y59427D01*
X390593Y59367D01*
X390458Y59285D01*
X390339Y59182D01*
X390236Y59063D01*
X390154Y58928D01*
X390094Y58783D01*
X390057Y58630D01*
X390048Y58473D01*
Y53355D01*
X390057Y53198D01*
X390094Y53045D01*
X390154Y52900D01*
X390236Y52765D01*
X390339Y52646D01*
X390458Y52543D01*
X390593Y52461D01*
X390738Y52401D01*
X390891Y52364D01*
X391048Y52355D01*
X392500D01*
Y42059D01*
X392495Y42000D01*
X392514Y41765D01*
X392569Y41535D01*
X392659Y41317D01*
X392783Y41116D01*
X392783Y41115D01*
X392936Y40936D01*
X392981Y40898D01*
X396817Y37061D01*
X396684Y36740D01*
X396537Y36128D01*
X396488Y35500D01*
X396537Y34872D01*
X396684Y34260D01*
X396925Y33678D01*
X397254Y33142D01*
X397500Y32854D01*
Y0D01*
X366000D01*
Y128000D01*
X397500D01*
Y120397D01*
X397496Y120407D01*
X397414Y120542D01*
X397311Y120661D01*
X397192Y120764D01*
X397057Y120846D01*
X396912Y120906D01*
X396759Y120943D01*
X396602Y120952D01*
X391484D01*
X391327Y120943D01*
X391174Y120906D01*
X391029Y120846D01*
X390894Y120764D01*
X390775Y120661D01*
X390672Y120542D01*
X390590Y120407D01*
X390530Y120262D01*
X390500Y120137D01*
X390470Y120262D01*
X390410Y120407D01*
X390328Y120542D01*
X390225Y120661D01*
X390106Y120764D01*
X389971Y120846D01*
X389826Y120906D01*
X389673Y120943D01*
X389516Y120952D01*
X384398D01*
X384241Y120943D01*
X384088Y120906D01*
X383943Y120846D01*
X383808Y120764D01*
X383689Y120661D01*
X383586Y120542D01*
X383504Y120407D01*
X383444Y120262D01*
X383407Y120109D01*
X383398Y119952D01*
Y119250D01*
X382088D01*
X382000Y119257D01*
X381647Y119229D01*
X381303Y119146D01*
X380975Y119011D01*
X380673Y118826D01*
X380673Y118826D01*
X380404Y118596D01*
X380347Y118529D01*
X377471Y115653D01*
X377404Y115596D01*
X377174Y115327D01*
X376989Y115025D01*
X376854Y114697D01*
X376771Y114353D01*
X376771Y114353D01*
X376743Y114000D01*
X376750Y113912D01*
Y112312D01*
X376642Y112246D01*
X376163Y111837D01*
X375754Y111358D01*
X375425Y110822D01*
X375184Y110240D01*
X375037Y109628D01*
X374988Y109000D01*
X375037Y108372D01*
X375184Y107760D01*
X375425Y107178D01*
X375754Y106642D01*
X376163Y106163D01*
X376642Y105754D01*
X376750Y105688D01*
Y104088D01*
X376743Y104000D01*
X376771Y103647D01*
Y103647D01*
X376854Y103303D01*
X376989Y102975D01*
X377059Y102861D01*
X377174Y102673D01*
X377174Y102673D01*
X377404Y102404D01*
X377471Y102347D01*
X380347Y99471D01*
X380404Y99404D01*
X380673Y99174D01*
X380673Y99174D01*
X380861Y99059D01*
X380975Y98989D01*
X381303Y98854D01*
X381647Y98771D01*
X381647D01*
X382000Y98743D01*
X382088Y98750D01*
X383441D01*
G37*
G36*
X409225Y115500D02*X424879D01*
X426237Y114142D01*
Y98409D01*
X426162D01*
X426038Y98402D01*
X425918Y98373D01*
X425803Y98326D01*
X425737Y98285D01*
X425670Y98326D01*
X425556Y98373D01*
X425435Y98402D01*
X425312Y98409D01*
X425237D01*
Y106704D01*
X425241Y106763D01*
X425223Y106999D01*
X425168Y107228D01*
X425077Y107446D01*
X424954Y107648D01*
X424801Y107827D01*
X424756Y107866D01*
X422602Y110019D01*
X422564Y110064D01*
X422384Y110217D01*
X422183Y110341D01*
X421965Y110431D01*
X421735Y110486D01*
X421500Y110505D01*
X421441Y110500D01*
X409225D01*
Y115500D01*
G37*
G36*
X449312Y98409D02*X447976D01*
Y105984D01*
X453495D01*
X453652Y105993D01*
X453805Y106030D01*
X453950Y106090D01*
X454085Y106172D01*
X454204Y106275D01*
X454307Y106394D01*
X454389Y106529D01*
X454449Y106674D01*
X454486Y106827D01*
X454495Y106984D01*
Y108043D01*
X456048D01*
Y106984D01*
X456057Y106827D01*
X456094Y106674D01*
X456154Y106529D01*
X456236Y106394D01*
X456339Y106275D01*
X456458Y106172D01*
X456593Y106090D01*
X456738Y106030D01*
X456863Y106000D01*
X456738Y105970D01*
X456593Y105910D01*
X456458Y105828D01*
X456339Y105725D01*
X456236Y105606D01*
X456154Y105471D01*
X456094Y105326D01*
X456057Y105173D01*
X456048Y105016D01*
Y100626D01*
X453981Y98559D01*
X453936Y98521D01*
X453783Y98341D01*
X453659Y98140D01*
X453569Y97922D01*
X453514Y97692D01*
X453514Y97692D01*
X453495Y97457D01*
X453500Y97398D01*
Y89000D01*
X447976D01*
Y89354D01*
X449312D01*
X449435Y89362D01*
X449556Y89391D01*
X449670Y89438D01*
X449776Y89503D01*
X449870Y89583D01*
X449951Y89677D01*
X450015Y89783D01*
X450063Y89898D01*
X450092Y90018D01*
X450099Y90142D01*
Y97622D01*
X450092Y97746D01*
X450063Y97866D01*
X450015Y97981D01*
X449951Y98086D01*
X449870Y98181D01*
X449776Y98261D01*
X449670Y98326D01*
X449556Y98373D01*
X449435Y98402D01*
X449312Y98409D01*
G37*
G36*
X495001Y34000D02*X497500D01*
Y0D01*
X495001D01*
Y32697D01*
X495245Y32708D01*
X495489Y32740D01*
X495729Y32794D01*
X495963Y32868D01*
X496035Y32900D01*
X496100Y32944D01*
X496159Y32997D01*
X496208Y33059D01*
X496246Y33128D01*
X496274Y33202D01*
X496290Y33279D01*
X496293Y33358D01*
X496284Y33437D01*
X496263Y33513D01*
X496230Y33585D01*
X496186Y33650D01*
X496133Y33709D01*
X496071Y33758D01*
X496002Y33796D01*
X495928Y33824D01*
X495851Y33840D01*
X495772Y33843D01*
X495693Y33834D01*
X495618Y33811D01*
X495468Y33762D01*
X495314Y33728D01*
X495158Y33707D01*
X495001Y33700D01*
Y34000D01*
G37*
G36*
Y39691D02*X495439Y39726D01*
X495868Y39829D01*
X496275Y39997D01*
X496651Y40228D01*
X496986Y40514D01*
X497272Y40849D01*
X497500Y41221D01*
Y37000D01*
X495001D01*
Y37300D01*
X495158Y37293D01*
X495314Y37272D01*
X495468Y37238D01*
X495618Y37190D01*
X495694Y37168D01*
X495772Y37159D01*
X495850Y37162D01*
X495927Y37178D01*
X496001Y37205D01*
X496070Y37244D01*
X496131Y37293D01*
X496185Y37351D01*
X496228Y37416D01*
X496261Y37488D01*
X496282Y37564D01*
X496291Y37642D01*
X496288Y37720D01*
X496272Y37798D01*
X496245Y37871D01*
X496206Y37940D01*
X496157Y38002D01*
X496099Y38055D01*
X496034Y38098D01*
X495962Y38130D01*
X495729Y38206D01*
X495489Y38260D01*
X495245Y38292D01*
X495001Y38303D01*
Y39691D01*
G37*
G36*
Y128000D02*X497500D01*
Y86500D01*
X495059D01*
X495001Y86505D01*
Y86800D01*
X495158Y86793D01*
X495314Y86772D01*
X495468Y86738D01*
X495618Y86690D01*
X495694Y86668D01*
X495772Y86659D01*
X495850Y86662D01*
X495927Y86678D01*
X496001Y86705D01*
X496070Y86744D01*
X496131Y86793D01*
X496185Y86851D01*
X496228Y86916D01*
X496261Y86988D01*
X496282Y87064D01*
X496291Y87142D01*
X496288Y87220D01*
X496272Y87298D01*
X496245Y87371D01*
X496206Y87440D01*
X496157Y87502D01*
X496099Y87555D01*
X496034Y87598D01*
X495962Y87630D01*
X495729Y87706D01*
X495489Y87760D01*
X495245Y87792D01*
X495001Y87803D01*
Y128000D01*
G37*
G36*
X492770Y39823D02*X493764D01*
X493823Y39818D01*
X494058Y39837D01*
X494058Y39837D01*
X494093Y39845D01*
X494132Y39829D01*
X494561Y39726D01*
X495000Y39691D01*
X495001Y39691D01*
Y38303D01*
X495000Y38303D01*
X494755Y38292D01*
X494511Y38260D01*
X494271Y38206D01*
X494037Y38132D01*
X493965Y38100D01*
X493900Y38056D01*
X493841Y38003D01*
X493792Y37941D01*
X493754Y37872D01*
X493726Y37798D01*
X493710Y37721D01*
X493707Y37642D01*
X493716Y37563D01*
X493737Y37487D01*
X493770Y37415D01*
X493814Y37350D01*
X493867Y37291D01*
X493929Y37242D01*
X493998Y37204D01*
X494072Y37176D01*
X494149Y37160D01*
X494228Y37157D01*
X494307Y37166D01*
X494382Y37189D01*
X494532Y37238D01*
X494686Y37272D01*
X494842Y37293D01*
X495000Y37300D01*
X495001Y37300D01*
Y37000D01*
X495000D01*
X494765Y36986D01*
X494535Y36931D01*
X494317Y36841D01*
X494116Y36717D01*
X493936Y36564D01*
X493783Y36384D01*
X493659Y36183D01*
X493569Y35965D01*
X493514Y35735D01*
X493495Y35500D01*
X493514Y35265D01*
X493569Y35035D01*
X493659Y34817D01*
X493783Y34616D01*
X493936Y34436D01*
X494116Y34283D01*
X494317Y34159D01*
X494535Y34069D01*
X494765Y34014D01*
X495000Y34000D01*
X495001D01*
Y33700D01*
X495000Y33700D01*
X494842Y33707D01*
X494686Y33728D01*
X494532Y33762D01*
X494382Y33810D01*
X494306Y33832D01*
X494228Y33841D01*
X494150Y33838D01*
X494073Y33822D01*
X493999Y33795D01*
X493930Y33756D01*
X493869Y33707D01*
X493815Y33649D01*
X493772Y33584D01*
X493739Y33512D01*
X493718Y33436D01*
X493709Y33358D01*
X493712Y33280D01*
X493728Y33202D01*
X493755Y33129D01*
X493794Y33060D01*
X493843Y32998D01*
X493901Y32945D01*
X493966Y32902D01*
X494038Y32870D01*
X494271Y32794D01*
X494511Y32740D01*
X494755Y32708D01*
X495000Y32697D01*
X495001Y32697D01*
Y0D01*
X492770D01*
Y34212D01*
X492779Y34210D01*
X492858Y34207D01*
X492937Y34216D01*
X493013Y34237D01*
X493085Y34270D01*
X493150Y34314D01*
X493209Y34367D01*
X493258Y34429D01*
X493296Y34498D01*
X493324Y34572D01*
X493340Y34649D01*
X493343Y34728D01*
X493334Y34807D01*
X493311Y34882D01*
X493262Y35032D01*
X493228Y35186D01*
X493207Y35342D01*
X493200Y35500D01*
X493207Y35658D01*
X493228Y35814D01*
X493262Y35968D01*
X493310Y36118D01*
X493332Y36194D01*
X493341Y36272D01*
X493338Y36350D01*
X493322Y36427D01*
X493295Y36501D01*
X493256Y36570D01*
X493207Y36631D01*
X493149Y36685D01*
X493084Y36728D01*
X493012Y36761D01*
X492936Y36782D01*
X492858Y36791D01*
X492780Y36788D01*
X492770Y36786D01*
Y39823D01*
G37*
G36*
Y128000D02*X495001D01*
Y87803D01*
X495000Y87803D01*
X494755Y87792D01*
X494511Y87760D01*
X494271Y87706D01*
X494037Y87632D01*
X493965Y87600D01*
X493900Y87556D01*
X493841Y87503D01*
X493792Y87441D01*
X493754Y87372D01*
X493726Y87298D01*
X493710Y87221D01*
X493707Y87142D01*
X493716Y87063D01*
X493737Y86987D01*
X493770Y86915D01*
X493814Y86850D01*
X493867Y86791D01*
X493929Y86742D01*
X493998Y86704D01*
X494072Y86676D01*
X494149Y86660D01*
X494228Y86657D01*
X494307Y86666D01*
X494382Y86689D01*
X494532Y86738D01*
X494686Y86772D01*
X494842Y86793D01*
X495000Y86800D01*
X495001Y86800D01*
Y86505D01*
X495000Y86505D01*
X494765Y86486D01*
X494535Y86431D01*
X494317Y86341D01*
X494116Y86217D01*
X493936Y86064D01*
X493783Y85884D01*
X493659Y85683D01*
X493569Y85465D01*
X493514Y85235D01*
X493514Y85235D01*
X493495Y85000D01*
X493500Y84941D01*
Y81177D01*
X492770D01*
Y83712D01*
X492779Y83710D01*
X492858Y83707D01*
X492937Y83716D01*
X493013Y83737D01*
X493085Y83770D01*
X493150Y83814D01*
X493209Y83867D01*
X493258Y83929D01*
X493296Y83998D01*
X493324Y84072D01*
X493340Y84149D01*
X493343Y84228D01*
X493334Y84307D01*
X493311Y84382D01*
X493262Y84532D01*
X493228Y84686D01*
X493207Y84842D01*
X493200Y85000D01*
X493207Y85158D01*
X493228Y85314D01*
X493262Y85468D01*
X493310Y85618D01*
X493332Y85694D01*
X493341Y85772D01*
X493338Y85850D01*
X493322Y85927D01*
X493295Y86001D01*
X493256Y86070D01*
X493207Y86131D01*
X493149Y86185D01*
X493084Y86228D01*
X493012Y86261D01*
X492936Y86282D01*
X492858Y86291D01*
X492780Y86288D01*
X492770Y86286D01*
Y128000D01*
G37*
G36*
X461645Y127952D02*X456527D01*
X456370Y127943D01*
X456217Y127906D01*
X456072Y127846D01*
X455937Y127764D01*
X455818Y127661D01*
X455715Y127542D01*
X455633Y127407D01*
X455573Y127262D01*
X455536Y127109D01*
X455527Y126952D01*
Y121048D01*
X455536Y120891D01*
X455573Y120738D01*
X455633Y120593D01*
X455715Y120458D01*
X455818Y120339D01*
X455937Y120236D01*
X456072Y120154D01*
X456217Y120094D01*
X456370Y120057D01*
X456527Y120048D01*
X461645D01*
X461802Y120057D01*
X461955Y120094D01*
X462100Y120154D01*
X462235Y120236D01*
X462354Y120339D01*
X462457Y120458D01*
X462539Y120593D01*
X462599Y120738D01*
X462636Y120891D01*
X462645Y121048D01*
Y121750D01*
X463688D01*
X463754Y121642D01*
X464163Y121163D01*
X464642Y120754D01*
X465178Y120425D01*
X465760Y120184D01*
X466372Y120037D01*
X467000Y119988D01*
X467628Y120037D01*
X468240Y120184D01*
X468822Y120425D01*
X469358Y120754D01*
X469837Y121163D01*
X470246Y121642D01*
X470575Y122178D01*
X470816Y122760D01*
X470963Y123372D01*
X471000Y124000D01*
X470963Y124628D01*
X470816Y125240D01*
X470575Y125822D01*
X470246Y126358D01*
X469837Y126837D01*
X469358Y127246D01*
X468822Y127575D01*
X468240Y127816D01*
X467628Y127963D01*
X467157Y128000D01*
X492770D01*
Y86286D01*
X492702Y86272D01*
X492629Y86245D01*
X492560Y86206D01*
X492498Y86157D01*
X492445Y86099D01*
X492402Y86034D01*
X492370Y85962D01*
X492294Y85729D01*
X492240Y85489D01*
X492208Y85245D01*
X492197Y85000D01*
X492208Y84755D01*
X492240Y84511D01*
X492294Y84271D01*
X492368Y84037D01*
X492400Y83965D01*
X492444Y83900D01*
X492497Y83841D01*
X492559Y83792D01*
X492628Y83754D01*
X492702Y83726D01*
X492770Y83712D01*
Y81177D01*
X489386D01*
X489151Y81163D01*
X488998Y81127D01*
X486433D01*
X486308Y81119D01*
X486186Y81090D01*
X486069Y81042D01*
X485962Y80976D01*
X485866Y80894D01*
X485784Y80798D01*
X485718Y80691D01*
X485670Y80574D01*
X485641Y80452D01*
X485633Y80327D01*
Y79028D01*
X485641Y78902D01*
X485670Y78780D01*
X485718Y78663D01*
X485746Y78618D01*
X485293D01*
X485274Y78939D01*
X485171Y79368D01*
X485003Y79775D01*
X484772Y80151D01*
X484486Y80486D01*
X484151Y80772D01*
X483775Y81003D01*
X483368Y81171D01*
X482939Y81274D01*
X482500Y81309D01*
X482061Y81274D01*
X481632Y81171D01*
X481225Y81003D01*
X480849Y80772D01*
X480514Y80486D01*
X480228Y80151D01*
X479997Y79775D01*
X479829Y79368D01*
X479726Y78939D01*
X479691Y78500D01*
X479726Y78061D01*
X479829Y77632D01*
X479997Y77225D01*
X480228Y76849D01*
X480366Y76688D01*
X480289Y76734D01*
X480071Y76825D01*
X479842Y76880D01*
X479841Y76880D01*
X479606Y76898D01*
X479548Y76894D01*
X471745D01*
Y76969D01*
X471737Y77092D01*
X471708Y77213D01*
X471661Y77327D01*
X471620Y77394D01*
X471661Y77460D01*
X471708Y77575D01*
X471737Y77695D01*
X471745Y77819D01*
Y80969D01*
X471737Y81092D01*
X471708Y81213D01*
X471661Y81327D01*
X471596Y81433D01*
X471516Y81527D01*
X471421Y81607D01*
X471316Y81672D01*
X471201Y81720D01*
X471081Y81749D01*
X470957Y81756D01*
X463477D01*
X463353Y81749D01*
X463233Y81720D01*
X463118Y81672D01*
X463013Y81607D01*
X462918Y81527D01*
X462838Y81433D01*
X462773Y81327D01*
X462726Y81213D01*
X462697Y81092D01*
X462690Y80969D01*
Y77819D01*
X462697Y77695D01*
X462726Y77575D01*
X462773Y77460D01*
X462814Y77394D01*
X462773Y77327D01*
X462726Y77213D01*
X462697Y77092D01*
X462690Y76969D01*
Y73819D01*
X462697Y73695D01*
X462726Y73575D01*
X462773Y73460D01*
X462814Y73394D01*
X462773Y73327D01*
X462726Y73213D01*
X462697Y73092D01*
X462690Y72969D01*
Y69819D01*
X462697Y69695D01*
X462726Y69575D01*
X462773Y69460D01*
X462814Y69394D01*
X462773Y69327D01*
X462726Y69213D01*
X462697Y69092D01*
X462690Y68969D01*
Y65819D01*
X462697Y65695D01*
X462726Y65575D01*
X462773Y65460D01*
X462814Y65394D01*
X462773Y65327D01*
X462726Y65213D01*
X462697Y65092D01*
X462690Y64969D01*
Y61819D01*
X462697Y61695D01*
X462726Y61575D01*
X462773Y61460D01*
X462814Y61394D01*
X462773Y61327D01*
X462726Y61213D01*
X462697Y61092D01*
X462690Y60969D01*
Y57819D01*
X462697Y57695D01*
X462726Y57575D01*
X462773Y57460D01*
X462814Y57394D01*
X462773Y57327D01*
X462726Y57213D01*
X462697Y57092D01*
X462690Y56969D01*
Y53819D01*
X462697Y53695D01*
X462726Y53575D01*
X462773Y53460D01*
X462814Y53394D01*
X462773Y53327D01*
X462726Y53213D01*
X462697Y53092D01*
X462690Y52969D01*
Y49819D01*
X462697Y49695D01*
X462726Y49575D01*
X462773Y49460D01*
X462814Y49394D01*
X462773Y49327D01*
X462726Y49213D01*
X462697Y49092D01*
X462690Y48969D01*
Y45819D01*
X462697Y45695D01*
X462726Y45575D01*
X462773Y45460D01*
X462814Y45394D01*
X462773Y45327D01*
X462726Y45213D01*
X462697Y45092D01*
X462690Y44969D01*
Y41819D01*
X462697Y41695D01*
X462726Y41575D01*
X462773Y41460D01*
X462838Y41355D01*
X462918Y41260D01*
X463013Y41180D01*
X463118Y41115D01*
X463233Y41068D01*
X463353Y41039D01*
X463477Y41031D01*
X465717D01*
Y32842D01*
X465712Y32783D01*
X465731Y32548D01*
X465786Y32318D01*
X465876Y32100D01*
X466000Y31899D01*
X466153Y31719D01*
X466198Y31681D01*
X469398Y28481D01*
X469436Y28436D01*
X469615Y28283D01*
X469616Y28283D01*
X469817Y28159D01*
X470035Y28069D01*
X470265Y28014D01*
X470500Y27995D01*
X470559Y28000D01*
X473048D01*
Y26941D01*
X473057Y26784D01*
X473094Y26631D01*
X473154Y26486D01*
X473236Y26351D01*
X473339Y26232D01*
X473458Y26129D01*
X473593Y26047D01*
X473738Y25987D01*
X473891Y25950D01*
X474048Y25941D01*
X479952D01*
X480109Y25950D01*
X480262Y25987D01*
X480407Y26047D01*
X480542Y26129D01*
X480661Y26232D01*
X480764Y26351D01*
X480846Y26486D01*
X480906Y26631D01*
X480943Y26784D01*
X480952Y26941D01*
Y32059D01*
X480943Y32216D01*
X480906Y32369D01*
X480846Y32514D01*
X480764Y32649D01*
X480661Y32768D01*
X480542Y32871D01*
X480407Y32953D01*
X480262Y33013D01*
X480137Y33043D01*
X480262Y33073D01*
X480407Y33133D01*
X480542Y33215D01*
X480661Y33318D01*
X480764Y33437D01*
X480846Y33572D01*
X480906Y33717D01*
X480943Y33870D01*
X480952Y34027D01*
Y39145D01*
X480943Y39302D01*
X480906Y39455D01*
X480846Y39600D01*
X480764Y39735D01*
X480661Y39854D01*
X480542Y39957D01*
X480407Y40039D01*
X480262Y40099D01*
X480109Y40136D01*
X479952Y40145D01*
X478500D01*
Y41292D01*
X478822Y41425D01*
X479358Y41754D01*
X479837Y42163D01*
X480246Y42642D01*
X480575Y43178D01*
X480816Y43760D01*
X480963Y44372D01*
X481000Y45000D01*
X480963Y45628D01*
X480816Y46240D01*
X480575Y46822D01*
X480246Y47358D01*
X479837Y47837D01*
X479358Y48246D01*
X479250Y48312D01*
Y48412D01*
X479257Y48500D01*
X479229Y48853D01*
X479229Y48853D01*
X479146Y49197D01*
X479122Y49257D01*
X480398Y47981D01*
X480436Y47936D01*
X480616Y47783D01*
X480817Y47659D01*
X481035Y47569D01*
X481265Y47514D01*
X481500Y47495D01*
X481559Y47500D01*
X485629D01*
X485575Y47369D01*
X485542Y47232D01*
X485533Y47091D01*
Y45792D01*
X485542Y45650D01*
X485575Y45513D01*
X485629Y45382D01*
X485703Y45261D01*
X485788Y45162D01*
X485703Y45062D01*
X485629Y44941D01*
X485575Y44810D01*
X485542Y44673D01*
X485533Y44532D01*
Y43232D01*
X485542Y43091D01*
X485575Y42954D01*
X485629Y42823D01*
X485703Y42702D01*
X485788Y42603D01*
X485703Y42503D01*
X485629Y42382D01*
X485575Y42251D01*
X485542Y42114D01*
X485533Y41973D01*
Y40674D01*
X485542Y40532D01*
X485575Y40395D01*
X485629Y40264D01*
X485703Y40143D01*
X485795Y40035D01*
X485903Y39943D01*
X486024Y39869D01*
X486155Y39815D01*
X486292Y39782D01*
X486433Y39774D01*
X492338D01*
X492480Y39782D01*
X492617Y39815D01*
X492637Y39823D01*
X492770D01*
Y36786D01*
X492702Y36772D01*
X492629Y36745D01*
X492560Y36706D01*
X492498Y36657D01*
X492445Y36599D01*
X492402Y36534D01*
X492370Y36462D01*
X492294Y36229D01*
X492240Y35989D01*
X492208Y35745D01*
X492197Y35500D01*
X492208Y35255D01*
X492240Y35011D01*
X492294Y34771D01*
X492368Y34537D01*
X492400Y34465D01*
X492444Y34400D01*
X492497Y34341D01*
X492559Y34292D01*
X492628Y34254D01*
X492702Y34226D01*
X492770Y34212D01*
Y0D01*
X447976D01*
Y86000D01*
X454941D01*
X455000Y85995D01*
X455235Y86014D01*
X455235Y86014D01*
X455465Y86069D01*
X455683Y86159D01*
X455884Y86283D01*
X456064Y86436D01*
X456217Y86616D01*
X456341Y86817D01*
X456431Y87035D01*
X456486Y87265D01*
X456505Y87500D01*
X456500Y87559D01*
Y96836D01*
X458562Y98898D01*
X462952D01*
X463109Y98907D01*
X463262Y98944D01*
X463407Y99004D01*
X463542Y99086D01*
X463661Y99189D01*
X463764Y99308D01*
X463846Y99443D01*
X463906Y99588D01*
X463943Y99741D01*
X463952Y99898D01*
Y105016D01*
X463943Y105173D01*
X463906Y105326D01*
X463846Y105471D01*
X463764Y105606D01*
X463661Y105725D01*
X463542Y105828D01*
X463407Y105910D01*
X463262Y105970D01*
X463137Y106000D01*
X463262Y106030D01*
X463407Y106090D01*
X463542Y106172D01*
X463661Y106275D01*
X463764Y106394D01*
X463846Y106529D01*
X463906Y106674D01*
X463943Y106827D01*
X463952Y106984D01*
Y112102D01*
X463943Y112259D01*
X463906Y112412D01*
X463846Y112557D01*
X463764Y112692D01*
X463661Y112811D01*
X463542Y112914D01*
X463407Y112996D01*
X463262Y113056D01*
X463109Y113093D01*
X462952Y113102D01*
X457048D01*
X456891Y113093D01*
X456738Y113056D01*
X456593Y112996D01*
X456458Y112914D01*
X456339Y112811D01*
X456236Y112692D01*
X456154Y112557D01*
X456094Y112412D01*
X456057Y112259D01*
X456048Y112102D01*
Y111043D01*
X454495D01*
Y112102D01*
X454486Y112259D01*
X454449Y112412D01*
X454389Y112557D01*
X454307Y112692D01*
X454204Y112811D01*
X454085Y112914D01*
X453950Y112996D01*
X453805Y113056D01*
X453652Y113093D01*
X453495Y113102D01*
X450166D01*
X447976Y115292D01*
Y128000D01*
X466843D01*
X466372Y127963D01*
X465760Y127816D01*
X465178Y127575D01*
X464642Y127246D01*
X464163Y126837D01*
X463754Y126358D01*
X463688Y126250D01*
X462645D01*
Y126952D01*
X462636Y127109D01*
X462599Y127262D01*
X462539Y127407D01*
X462457Y127542D01*
X462354Y127661D01*
X462235Y127764D01*
X462100Y127846D01*
X461955Y127906D01*
X461802Y127943D01*
X461645Y127952D01*
G37*
G36*
X447976Y89000D02*X446365D01*
X446272Y89151D01*
X446095Y89358D01*
X446162Y89354D01*
X447976D01*
Y89000D01*
G37*
G36*
X442926Y108360D02*X442965Y108369D01*
X443183Y108459D01*
X443384Y108583D01*
X443564Y108736D01*
X443717Y108916D01*
X443841Y109117D01*
X443931Y109335D01*
X443986Y109565D01*
X444000Y109800D01*
Y112050D01*
X444854D01*
X446591Y110313D01*
Y106984D01*
X446600Y106827D01*
X446637Y106674D01*
X446697Y106529D01*
X446779Y106394D01*
X446882Y106275D01*
X447001Y106172D01*
X447136Y106090D01*
X447281Y106030D01*
X447434Y105993D01*
X447591Y105984D01*
X447976D01*
Y98409D01*
X446162D01*
X446038Y98402D01*
X445918Y98373D01*
X445803Y98326D01*
X445737Y98285D01*
X445670Y98326D01*
X445556Y98373D01*
X445435Y98402D01*
X445312Y98409D01*
X442926D01*
Y108360D01*
G37*
G36*
Y128000D02*X447976D01*
Y115292D01*
X447439Y115829D01*
X447382Y115896D01*
X447113Y116126D01*
X446811Y116311D01*
X446483Y116446D01*
X446139Y116529D01*
X446139Y116529D01*
X445786Y116557D01*
X445698Y116550D01*
X444000D01*
Y118800D01*
X443986Y119035D01*
X443931Y119265D01*
X443841Y119483D01*
X443717Y119684D01*
X443564Y119864D01*
X443384Y120017D01*
X443183Y120141D01*
X442965Y120231D01*
X442926Y120240D01*
Y121103D01*
X442930Y121105D01*
X443033Y121164D01*
X443125Y121238D01*
X443204Y121325D01*
X443266Y121425D01*
X443511Y121912D01*
X443705Y122422D01*
X443852Y122948D01*
X443951Y123484D01*
X444000Y124027D01*
Y124573D01*
X443951Y125116D01*
X443852Y125652D01*
X443705Y126178D01*
X443511Y126688D01*
X443272Y127178D01*
X443208Y127278D01*
X443128Y127366D01*
X443035Y127440D01*
X442932Y127499D01*
X442926Y127502D01*
Y128000D01*
G37*
G36*
X447976Y0D02*X442926D01*
Y84914D01*
X443132Y84829D01*
X443561Y84726D01*
X444000Y84691D01*
X444439Y84726D01*
X444868Y84829D01*
X445275Y84997D01*
X445651Y85228D01*
X445986Y85514D01*
X446272Y85849D01*
X446365Y86000D01*
X447976D01*
Y0D01*
G37*
G36*
X433074Y128000D02*X442926D01*
Y127502D01*
X442821Y127542D01*
X442705Y127566D01*
X442587Y127572D01*
X442468Y127560D01*
X442354Y127529D01*
X442245Y127480D01*
X442146Y127415D01*
X442058Y127335D01*
X441983Y127243D01*
X441924Y127140D01*
X441882Y127029D01*
X441857Y126913D01*
X441851Y126794D01*
X441864Y126676D01*
X441895Y126561D01*
X441946Y126454D01*
X442129Y126089D01*
X442274Y125707D01*
X442384Y125313D01*
X442458Y124911D01*
X442495Y124504D01*
Y124096D01*
X442458Y123689D01*
X442384Y123287D01*
X442274Y122893D01*
X442129Y122511D01*
X441950Y122144D01*
X441900Y122037D01*
X441869Y121923D01*
X441856Y121806D01*
X441862Y121688D01*
X441886Y121572D01*
X441928Y121462D01*
X441987Y121360D01*
X442061Y121268D01*
X442149Y121189D01*
X442248Y121124D01*
X442355Y121076D01*
X442469Y121045D01*
X442587Y121032D01*
X442705Y121038D01*
X442820Y121063D01*
X442926Y121103D01*
Y120240D01*
X442735Y120286D01*
X442500Y120300D01*
X440964D01*
X440943Y120317D01*
X440840Y120376D01*
X440729Y120418D01*
X440613Y120443D01*
X440494Y120449D01*
X440376Y120436D01*
X440261Y120405D01*
X440154Y120354D01*
X440046Y120300D01*
X435947D01*
X435844Y120350D01*
X435737Y120400D01*
X435623Y120431D01*
X435506Y120444D01*
X435388Y120438D01*
X435272Y120414D01*
X435162Y120372D01*
X435060Y120313D01*
X435044Y120300D01*
X433500D01*
X433265Y120286D01*
X433074Y120240D01*
Y121098D01*
X433179Y121058D01*
X433295Y121034D01*
X433413Y121028D01*
X433532Y121040D01*
X433646Y121071D01*
X433755Y121120D01*
X433854Y121185D01*
X433942Y121265D01*
X434017Y121357D01*
X434076Y121460D01*
X434118Y121571D01*
X434143Y121687D01*
X434149Y121806D01*
X434136Y121924D01*
X434105Y122039D01*
X434054Y122146D01*
X433871Y122511D01*
X433726Y122893D01*
X433616Y123287D01*
X433542Y123689D01*
X433505Y124096D01*
Y124504D01*
X433542Y124911D01*
X433616Y125313D01*
X433726Y125707D01*
X433871Y126089D01*
X434050Y126456D01*
X434100Y126563D01*
X434131Y126677D01*
X434144Y126794D01*
X434138Y126912D01*
X434114Y127028D01*
X434072Y127138D01*
X434013Y127240D01*
X433939Y127332D01*
X433851Y127411D01*
X433752Y127476D01*
X433645Y127524D01*
X433531Y127555D01*
X433413Y127568D01*
X433295Y127562D01*
X433180Y127537D01*
X433074Y127497D01*
Y128000D01*
G37*
G36*
X442926Y0D02*X433074D01*
Y89354D01*
X433312D01*
X433435Y89362D01*
X433556Y89391D01*
X433670Y89438D01*
X433737Y89479D01*
X433803Y89438D01*
X433918Y89391D01*
X434038Y89362D01*
X434162Y89354D01*
X437312D01*
X437435Y89362D01*
X437556Y89391D01*
X437670Y89438D01*
X437776Y89503D01*
X437870Y89583D01*
X437951Y89677D01*
X438015Y89783D01*
X438063Y89898D01*
X438092Y90018D01*
X438099Y90142D01*
Y97622D01*
X438092Y97746D01*
X438063Y97866D01*
X438015Y97981D01*
X437951Y98086D01*
X437870Y98181D01*
X437776Y98261D01*
X437670Y98326D01*
X437556Y98373D01*
X437435Y98402D01*
X437312Y98409D01*
X434162D01*
X434038Y98402D01*
X433918Y98373D01*
X433803Y98326D01*
X433737Y98285D01*
X433670Y98326D01*
X433556Y98373D01*
X433435Y98402D01*
X433312Y98409D01*
X433074D01*
Y108360D01*
X433265Y108314D01*
X433500Y108300D01*
X442500D01*
X442735Y108314D01*
X442926Y108360D01*
Y98409D01*
X442162D01*
X442038Y98402D01*
X441918Y98373D01*
X441803Y98326D01*
X441698Y98261D01*
X441603Y98181D01*
X441523Y98086D01*
X441458Y97981D01*
X441411Y97866D01*
X441382Y97746D01*
X441375Y97622D01*
Y90142D01*
X441382Y90018D01*
X441411Y89898D01*
X441458Y89783D01*
X441523Y89677D01*
X441603Y89583D01*
X441698Y89503D01*
X441803Y89438D01*
X441918Y89391D01*
X441930Y89388D01*
X441728Y89151D01*
X441497Y88775D01*
X441329Y88368D01*
X441226Y87939D01*
X441191Y87500D01*
X441226Y87061D01*
X441329Y86632D01*
X441497Y86225D01*
X441728Y85849D01*
X442014Y85514D01*
X442349Y85228D01*
X442725Y84997D01*
X442926Y84914D01*
Y0D01*
G37*
G36*
X433074Y98409D02*X430162D01*
X430038Y98402D01*
X429918Y98373D01*
X429803Y98326D01*
X429737Y98285D01*
X429670Y98326D01*
X429556Y98373D01*
X429435Y98402D01*
X429312Y98409D01*
X429237D01*
Y114704D01*
X429241Y114763D01*
X429223Y114998D01*
X429223Y114999D01*
X429168Y115228D01*
X429077Y115446D01*
X428954Y115648D01*
X428801Y115827D01*
X428756Y115866D01*
X426602Y118019D01*
X426564Y118064D01*
X426384Y118217D01*
X426183Y118341D01*
X425965Y118431D01*
X425735Y118486D01*
X425735Y118486D01*
X425500Y118505D01*
X425441Y118500D01*
X409225D01*
Y128000D01*
X433074D01*
Y127497D01*
X433070Y127495D01*
X432967Y127436D01*
X432875Y127362D01*
X432796Y127275D01*
X432734Y127175D01*
X432489Y126688D01*
X432295Y126178D01*
X432148Y125652D01*
X432049Y125116D01*
X432000Y124573D01*
Y124027D01*
X432049Y123484D01*
X432148Y122948D01*
X432295Y122422D01*
X432489Y121912D01*
X432728Y121422D01*
X432792Y121322D01*
X432872Y121234D01*
X432965Y121160D01*
X433068Y121101D01*
X433074Y121098D01*
Y120240D01*
X433035Y120231D01*
X432817Y120141D01*
X432616Y120017D01*
X432436Y119864D01*
X432283Y119684D01*
X432159Y119483D01*
X432069Y119265D01*
X432014Y119035D01*
X432000Y118800D01*
Y109800D01*
X432014Y109565D01*
X432069Y109335D01*
X432159Y109117D01*
X432283Y108916D01*
X432436Y108736D01*
X432616Y108583D01*
X432817Y108459D01*
X433035Y108369D01*
X433074Y108360D01*
Y98409D01*
G37*
G36*
Y0D02*X409225D01*
Y33008D01*
X412965D01*
X413089Y33015D01*
X413209Y33044D01*
X413324Y33092D01*
X413429Y33156D01*
X413524Y33237D01*
X413604Y33331D01*
X413669Y33437D01*
X413716Y33551D01*
X413745Y33672D01*
X413752Y33795D01*
Y36945D01*
X413745Y37068D01*
X413716Y37189D01*
X413669Y37303D01*
X413628Y37370D01*
X413669Y37437D01*
X413716Y37551D01*
X413745Y37672D01*
X413752Y37795D01*
Y40945D01*
X413745Y41068D01*
X413716Y41189D01*
X413669Y41303D01*
X413628Y41370D01*
X413669Y41437D01*
X413716Y41551D01*
X413745Y41672D01*
X413752Y41795D01*
Y44945D01*
X413745Y45068D01*
X413716Y45189D01*
X413669Y45303D01*
X413628Y45370D01*
X413669Y45437D01*
X413716Y45551D01*
X413745Y45672D01*
X413752Y45795D01*
Y48945D01*
X413745Y49068D01*
X413716Y49189D01*
X413669Y49303D01*
X413604Y49409D01*
X413524Y49503D01*
X413429Y49584D01*
X413324Y49649D01*
X413209Y49696D01*
X413089Y49725D01*
X412965Y49732D01*
X409225D01*
Y53008D01*
X412965D01*
X413089Y53015D01*
X413209Y53044D01*
X413324Y53092D01*
X413429Y53156D01*
X413524Y53237D01*
X413604Y53331D01*
X413669Y53437D01*
X413716Y53551D01*
X413745Y53672D01*
X413752Y53795D01*
Y56945D01*
X413745Y57068D01*
X413716Y57189D01*
X413669Y57303D01*
X413604Y57409D01*
X413524Y57503D01*
X413429Y57584D01*
X413324Y57649D01*
X413209Y57696D01*
X413089Y57725D01*
X412965Y57732D01*
X409225D01*
Y69008D01*
X412965D01*
X413089Y69015D01*
X413209Y69044D01*
X413324Y69092D01*
X413429Y69156D01*
X413524Y69237D01*
X413604Y69331D01*
X413669Y69437D01*
X413716Y69551D01*
X413745Y69672D01*
X413752Y69795D01*
Y72945D01*
X413745Y73068D01*
X413716Y73189D01*
X413669Y73303D01*
X413628Y73370D01*
X413669Y73437D01*
X413716Y73551D01*
X413745Y73672D01*
X413752Y73795D01*
Y76945D01*
X413745Y77068D01*
X413716Y77189D01*
X413669Y77303D01*
X413628Y77370D01*
X413669Y77437D01*
X413716Y77551D01*
X413745Y77672D01*
X413752Y77795D01*
Y80945D01*
X413745Y81068D01*
X413716Y81189D01*
X413669Y81303D01*
X413628Y81370D01*
X413669Y81437D01*
X413716Y81551D01*
X413745Y81672D01*
X413752Y81795D01*
Y84945D01*
X413745Y85068D01*
X413716Y85189D01*
X413669Y85303D01*
X413604Y85409D01*
X413524Y85503D01*
X413429Y85584D01*
X413324Y85649D01*
X413209Y85696D01*
X413089Y85725D01*
X412965Y85732D01*
X409225D01*
Y107500D01*
X420879D01*
X422237Y106142D01*
Y98409D01*
X422162D01*
X422038Y98402D01*
X421918Y98373D01*
X421803Y98326D01*
X421737Y98285D01*
X421670Y98326D01*
X421556Y98373D01*
X421435Y98402D01*
X421312Y98409D01*
X421274D01*
X421265Y98417D01*
X418933Y100749D01*
X418963Y100872D01*
X419000Y101500D01*
X418963Y102128D01*
X418816Y102740D01*
X418575Y103322D01*
X418246Y103858D01*
X417837Y104337D01*
X417358Y104746D01*
X416822Y105075D01*
X416240Y105316D01*
X415628Y105463D01*
X415000Y105512D01*
X414372Y105463D01*
X413760Y105316D01*
X413178Y105075D01*
X412642Y104746D01*
X412163Y104337D01*
X411754Y103858D01*
X411425Y103322D01*
X411184Y102740D01*
X411037Y102128D01*
X410988Y101500D01*
X411037Y100872D01*
X411184Y100260D01*
X411425Y99678D01*
X411754Y99142D01*
X412163Y98663D01*
X412642Y98254D01*
X413178Y97925D01*
X413760Y97684D01*
X414372Y97537D01*
X415000Y97488D01*
X415628Y97537D01*
X415751Y97567D01*
X417375Y95943D01*
Y90142D01*
X417382Y90018D01*
X417411Y89898D01*
X417458Y89783D01*
X417523Y89677D01*
X417603Y89583D01*
X417698Y89503D01*
X417803Y89438D01*
X417918Y89391D01*
X418038Y89362D01*
X418162Y89354D01*
X421312D01*
X421435Y89362D01*
X421556Y89391D01*
X421670Y89438D01*
X421737Y89479D01*
X421803Y89438D01*
X421918Y89391D01*
X422038Y89362D01*
X422162Y89354D01*
X425312D01*
X425435Y89362D01*
X425556Y89391D01*
X425670Y89438D01*
X425737Y89479D01*
X425803Y89438D01*
X425918Y89391D01*
X426038Y89362D01*
X426162Y89354D01*
X429312D01*
X429435Y89362D01*
X429556Y89391D01*
X429670Y89438D01*
X429737Y89479D01*
X429803Y89438D01*
X429918Y89391D01*
X430038Y89362D01*
X430162Y89354D01*
X433074D01*
Y0D01*
G37*
G36*
X404697Y56945D02*Y53795D01*
X404705Y53672D01*
X404734Y53551D01*
X404781Y53437D01*
X404846Y53331D01*
X404926Y53237D01*
X405021Y53156D01*
X405126Y53092D01*
X405241Y53044D01*
X405361Y53015D01*
X405485Y53008D01*
X409225D01*
Y49732D01*
X405485D01*
X405361Y49725D01*
X405241Y49696D01*
X405126Y49649D01*
X405021Y49584D01*
X404926Y49503D01*
X404846Y49409D01*
X404781Y49303D01*
X404734Y49189D01*
X404705Y49068D01*
X404697Y48945D01*
Y45795D01*
X404705Y45672D01*
X404734Y45551D01*
X404781Y45437D01*
X404822Y45370D01*
X404781Y45303D01*
X404734Y45189D01*
X404705Y45068D01*
X404697Y44945D01*
Y41795D01*
X404705Y41672D01*
X404734Y41551D01*
X404781Y41437D01*
X404822Y41370D01*
X404781Y41303D01*
X404734Y41189D01*
X404705Y41068D01*
X404697Y40945D01*
Y37795D01*
X404700Y37750D01*
X403812D01*
X403746Y37858D01*
X403337Y38337D01*
X402858Y38746D01*
X402322Y39075D01*
X401740Y39316D01*
X401128Y39463D01*
X400500Y39512D01*
X399872Y39463D01*
X399260Y39316D01*
X398939Y39183D01*
X395500Y42621D01*
Y52355D01*
X396952D01*
X397109Y52364D01*
X397262Y52401D01*
X397407Y52461D01*
X397542Y52543D01*
X397661Y52646D01*
X397764Y52765D01*
X397846Y52900D01*
X397906Y53045D01*
X397943Y53198D01*
X397952Y53355D01*
Y58473D01*
X397943Y58630D01*
X397906Y58783D01*
X397846Y58928D01*
X397764Y59063D01*
X397661Y59182D01*
X397542Y59285D01*
X397407Y59367D01*
X397262Y59427D01*
X397137Y59457D01*
X397262Y59487D01*
X397407Y59547D01*
X397542Y59629D01*
X397661Y59732D01*
X397764Y59851D01*
X397846Y59986D01*
X397906Y60131D01*
X397943Y60284D01*
X397952Y60441D01*
Y65559D01*
X397943Y65716D01*
X397906Y65869D01*
X397846Y66014D01*
X397764Y66149D01*
X397661Y66268D01*
X397542Y66371D01*
X397407Y66453D01*
X397262Y66513D01*
X397109Y66550D01*
X396952Y66559D01*
X395500D01*
Y67941D01*
X396952D01*
X397109Y67950D01*
X397262Y67987D01*
X397407Y68047D01*
X397542Y68129D01*
X397661Y68232D01*
X397764Y68351D01*
X397846Y68486D01*
X397906Y68631D01*
X397943Y68784D01*
X397952Y68941D01*
Y70000D01*
X399635D01*
X399728Y69849D01*
X400014Y69514D01*
X400349Y69228D01*
X400725Y68997D01*
X401132Y68829D01*
X401561Y68726D01*
X402000Y68691D01*
X402439Y68726D01*
X402868Y68829D01*
X403275Y68997D01*
X403651Y69228D01*
X403986Y69514D01*
X404272Y69849D01*
X404365Y70000D01*
X404697D01*
Y69795D01*
X404705Y69672D01*
X404734Y69551D01*
X404781Y69437D01*
X404846Y69331D01*
X404926Y69237D01*
X405021Y69156D01*
X405126Y69092D01*
X405241Y69044D01*
X405361Y69015D01*
X405485Y69008D01*
X409225D01*
Y57732D01*
X405485D01*
X405361Y57725D01*
X405241Y57696D01*
X405126Y57649D01*
X405021Y57584D01*
X404926Y57503D01*
X404846Y57409D01*
X404781Y57303D01*
X404734Y57189D01*
X404705Y57068D01*
X404697Y56945D01*
G37*
G36*
X409225Y0D02*X377500D01*
Y102318D01*
X380347Y99471D01*
X380404Y99404D01*
X380673Y99174D01*
X380673Y99174D01*
X380861Y99059D01*
X380975Y98989D01*
X381303Y98854D01*
X381647Y98771D01*
X381647D01*
X382000Y98743D01*
X382088Y98750D01*
X383441D01*
Y98048D01*
X383450Y97891D01*
X383487Y97738D01*
X383547Y97593D01*
X383629Y97458D01*
X383732Y97339D01*
X383851Y97236D01*
X383986Y97154D01*
X384131Y97094D01*
X384284Y97057D01*
X384441Y97048D01*
X389559D01*
X389716Y97057D01*
X389869Y97094D01*
X390014Y97154D01*
X390149Y97236D01*
X390268Y97339D01*
X390371Y97458D01*
X390453Y97593D01*
X390513Y97738D01*
X390543Y97863D01*
X390573Y97738D01*
X390633Y97593D01*
X390715Y97458D01*
X390818Y97339D01*
X390937Y97236D01*
X391072Y97154D01*
X391217Y97094D01*
X391370Y97057D01*
X391527Y97048D01*
X396645D01*
X396802Y97057D01*
X396955Y97094D01*
X397100Y97154D01*
X397235Y97236D01*
X397354Y97339D01*
X397457Y97458D01*
X397539Y97593D01*
X397599Y97738D01*
X397636Y97891D01*
X397645Y98048D01*
Y99500D01*
X398965D01*
Y99032D01*
X398974Y98875D01*
X399011Y98722D01*
X399071Y98577D01*
X399153Y98442D01*
X399256Y98323D01*
X399375Y98220D01*
X399510Y98138D01*
X399655Y98078D01*
X399808Y98041D01*
X399965Y98032D01*
X402917D01*
X403074Y98041D01*
X403227Y98078D01*
X403372Y98138D01*
X403507Y98220D01*
X403626Y98323D01*
X403729Y98442D01*
X403811Y98577D01*
X403871Y98722D01*
X403908Y98875D01*
X403917Y99032D01*
Y102968D01*
X403908Y103125D01*
X403871Y103278D01*
X403811Y103423D01*
X403729Y103558D01*
X403626Y103677D01*
X403507Y103780D01*
X403372Y103862D01*
X403227Y103922D01*
X403074Y103959D01*
X402917Y103968D01*
X399965D01*
X399808Y103959D01*
X399655Y103922D01*
X399510Y103862D01*
X399375Y103780D01*
X399256Y103677D01*
X399153Y103558D01*
X399071Y103423D01*
X399011Y103278D01*
X398974Y103125D01*
X398965Y102968D01*
Y102500D01*
X397645D01*
Y103952D01*
X397636Y104109D01*
X397599Y104262D01*
X397539Y104407D01*
X397457Y104542D01*
X397354Y104661D01*
X397235Y104764D01*
X397100Y104846D01*
X396955Y104906D01*
X396802Y104943D01*
X396645Y104952D01*
X391527D01*
X391370Y104943D01*
X391217Y104906D01*
X391072Y104846D01*
X390937Y104764D01*
X390818Y104661D01*
X390715Y104542D01*
X390633Y104407D01*
X390573Y104262D01*
X390543Y104137D01*
X390513Y104262D01*
X390453Y104407D01*
X390371Y104542D01*
X390268Y104661D01*
X390149Y104764D01*
X390014Y104846D01*
X389869Y104906D01*
X389716Y104943D01*
X389559Y104952D01*
X384441D01*
X384284Y104943D01*
X384131Y104906D01*
X383986Y104846D01*
X383851Y104764D01*
X383732Y104661D01*
X383629Y104542D01*
X383547Y104407D01*
X383487Y104262D01*
X383450Y104109D01*
X383441Y103952D01*
Y103250D01*
X382932D01*
X381250Y104932D01*
Y105688D01*
X381358Y105754D01*
X381837Y106163D01*
X382246Y106642D01*
X382312Y106750D01*
X383441D01*
Y106048D01*
X383450Y105891D01*
X383487Y105738D01*
X383547Y105593D01*
X383629Y105458D01*
X383732Y105339D01*
X383851Y105236D01*
X383986Y105154D01*
X384131Y105094D01*
X384284Y105057D01*
X384441Y105048D01*
X389559D01*
X389716Y105057D01*
X389869Y105094D01*
X390014Y105154D01*
X390149Y105236D01*
X390268Y105339D01*
X390371Y105458D01*
X390453Y105593D01*
X390513Y105738D01*
X390543Y105863D01*
X390573Y105738D01*
X390633Y105593D01*
X390715Y105458D01*
X390818Y105339D01*
X390937Y105236D01*
X391072Y105154D01*
X391217Y105094D01*
X391370Y105057D01*
X391527Y105048D01*
X396645D01*
X396802Y105057D01*
X396955Y105094D01*
X397100Y105154D01*
X397235Y105236D01*
X397354Y105339D01*
X397457Y105458D01*
X397539Y105593D01*
X397599Y105738D01*
X397636Y105891D01*
X397645Y106048D01*
Y107500D01*
X398965D01*
Y107032D01*
X398974Y106875D01*
X399011Y106722D01*
X399071Y106577D01*
X399153Y106442D01*
X399256Y106323D01*
X399375Y106220D01*
X399510Y106138D01*
X399655Y106078D01*
X399808Y106041D01*
X399965Y106032D01*
X402917D01*
X403074Y106041D01*
X403227Y106078D01*
X403372Y106138D01*
X403507Y106220D01*
X403626Y106323D01*
X403729Y106442D01*
X403811Y106577D01*
X403871Y106722D01*
X403908Y106875D01*
X403917Y107032D01*
Y110968D01*
X403908Y111125D01*
X403871Y111278D01*
X403811Y111423D01*
X403729Y111558D01*
X403626Y111677D01*
X403507Y111780D01*
X403372Y111862D01*
X403227Y111922D01*
X403074Y111959D01*
X402917Y111968D01*
X399965D01*
X399808Y111959D01*
X399655Y111922D01*
X399510Y111862D01*
X399375Y111780D01*
X399256Y111677D01*
X399153Y111558D01*
X399071Y111423D01*
X399011Y111278D01*
X398974Y111125D01*
X398965Y110968D01*
Y110500D01*
X397645D01*
Y111952D01*
X397636Y112109D01*
X397599Y112262D01*
X397539Y112407D01*
X397457Y112542D01*
X397354Y112661D01*
X397235Y112764D01*
X397100Y112846D01*
X396955Y112906D01*
X396802Y112943D01*
X396645Y112952D01*
X391527D01*
X391370Y112943D01*
X391217Y112906D01*
X391072Y112846D01*
X390937Y112764D01*
X390818Y112661D01*
X390715Y112542D01*
X390633Y112407D01*
X390573Y112262D01*
X390543Y112137D01*
X390513Y112262D01*
X390453Y112407D01*
X390371Y112542D01*
X390268Y112661D01*
X390149Y112764D01*
X390014Y112846D01*
X389869Y112906D01*
X389716Y112943D01*
X389559Y112952D01*
X384441D01*
X384284Y112943D01*
X384131Y112906D01*
X383986Y112846D01*
X383851Y112764D01*
X383732Y112661D01*
X383629Y112542D01*
X383547Y112407D01*
X383487Y112262D01*
X383450Y112109D01*
X383441Y111952D01*
Y111250D01*
X382312D01*
X382246Y111358D01*
X381837Y111837D01*
X381358Y112246D01*
X381250Y112312D01*
Y113068D01*
X382932Y114750D01*
X383398D01*
Y114048D01*
X383407Y113891D01*
X383444Y113738D01*
X383504Y113593D01*
X383586Y113458D01*
X383689Y113339D01*
X383808Y113236D01*
X383943Y113154D01*
X384088Y113094D01*
X384241Y113057D01*
X384398Y113048D01*
X389516D01*
X389673Y113057D01*
X389826Y113094D01*
X389971Y113154D01*
X390106Y113236D01*
X390225Y113339D01*
X390328Y113458D01*
X390410Y113593D01*
X390470Y113738D01*
X390500Y113863D01*
X390530Y113738D01*
X390590Y113593D01*
X390672Y113458D01*
X390775Y113339D01*
X390894Y113236D01*
X391029Y113154D01*
X391174Y113094D01*
X391327Y113057D01*
X391484Y113048D01*
X396602D01*
X396759Y113057D01*
X396912Y113094D01*
X397057Y113154D01*
X397192Y113236D01*
X397311Y113339D01*
X397414Y113458D01*
X397496Y113593D01*
X397556Y113738D01*
X397593Y113891D01*
X397602Y114048D01*
Y115500D01*
X398965D01*
Y115032D01*
X398974Y114875D01*
X399011Y114722D01*
X399071Y114577D01*
X399153Y114442D01*
X399256Y114323D01*
X399375Y114220D01*
X399510Y114138D01*
X399655Y114078D01*
X399808Y114041D01*
X399965Y114032D01*
X402917D01*
X403074Y114041D01*
X403227Y114078D01*
X403372Y114138D01*
X403507Y114220D01*
X403626Y114323D01*
X403729Y114442D01*
X403811Y114577D01*
X403871Y114722D01*
X403908Y114875D01*
X403917Y115032D01*
Y118968D01*
X403908Y119125D01*
X403871Y119278D01*
X403811Y119423D01*
X403729Y119558D01*
X403626Y119677D01*
X403507Y119780D01*
X403372Y119862D01*
X403227Y119922D01*
X403074Y119959D01*
X402917Y119968D01*
X399965D01*
X399808Y119959D01*
X399655Y119922D01*
X399510Y119862D01*
X399375Y119780D01*
X399256Y119677D01*
X399153Y119558D01*
X399071Y119423D01*
X399011Y119278D01*
X398974Y119125D01*
X398965Y118968D01*
Y118500D01*
X397602D01*
Y119952D01*
X397593Y120109D01*
X397556Y120262D01*
X397496Y120407D01*
X397414Y120542D01*
X397311Y120661D01*
X397192Y120764D01*
X397057Y120846D01*
X396912Y120906D01*
X396759Y120943D01*
X396602Y120952D01*
X391484D01*
X391327Y120943D01*
X391174Y120906D01*
X391029Y120846D01*
X390894Y120764D01*
X390775Y120661D01*
X390672Y120542D01*
X390590Y120407D01*
X390530Y120262D01*
X390500Y120137D01*
X390470Y120262D01*
X390410Y120407D01*
X390328Y120542D01*
X390225Y120661D01*
X390106Y120764D01*
X389971Y120846D01*
X389826Y120906D01*
X389673Y120943D01*
X389516Y120952D01*
X384398D01*
X384241Y120943D01*
X384088Y120906D01*
X383943Y120846D01*
X383808Y120764D01*
X383689Y120661D01*
X383586Y120542D01*
X383504Y120407D01*
X383444Y120262D01*
X383407Y120109D01*
X383398Y119952D01*
Y119250D01*
X382088D01*
X382000Y119257D01*
X381647Y119229D01*
X381303Y119146D01*
X380975Y119011D01*
X380673Y118826D01*
X380673Y118826D01*
X380404Y118596D01*
X380347Y118529D01*
X377500Y115682D01*
Y128000D01*
X409225D01*
Y118500D01*
X409035D01*
Y118968D01*
X409026Y119125D01*
X408989Y119278D01*
X408929Y119423D01*
X408847Y119558D01*
X408744Y119677D01*
X408625Y119780D01*
X408490Y119862D01*
X408345Y119922D01*
X408192Y119959D01*
X408035Y119968D01*
X405083D01*
X404926Y119959D01*
X404773Y119922D01*
X404628Y119862D01*
X404493Y119780D01*
X404374Y119677D01*
X404271Y119558D01*
X404189Y119423D01*
X404129Y119278D01*
X404092Y119125D01*
X404083Y118968D01*
Y115032D01*
X404092Y114875D01*
X404129Y114722D01*
X404189Y114577D01*
X404271Y114442D01*
X404374Y114323D01*
X404493Y114220D01*
X404628Y114138D01*
X404773Y114078D01*
X404926Y114041D01*
X405083Y114032D01*
X408035D01*
X408192Y114041D01*
X408345Y114078D01*
X408490Y114138D01*
X408625Y114220D01*
X408744Y114323D01*
X408847Y114442D01*
X408929Y114577D01*
X408989Y114722D01*
X409026Y114875D01*
X409035Y115032D01*
Y115500D01*
X409225D01*
Y110500D01*
X409035D01*
Y110968D01*
X409026Y111125D01*
X408989Y111278D01*
X408929Y111423D01*
X408847Y111558D01*
X408744Y111677D01*
X408625Y111780D01*
X408490Y111862D01*
X408345Y111922D01*
X408192Y111959D01*
X408035Y111968D01*
X405083D01*
X404926Y111959D01*
X404773Y111922D01*
X404628Y111862D01*
X404493Y111780D01*
X404374Y111677D01*
X404271Y111558D01*
X404189Y111423D01*
X404129Y111278D01*
X404092Y111125D01*
X404083Y110968D01*
Y107032D01*
X404092Y106875D01*
X404129Y106722D01*
X404189Y106577D01*
X404271Y106442D01*
X404374Y106323D01*
X404493Y106220D01*
X404628Y106138D01*
X404773Y106078D01*
X404926Y106041D01*
X405083Y106032D01*
X408035D01*
X408192Y106041D01*
X408345Y106078D01*
X408490Y106138D01*
X408625Y106220D01*
X408744Y106323D01*
X408847Y106442D01*
X408929Y106577D01*
X408989Y106722D01*
X409026Y106875D01*
X409035Y107032D01*
Y107500D01*
X409225D01*
Y85732D01*
X408984D01*
X408059Y86657D01*
Y98033D01*
X408192Y98041D01*
X408345Y98078D01*
X408490Y98138D01*
X408625Y98220D01*
X408744Y98323D01*
X408847Y98442D01*
X408929Y98577D01*
X408989Y98722D01*
X409026Y98875D01*
X409035Y99032D01*
Y102968D01*
X409026Y103125D01*
X408989Y103278D01*
X408929Y103423D01*
X408847Y103558D01*
X408744Y103677D01*
X408625Y103780D01*
X408490Y103862D01*
X408345Y103922D01*
X408192Y103959D01*
X408035Y103968D01*
X405083D01*
X404926Y103959D01*
X404773Y103922D01*
X404628Y103862D01*
X404493Y103780D01*
X404374Y103677D01*
X404271Y103558D01*
X404189Y103423D01*
X404129Y103278D01*
X404092Y103125D01*
X404083Y102968D01*
Y99032D01*
X404092Y98875D01*
X404129Y98722D01*
X404189Y98577D01*
X404271Y98442D01*
X404374Y98323D01*
X404493Y98220D01*
X404628Y98138D01*
X404773Y98078D01*
X404926Y98041D01*
X405059Y98033D01*
Y86095D01*
X405054Y86036D01*
X405073Y85801D01*
X405112Y85640D01*
X405021Y85584D01*
X404926Y85503D01*
X404846Y85409D01*
X404781Y85303D01*
X404734Y85189D01*
X404705Y85068D01*
X404697Y84945D01*
Y81795D01*
X404705Y81672D01*
X404734Y81551D01*
X404781Y81437D01*
X404822Y81370D01*
X404781Y81303D01*
X404734Y81189D01*
X404705Y81068D01*
X404697Y80945D01*
Y77795D01*
X404705Y77672D01*
X404734Y77551D01*
X404781Y77437D01*
X404822Y77370D01*
X404781Y77303D01*
X404734Y77189D01*
X404705Y77068D01*
X404697Y76945D01*
Y73795D01*
X404705Y73672D01*
X404734Y73551D01*
X404781Y73437D01*
X404822Y73370D01*
X404781Y73303D01*
X404734Y73189D01*
X404705Y73068D01*
X404701Y73000D01*
X404365D01*
X404272Y73151D01*
X403986Y73486D01*
X403651Y73772D01*
X403275Y74003D01*
X402868Y74171D01*
X402439Y74274D01*
X402000Y74309D01*
X401561Y74274D01*
X401132Y74171D01*
X400725Y74003D01*
X400349Y73772D01*
X400014Y73486D01*
X399728Y73151D01*
X399635Y73000D01*
X397952D01*
Y74059D01*
X397943Y74216D01*
X397906Y74369D01*
X397846Y74514D01*
X397764Y74649D01*
X397661Y74768D01*
X397542Y74871D01*
X397407Y74953D01*
X397262Y75013D01*
X397109Y75050D01*
X396952Y75059D01*
X391048D01*
X390891Y75050D01*
X390738Y75013D01*
X390593Y74953D01*
X390458Y74871D01*
X390339Y74768D01*
X390236Y74649D01*
X390154Y74514D01*
X390094Y74369D01*
X390057Y74216D01*
X390048Y74059D01*
Y68941D01*
X390057Y68784D01*
X390094Y68631D01*
X390154Y68486D01*
X390236Y68351D01*
X390339Y68232D01*
X390458Y68129D01*
X390593Y68047D01*
X390738Y67987D01*
X390891Y67950D01*
X391048Y67941D01*
X392500D01*
Y66559D01*
X391048D01*
X390891Y66550D01*
X390738Y66513D01*
X390593Y66453D01*
X390458Y66371D01*
X390339Y66268D01*
X390236Y66149D01*
X390154Y66014D01*
X390094Y65869D01*
X390057Y65716D01*
X390048Y65559D01*
Y60441D01*
X390057Y60284D01*
X390094Y60131D01*
X390154Y59986D01*
X390236Y59851D01*
X390339Y59732D01*
X390458Y59629D01*
X390593Y59547D01*
X390738Y59487D01*
X390863Y59457D01*
X390738Y59427D01*
X390593Y59367D01*
X390458Y59285D01*
X390339Y59182D01*
X390236Y59063D01*
X390154Y58928D01*
X390094Y58783D01*
X390057Y58630D01*
X390048Y58473D01*
Y53355D01*
X390057Y53198D01*
X390094Y53045D01*
X390154Y52900D01*
X390236Y52765D01*
X390339Y52646D01*
X390458Y52543D01*
X390593Y52461D01*
X390738Y52401D01*
X390891Y52364D01*
X391048Y52355D01*
X392500D01*
Y42059D01*
X392495Y42000D01*
X392514Y41765D01*
X392569Y41535D01*
X392659Y41317D01*
X392783Y41116D01*
X392783Y41115D01*
X392936Y40936D01*
X392981Y40898D01*
X396817Y37061D01*
X396684Y36740D01*
X396537Y36128D01*
X396488Y35500D01*
X396537Y34872D01*
X396684Y34260D01*
X396925Y33678D01*
X397254Y33142D01*
X397663Y32663D01*
X398142Y32254D01*
X398678Y31925D01*
X399260Y31684D01*
X399872Y31537D01*
X400500Y31488D01*
X401128Y31537D01*
X401740Y31684D01*
X402322Y31925D01*
X402858Y32254D01*
X403337Y32663D01*
X403746Y33142D01*
X403812Y33250D01*
X404915D01*
X404926Y33237D01*
X405021Y33156D01*
X405126Y33092D01*
X405241Y33044D01*
X405361Y33015D01*
X405485Y33008D01*
X409225D01*
Y0D01*
G37*
G36*
X193000Y165000D02*X262000D01*
Y139000D01*
X193000D01*
Y165000D01*
G37*
G36*
X607751Y143500D02*X579000D01*
Y181500D01*
X582000D01*
X582235Y181514D01*
X582465Y181569D01*
X582683Y181659D01*
X582884Y181783D01*
X583064Y181936D01*
X583217Y182116D01*
X583341Y182317D01*
X583431Y182535D01*
X583486Y182765D01*
X583500Y183000D01*
Y189000D01*
X583486Y189235D01*
X583431Y189465D01*
X583341Y189683D01*
X583217Y189884D01*
X583064Y190064D01*
X582884Y190217D01*
X582683Y190341D01*
X582465Y190431D01*
X582235Y190486D01*
X582000Y190500D01*
X579000D01*
Y200000D01*
X625000D01*
Y187033D01*
X624940Y188049D01*
X624460Y190049D01*
X623673Y191948D01*
X622599Y193701D01*
X621264Y195264D01*
X619701Y196599D01*
X617948Y197673D01*
X616049Y198460D01*
X614049Y198940D01*
X612000Y199101D01*
X609951Y198940D01*
X607951Y198460D01*
X606052Y197673D01*
X604299Y196599D01*
X602736Y195264D01*
X601401Y193701D01*
X600327Y191948D01*
X599540Y190049D01*
X599060Y188049D01*
X598899Y186000D01*
X599060Y183951D01*
X599540Y181951D01*
X600327Y180052D01*
X601401Y178299D01*
X602736Y176736D01*
X604299Y175401D01*
X606052Y174327D01*
X607951Y173540D01*
X609951Y173060D01*
X612000Y172899D01*
X614049Y173060D01*
X616049Y173540D01*
X617948Y174327D01*
X619701Y175401D01*
X621264Y176736D01*
X622599Y178299D01*
X623673Y180052D01*
X624460Y181951D01*
X624940Y183951D01*
X625000Y184967D01*
Y104000D01*
X579000D01*
Y108925D01*
X607504D01*
X607514Y108765D01*
X607569Y108535D01*
X607659Y108317D01*
X607783Y108116D01*
X607936Y107936D01*
X608116Y107783D01*
X608317Y107659D01*
X608535Y107569D01*
X608765Y107514D01*
X609000Y107500D01*
X615000D01*
X615235Y107514D01*
X615465Y107569D01*
X615683Y107659D01*
X615884Y107783D01*
X616064Y107936D01*
X616217Y108116D01*
X616341Y108317D01*
X616431Y108535D01*
X616486Y108765D01*
X616500Y109000D01*
Y115000D01*
X616486Y115235D01*
X616431Y115465D01*
X616341Y115683D01*
X616217Y115884D01*
X616064Y116064D01*
X615884Y116217D01*
X615683Y116341D01*
X615465Y116431D01*
X615235Y116486D01*
X615000Y116500D01*
X609000D01*
X608765Y116486D01*
X608535Y116431D01*
X608317Y116341D01*
X608116Y116217D01*
X607936Y116064D01*
X607783Y115884D01*
X607659Y115683D01*
X607569Y115465D01*
X607514Y115235D01*
X607500Y115000D01*
Y111925D01*
X579000D01*
Y114384D01*
X579275Y114497D01*
X579651Y114728D01*
X579986Y115014D01*
X580272Y115349D01*
X580503Y115725D01*
X580671Y116132D01*
X580774Y116561D01*
X580800Y117000D01*
X580774Y117439D01*
X580671Y117868D01*
X580503Y118275D01*
X580272Y118651D01*
X579986Y118986D01*
X579651Y119272D01*
X579275Y119503D01*
X579000Y119616D01*
Y121524D01*
X607524D01*
X607542Y121294D01*
X607707Y120605D01*
X607978Y119951D01*
X608348Y119347D01*
X608808Y118808D01*
X609347Y118348D01*
X609951Y117978D01*
X610605Y117707D01*
X611294Y117542D01*
X612000Y117486D01*
X612706Y117542D01*
X613395Y117707D01*
X614049Y117978D01*
X614653Y118348D01*
X615192Y118808D01*
X615652Y119347D01*
X616022Y119951D01*
X616293Y120605D01*
X616458Y121294D01*
X616500Y122000D01*
X616458Y122706D01*
X616293Y123395D01*
X616022Y124049D01*
X615652Y124653D01*
X615192Y125192D01*
X614653Y125652D01*
X614049Y126022D01*
X613395Y126293D01*
X612706Y126458D01*
X612000Y126514D01*
X611294Y126458D01*
X610605Y126293D01*
X609951Y126022D01*
X609347Y125652D01*
X608808Y125192D01*
X608348Y124653D01*
X608269Y124524D01*
X579000D01*
Y129279D01*
X608406D01*
X608808Y128808D01*
X609347Y128348D01*
X609951Y127978D01*
X610605Y127707D01*
X611294Y127542D01*
X612000Y127486D01*
X612706Y127542D01*
X613395Y127707D01*
X614049Y127978D01*
X614653Y128348D01*
X615192Y128808D01*
X615652Y129347D01*
X616022Y129951D01*
X616293Y130605D01*
X616458Y131294D01*
X616500Y132000D01*
X616458Y132706D01*
X616293Y133395D01*
X616022Y134049D01*
X615652Y134653D01*
X615192Y135192D01*
X614653Y135652D01*
X614049Y136022D01*
X613395Y136293D01*
X612706Y136458D01*
X612000Y136514D01*
X611294Y136458D01*
X610605Y136293D01*
X609951Y136022D01*
X609347Y135652D01*
X608808Y135192D01*
X608348Y134653D01*
X607978Y134049D01*
X607707Y133395D01*
X607542Y132706D01*
X607508Y132279D01*
X579000D01*
Y140500D01*
X607751D01*
X607978Y139951D01*
X608348Y139347D01*
X608808Y138808D01*
X609347Y138348D01*
X609951Y137978D01*
X610605Y137707D01*
X611294Y137542D01*
X612000Y137486D01*
X612706Y137542D01*
X613395Y137707D01*
X614049Y137978D01*
X614653Y138348D01*
X615192Y138808D01*
X615652Y139347D01*
X616022Y139951D01*
X616293Y140605D01*
X616458Y141294D01*
X616500Y142000D01*
X616458Y142706D01*
X616293Y143395D01*
X616022Y144049D01*
X615652Y144653D01*
X615192Y145192D01*
X614653Y145652D01*
X614049Y146022D01*
X613395Y146293D01*
X612706Y146458D01*
X612000Y146514D01*
X611294Y146458D01*
X610605Y146293D01*
X609951Y146022D01*
X609347Y145652D01*
X608808Y145192D01*
X608348Y144653D01*
X607978Y144049D01*
X607751Y143500D01*
G37*
G36*
X579000Y132279D02*X560310D01*
Y133779D01*
X560296Y134014D01*
X560241Y134244D01*
X560151Y134462D01*
X560027Y134663D01*
X559874Y134843D01*
X559694Y134996D01*
X559493Y135120D01*
X559275Y135210D01*
X559045Y135265D01*
X558810Y135279D01*
X557236D01*
X557001Y135265D01*
X556771Y135210D01*
X556553Y135120D01*
X556500Y135087D01*
Y137379D01*
X559621Y140500D01*
X579000D01*
Y132279D01*
G37*
G36*
Y124524D02*X570101D01*
X569996Y124695D01*
X569843Y124875D01*
X569663Y125028D01*
X569462Y125152D01*
X569244Y125242D01*
X569014Y125297D01*
X568779Y125311D01*
X562779D01*
X562544Y125297D01*
X562314Y125242D01*
X562096Y125152D01*
X561895Y125028D01*
X561715Y124875D01*
X561562Y124695D01*
X561438Y124494D01*
X561348Y124276D01*
X561293Y124046D01*
X561279Y123811D01*
Y122237D01*
X561293Y122002D01*
X561348Y121772D01*
X561438Y121554D01*
X561503Y121449D01*
X561438Y121344D01*
X561348Y121126D01*
X561293Y120896D01*
X561279Y120661D01*
Y119087D01*
X561293Y118852D01*
X561348Y118622D01*
X561438Y118404D01*
X561502Y118300D01*
X561438Y118195D01*
X561348Y117977D01*
X561293Y117747D01*
X561279Y117512D01*
Y115938D01*
X561293Y115703D01*
X561348Y115473D01*
X561438Y115255D01*
X561503Y115150D01*
X561457Y115075D01*
X560796D01*
X560774Y115439D01*
X560671Y115868D01*
X560503Y116275D01*
X560272Y116651D01*
X559986Y116986D01*
X559651Y117272D01*
X559275Y117503D01*
X558868Y117671D01*
X558439Y117774D01*
X558000Y117809D01*
X557561Y117774D01*
X557132Y117671D01*
X556725Y117503D01*
X556349Y117272D01*
X556014Y116986D01*
X555728Y116651D01*
X555497Y116275D01*
X555329Y115868D01*
X555226Y115439D01*
X555191Y115000D01*
X555226Y114561D01*
X555329Y114132D01*
X555497Y113725D01*
X555728Y113349D01*
X556014Y113014D01*
X556349Y112728D01*
X556725Y112497D01*
X557132Y112329D01*
X557561Y112226D01*
X558000Y112191D01*
X558439Y112226D01*
X558667Y112281D01*
X558742Y112234D01*
X558960Y112144D01*
X559190Y112089D01*
X559425Y112070D01*
X559484Y112075D01*
X561457D01*
X561503Y112000D01*
X561438Y111895D01*
X561348Y111677D01*
X561293Y111447D01*
X561279Y111212D01*
Y109638D01*
X561293Y109403D01*
X561348Y109173D01*
X561438Y108955D01*
X561502Y108851D01*
X561438Y108746D01*
X561348Y108528D01*
X561293Y108298D01*
X561279Y108063D01*
Y106489D01*
X561293Y106254D01*
X561348Y106024D01*
X561438Y105806D01*
X561503Y105701D01*
X561438Y105596D01*
X561348Y105378D01*
X561293Y105148D01*
X561279Y104913D01*
Y104000D01*
X550575D01*
Y118323D01*
X550822Y118425D01*
X551358Y118754D01*
X551837Y119163D01*
X552246Y119642D01*
X552575Y120178D01*
X552816Y120760D01*
X552963Y121372D01*
X553000Y122000D01*
X552963Y122628D01*
X552865Y123036D01*
X553083Y123254D01*
X553143Y123305D01*
X553347Y123544D01*
X553347Y123545D01*
X553512Y123813D01*
X553632Y124104D01*
X553705Y124410D01*
X553730Y124724D01*
X553724Y124802D01*
Y126324D01*
X553852Y126293D01*
X554087Y126279D01*
X555661D01*
X555896Y126293D01*
X556126Y126348D01*
X556344Y126438D01*
X556449Y126502D01*
X556553Y126438D01*
X556771Y126348D01*
X557001Y126293D01*
X557236Y126279D01*
X558810D01*
X559045Y126293D01*
X559275Y126348D01*
X559493Y126438D01*
X559694Y126562D01*
X559874Y126715D01*
X560027Y126895D01*
X560151Y127096D01*
X560241Y127314D01*
X560296Y127544D01*
X560310Y127779D01*
Y129279D01*
X579000D01*
Y124524D01*
G37*
G36*
Y119616D02*X578868Y119671D01*
X578439Y119774D01*
X578000Y119809D01*
X577561Y119774D01*
X577132Y119671D01*
X576725Y119503D01*
X576349Y119272D01*
X576014Y118986D01*
X575728Y118651D01*
X575497Y118275D01*
X575477Y118225D01*
X575166D01*
X575272Y118349D01*
X575503Y118725D01*
X575671Y119132D01*
X575774Y119561D01*
X575800Y120000D01*
X575774Y120439D01*
X575671Y120868D01*
X575503Y121275D01*
X575350Y121524D01*
X579000D01*
Y119616D01*
G37*
G36*
Y111925D02*X570101D01*
X570055Y112000D01*
X570120Y112105D01*
X570210Y112323D01*
X570265Y112553D01*
X570279Y112788D01*
Y114362D01*
X570265Y114597D01*
X570210Y114827D01*
X570120Y115045D01*
X570055Y115150D01*
X570101Y115225D01*
X575834D01*
X576014Y115014D01*
X576349Y114728D01*
X576725Y114497D01*
X577132Y114329D01*
X577561Y114226D01*
X578000Y114191D01*
X578439Y114226D01*
X578868Y114329D01*
X579000Y114384D01*
Y111925D01*
G37*
G36*
Y104000D02*X570279D01*
Y104913D01*
X570265Y105148D01*
X570210Y105378D01*
X570120Y105596D01*
X570055Y105701D01*
X570120Y105806D01*
X570210Y106024D01*
X570265Y106254D01*
X570279Y106489D01*
Y108063D01*
X570265Y108298D01*
X570210Y108528D01*
X570120Y108746D01*
X570056Y108851D01*
X570101Y108925D01*
X579000D01*
Y104000D01*
G37*
G36*
Y143500D02*X568993D01*
Y181487D01*
X569000Y181486D01*
X569706Y181542D01*
X570395Y181707D01*
X571049Y181978D01*
X571653Y182348D01*
X572192Y182808D01*
X572652Y183347D01*
X573022Y183951D01*
X573293Y184605D01*
X573458Y185294D01*
X573500Y186000D01*
X573458Y186706D01*
X573293Y187395D01*
X573022Y188049D01*
X572652Y188653D01*
X572192Y189192D01*
X571653Y189652D01*
X571049Y190022D01*
X570395Y190293D01*
X569706Y190458D01*
X569000Y190514D01*
X568993Y190513D01*
Y200000D01*
X579000D01*
Y190500D01*
X576000D01*
X575765Y190486D01*
X575535Y190431D01*
X575317Y190341D01*
X575116Y190217D01*
X574936Y190064D01*
X574783Y189884D01*
X574659Y189683D01*
X574569Y189465D01*
X574514Y189235D01*
X574500Y189000D01*
Y183000D01*
X574514Y182765D01*
X574569Y182535D01*
X574659Y182317D01*
X574783Y182116D01*
X574936Y181936D01*
X575116Y181783D01*
X575317Y181659D01*
X575535Y181569D01*
X575765Y181514D01*
X576000Y181500D01*
X579000D01*
Y143500D01*
G37*
G36*
X568993D02*X562613D01*
Y183853D01*
X562656Y183860D01*
X562768Y183897D01*
X562873Y183952D01*
X562968Y184022D01*
X563051Y184106D01*
X563119Y184202D01*
X563170Y184308D01*
X563318Y184716D01*
X563422Y185137D01*
X563484Y185567D01*
X563505Y186000D01*
X563484Y186433D01*
X563422Y186863D01*
X563318Y187284D01*
X563175Y187694D01*
X563122Y187800D01*
X563053Y187896D01*
X562970Y187981D01*
X562875Y188051D01*
X562769Y188106D01*
X562657Y188143D01*
X562613Y188151D01*
Y200000D01*
X568993D01*
Y190513D01*
X568294Y190458D01*
X567605Y190293D01*
X566951Y190022D01*
X566347Y189652D01*
X565808Y189192D01*
X565348Y188653D01*
X564978Y188049D01*
X564707Y187395D01*
X564542Y186706D01*
X564486Y186000D01*
X564542Y185294D01*
X564707Y184605D01*
X564978Y183951D01*
X565348Y183347D01*
X565808Y182808D01*
X566347Y182348D01*
X566951Y181978D01*
X567605Y181707D01*
X568294Y181542D01*
X568993Y181487D01*
Y143500D01*
G37*
G36*
X562613D02*X559059D01*
X559002Y143504D01*
Y181495D01*
X559433Y181516D01*
X559863Y181578D01*
X560284Y181682D01*
X560694Y181825D01*
X560800Y181878D01*
X560896Y181947D01*
X560981Y182030D01*
X561051Y182125D01*
X561106Y182231D01*
X561143Y182343D01*
X561163Y182460D01*
X561164Y182579D01*
X561146Y182696D01*
X561110Y182809D01*
X561057Y182915D01*
X560988Y183012D01*
X560905Y183096D01*
X560809Y183167D01*
X560704Y183221D01*
X560592Y183259D01*
X560475Y183278D01*
X560356Y183279D01*
X560239Y183261D01*
X560126Y183223D01*
X559855Y183124D01*
X559575Y183056D01*
X559289Y183014D01*
X559002Y183000D01*
Y189000D01*
X559289Y188986D01*
X559575Y188944D01*
X559855Y188876D01*
X560128Y188780D01*
X560239Y188742D01*
X560356Y188725D01*
X560474Y188725D01*
X560591Y188745D01*
X560703Y188782D01*
X560807Y188836D01*
X560902Y188906D01*
X560985Y188991D01*
X561054Y189087D01*
X561107Y189192D01*
X561143Y189305D01*
X561160Y189421D01*
X561159Y189539D01*
X561140Y189656D01*
X561103Y189768D01*
X561048Y189873D01*
X560978Y189968D01*
X560894Y190051D01*
X560798Y190119D01*
X560692Y190170D01*
X560284Y190318D01*
X559863Y190422D01*
X559433Y190484D01*
X559002Y190505D01*
Y200000D01*
X562613D01*
Y188151D01*
X562540Y188163D01*
X562421Y188164D01*
X562304Y188146D01*
X562191Y188110D01*
X562085Y188057D01*
X561988Y187988D01*
X561904Y187905D01*
X561833Y187809D01*
X561779Y187704D01*
X561741Y187592D01*
X561722Y187475D01*
X561721Y187356D01*
X561739Y187239D01*
X561777Y187126D01*
X561876Y186855D01*
X561944Y186575D01*
X561986Y186289D01*
X562000Y186000D01*
X561986Y185711D01*
X561944Y185425D01*
X561876Y185145D01*
X561780Y184872D01*
X561742Y184761D01*
X561725Y184644D01*
X561725Y184526D01*
X561745Y184409D01*
X561782Y184297D01*
X561836Y184193D01*
X561906Y184098D01*
X561991Y184015D01*
X562087Y183946D01*
X562192Y183893D01*
X562305Y183857D01*
X562421Y183840D01*
X562539Y183841D01*
X562613Y183853D01*
Y143500D01*
G37*
G36*
X559002Y143504D02*X559000Y143505D01*
X558765Y143486D01*
X558535Y143431D01*
X558317Y143341D01*
X558116Y143217D01*
X558115Y143217D01*
X557936Y143064D01*
X557898Y143019D01*
X555387Y140508D01*
Y183849D01*
X555460Y183837D01*
X555579Y183836D01*
X555696Y183854D01*
X555809Y183890D01*
X555915Y183943D01*
X556012Y184012D01*
X556096Y184095D01*
X556167Y184191D01*
X556221Y184296D01*
X556259Y184408D01*
X556278Y184525D01*
X556279Y184644D01*
X556261Y184761D01*
X556223Y184874D01*
X556124Y185145D01*
X556056Y185425D01*
X556014Y185711D01*
X556000Y186000D01*
X556014Y186289D01*
X556056Y186575D01*
X556124Y186855D01*
X556220Y187128D01*
X556258Y187239D01*
X556275Y187356D01*
X556275Y187474D01*
X556255Y187591D01*
X556218Y187703D01*
X556164Y187807D01*
X556094Y187902D01*
X556009Y187985D01*
X555913Y188054D01*
X555808Y188107D01*
X555695Y188143D01*
X555579Y188160D01*
X555461Y188159D01*
X555387Y188147D01*
Y200000D01*
X559002D01*
Y190505D01*
X559000Y190505D01*
X558567Y190484D01*
X558137Y190422D01*
X557716Y190318D01*
X557306Y190175D01*
X557200Y190122D01*
X557104Y190053D01*
X557019Y189970D01*
X556949Y189875D01*
X556894Y189769D01*
X556857Y189657D01*
X556837Y189540D01*
X556836Y189421D01*
X556854Y189304D01*
X556890Y189191D01*
X556943Y189085D01*
X557012Y188988D01*
X557095Y188904D01*
X557191Y188833D01*
X557296Y188779D01*
X557408Y188741D01*
X557525Y188722D01*
X557644Y188721D01*
X557761Y188739D01*
X557874Y188777D01*
X558145Y188876D01*
X558425Y188944D01*
X558711Y188986D01*
X559000Y189000D01*
X559002Y189000D01*
Y183000D01*
X559000Y183000D01*
X558711Y183014D01*
X558425Y183056D01*
X558145Y183124D01*
X557872Y183220D01*
X557761Y183258D01*
X557644Y183275D01*
X557526Y183275D01*
X557409Y183255D01*
X557297Y183218D01*
X557193Y183164D01*
X557098Y183094D01*
X557015Y183009D01*
X556946Y182913D01*
X556893Y182808D01*
X556857Y182695D01*
X556840Y182579D01*
X556841Y182461D01*
X556860Y182344D01*
X556897Y182232D01*
X556952Y182127D01*
X557022Y182032D01*
X557106Y181949D01*
X557202Y181881D01*
X557308Y181830D01*
X557716Y181682D01*
X558137Y181578D01*
X558567Y181516D01*
X559000Y181495D01*
X559002Y181495D01*
Y143504D01*
G37*
G36*
X555387Y140508D02*X553981Y139102D01*
X553936Y139064D01*
X553783Y138884D01*
X553659Y138683D01*
X553569Y138465D01*
X553514Y138235D01*
X553514Y138235D01*
X553495Y138000D01*
X553500Y137941D01*
Y135159D01*
X553404Y135120D01*
X553299Y135055D01*
X553194Y135120D01*
X552976Y135210D01*
X552746Y135265D01*
X552511Y135279D01*
X550937D01*
X550702Y135265D01*
X550472Y135210D01*
X550254Y135120D01*
X550053Y134996D01*
X549873Y134843D01*
X549720Y134663D01*
X549596Y134462D01*
X549506Y134244D01*
X549451Y134014D01*
X549437Y133779D01*
Y127779D01*
X549451Y127544D01*
X549506Y127314D01*
X549596Y127096D01*
X549720Y126895D01*
X549724Y126890D01*
Y125940D01*
X549628Y125963D01*
X549000Y126012D01*
X548993Y126012D01*
Y144372D01*
X549249Y144478D01*
X549853Y144848D01*
X550392Y145308D01*
X550852Y145847D01*
X551222Y146451D01*
X551493Y147105D01*
X551658Y147794D01*
X551700Y148500D01*
X551658Y149206D01*
X551493Y149895D01*
X551265Y150444D01*
X552562Y151741D01*
X552607Y151779D01*
X552760Y151958D01*
X552760Y151959D01*
X552884Y152160D01*
X552974Y152378D01*
X553029Y152608D01*
X553048Y152843D01*
X553043Y152902D01*
Y159048D01*
X554102D01*
X554259Y159057D01*
X554412Y159094D01*
X554557Y159154D01*
X554692Y159236D01*
X554811Y159339D01*
X554914Y159458D01*
X554996Y159593D01*
X555056Y159738D01*
X555093Y159891D01*
X555102Y160048D01*
Y165952D01*
X555093Y166109D01*
X555056Y166262D01*
X554996Y166407D01*
X554914Y166542D01*
X554811Y166661D01*
X554692Y166764D01*
X554557Y166846D01*
X554412Y166906D01*
X554259Y166943D01*
X554102Y166952D01*
X548993D01*
Y181487D01*
X549000Y181486D01*
X549706Y181542D01*
X550395Y181707D01*
X551049Y181978D01*
X551653Y182348D01*
X552192Y182808D01*
X552652Y183347D01*
X553022Y183951D01*
X553293Y184605D01*
X553458Y185294D01*
X553500Y186000D01*
X553458Y186706D01*
X553293Y187395D01*
X553022Y188049D01*
X552652Y188653D01*
X552192Y189192D01*
X551653Y189652D01*
X551049Y190022D01*
X550395Y190293D01*
X549706Y190458D01*
X549000Y190514D01*
X548993Y190513D01*
Y200000D01*
X555387D01*
Y188147D01*
X555344Y188140D01*
X555232Y188103D01*
X555127Y188048D01*
X555032Y187978D01*
X554949Y187894D01*
X554881Y187798D01*
X554830Y187692D01*
X554682Y187284D01*
X554578Y186863D01*
X554516Y186433D01*
X554495Y186000D01*
X554516Y185567D01*
X554578Y185137D01*
X554682Y184716D01*
X554825Y184306D01*
X554878Y184200D01*
X554947Y184104D01*
X555030Y184019D01*
X555125Y183949D01*
X555231Y183894D01*
X555343Y183857D01*
X555387Y183849D01*
Y140508D01*
G37*
G36*
X548993Y166952D02*X548984D01*
X548827Y166943D01*
X548674Y166906D01*
X548529Y166846D01*
X548394Y166764D01*
X548275Y166661D01*
X548172Y166542D01*
X548090Y166407D01*
X548030Y166262D01*
X548000Y166137D01*
X547970Y166262D01*
X547910Y166407D01*
X547828Y166542D01*
X547725Y166661D01*
X547606Y166764D01*
X547471Y166846D01*
X547326Y166906D01*
X547173Y166943D01*
X547016Y166952D01*
X541898D01*
X541741Y166943D01*
X541588Y166906D01*
X541443Y166846D01*
X541308Y166764D01*
X541189Y166661D01*
X541086Y166542D01*
X541004Y166407D01*
X540944Y166262D01*
X540907Y166109D01*
X540898Y165952D01*
Y164500D01*
X540365D01*
X540272Y164651D01*
X539986Y164986D01*
X539651Y165272D01*
X539275Y165503D01*
X538868Y165671D01*
X538439Y165774D01*
X538000Y165809D01*
Y181612D01*
X538294Y181542D01*
X539000Y181486D01*
X539706Y181542D01*
X540395Y181707D01*
X541049Y181978D01*
X541653Y182348D01*
X542192Y182808D01*
X542652Y183347D01*
X543022Y183951D01*
X543293Y184605D01*
X543458Y185294D01*
X543500Y186000D01*
X543458Y186706D01*
X543293Y187395D01*
X543022Y188049D01*
X542652Y188653D01*
X542192Y189192D01*
X541653Y189652D01*
X541049Y190022D01*
X540395Y190293D01*
X539706Y190458D01*
X539000Y190514D01*
X538294Y190458D01*
X538000Y190388D01*
Y200000D01*
X548993D01*
Y190513D01*
X548294Y190458D01*
X547605Y190293D01*
X546951Y190022D01*
X546347Y189652D01*
X545808Y189192D01*
X545348Y188653D01*
X544978Y188049D01*
X544707Y187395D01*
X544542Y186706D01*
X544486Y186000D01*
X544542Y185294D01*
X544707Y184605D01*
X544978Y183951D01*
X545348Y183347D01*
X545808Y182808D01*
X546347Y182348D01*
X546951Y181978D01*
X547605Y181707D01*
X548294Y181542D01*
X548993Y181487D01*
Y166952D01*
G37*
G36*
Y126012D02*X548372Y125963D01*
X547964Y125865D01*
X547425Y126403D01*
Y126890D01*
X547429Y126895D01*
X547553Y127096D01*
X547643Y127314D01*
X547698Y127544D01*
X547712Y127779D01*
Y133779D01*
X547698Y134014D01*
X547643Y134244D01*
X547553Y134462D01*
X547429Y134663D01*
X547276Y134843D01*
X547096Y134996D01*
X546895Y135120D01*
X546677Y135210D01*
X546447Y135265D01*
X546212Y135279D01*
X544638D01*
X544403Y135265D01*
X544173Y135210D01*
X543955Y135120D01*
X543754Y134996D01*
X543574Y134843D01*
X543421Y134663D01*
X543297Y134462D01*
X543207Y134244D01*
X543152Y134014D01*
X543138Y133779D01*
Y127779D01*
X543152Y127544D01*
X543207Y127314D01*
X543297Y127096D01*
X543421Y126895D01*
X543425Y126890D01*
Y125653D01*
X543419Y125575D01*
X543444Y125261D01*
X543499Y125029D01*
X543517Y124955D01*
X543552Y124870D01*
X543637Y124664D01*
X543802Y124396D01*
X543802Y124396D01*
X544006Y124156D01*
X544066Y124105D01*
X545135Y123036D01*
X545037Y122628D01*
X544988Y122000D01*
X545037Y121372D01*
X545184Y120760D01*
X545425Y120178D01*
X545754Y119642D01*
X546163Y119163D01*
X546575Y118811D01*
Y104000D01*
X538000D01*
Y126318D01*
X538104Y126293D01*
X538339Y126279D01*
X539913D01*
X540148Y126293D01*
X540378Y126348D01*
X540596Y126438D01*
X540797Y126562D01*
X540977Y126715D01*
X541130Y126895D01*
X541254Y127096D01*
X541344Y127314D01*
X541399Y127544D01*
X541413Y127779D01*
Y133779D01*
X541399Y134014D01*
X541344Y134244D01*
X541254Y134462D01*
X541130Y134663D01*
X540977Y134843D01*
X540797Y134996D01*
X540626Y135101D01*
Y139805D01*
X545256Y144435D01*
X545805Y144207D01*
X546494Y144042D01*
X547200Y143986D01*
X547906Y144042D01*
X548595Y144207D01*
X548993Y144372D01*
Y126012D01*
G37*
G36*
X538000Y104000D02*X532721D01*
Y104913D01*
X532707Y105148D01*
X532652Y105378D01*
X532562Y105596D01*
X532498Y105700D01*
X532562Y105805D01*
X532652Y106023D01*
X532707Y106253D01*
X532721Y106488D01*
Y108062D01*
X532707Y108297D01*
X532652Y108527D01*
X532562Y108745D01*
X532497Y108850D01*
X532562Y108955D01*
X532652Y109173D01*
X532707Y109403D01*
X532721Y109638D01*
Y111212D01*
X532707Y111447D01*
X532652Y111677D01*
X532562Y111895D01*
X532497Y112000D01*
X532562Y112105D01*
X532652Y112323D01*
X532707Y112553D01*
X532721Y112788D01*
Y114362D01*
X532707Y114597D01*
X532652Y114827D01*
X532562Y115045D01*
X532498Y115149D01*
X532562Y115254D01*
X532652Y115472D01*
X532707Y115702D01*
X532721Y115937D01*
Y117511D01*
X532707Y117746D01*
X532652Y117976D01*
X532562Y118194D01*
X532497Y118299D01*
X532562Y118404D01*
X532652Y118622D01*
X532707Y118852D01*
X532721Y119087D01*
Y120661D01*
X532707Y120896D01*
X532652Y121126D01*
X532562Y121344D01*
X532498Y121449D01*
X532562Y121553D01*
X532652Y121771D01*
X532707Y122001D01*
X532721Y122236D01*
Y123810D01*
X532707Y124045D01*
X532652Y124275D01*
X532562Y124493D01*
X532438Y124694D01*
X532285Y124874D01*
X532105Y125027D01*
X531904Y125151D01*
X531686Y125241D01*
X531456Y125296D01*
X531221Y125310D01*
X525221D01*
X524986Y125296D01*
X524756Y125241D01*
X524538Y125151D01*
X524337Y125027D01*
X524157Y124874D01*
X524004Y124694D01*
X523880Y124493D01*
X523790Y124275D01*
X523735Y124045D01*
X523721Y123810D01*
Y122236D01*
X523735Y122001D01*
X523790Y121771D01*
X523880Y121553D01*
X523944Y121449D01*
X523880Y121344D01*
X523790Y121126D01*
X523735Y120896D01*
X523721Y120661D01*
Y119087D01*
X523735Y118852D01*
X523790Y118622D01*
X523880Y118404D01*
X523945Y118299D01*
X523880Y118194D01*
X523790Y117976D01*
X523735Y117746D01*
X523721Y117511D01*
Y115937D01*
X523735Y115702D01*
X523790Y115472D01*
X523880Y115254D01*
X523944Y115150D01*
X523880Y115045D01*
X523790Y114827D01*
X523735Y114597D01*
X523721Y114362D01*
Y112788D01*
X523735Y112553D01*
X523790Y112323D01*
X523880Y112105D01*
X523945Y112000D01*
X523945Y112000D01*
X518059D01*
X518000Y112005D01*
X517765Y111986D01*
X517535Y111931D01*
X517317Y111841D01*
X517116Y111717D01*
X516936Y111564D01*
X516783Y111384D01*
X516659Y111183D01*
X516569Y110965D01*
X516514Y110735D01*
X516514Y110735D01*
X516495Y110500D01*
X516500Y110441D01*
Y104000D01*
X504500D01*
Y131000D01*
X473993D01*
Y165142D01*
X483145D01*
X483444Y164791D01*
X484010Y164308D01*
X484644Y163919D01*
X485331Y163635D01*
X486054Y163461D01*
X486795Y163403D01*
X487537Y163461D01*
X488260Y163635D01*
X488947Y163919D01*
X489581Y164308D01*
X490146Y164791D01*
X490629Y165356D01*
X491018Y165990D01*
X491302Y166677D01*
X491476Y167400D01*
X491520Y168142D01*
X491476Y168883D01*
X491302Y169606D01*
X491018Y170293D01*
X490629Y170927D01*
X490146Y171493D01*
X489581Y171976D01*
X488947Y172364D01*
X488260Y172649D01*
X487537Y172822D01*
X486795Y172881D01*
X486054Y172822D01*
X485331Y172649D01*
X484644Y172364D01*
X484010Y171976D01*
X483444Y171493D01*
X483145Y171142D01*
X473993D01*
Y182858D01*
X483145D01*
X483444Y182507D01*
X484010Y182024D01*
X484644Y181636D01*
X485331Y181351D01*
X486054Y181178D01*
X486795Y181119D01*
X487537Y181178D01*
X488260Y181351D01*
X488947Y181636D01*
X489581Y182024D01*
X490146Y182507D01*
X490567Y183000D01*
X504901D01*
X504907Y182891D01*
X504944Y182738D01*
X505004Y182593D01*
X505086Y182458D01*
X505189Y182339D01*
X505308Y182236D01*
X505443Y182154D01*
X505588Y182094D01*
X505741Y182057D01*
X505898Y182048D01*
X506087D01*
X506014Y181986D01*
X505728Y181651D01*
X505497Y181275D01*
X505329Y180868D01*
X505226Y180439D01*
X505191Y180000D01*
X505226Y179561D01*
X505329Y179132D01*
X505497Y178725D01*
X505728Y178349D01*
X506014Y178014D01*
X506349Y177728D01*
X506725Y177497D01*
X507132Y177329D01*
X507561Y177226D01*
X508000Y177191D01*
X508439Y177226D01*
X508868Y177329D01*
X509275Y177497D01*
X509651Y177728D01*
X509986Y178014D01*
X510272Y178349D01*
X510503Y178725D01*
X510671Y179132D01*
X510774Y179561D01*
X510800Y180000D01*
X510774Y180439D01*
X510671Y180868D01*
X510503Y181275D01*
X510272Y181651D01*
X509986Y181986D01*
X509913Y182048D01*
X511016D01*
X511173Y182057D01*
X511326Y182094D01*
X511471Y182154D01*
X511606Y182236D01*
X511725Y182339D01*
X511828Y182458D01*
X511910Y182593D01*
X511970Y182738D01*
X512000Y182863D01*
X512030Y182738D01*
X512090Y182593D01*
X512172Y182458D01*
X512275Y182339D01*
X512394Y182236D01*
X512529Y182154D01*
X512674Y182094D01*
X512827Y182057D01*
X512984Y182048D01*
X518102D01*
X518259Y182057D01*
X518412Y182094D01*
X518557Y182154D01*
X518692Y182236D01*
X518811Y182339D01*
X518914Y182458D01*
X518996Y182593D01*
X519056Y182738D01*
X519093Y182891D01*
X519099Y183000D01*
X525644D01*
X525808Y182808D01*
X526347Y182348D01*
X526951Y181978D01*
X527605Y181707D01*
X528294Y181542D01*
X529000Y181486D01*
X529706Y181542D01*
X530395Y181707D01*
X531049Y181978D01*
X531653Y182348D01*
X532192Y182808D01*
X532652Y183347D01*
X533022Y183951D01*
X533293Y184605D01*
X533458Y185294D01*
X533500Y186000D01*
X533458Y186706D01*
X533293Y187395D01*
X533022Y188049D01*
X532652Y188653D01*
X532192Y189192D01*
X531653Y189652D01*
X531049Y190022D01*
X530395Y190293D01*
X529706Y190458D01*
X529000Y190514D01*
X528294Y190458D01*
X527605Y190293D01*
X526951Y190022D01*
X526347Y189652D01*
X525808Y189192D01*
X525644Y189000D01*
X519099D01*
X519093Y189109D01*
X519056Y189262D01*
X518996Y189407D01*
X518914Y189542D01*
X518811Y189661D01*
X518692Y189764D01*
X518557Y189846D01*
X518412Y189906D01*
X518259Y189943D01*
X518102Y189952D01*
X512984D01*
X512827Y189943D01*
X512674Y189906D01*
X512529Y189846D01*
X512394Y189764D01*
X512275Y189661D01*
X512172Y189542D01*
X512090Y189407D01*
X512030Y189262D01*
X512000Y189137D01*
X511970Y189262D01*
X511910Y189407D01*
X511828Y189542D01*
X511725Y189661D01*
X511606Y189764D01*
X511471Y189846D01*
X511326Y189906D01*
X511173Y189943D01*
X511016Y189952D01*
X505898D01*
X505741Y189943D01*
X505588Y189906D01*
X505443Y189846D01*
X505308Y189764D01*
X505189Y189661D01*
X505086Y189542D01*
X505004Y189407D01*
X504944Y189262D01*
X504907Y189109D01*
X504901Y189000D01*
X490325D01*
X490146Y189209D01*
X489581Y189692D01*
X488947Y190081D01*
X488260Y190365D01*
X487537Y190539D01*
X486795Y190597D01*
X486054Y190539D01*
X485331Y190365D01*
X484644Y190081D01*
X484010Y189692D01*
X483444Y189209D01*
X483145Y188858D01*
X473993D01*
Y200000D01*
X538000D01*
Y190388D01*
X537605Y190293D01*
X536951Y190022D01*
X536347Y189652D01*
X535808Y189192D01*
X535348Y188653D01*
X534978Y188049D01*
X534707Y187395D01*
X534542Y186706D01*
X534486Y186000D01*
X534542Y185294D01*
X534707Y184605D01*
X534978Y183951D01*
X535348Y183347D01*
X535808Y182808D01*
X536347Y182348D01*
X536951Y181978D01*
X537605Y181707D01*
X538000Y181612D01*
Y165809D01*
X537561Y165774D01*
X537132Y165671D01*
X536725Y165503D01*
X536349Y165272D01*
X536014Y164986D01*
X535728Y164651D01*
X535635Y164500D01*
X535102D01*
Y165952D01*
X535093Y166109D01*
X535056Y166262D01*
X534996Y166407D01*
X534914Y166542D01*
X534811Y166661D01*
X534692Y166764D01*
X534557Y166846D01*
X534412Y166906D01*
X534259Y166943D01*
X534102Y166952D01*
X528984D01*
X528827Y166943D01*
X528674Y166906D01*
X528529Y166846D01*
X528394Y166764D01*
X528275Y166661D01*
X528172Y166542D01*
X528090Y166407D01*
X528030Y166262D01*
X528000Y166137D01*
X527970Y166262D01*
X527910Y166407D01*
X527828Y166542D01*
X527725Y166661D01*
X527606Y166764D01*
X527471Y166846D01*
X527326Y166906D01*
X527173Y166943D01*
X527016Y166952D01*
X521898D01*
X521741Y166943D01*
X521588Y166906D01*
X521443Y166846D01*
X521308Y166764D01*
X521189Y166661D01*
X521086Y166542D01*
X521004Y166407D01*
X520944Y166262D01*
X520907Y166109D01*
X520898Y165952D01*
Y160048D01*
X520907Y159891D01*
X520944Y159738D01*
X521004Y159593D01*
X521086Y159458D01*
X521189Y159339D01*
X521308Y159236D01*
X521443Y159154D01*
X521588Y159094D01*
X521741Y159057D01*
X521898Y159048D01*
X522957D01*
Y152102D01*
X522952Y152043D01*
X522971Y151808D01*
X523026Y151578D01*
X523116Y151360D01*
X523240Y151159D01*
X523240Y151158D01*
X523393Y150979D01*
X523438Y150941D01*
X523500Y150879D01*
Y145500D01*
X523514Y145265D01*
X523569Y145035D01*
X523659Y144817D01*
X523783Y144616D01*
X523936Y144436D01*
X524116Y144283D01*
X524317Y144159D01*
X524535Y144069D01*
X524765Y144014D01*
X525000Y144000D01*
X530379D01*
X534476Y139903D01*
Y135101D01*
X534305Y134996D01*
X534125Y134843D01*
X533972Y134663D01*
X533848Y134462D01*
X533758Y134244D01*
X533703Y134014D01*
X533689Y133779D01*
Y127779D01*
X533703Y127544D01*
X533758Y127314D01*
X533848Y127096D01*
X533972Y126895D01*
X534125Y126715D01*
X534305Y126562D01*
X534506Y126438D01*
X534724Y126348D01*
X534954Y126293D01*
X535189Y126279D01*
X536763D01*
X536998Y126293D01*
X537228Y126348D01*
X537446Y126438D01*
X537551Y126503D01*
X537656Y126438D01*
X537874Y126348D01*
X538000Y126318D01*
Y104000D01*
G37*
G36*
X473993Y188858D02*X464855D01*
X464556Y189209D01*
X463990Y189692D01*
X463356Y190081D01*
X462669Y190365D01*
X461946Y190539D01*
X461205Y190597D01*
X460463Y190539D01*
X459740Y190365D01*
X459053Y190081D01*
X458419Y189692D01*
X457854Y189209D01*
X457371Y188644D01*
X456982Y188010D01*
X456698Y187323D01*
X456524Y186600D01*
X456466Y185858D01*
X456524Y185117D01*
X456698Y184394D01*
X456968Y183742D01*
X448992Y175767D01*
Y200000D01*
X473993D01*
Y188858D01*
G37*
G36*
Y131000D02*X448992D01*
Y148250D01*
X449188D01*
X449254Y148142D01*
X449663Y147663D01*
X450142Y147254D01*
X450678Y146925D01*
X451260Y146684D01*
X451872Y146537D01*
X452500Y146488D01*
X453128Y146537D01*
X453740Y146684D01*
X454322Y146925D01*
X454858Y147254D01*
X455337Y147663D01*
X455746Y148142D01*
X456075Y148678D01*
X456316Y149260D01*
X456463Y149872D01*
X456500Y150500D01*
X456463Y151128D01*
X456316Y151740D01*
X456075Y152322D01*
X455746Y152858D01*
X455337Y153337D01*
X454858Y153746D01*
X454322Y154075D01*
X453740Y154316D01*
X453128Y154463D01*
X452500Y154512D01*
X451872Y154463D01*
X451260Y154316D01*
X450678Y154075D01*
X450142Y153746D01*
X449663Y153337D01*
X449254Y152858D01*
X449188Y152750D01*
X448992D01*
Y171524D01*
X459089Y181621D01*
X459740Y181351D01*
X460463Y181178D01*
X461205Y181119D01*
X461946Y181178D01*
X462669Y181351D01*
X463356Y181636D01*
X463990Y182024D01*
X464556Y182507D01*
X464855Y182858D01*
X473993D01*
Y171142D01*
X464855D01*
X464556Y171493D01*
X463990Y171976D01*
X463356Y172364D01*
X462669Y172649D01*
X461946Y172822D01*
X461205Y172881D01*
X460463Y172822D01*
X459740Y172649D01*
X459053Y172364D01*
X458419Y171976D01*
X457854Y171493D01*
X457371Y170927D01*
X456982Y170293D01*
X456698Y169606D01*
X456524Y168883D01*
X456466Y168142D01*
X456524Y167400D01*
X456698Y166677D01*
X456982Y165990D01*
X457371Y165356D01*
X457854Y164791D01*
X458419Y164308D01*
X459053Y163919D01*
X459740Y163635D01*
X460463Y163461D01*
X461205Y163403D01*
X461946Y163461D01*
X462669Y163635D01*
X463356Y163919D01*
X463990Y164308D01*
X464556Y164791D01*
X464855Y165142D01*
X473993D01*
Y131000D01*
G37*
G36*
X422544Y200000D02*X448992D01*
Y175767D01*
X434725Y161500D01*
X422544D01*
Y164554D01*
X422843Y165042D01*
X423102Y165667D01*
X423260Y166325D01*
X423300Y167000D01*
X423260Y167675D01*
X423102Y168333D01*
X422843Y168958D01*
X422544Y169446D01*
Y174554D01*
X422843Y175042D01*
X423102Y175667D01*
X423260Y176325D01*
X423300Y177000D01*
X423260Y177675D01*
X423102Y178333D01*
X422843Y178958D01*
X422544Y179446D01*
Y184672D01*
X422567Y184684D01*
X422630Y184732D01*
X422684Y184789D01*
X422727Y184855D01*
X422918Y185216D01*
X423069Y185596D01*
X423184Y185988D01*
X423261Y186389D01*
X423300Y186796D01*
Y187204D01*
X423261Y187611D01*
X423184Y188012D01*
X423069Y188404D01*
X422918Y188784D01*
X422731Y189147D01*
X422687Y189213D01*
X422632Y189271D01*
X422569Y189319D01*
X422544Y189332D01*
Y200000D01*
G37*
G36*
Y169446D02*X422490Y169535D01*
X422050Y170050D01*
X421535Y170490D01*
X420958Y170843D01*
X420333Y171102D01*
X419675Y171260D01*
X419002Y171313D01*
Y172687D01*
X419675Y172740D01*
X420333Y172898D01*
X420958Y173157D01*
X421535Y173510D01*
X422050Y173950D01*
X422490Y174465D01*
X422544Y174554D01*
Y169446D01*
G37*
G36*
Y161500D02*X419002D01*
Y162687D01*
X419675Y162740D01*
X420333Y162898D01*
X420958Y163157D01*
X421535Y163510D01*
X422050Y163950D01*
X422490Y164465D01*
X422544Y164554D01*
Y161500D01*
G37*
G36*
X419002Y200000D02*X422544D01*
Y189332D01*
X422500Y189357D01*
X422425Y189383D01*
X422347Y189398D01*
X422268Y189400D01*
X422189Y189390D01*
X422113Y189367D01*
X422041Y189333D01*
X421976Y189289D01*
X421918Y189234D01*
X421870Y189171D01*
X421832Y189102D01*
X421806Y189027D01*
X421791Y188949D01*
X421789Y188870D01*
X421799Y188791D01*
X421822Y188715D01*
X421857Y188644D01*
X422003Y188368D01*
X422119Y188077D01*
X422207Y187776D01*
X422267Y187468D01*
X422296Y187157D01*
Y186843D01*
X422267Y186532D01*
X422207Y186224D01*
X422119Y185923D01*
X422003Y185632D01*
X421860Y185354D01*
X421825Y185284D01*
X421803Y185208D01*
X421793Y185130D01*
X421795Y185051D01*
X421809Y184974D01*
X421836Y184900D01*
X421873Y184831D01*
X421921Y184768D01*
X421978Y184714D01*
X422043Y184670D01*
X422114Y184636D01*
X422190Y184614D01*
X422268Y184604D01*
X422347Y184606D01*
X422424Y184620D01*
X422498Y184647D01*
X422544Y184672D01*
Y179446D01*
X422490Y179535D01*
X422050Y180050D01*
X421535Y180490D01*
X420958Y180843D01*
X420333Y181102D01*
X419675Y181260D01*
X419002Y181313D01*
Y182700D01*
X419204D01*
X419611Y182739D01*
X420012Y182816D01*
X420404Y182931D01*
X420784Y183082D01*
X421147Y183269D01*
X421213Y183313D01*
X421271Y183368D01*
X421319Y183431D01*
X421357Y183500D01*
X421383Y183575D01*
X421398Y183653D01*
X421400Y183732D01*
X421390Y183811D01*
X421367Y183887D01*
X421333Y183959D01*
X421289Y184024D01*
X421234Y184082D01*
X421171Y184130D01*
X421102Y184168D01*
X421027Y184194D01*
X420949Y184209D01*
X420870Y184211D01*
X420791Y184201D01*
X420715Y184178D01*
X420644Y184143D01*
X420368Y183997D01*
X420077Y183881D01*
X419776Y183793D01*
X419468Y183733D01*
X419157Y183704D01*
X419002D01*
Y190296D01*
X419157D01*
X419468Y190267D01*
X419776Y190207D01*
X420077Y190119D01*
X420368Y190003D01*
X420646Y189860D01*
X420716Y189825D01*
X420792Y189803D01*
X420870Y189793D01*
X420949Y189795D01*
X421026Y189809D01*
X421100Y189836D01*
X421169Y189873D01*
X421232Y189921D01*
X421286Y189978D01*
X421330Y190043D01*
X421364Y190114D01*
X421386Y190190D01*
X421396Y190268D01*
X421394Y190347D01*
X421380Y190424D01*
X421353Y190498D01*
X421316Y190567D01*
X421268Y190630D01*
X421211Y190684D01*
X421145Y190727D01*
X420784Y190918D01*
X420404Y191069D01*
X420012Y191184D01*
X419611Y191261D01*
X419204Y191300D01*
X419002D01*
Y200000D01*
G37*
G36*
X415456Y164554D02*X415510Y164465D01*
X415950Y163950D01*
X416465Y163510D01*
X417042Y163157D01*
X417667Y162898D01*
X418325Y162740D01*
X419000Y162687D01*
X419002Y162687D01*
Y161500D01*
X415456D01*
Y164554D01*
G37*
G36*
Y174554D02*X415510Y174465D01*
X415950Y173950D01*
X416465Y173510D01*
X417042Y173157D01*
X417667Y172898D01*
X418325Y172740D01*
X419000Y172687D01*
X419002Y172687D01*
Y171313D01*
X419000Y171313D01*
X418325Y171260D01*
X417667Y171102D01*
X417042Y170843D01*
X416465Y170490D01*
X415950Y170050D01*
X415510Y169535D01*
X415456Y169446D01*
Y174554D01*
G37*
G36*
Y200000D02*X419002D01*
Y191300D01*
X418796D01*
X418389Y191261D01*
X417988Y191184D01*
X417596Y191069D01*
X417216Y190918D01*
X416853Y190731D01*
X416787Y190687D01*
X416729Y190632D01*
X416681Y190569D01*
X416643Y190500D01*
X416617Y190425D01*
X416602Y190347D01*
X416600Y190268D01*
X416610Y190189D01*
X416633Y190113D01*
X416667Y190041D01*
X416711Y189976D01*
X416766Y189918D01*
X416829Y189870D01*
X416898Y189832D01*
X416973Y189806D01*
X417051Y189791D01*
X417130Y189789D01*
X417209Y189799D01*
X417285Y189822D01*
X417356Y189857D01*
X417632Y190003D01*
X417923Y190119D01*
X418224Y190207D01*
X418532Y190267D01*
X418843Y190296D01*
X419002D01*
Y183704D01*
X418843D01*
X418532Y183733D01*
X418224Y183793D01*
X417923Y183881D01*
X417632Y183997D01*
X417354Y184140D01*
X417284Y184175D01*
X417208Y184197D01*
X417130Y184207D01*
X417051Y184205D01*
X416974Y184191D01*
X416900Y184164D01*
X416831Y184127D01*
X416768Y184079D01*
X416714Y184022D01*
X416670Y183957D01*
X416636Y183886D01*
X416614Y183810D01*
X416604Y183732D01*
X416606Y183653D01*
X416620Y183576D01*
X416647Y183502D01*
X416684Y183433D01*
X416732Y183370D01*
X416789Y183316D01*
X416855Y183273D01*
X417216Y183082D01*
X417596Y182931D01*
X417988Y182816D01*
X418389Y182739D01*
X418796Y182700D01*
X419002D01*
Y181313D01*
X419000Y181313D01*
X418325Y181260D01*
X417667Y181102D01*
X417042Y180843D01*
X416465Y180490D01*
X415950Y180050D01*
X415510Y179535D01*
X415456Y179446D01*
Y184668D01*
X415500Y184643D01*
X415575Y184617D01*
X415653Y184602D01*
X415732Y184600D01*
X415811Y184610D01*
X415887Y184633D01*
X415959Y184667D01*
X416024Y184711D01*
X416082Y184766D01*
X416130Y184829D01*
X416168Y184898D01*
X416194Y184973D01*
X416209Y185051D01*
X416211Y185130D01*
X416201Y185209D01*
X416178Y185285D01*
X416143Y185356D01*
X415997Y185632D01*
X415881Y185923D01*
X415793Y186224D01*
X415733Y186532D01*
X415704Y186843D01*
Y187157D01*
X415733Y187468D01*
X415793Y187776D01*
X415881Y188077D01*
X415997Y188368D01*
X416140Y188646D01*
X416175Y188716D01*
X416197Y188792D01*
X416207Y188870D01*
X416205Y188949D01*
X416191Y189026D01*
X416164Y189100D01*
X416127Y189169D01*
X416079Y189232D01*
X416022Y189286D01*
X415957Y189330D01*
X415886Y189364D01*
X415810Y189386D01*
X415732Y189396D01*
X415653Y189394D01*
X415576Y189380D01*
X415502Y189353D01*
X415456Y189328D01*
Y200000D01*
G37*
G36*
X409000D02*X415456D01*
Y189328D01*
X415433Y189316D01*
X415370Y189268D01*
X415316Y189211D01*
X415273Y189145D01*
X415082Y188784D01*
X414931Y188404D01*
X414816Y188012D01*
X414739Y187611D01*
X414700Y187204D01*
Y186796D01*
X414739Y186389D01*
X414816Y185988D01*
X414931Y185596D01*
X415082Y185216D01*
X415269Y184853D01*
X415313Y184787D01*
X415368Y184729D01*
X415431Y184681D01*
X415456Y184668D01*
Y179446D01*
X415157Y178958D01*
X414898Y178333D01*
X414740Y177675D01*
X414687Y177000D01*
X414740Y176325D01*
X414898Y175667D01*
X415157Y175042D01*
X415456Y174554D01*
Y169446D01*
X415157Y168958D01*
X414898Y168333D01*
X414740Y167675D01*
X414687Y167000D01*
X414740Y166325D01*
X414898Y165667D01*
X415157Y165042D01*
X415456Y164554D01*
Y161500D01*
X410500D01*
Y162967D01*
X410958Y163157D01*
X411535Y163510D01*
X412050Y163950D01*
X412490Y164465D01*
X412843Y165042D01*
X413102Y165667D01*
X413260Y166325D01*
X413300Y167000D01*
X413260Y167675D01*
X413102Y168333D01*
X412843Y168958D01*
X412490Y169535D01*
X412050Y170050D01*
X411535Y170490D01*
X410958Y170843D01*
X410333Y171102D01*
X409675Y171260D01*
X409000Y171313D01*
Y172687D01*
X409675Y172740D01*
X410333Y172898D01*
X410958Y173157D01*
X411535Y173510D01*
X412050Y173950D01*
X412490Y174465D01*
X412843Y175042D01*
X413102Y175667D01*
X413260Y176325D01*
X413300Y177000D01*
X413260Y177675D01*
X413102Y178333D01*
X412843Y178958D01*
X412490Y179535D01*
X412050Y180050D01*
X411535Y180490D01*
X410958Y180843D01*
X410333Y181102D01*
X409675Y181260D01*
X409000Y181313D01*
Y182700D01*
X412300D01*
X412457Y182709D01*
X412610Y182746D01*
X412755Y182806D01*
X412890Y182888D01*
X413009Y182991D01*
X413112Y183110D01*
X413194Y183245D01*
X413254Y183390D01*
X413291Y183543D01*
X413300Y183700D01*
Y190300D01*
X413291Y190457D01*
X413254Y190610D01*
X413194Y190755D01*
X413112Y190890D01*
X413009Y191009D01*
X412890Y191112D01*
X412755Y191194D01*
X412610Y191254D01*
X412457Y191291D01*
X412300Y191300D01*
X409000D01*
Y200000D01*
G37*
G36*
X442926Y165458D02*X448992Y171524D01*
Y152750D01*
X448602D01*
Y153452D01*
X448593Y153609D01*
X448556Y153762D01*
X448496Y153907D01*
X448414Y154042D01*
X448311Y154161D01*
X448192Y154264D01*
X448057Y154346D01*
X447912Y154406D01*
X447759Y154443D01*
X447602Y154452D01*
X442926D01*
Y165458D01*
G37*
G36*
X448992Y131000D02*X442926D01*
Y131103D01*
X442930Y131105D01*
X443033Y131164D01*
X443125Y131238D01*
X443204Y131325D01*
X443266Y131425D01*
X443511Y131912D01*
X443705Y132422D01*
X443852Y132948D01*
X443951Y133484D01*
X444000Y134027D01*
Y134573D01*
X443951Y135116D01*
X443852Y135652D01*
X443705Y136178D01*
X443511Y136688D01*
X443272Y137178D01*
X443208Y137278D01*
X443128Y137366D01*
X443035Y137440D01*
X442932Y137499D01*
X442926Y137502D01*
Y146548D01*
X447602D01*
X447759Y146557D01*
X447912Y146594D01*
X448057Y146654D01*
X448192Y146736D01*
X448311Y146839D01*
X448414Y146958D01*
X448496Y147093D01*
X448556Y147238D01*
X448593Y147391D01*
X448602Y147548D01*
Y148250D01*
X448992D01*
Y131000D01*
G37*
G36*
X442926D02*X437998D01*
Y138795D01*
X438204D01*
X438611Y138758D01*
X439013Y138684D01*
X439407Y138574D01*
X439789Y138429D01*
X440156Y138250D01*
X440263Y138200D01*
X440377Y138169D01*
X440494Y138156D01*
X440612Y138162D01*
X440728Y138186D01*
X440838Y138228D01*
X440940Y138287D01*
X441032Y138361D01*
X441111Y138449D01*
X441176Y138548D01*
X441224Y138655D01*
X441255Y138769D01*
X441268Y138887D01*
X441262Y139005D01*
X441237Y139120D01*
X441195Y139230D01*
X441136Y139333D01*
X441062Y139425D01*
X440975Y139504D01*
X440875Y139566D01*
X440388Y139811D01*
X439878Y140005D01*
X439352Y140152D01*
X438816Y140251D01*
X438273Y140300D01*
X437998D01*
Y160530D01*
X442926Y165458D01*
Y154452D01*
X442484D01*
X442327Y154443D01*
X442174Y154406D01*
X442029Y154346D01*
X441894Y154264D01*
X441775Y154161D01*
X441672Y154042D01*
X441590Y153907D01*
X441530Y153762D01*
X441493Y153609D01*
X441484Y153452D01*
Y147548D01*
X441493Y147391D01*
X441530Y147238D01*
X441590Y147093D01*
X441672Y146958D01*
X441775Y146839D01*
X441894Y146736D01*
X442029Y146654D01*
X442174Y146594D01*
X442327Y146557D01*
X442484Y146548D01*
X442926D01*
Y137502D01*
X442821Y137542D01*
X442705Y137566D01*
X442587Y137572D01*
X442468Y137560D01*
X442354Y137529D01*
X442245Y137480D01*
X442146Y137415D01*
X442058Y137335D01*
X441983Y137243D01*
X441924Y137140D01*
X441882Y137029D01*
X441857Y136913D01*
X441851Y136794D01*
X441864Y136676D01*
X441895Y136561D01*
X441946Y136454D01*
X442129Y136089D01*
X442274Y135707D01*
X442384Y135313D01*
X442458Y134911D01*
X442495Y134504D01*
Y134096D01*
X442458Y133689D01*
X442384Y133287D01*
X442274Y132893D01*
X442129Y132511D01*
X441950Y132144D01*
X441900Y132037D01*
X441869Y131923D01*
X441856Y131806D01*
X441862Y131688D01*
X441886Y131572D01*
X441928Y131462D01*
X441987Y131360D01*
X442061Y131268D01*
X442149Y131189D01*
X442248Y131124D01*
X442355Y131076D01*
X442469Y131045D01*
X442587Y131032D01*
X442705Y131038D01*
X442820Y131063D01*
X442926Y131103D01*
Y131000D01*
G37*
G36*
X437998D02*X433074D01*
Y131098D01*
X433179Y131058D01*
X433295Y131034D01*
X433413Y131028D01*
X433532Y131040D01*
X433646Y131071D01*
X433755Y131120D01*
X433854Y131185D01*
X433942Y131265D01*
X434017Y131357D01*
X434076Y131460D01*
X434118Y131571D01*
X434143Y131687D01*
X434149Y131806D01*
X434136Y131924D01*
X434105Y132039D01*
X434054Y132146D01*
X433871Y132511D01*
X433726Y132893D01*
X433616Y133287D01*
X433542Y133689D01*
X433505Y134096D01*
Y134504D01*
X433542Y134911D01*
X433616Y135313D01*
X433726Y135707D01*
X433871Y136089D01*
X434050Y136456D01*
X434100Y136563D01*
X434131Y136677D01*
X434144Y136794D01*
X434138Y136912D01*
X434114Y137028D01*
X434072Y137138D01*
X434013Y137240D01*
X433939Y137332D01*
X433851Y137411D01*
X433752Y137476D01*
X433645Y137524D01*
X433531Y137555D01*
X433413Y137568D01*
X433295Y137562D01*
X433180Y137537D01*
X433074Y137497D01*
Y158500D01*
X435288D01*
X435346Y158495D01*
X435582Y158514D01*
X435582Y158514D01*
X435811Y158569D01*
X436030Y158659D01*
X436231Y158783D01*
X436410Y158936D01*
X436449Y158981D01*
X437998Y160530D01*
Y140300D01*
X437727D01*
X437184Y140251D01*
X436648Y140152D01*
X436122Y140005D01*
X435612Y139811D01*
X435122Y139572D01*
X435022Y139508D01*
X434934Y139428D01*
X434860Y139335D01*
X434801Y139232D01*
X434758Y139121D01*
X434734Y139005D01*
X434728Y138887D01*
X434740Y138768D01*
X434771Y138654D01*
X434820Y138545D01*
X434885Y138446D01*
X434965Y138358D01*
X435057Y138283D01*
X435160Y138224D01*
X435271Y138182D01*
X435387Y138157D01*
X435506Y138151D01*
X435624Y138164D01*
X435739Y138195D01*
X435846Y138246D01*
X436211Y138429D01*
X436593Y138574D01*
X436987Y138684D01*
X437389Y138758D01*
X437796Y138795D01*
X437998D01*
Y131000D01*
G37*
G36*
X433074D02*X409000D01*
Y158495D01*
X409059Y158500D01*
X433074D01*
Y137497D01*
X433070Y137495D01*
X432967Y137436D01*
X432875Y137362D01*
X432796Y137275D01*
X432734Y137175D01*
X432489Y136688D01*
X432295Y136178D01*
X432148Y135652D01*
X432049Y135116D01*
X432000Y134573D01*
Y134027D01*
X432049Y133484D01*
X432148Y132948D01*
X432295Y132422D01*
X432489Y131912D01*
X432728Y131422D01*
X432792Y131322D01*
X432872Y131234D01*
X432965Y131160D01*
X433068Y131101D01*
X433074Y131098D01*
Y131000D01*
G37*
G36*
X409000D02*X359000D01*
Y104000D01*
X336993D01*
Y181487D01*
X337000Y181486D01*
X337706Y181542D01*
X338395Y181707D01*
X339049Y181978D01*
X339653Y182348D01*
X340192Y182808D01*
X340652Y183347D01*
X341022Y183951D01*
X341293Y184605D01*
X341458Y185294D01*
X341500Y186000D01*
X341458Y186706D01*
X341293Y187395D01*
X341022Y188049D01*
X340652Y188653D01*
X340192Y189192D01*
X339653Y189652D01*
X339049Y190022D01*
X338395Y190293D01*
X337706Y190458D01*
X337000Y190514D01*
X336993Y190513D01*
Y200000D01*
X409000D01*
Y191300D01*
X405700D01*
X405543Y191291D01*
X405390Y191254D01*
X405245Y191194D01*
X405110Y191112D01*
X404991Y191009D01*
X404888Y190890D01*
X404806Y190755D01*
X404746Y190610D01*
X404709Y190457D01*
X404700Y190300D01*
Y183700D01*
X404709Y183543D01*
X404746Y183390D01*
X404806Y183245D01*
X404888Y183110D01*
X404991Y182991D01*
X405110Y182888D01*
X405245Y182806D01*
X405390Y182746D01*
X405543Y182709D01*
X405700Y182700D01*
X409000D01*
Y181313D01*
X408325Y181260D01*
X407667Y181102D01*
X407042Y180843D01*
X406465Y180490D01*
X405950Y180050D01*
X405510Y179535D01*
X405157Y178958D01*
X404898Y178333D01*
X404740Y177675D01*
X404687Y177000D01*
X404740Y176325D01*
X404898Y175667D01*
X405157Y175042D01*
X405510Y174465D01*
X405950Y173950D01*
X406465Y173510D01*
X407042Y173157D01*
X407667Y172898D01*
X408325Y172740D01*
X409000Y172687D01*
Y171313D01*
X408325Y171260D01*
X407667Y171102D01*
X407042Y170843D01*
X406465Y170490D01*
X405950Y170050D01*
X405510Y169535D01*
X405157Y168958D01*
X404898Y168333D01*
X404740Y167675D01*
X404687Y167000D01*
X404740Y166325D01*
X404898Y165667D01*
X405157Y165042D01*
X405510Y164465D01*
X405950Y163950D01*
X406465Y163510D01*
X407042Y163157D01*
X407500Y162967D01*
Y160059D01*
X407495Y160000D01*
X407514Y159765D01*
X407514Y159765D01*
X407569Y159535D01*
X407659Y159317D01*
X407783Y159116D01*
X407936Y158936D01*
X408116Y158783D01*
X408317Y158659D01*
X408535Y158569D01*
X408765Y158514D01*
X409000Y158495D01*
Y131000D01*
G37*
G36*
X336993Y104000D02*X330750D01*
Y183748D01*
X330868Y183757D01*
X330982Y183785D01*
X331092Y183830D01*
X331192Y183891D01*
X331282Y183968D01*
X331359Y184058D01*
X331420Y184158D01*
X331465Y184268D01*
X331493Y184382D01*
X331500Y184500D01*
Y187500D01*
X331493Y187618D01*
X331465Y187732D01*
X331420Y187842D01*
X331359Y187942D01*
X331282Y188032D01*
X331192Y188109D01*
X331092Y188170D01*
X330982Y188215D01*
X330868Y188243D01*
X330750Y188252D01*
Y200000D01*
X336993D01*
Y190513D01*
X336294Y190458D01*
X335605Y190293D01*
X334951Y190022D01*
X334347Y189652D01*
X333808Y189192D01*
X333348Y188653D01*
X332978Y188049D01*
X332707Y187395D01*
X332542Y186706D01*
X332486Y186000D01*
X332542Y185294D01*
X332707Y184605D01*
X332978Y183951D01*
X333348Y183347D01*
X333808Y182808D01*
X334347Y182348D01*
X334951Y181978D01*
X335605Y181707D01*
X336294Y181542D01*
X336993Y181487D01*
Y104000D01*
G37*
G36*
X330750D02*X327000D01*
Y181500D01*
X328500D01*
X328618Y181507D01*
X328732Y181535D01*
X328842Y181580D01*
X328942Y181641D01*
X329032Y181718D01*
X329109Y181808D01*
X329170Y181908D01*
X329215Y182018D01*
X329243Y182132D01*
X329252Y182250D01*
X329243Y182368D01*
X329215Y182482D01*
X329170Y182592D01*
X329109Y182692D01*
X329032Y182782D01*
X328942Y182859D01*
X328842Y182920D01*
X328732Y182965D01*
X328618Y182993D01*
X328500Y183000D01*
X327000D01*
Y189000D01*
X328500D01*
X328618Y189007D01*
X328732Y189035D01*
X328842Y189080D01*
X328942Y189141D01*
X329032Y189218D01*
X329109Y189308D01*
X329170Y189408D01*
X329215Y189518D01*
X329243Y189632D01*
X329252Y189750D01*
X329243Y189868D01*
X329215Y189982D01*
X329170Y190092D01*
X329109Y190192D01*
X329032Y190282D01*
X328942Y190359D01*
X328842Y190420D01*
X328732Y190465D01*
X328618Y190493D01*
X328500Y190500D01*
X327000D01*
Y200000D01*
X330750D01*
Y188252D01*
X330632Y188243D01*
X330518Y188215D01*
X330408Y188170D01*
X330308Y188109D01*
X330218Y188032D01*
X330141Y187942D01*
X330080Y187842D01*
X330035Y187732D01*
X330007Y187618D01*
X330000Y187500D01*
Y184500D01*
X330007Y184382D01*
X330035Y184268D01*
X330080Y184158D01*
X330141Y184058D01*
X330218Y183968D01*
X330308Y183891D01*
X330408Y183830D01*
X330518Y183785D01*
X330632Y183757D01*
X330750Y183748D01*
Y104000D01*
G37*
G36*
X327000D02*X323250D01*
Y183748D01*
X323368Y183757D01*
X323482Y183785D01*
X323592Y183830D01*
X323692Y183891D01*
X323782Y183968D01*
X323859Y184058D01*
X323920Y184158D01*
X323965Y184268D01*
X323993Y184382D01*
X324000Y184500D01*
Y187500D01*
X323993Y187618D01*
X323965Y187732D01*
X323920Y187842D01*
X323859Y187942D01*
X323782Y188032D01*
X323692Y188109D01*
X323592Y188170D01*
X323482Y188215D01*
X323368Y188243D01*
X323250Y188252D01*
Y200000D01*
X327000D01*
Y190500D01*
X325500D01*
X325382Y190493D01*
X325268Y190465D01*
X325158Y190420D01*
X325058Y190359D01*
X324968Y190282D01*
X324891Y190192D01*
X324830Y190092D01*
X324785Y189982D01*
X324757Y189868D01*
X324748Y189750D01*
X324757Y189632D01*
X324785Y189518D01*
X324830Y189408D01*
X324891Y189308D01*
X324968Y189218D01*
X325058Y189141D01*
X325158Y189080D01*
X325268Y189035D01*
X325382Y189007D01*
X325500Y189000D01*
X327000D01*
Y183000D01*
X325500D01*
X325382Y182993D01*
X325268Y182965D01*
X325158Y182920D01*
X325058Y182859D01*
X324968Y182782D01*
X324891Y182692D01*
X324830Y182592D01*
X324785Y182482D01*
X324757Y182368D01*
X324748Y182250D01*
X324757Y182132D01*
X324785Y182018D01*
X324830Y181908D01*
X324891Y181808D01*
X324968Y181718D01*
X325058Y181641D01*
X325158Y181580D01*
X325268Y181535D01*
X325382Y181507D01*
X325500Y181500D01*
X327000D01*
Y104000D01*
G37*
G36*
X323250D02*X305000D01*
Y200000D01*
X323250D01*
Y188252D01*
X323132Y188243D01*
X323018Y188215D01*
X322908Y188170D01*
X322808Y188109D01*
X322718Y188032D01*
X322641Y187942D01*
X322580Y187842D01*
X322535Y187732D01*
X322507Y187618D01*
X322500Y187500D01*
Y184500D01*
X322507Y184382D01*
X322535Y184268D01*
X322580Y184158D01*
X322641Y184058D01*
X322718Y183968D01*
X322808Y183891D01*
X322908Y183830D01*
X323018Y183785D01*
X323132Y183757D01*
X323250Y183748D01*
Y104000D01*
G37*
G36*
X504500Y108500D02*X516500D01*
Y78621D01*
X516497Y78618D01*
X512614D01*
X512379Y78604D01*
X512149Y78549D01*
X511952Y78468D01*
X509661D01*
X509552Y78461D01*
X509445Y78435D01*
X509343Y78393D01*
X509249Y78336D01*
X509165Y78264D01*
X509093Y78180D01*
X509036Y78086D01*
X508994Y77984D01*
X508968Y77877D01*
X508961Y77768D01*
Y76507D01*
X508651Y76772D01*
X508275Y77003D01*
X507868Y77171D01*
X507439Y77274D01*
X507000Y77309D01*
X506561Y77274D01*
X506132Y77171D01*
X505725Y77003D01*
X505349Y76772D01*
X505030Y76500D01*
X504500D01*
Y108500D01*
G37*
G36*
X542276Y136500D02*X553500D01*
Y135159D01*
X553404Y135120D01*
X553299Y135055D01*
X553194Y135120D01*
X552976Y135210D01*
X552746Y135265D01*
X552511Y135279D01*
X550937D01*
X550702Y135265D01*
X550472Y135210D01*
X550254Y135120D01*
X550053Y134996D01*
X549873Y134843D01*
X549720Y134663D01*
X549596Y134462D01*
X549506Y134244D01*
X549451Y134014D01*
X549437Y133779D01*
Y127779D01*
X549451Y127544D01*
X549506Y127314D01*
X549596Y127096D01*
X549720Y126895D01*
X549724Y126890D01*
Y125940D01*
X549628Y125963D01*
X549000Y126012D01*
X548372Y125963D01*
X547964Y125865D01*
X547425Y126403D01*
Y126890D01*
X547429Y126895D01*
X547553Y127096D01*
X547643Y127314D01*
X547698Y127544D01*
X547712Y127779D01*
Y133779D01*
X547698Y134014D01*
X547643Y134244D01*
X547553Y134462D01*
X547429Y134663D01*
X547276Y134843D01*
X547096Y134996D01*
X546895Y135120D01*
X546677Y135210D01*
X546447Y135265D01*
X546212Y135279D01*
X544638D01*
X544403Y135265D01*
X544173Y135210D01*
X543955Y135120D01*
X543754Y134996D01*
X543574Y134843D01*
X543421Y134663D01*
X543297Y134462D01*
X543207Y134244D01*
X543152Y134014D01*
X543138Y133779D01*
Y127779D01*
X543152Y127544D01*
X543207Y127314D01*
X543297Y127096D01*
X543421Y126895D01*
X543425Y126890D01*
Y125653D01*
X543419Y125575D01*
X543444Y125261D01*
X543499Y125029D01*
X543517Y124955D01*
X543552Y124870D01*
X543637Y124664D01*
X543802Y124396D01*
X543802Y124396D01*
X544006Y124156D01*
X544066Y124105D01*
X545135Y123036D01*
X545037Y122628D01*
X544988Y122000D01*
X545037Y121372D01*
X545184Y120760D01*
X545425Y120178D01*
X545754Y119642D01*
X546163Y119163D01*
X546575Y118811D01*
Y97110D01*
X546571Y97105D01*
X546447Y96904D01*
X546357Y96686D01*
X546302Y96456D01*
X546288Y96221D01*
Y90221D01*
X546302Y89986D01*
X546357Y89756D01*
X546447Y89538D01*
X546571Y89337D01*
X546724Y89157D01*
X546904Y89004D01*
X547105Y88880D01*
X547323Y88790D01*
X547553Y88735D01*
X547788Y88721D01*
X549362D01*
X549597Y88735D01*
X549827Y88790D01*
X550045Y88880D01*
X550150Y88945D01*
X550255Y88880D01*
X550473Y88790D01*
X550703Y88735D01*
X550938Y88721D01*
X552512D01*
X552747Y88735D01*
X552977Y88790D01*
X553195Y88880D01*
X553300Y88944D01*
X553374Y88899D01*
Y79000D01*
X542276D01*
Y88721D01*
X543063D01*
X543298Y88735D01*
X543528Y88790D01*
X543746Y88880D01*
X543947Y89004D01*
X544127Y89157D01*
X544280Y89337D01*
X544404Y89538D01*
X544494Y89756D01*
X544549Y89986D01*
X544563Y90221D01*
Y96221D01*
X544549Y96456D01*
X544494Y96686D01*
X544404Y96904D01*
X544280Y97105D01*
X544127Y97285D01*
X543947Y97438D01*
X543746Y97562D01*
X543528Y97652D01*
X543298Y97707D01*
X543063Y97721D01*
X542276D01*
Y136500D01*
G37*
G36*
X535996Y126279D02*X536763D01*
X536998Y126293D01*
X537228Y126348D01*
X537446Y126438D01*
X537551Y126503D01*
X537656Y126438D01*
X537874Y126348D01*
X538104Y126293D01*
X538339Y126279D01*
X539913D01*
X540148Y126293D01*
X540378Y126348D01*
X540596Y126438D01*
X540797Y126562D01*
X540977Y126715D01*
X541130Y126895D01*
X541254Y127096D01*
X541344Y127314D01*
X541399Y127544D01*
X541413Y127779D01*
Y133779D01*
X541399Y134014D01*
X541344Y134244D01*
X541254Y134462D01*
X541130Y134663D01*
X540977Y134843D01*
X540797Y134996D01*
X540626Y135101D01*
Y136500D01*
X542276D01*
Y97721D01*
X541489D01*
X541254Y97707D01*
X541024Y97652D01*
X540806Y97562D01*
X540605Y97438D01*
X540425Y97285D01*
X540272Y97105D01*
X540148Y96904D01*
X540058Y96686D01*
X540003Y96456D01*
X539989Y96221D01*
Y90221D01*
X540003Y89986D01*
X540058Y89756D01*
X540148Y89538D01*
X540272Y89337D01*
X540425Y89157D01*
X540605Y89004D01*
X540806Y88880D01*
X541024Y88790D01*
X541254Y88735D01*
X541489Y88721D01*
X542276D01*
Y79000D01*
X535996D01*
Y84192D01*
X536000Y84191D01*
X536439Y84226D01*
X536868Y84329D01*
X537275Y84497D01*
X537651Y84728D01*
X537986Y85014D01*
X538272Y85349D01*
X538503Y85725D01*
X538671Y86132D01*
X538774Y86561D01*
X538800Y87000D01*
X538774Y87439D01*
X538671Y87868D01*
X538503Y88275D01*
X538272Y88651D01*
X537986Y88986D01*
X537807Y89139D01*
X537828Y89157D01*
X537981Y89337D01*
X538105Y89538D01*
X538195Y89756D01*
X538250Y89986D01*
X538264Y90221D01*
Y96221D01*
X538250Y96456D01*
X538195Y96686D01*
X538105Y96904D01*
X537981Y97105D01*
X537828Y97285D01*
X537648Y97438D01*
X537447Y97562D01*
X537229Y97652D01*
X536999Y97707D01*
X536764Y97721D01*
X535996D01*
Y126279D01*
G37*
G36*
X523721Y123810D02*Y122236D01*
X523735Y122001D01*
X523790Y121771D01*
X523880Y121553D01*
X523944Y121449D01*
X523880Y121344D01*
X523790Y121126D01*
X523735Y120896D01*
X523721Y120661D01*
Y119087D01*
X523735Y118852D01*
X523790Y118622D01*
X523880Y118404D01*
X523945Y118299D01*
X523880Y118194D01*
X523790Y117976D01*
X523735Y117746D01*
X523721Y117511D01*
Y115937D01*
X523735Y115702D01*
X523790Y115472D01*
X523880Y115254D01*
X523944Y115150D01*
X523880Y115045D01*
X523790Y114827D01*
X523735Y114597D01*
X523721Y114362D01*
Y112788D01*
X523735Y112553D01*
X523790Y112323D01*
X523880Y112105D01*
X523945Y112000D01*
X523945Y112000D01*
X518059D01*
X518000Y112005D01*
X517765Y111986D01*
X517535Y111931D01*
X517317Y111841D01*
X517116Y111717D01*
X516936Y111564D01*
X516783Y111384D01*
X516659Y111183D01*
X516569Y110965D01*
X516514Y110735D01*
X516514Y110735D01*
X516495Y110500D01*
X516500Y110441D01*
Y79000D01*
X513000D01*
Y136500D01*
X534476D01*
Y135101D01*
X534305Y134996D01*
X534125Y134843D01*
X533972Y134663D01*
X533848Y134462D01*
X533758Y134244D01*
X533703Y134014D01*
X533689Y133779D01*
Y127779D01*
X533703Y127544D01*
X533758Y127314D01*
X533848Y127096D01*
X533972Y126895D01*
X534125Y126715D01*
X534305Y126562D01*
X534506Y126438D01*
X534724Y126348D01*
X534954Y126293D01*
X535189Y126279D01*
X535996D01*
Y97721D01*
X535190D01*
X534955Y97707D01*
X534725Y97652D01*
X534507Y97562D01*
X534306Y97438D01*
X534126Y97285D01*
X533973Y97105D01*
X533849Y96904D01*
X533759Y96686D01*
X533704Y96456D01*
X533690Y96221D01*
Y90221D01*
X533704Y89986D01*
X533759Y89756D01*
X533849Y89538D01*
X533973Y89337D01*
X534126Y89157D01*
X534170Y89119D01*
X534014Y88986D01*
X533728Y88651D01*
X533497Y88275D01*
X533329Y87868D01*
X533226Y87439D01*
X533191Y87000D01*
X533226Y86561D01*
X533329Y86132D01*
X533497Y85725D01*
X533728Y85349D01*
X534014Y85014D01*
X534349Y84728D01*
X534725Y84497D01*
X535132Y84329D01*
X535561Y84226D01*
X535996Y84192D01*
Y79000D01*
X525000D01*
Y94530D01*
X525014Y94514D01*
X525349Y94228D01*
X525725Y93997D01*
X526132Y93829D01*
X526561Y93726D01*
X527000Y93691D01*
X527439Y93726D01*
X527868Y93829D01*
X528275Y93997D01*
X528651Y94228D01*
X528986Y94514D01*
X529272Y94849D01*
X529503Y95225D01*
X529671Y95632D01*
X529774Y96061D01*
X529800Y96500D01*
X529774Y96939D01*
X529671Y97368D01*
X529503Y97775D01*
X529272Y98151D01*
X528986Y98486D01*
X528748Y98689D01*
X531221D01*
X531456Y98703D01*
X531686Y98758D01*
X531904Y98848D01*
X532105Y98972D01*
X532285Y99125D01*
X532438Y99305D01*
X532562Y99506D01*
X532652Y99724D01*
X532707Y99954D01*
X532721Y100189D01*
Y101763D01*
X532707Y101998D01*
X532652Y102228D01*
X532562Y102446D01*
X532497Y102551D01*
X532562Y102656D01*
X532652Y102874D01*
X532707Y103104D01*
X532721Y103339D01*
Y104913D01*
X532707Y105148D01*
X532652Y105378D01*
X532562Y105596D01*
X532498Y105700D01*
X532562Y105805D01*
X532652Y106023D01*
X532707Y106253D01*
X532721Y106488D01*
Y108062D01*
X532707Y108297D01*
X532652Y108527D01*
X532562Y108745D01*
X532497Y108850D01*
X532562Y108955D01*
X532652Y109173D01*
X532707Y109403D01*
X532721Y109638D01*
Y111212D01*
X532707Y111447D01*
X532652Y111677D01*
X532562Y111895D01*
X532497Y112000D01*
X532562Y112105D01*
X532652Y112323D01*
X532707Y112553D01*
X532721Y112788D01*
Y114362D01*
X532707Y114597D01*
X532652Y114827D01*
X532562Y115045D01*
X532498Y115149D01*
X532562Y115254D01*
X532652Y115472D01*
X532707Y115702D01*
X532721Y115937D01*
Y117511D01*
X532707Y117746D01*
X532652Y117976D01*
X532562Y118194D01*
X532497Y118299D01*
X532562Y118404D01*
X532652Y118622D01*
X532707Y118852D01*
X532721Y119087D01*
Y120661D01*
X532707Y120896D01*
X532652Y121126D01*
X532562Y121344D01*
X532498Y121449D01*
X532562Y121553D01*
X532652Y121771D01*
X532707Y122001D01*
X532721Y122236D01*
Y123810D01*
X532707Y124045D01*
X532652Y124275D01*
X532562Y124493D01*
X532438Y124694D01*
X532285Y124874D01*
X532105Y125027D01*
X531904Y125151D01*
X531686Y125241D01*
X531456Y125296D01*
X531221Y125310D01*
X525221D01*
X524986Y125296D01*
X524756Y125241D01*
X524538Y125151D01*
X524337Y125027D01*
X524157Y124874D01*
X524004Y124694D01*
X523880Y124493D01*
X523790Y124275D01*
X523735Y124045D01*
X523721Y123810D01*
G37*
G54D12*X529000Y186000D02*X515543D01*
X508457D02*X486937D01*
X486795Y185858D01*
X461205D01*
X486795Y168142D02*X461205D01*
G54D13*X508000Y180000D02*Y186000D01*
X531543Y163000D02*X538000D01*
X524457D02*Y152043D01*
X528000Y148500D01*
X544457Y163000D02*X538000D01*
X551543D02*Y152843D01*
X547200Y148500D01*
X565779Y110425D02*X610425D01*
X612000Y112000D01*
X610976Y123024D02*X612000Y122000D01*
X572874Y119874D02*X573000Y120000D01*
X565779Y116725D02*X577725D01*
X578000Y117000D01*
X612000Y142000D02*X559000D01*
X565779Y123024D02*X610976D01*
X558023Y130779D02*X610779D01*
X612000Y132000D01*
X565779Y119874D02*X572874D01*
X518000Y110500D02*X528146D01*
X528221Y110425D01*
X535976Y130779D02*Y140524D01*
X528000Y148500D01*
X539126Y130779D02*Y140426D01*
X547200Y148500D01*
G54D14*X459086Y124000D02*X467000D01*
G54D12*X273000Y70000D02*Y78457D01*
X327000D02*Y70000D01*
X127977Y175000D02*X117500D01*
X130000Y132000D02*Y151400D01*
X129400Y152000D01*
X154000Y114000D02*Y128000D01*
X150000Y132000D01*
X130000D01*
X154000Y53138D02*X154138Y53000D01*
X144138Y43000D02*X154138Y33000D01*
Y24181D01*
X153957Y24000D01*
X161043D02*X169000D01*
X34000Y63000D02*Y47500D01*
X77000Y63000D02*Y47500D01*
X111543Y70543D02*X111000Y70000D01*
X110543Y79000D02*Y70543D01*
X110000Y70000D01*
X103457Y79000D02*X84000D01*
X83500Y78500D01*
X127000Y96543D02*X82957D01*
G54D14*X143750Y97500D02*X127957D01*
X127000Y96543D01*
G54D12*X82957D02*X81000Y98500D01*
X127000Y89457D02*Y82500D01*
G54D14*X143750Y92500D02*X153000D01*
X154000Y91500D01*
X143500Y87250D02*X143750Y87500D01*
X164250D02*Y78207D01*
X166457Y76000D01*
X154000Y91500D02*Y53138D01*
X110000Y70000D02*X137000D01*
X143500Y76500D01*
Y87250D01*
G54D13*X559000Y142000D02*X555000Y138000D01*
Y130905D01*
X554874Y130779D01*
G54D15*X545425D02*Y125575D01*
X549000Y122000D01*
X551724Y130779D02*Y124724D01*
X549000Y122000D01*
G54D13*X565779Y113575D02*X559425D01*
X558000Y115000D01*
G54D15*X548575Y93221D02*Y121575D01*
G54D14*X549000Y122000D01*
G54D13*X565779Y100977D02*Y60779D01*
X554000Y49000D01*
X558024Y93221D02*Y57024D01*
X552500Y51500D01*
X554874Y93221D02*Y58374D01*
X554000Y49000D02*X512614D01*
X552500Y51500D02*X512673D01*
X512614Y51559D01*
Y56677D02*X533177D01*
X554874Y58374D02*X550500Y54000D01*
X533177Y56677D02*X542500Y66000D01*
Y85500D01*
X527000Y96500D02*X523500D01*
X512614Y72000D02*X516500D01*
X520500Y76000D01*
X550500Y54000D02*X512732D01*
X512614Y77118D02*X517118D01*
X520500Y69500D02*X512673D01*
X512614Y69441D01*
Y74559D02*X507059D01*
X507000Y74500D01*
X512604Y64333D02*X512614Y64323D01*
X517118Y77118D02*X518000Y78000D01*
X523500Y101000D02*Y72500D01*
X520500Y69500D01*
Y103000D02*X521500Y104000D01*
X528221Y100976D02*X523524D01*
X523500Y101000D01*
X536000Y87000D02*Y93198D01*
X535977Y93221D01*
X521500Y104000D02*X528095D01*
X528221Y104126D01*
X518000Y78000D02*Y110500D01*
X520500Y76000D02*Y103000D01*
X512732Y54000D02*X512614Y54118D01*
X489386Y56677D02*X499823D01*
X501000Y55500D01*
G54D14*X477000Y48500D02*X474500Y51000D01*
X467611D01*
X467217Y51394D01*
X489386Y64323D02*X493823D01*
X495000Y65500D01*
G54D13*X489327Y74500D02*X489386Y74559D01*
Y72000D02*X495000D01*
X489327Y69500D02*X489386Y69441D01*
X501001Y64333D02*X512604D01*
X467217Y75394D02*X479606D01*
X480500Y74500D01*
X489327D01*
X467217Y71394D02*X484106D01*
X486000Y69500D01*
X489327D01*
X489386Y77118D02*X483882D01*
X482500Y78500D01*
X495000Y85000D02*X500985D01*
X495000Y80000D02*Y85000D01*
X494677Y79677D02*X495000Y80000D01*
X489386Y79677D02*X494677D01*
X500985Y85000D02*X501007Y85022D01*
Y64339D01*
X501001Y64333D01*
X467611Y63000D02*X467217Y63394D01*
X482500Y67000D02*X467611D01*
X467217Y67394D01*
X467805Y62805D02*X481195D01*
X482500Y61500D01*
X473500Y59000D02*X481000D01*
X489386Y49000D02*X481500D01*
X489386Y51559D02*X483441D01*
X482500Y52500D01*
X481500Y49000D02*X475000Y55500D01*
X467323D01*
X467217Y55394D01*
X481000Y59000D02*X486000Y54000D01*
X489268D01*
X489386Y54118D01*
G54D14*X400500Y35500D02*X409095D01*
G54D13*X394000Y55914D02*Y42000D01*
X400500Y35500D01*
G54D14*X409095D02*X409225Y35370D01*
X477000Y45000D02*Y48500D01*
G54D13*Y36586D02*Y45000D01*
X467217Y43394D02*Y32783D01*
X470500Y29500D01*
X477000D01*
X500970Y35500D02*X500981Y35489D01*
Y41185D01*
X512613Y41322D02*X512614Y41323D01*
X500981Y41185D02*X501035Y41239D01*
Y41268D01*
X500981Y41322D01*
X512613D01*
X501000Y55500D02*Y36538D01*
X500981Y36519D01*
X495000Y35500D02*X500970D01*
X489386Y41323D02*X493823D01*
X495000Y42500D01*
X402000Y71500D02*X409095D01*
X394000Y63000D02*Y71500D01*
X402000D01*
X444000Y87500D02*Y93619D01*
X443737Y93882D01*
X444000Y87500D02*X455000D01*
Y97457D01*
X460000Y102457D01*
G54D14*X445786Y114300D02*X450543Y109543D01*
G54D13*X460000D02*X450629D01*
X450586Y109500D01*
G54D12*X438000Y134300D02*X450300D01*
X451000Y135000D01*
X438500Y134300D02*X426700D01*
X426000Y135000D01*
X438000Y134300D02*Y145000D01*
X439500Y146500D01*
X438000Y124300D02*X450200D01*
X450500Y124000D01*
G54D14*X438000Y114300D02*X445786D01*
G54D12*X438000Y124300D02*X425200D01*
X425000Y124500D01*
G54D13*X427737Y93882D02*Y114763D01*
X425500Y117000D01*
G54D14*X445043Y150500D02*X452500D01*
G54D13*X409000Y167000D02*Y160000D01*
X435346D01*
X461205Y185858D01*
X409095Y71500D02*X409225Y71370D01*
X406559Y101000D02*Y86036D01*
X409225Y83370D01*
X401441Y117000D02*X394043D01*
X425500D02*X406559D01*
X401441Y109000D02*X394086D01*
X401441Y101000D02*X394086D01*
X423737Y93882D02*Y106763D01*
X421500Y109000D01*
X406559D01*
G54D14*X419737Y93882D02*Y96763D01*
X415000Y101500D01*
X387000Y109000D02*X379000D01*
X387000Y101000D02*X382000D01*
X379000Y104000D01*
Y109000D01*
X386957Y117000D02*X382000D01*
X379000Y114000D01*
Y109000D01*
G54D11*G36*
X285500Y86500D02*Y77500D01*
X294500D01*
Y86500D01*
X285500D01*
G37*
G54D16*X300000Y82000D03*
X310000D03*
X164000Y114000D03*
G54D11*G36*
X240000Y85000D02*Y79000D01*
X246000D01*
Y85000D01*
X240000D01*
G37*
G54D17*X243000Y92000D03*
G54D18*Y38567D03*
G54D19*Y14157D03*
G54D20*X256780Y18094D03*
G54D11*G36*
X576000Y189000D02*Y183000D01*
X582000D01*
Y189000D01*
X576000D01*
G37*
G54D17*X569000Y186000D03*
X559000D03*
X549000D03*
X539000D03*
X547200Y148500D03*
G54D11*G36*
X609000Y115000D02*Y109000D01*
X615000D01*
Y115000D01*
X609000D01*
G37*
G54D17*X612000Y122000D03*
Y132000D03*
Y142000D03*
X529000Y186000D03*
G54D21*X461205Y185858D03*
X486795D03*
G54D11*G36*
X405700Y190300D02*Y183700D01*
X412300D01*
Y190300D01*
X405700D01*
G37*
G54D22*X409000Y177000D03*
Y167000D03*
X419000Y187000D03*
Y177000D03*
Y167000D03*
G54D11*G36*
X433500Y118800D02*Y109800D01*
X442500D01*
Y118800D01*
X433500D01*
G37*
G54D16*X438000Y124300D03*
Y134300D03*
G54D21*X461205Y168142D03*
X486795D03*
G54D11*G36*
X324000Y189000D02*Y183000D01*
X330000D01*
Y189000D01*
X324000D01*
G37*
G54D17*X337000Y186000D03*
G54D11*G36*
X235000Y189000D02*Y183000D01*
X241000D01*
Y189000D01*
X235000D01*
G37*
G54D17*X248000Y186000D03*
G54D11*G36*
X525000Y151500D02*Y145500D01*
X531000D01*
Y151500D01*
X525000D01*
G37*
G36*
X106400Y53600D02*Y46400D01*
X113600D01*
Y53600D01*
X106400D01*
G37*
G54D23*X110000Y60000D03*
Y70000D03*
G54D11*G36*
X139500Y118500D02*Y109500D01*
X148500D01*
Y118500D01*
X139500D01*
G37*
G54D16*X154000Y114000D03*
G54D21*X154138Y53000D03*
Y33000D03*
X144138Y43000D03*
G54D24*X44488Y152000D02*X45000D01*
X105000D02*X105512D01*
G54D25*X129400Y153900D02*Y150100D01*
G54D26*X127977Y177755D02*Y172245D01*
G54D25*X150600Y153900D02*Y150100D01*
G54D27*X168922Y152000D02*X177977D01*
X200023D02*X209078D01*
G54D26*X150023Y177755D02*Y172245D01*
G54D28*X126607Y89457D02*X127393D01*
X126607Y96543D02*X127393D01*
X110543Y79393D02*Y78607D01*
G54D29*X71400Y86000D02*X82600D01*
X71400Y63000D02*X82600D01*
X28400Y86000D02*X39600D01*
X28400Y63000D02*X39600D01*
G54D28*X103457Y79393D02*Y78607D01*
G54D30*X140600Y102500D02*X146900D01*
X161100D02*X167400D01*
X140600Y97500D02*X146900D01*
X161100D02*X167400D01*
X140600Y92500D02*X146900D01*
X140600Y87500D02*X146900D01*
X161100D02*X167400D01*
X161100Y92500D02*X167400D01*
G54D31*X459737Y96047D02*Y91717D01*
X447737Y96047D02*Y91717D01*
X443737Y96047D02*Y91717D01*
X439737Y96047D02*Y91717D01*
X435737Y96047D02*Y91717D01*
G54D28*X173543Y76393D02*Y75607D01*
X166457Y76393D02*Y75607D01*
G54D26*X192245Y85977D02*X197755D01*
G54D28*X272607Y78457D02*X273393D01*
X272607Y85543D02*X273393D01*
X459607Y109543D02*X460393D01*
X450150D02*X450936D01*
G54D26*X192245Y108023D02*X197755D01*
G54D28*X459086Y124393D02*Y123607D01*
X452000Y124393D02*Y123607D01*
G54D32*X487083Y49000D02*X491689D01*
X487083Y46441D02*X491689D01*
X487083Y43882D02*X491689D01*
X487083Y41323D02*X491689D01*
X487083Y56677D02*X491689D01*
X487083Y54118D02*X491689D01*
X487083Y51559D02*X491689D01*
X510311Y41323D02*X514917D01*
G54D28*X161043Y24393D02*Y23607D01*
X153957Y24393D02*Y23607D01*
G54D32*X510311Y43882D02*X514917D01*
X510311Y46441D02*X514917D01*
X510311Y49000D02*X514917D01*
X510311Y51559D02*X514917D01*
X510311Y54118D02*X514917D01*
X510311Y56677D02*X514917D01*
G54D31*X431737Y96047D02*Y91717D01*
X427737Y96047D02*Y91717D01*
G54D28*X326607Y78457D02*X327393D01*
X326607Y85543D02*X327393D01*
X459607Y102457D02*X460393D01*
X450150D02*X450936D01*
X387000Y101393D02*Y100607D01*
X394086Y101393D02*Y100607D01*
G54D33*X401441Y101492D02*Y100508D01*
X406559Y101492D02*Y100508D01*
G54D28*X386957Y117393D02*Y116607D01*
X394043Y117393D02*Y116607D01*
X387000Y109393D02*Y108607D01*
X394086Y109393D02*Y108607D01*
G54D33*X401441Y117492D02*Y116508D01*
Y109492D02*Y108508D01*
X406559Y117492D02*Y116508D01*
Y109492D02*Y108508D01*
G54D32*X487083Y79677D02*X491689D01*
X487083Y77118D02*X491689D01*
X487083Y74559D02*X491689D01*
X487083Y72000D02*X491689D01*
X487083Y69441D02*X491689D01*
X487083Y66882D02*X491689D01*
X487083Y64323D02*X491689D01*
X510311D02*X514917D01*
X510311Y66882D02*X514917D01*
X510311Y69441D02*X514917D01*
X510311Y72000D02*X514917D01*
X510311Y74559D02*X514917D01*
X510311Y77118D02*X514917D01*
X510311Y79677D02*X514917D01*
G54D31*X423737Y96047D02*Y91717D01*
X419737Y96047D02*Y91717D01*
X407060Y83370D02*X411390D01*
X407060Y79370D02*X411390D01*
X407060Y75370D02*X411390D01*
X407060Y71370D02*X411390D01*
X407060Y55370D02*X411390D01*
X407060Y47370D02*X411390D01*
X407060Y43370D02*X411390D01*
G54D28*X393607Y55914D02*X394393D01*
X393607Y63000D02*X394393D01*
X393607Y71500D02*X394393D01*
X393607Y78586D02*X394393D01*
G54D31*X407060Y39370D02*X411390D01*
X407060Y35370D02*X411390D01*
X465052Y79394D02*X469382D01*
G54D28*X445043Y150893D02*Y150107D01*
X437957Y150893D02*Y150107D01*
G54D31*X465052Y75394D02*X469382D01*
X465052Y71394D02*X469382D01*
X465052Y67394D02*X469382D01*
X465052Y63394D02*X469382D01*
X465052Y59394D02*X469382D01*
X465052Y55394D02*X469382D01*
X465052Y51394D02*X469382D01*
X465052Y47394D02*X469382D01*
X465052Y43394D02*X469382D01*
G54D28*X476607Y29500D02*X477393D01*
X476607Y36586D02*X477393D01*
X508457Y186393D02*Y185607D01*
X515543Y186393D02*Y185607D01*
X524457Y163393D02*Y162607D01*
X531543Y163393D02*Y162607D01*
X551543Y163393D02*Y162607D01*
X544457Y163393D02*Y162607D01*
G54D34*X558023Y132992D02*Y128566D01*
X554874Y132992D02*Y128566D01*
X551724Y132992D02*Y128566D01*
X548575Y132992D02*Y128566D01*
X545425Y132992D02*Y128566D01*
X542275Y132992D02*Y128566D01*
X539126Y132992D02*Y128566D01*
X535976Y132992D02*Y128566D01*
X526008Y123023D02*X530434D01*
X526008Y119874D02*X530434D01*
X526008Y116724D02*X530434D01*
X526008Y113575D02*X530434D01*
X526008Y110425D02*X530434D01*
X526008Y107275D02*X530434D01*
X526008Y104126D02*X530434D01*
X526008Y100976D02*X530434D01*
X535977Y95434D02*Y91008D01*
X539126Y95434D02*Y91008D01*
X542276Y95434D02*Y91008D01*
X545425Y95434D02*Y91008D01*
X548575Y95434D02*Y91008D01*
X551725Y95434D02*Y91008D01*
X554874Y95434D02*Y91008D01*
X558024Y95434D02*Y91008D01*
X563566Y100977D02*X567992D01*
X563566Y104126D02*X567992D01*
X563566Y107276D02*X567992D01*
X563566Y110425D02*X567992D01*
X563566Y113575D02*X567992D01*
X563566Y116725D02*X567992D01*
X563566Y119874D02*X567992D01*
X563566Y123024D02*X567992D01*
G54D17*X117500Y175000D03*
X223000Y144000D03*
X236000D03*
Y152000D03*
Y160000D03*
X223000Y152000D03*
Y160000D03*
G54D35*X538000Y163000D03*
X508000Y180000D03*
G54D17*X452500Y150500D03*
G54D35*X573000Y120000D03*
G54D17*X549000Y122000D03*
X467000Y124000D03*
G54D35*X578000Y117000D03*
X558000Y115000D03*
G54D17*X379000Y109000D03*
X190000Y76000D03*
X199000D03*
X208000D03*
Y85000D03*
X181000Y76000D03*
X169000Y24000D03*
X77000Y47500D03*
X34000D03*
X273000Y70000D03*
X127000Y82500D03*
X327000Y70000D03*
G54D35*X402000Y71500D03*
G54D17*X400500Y35500D03*
X415000Y101500D03*
G54D35*X495000Y42500D03*
X482500Y52500D03*
G54D17*X477000Y45000D03*
G54D35*X495000Y35500D03*
Y65500D03*
Y72000D03*
X482500Y78500D03*
Y67000D03*
Y61500D03*
X507000Y74500D03*
X473500Y59000D03*
X444000Y87500D03*
X536000Y87000D03*
X495000Y85000D03*
X521500Y104000D03*
X527000Y96500D03*
G54D36*G54D15*G54D36*G54D15*G54D36*G54D15*G54D36*G54D15*G54D36*G54D15*G54D36*G54D15*G54D17*G54D37*G54D38*G54D39*G54D40*G54D41*G54D39*G54D41*G54D42*G54D39*G54D41*G54D43*G54D44*G54D17*G54D43*G54D41*G54D42*G54D45*G54D39*G54D17*G54D43*M02*
